<?xml version="1.0" encoding="UTF-8"?>
<svg width="256px" height="256px" viewBox="0 0 256 256" version="1.1" xmlns="http://www.w3.org/2000/svg" xmlns:xlink="http://www.w3.org/1999/xlink">
    <!-- Generator: Sketch 48.2 (47327) - http://www.bohemiancoding.com/sketch -->
    <title>Mac_256</title>
    <desc>Created with Sketch.</desc>
    <defs>
        <polygon id="path-1" points="0 0.148829811 239.973383 0.148829811 239.973383 224.072919 0 224.072919"></polygon>
    </defs>
    <g id="Page-1" stroke="none" stroke-width="1" fill="none" fill-rule="evenodd">
        <g id="Mac_256">
            <g id="Page-1-Copy-3" transform="translate(8.000000, 4.000000)">
                <path d="M177.870564,249 L177.870564,241.94531 C149.315819,241.319509 125.658817,220.747093 120.186639,193.542275 C120.068983,193.176947 119.861055,192.845614 119.608743,193.558743 C113.812637,220.195778 90.2209321,241.134125 62.1294363,241.937 L62.1294363,249 L177.870564,249 Z" id="Fill-1" fill="#585AFA"></path>
                <path d="M84.0210493,103.115823 C80.2938217,98.2456454 77.8510934,93.5050989 76.7284907,88.9353883 C76.5177396,88.0775995 77.199148,87.2422178 78.2500473,87.07063 C79.3000447,86.9003956 80.3241867,87.4541085 80.5346372,88.3120477 C82.2562721,95.3205313 87.4145627,102.849343 95.8815851,110.727044 C96.8738589,111.555809 97.8192324,112.415102 98.7444627,113.308832 C108.317553,121.610616 114.439405,130.249861 117.904472,141.534055 L117.904472,118.918747 C117.904472,106.353885 117.919203,85.3240733 108.520186,73.3156312 C107.943101,72.5786005 108.215183,71.5990008 109.118467,71.1278486 C110.022652,70.6575987 111.210344,70.8733993 111.78773,71.6101292 C114.498783,75.0737674 116.438384,79.184958 117.904472,83.5945099 L117.904472,61.6951792 C117.904472,60.8202466 118.765064,60.1110369 119.836858,60.1110369 C120.908802,60.1110369 121.769244,60.8202466 121.769244,61.6951792 L121.769244,83.5945099 C123.235332,79.184958 125.209357,75.0737674 127.92041,71.6101292 C128.497946,70.8726474 129.709389,70.6575987 130.612672,71.1278486 C131.515805,71.5990008 131.763235,72.5786005 131.186149,73.3156312 C121.786681,85.3240733 121.769244,106.353885 121.769244,118.918747 L121.769244,141.534205 C125.367646,130.249861 131.394345,121.610616 140.967435,113.308832 C141.892214,112.415703 142.863443,111.556862 143.855116,110.728699 C152.323792,102.849794 157.488546,95.3203809 159.20973,88.3120477 C159.420782,87.4541085 160.444773,86.9011475 161.497176,87.07063 C162.548226,87.2422178 163.230987,88.0775995 163.020085,88.9353883 C161.897633,93.5047981 159.455506,98.2456454 155.727677,103.116274 C160.937077,100.581255 166.795717,98.5894226 173.361169,97.1085939 C169.569754,88.6947743 162.346193,81.3912378 154.543442,76.7956612 C157.104624,95.4223411 139.594096,110.484926 130.549838,114.746651 C130.244233,114.890418 129.910519,114.958692 129.581315,114.958692 C128.910429,114.958692 128.258333,114.674617 127.898613,114.166621 C127.362866,113.408687 127.680646,112.440216 128.609034,112.002449 C136.103775,108.470687 147.382265,98.3918184 150.216882,86.0451633 C150.15495,85.9567376 150.101285,85.8628982 150.059946,85.7625922 C148.661503,82.3723413 146.083635,79.4085786 142.912448,76.3616538 C136.821712,80.1036523 132.629539,88.9592993 132.800605,97.5965892 C136.490102,94.9675807 139.594246,88.3994207 140.543377,84.9141272 C140.775925,84.0594964 141.814648,83.5241303 142.858933,83.7113581 C143.905323,83.900992 144.564785,84.7470509 144.332086,85.6009297 C144.293754,85.744095 140.065805,99.9410716 131.511746,101.709885 C131.35436,101.742368 131.194267,101.758609 131.035076,101.758609 C130.638978,101.758609 130.248442,101.659657 129.918336,101.470173 C129.455495,101.204145 129.157858,100.787281 129.103291,100.326956 C127.869451,89.9211537 132.719281,78.8483992 140.349162,73.9771692 C139.739908,73.4237571 139.116974,72.8635777 138.483068,72.2939241 C131.53685,66.0495402 123.822338,59.1144439 119.87504,48.0965795 C115.92744,59.1142935 108.21338,66.0495402 101.267162,72.2934729 C100.633255,72.8632769 100.010172,73.4236067 99.4009178,73.9770189 C107.030798,78.8480984 111.880779,89.9210033 110.646938,100.326956 C110.592522,100.787281 110.294885,101.204145 109.831894,101.470173 C109.501487,101.659657 109.11065,101.758609 108.715154,101.758609 C108.555963,101.758609 108.39557,101.742368 108.238483,101.709885 C99.6845749,99.9410716 95.4564752,85.744095 95.4181432,85.6009297 C95.1852948,84.7470509 95.8450569,83.900992 96.8912963,83.7113581 C97.9417446,83.5233784 98.9743046,84.0594964 99.2068524,84.9141272 C100.155984,88.3994207 103.260128,94.9675807 106.949474,97.5965892 C107.120691,88.9592993 102.928368,80.1035019 96.8376314,76.3615034 C93.6664439,79.4085786 91.0887267,82.3723413 89.6902835,85.7625922 C89.6487947,85.8630486 89.5952802,85.956888 89.5331973,86.045464 C92.3675138,98.3919687 103.646004,108.470687 111.141196,112.002449 C112.069433,112.440216 112.387363,113.408687 111.851617,114.166621 C111.492197,114.674617 110.839801,114.958692 110.168915,114.958692 C109.83941,114.958692 109.505996,114.890418 109.200242,114.746651 C100.155984,110.484926 82.6451544,95.4223411 85.2066369,76.7956612 C77.4037359,81.391689 70.1798743,88.6949247 66.388309,97.1085939 C72.9536111,98.5892722 78.8117997,100.581105 84.0210493,103.115823" id="Fill-3" fill="#585AFA"></path>
                <path d="M140.292276,133.017103 C144.91281,130.010209 150.215944,127.648217 155.421478,125.330288 C163.152299,121.887715 170.624856,118.558446 175.828738,113.359816 C175.815375,113.246512 175.815375,113.13081 175.833243,113.01316 C176.088655,111.322598 176.166134,109.637131 176.087603,107.966801 C159.871738,110.804039 147.594408,122.667052 140.292276,133.017103" id="Fill-5" fill="#585AFA"></path>
                <path d="M84.5787479,125.330288 C89.7839038,127.648217 95.0871087,130.010809 99.7077244,133.017103 C92.4057012,122.666303 80.1297555,110.803889 63.91248,107.966801 C63.8338006,109.637281 63.9112788,111.322598 64.1668368,113.01316 C64.1845547,113.13066 64.1847049,113.246512 64.1711912,113.359666 C69.375146,118.558446 76.8478916,121.887715 84.5787479,125.330288" id="Fill-7" fill="#585AFA"></path>
                <g id="Group-11">
                    <mask id="mask-2" fill="white">
                        <use xlink:href="#path-1"></use>
                    </mask>
                    <g id="Clip-10"></g>
                    <path d="M204.69406,146.600313 C203.544586,155.572234 198.187444,164.722762 190.295865,170.481698 C193.434662,169.996432 196.214361,169.248145 198.37797,168.22826 C199.086992,167.894066 199.977218,167.959671 200.60203,168.390767 C201.227293,168.822014 201.453759,169.527718 201.168496,170.153824 C199.598271,173.598532 196.360526,177.980668 191.208947,181.901764 C191.091053,182.047118 190.943233,182.179832 190.763233,182.290879 C190.637519,182.368521 190.509549,182.442553 190.380526,182.514929 C183.291654,187.638129 172.825188,191.824804 158.403534,191.825707 C157.637519,191.825707 156.864436,191.81382 156.076165,191.789895 C155.004286,191.756792 154.168195,191.021445 154.208496,190.146162 C154.248346,189.271631 155.16609,188.585939 156.221128,188.621751 C166.44203,188.934427 174.587744,187.03324 180.895714,184.154148 C175.179925,183.761873 169.135865,181.66357 165.371053,179.889379 C164.442632,179.451511 164.124436,178.481733 164.660526,177.724116 C165.196617,176.966651 166.383534,176.707391 167.312707,177.143754 C172.967895,179.810081 183.036015,182.684358 188.092707,179.950921 C191.272406,177.612618 193.676316,175.076598 195.372105,172.711662 C180.658271,176.532395 155.345188,173.678883 147.067895,164.604041 C146.680075,164.179264 146.578271,163.623579 146.796466,163.12432 C147.014812,162.625211 147.524286,162.248284 148.154361,162.119933 C155.396316,160.642469 164.395113,159.882445 176.219925,165.454798 C177.148496,165.892666 177.466692,166.861692 176.930602,167.61991 C176.394361,168.377676 175.206391,168.638591 174.278421,168.200423 C165.344135,163.98892 158.42218,163.753434 152.385038,164.617132 C158.858271,169.171255 171.584436,171.420179 182.674361,171.133834 C182.794812,171.033772 182.931955,170.943941 183.088045,170.870361 C185.031053,169.954601 186.86188,168.800647 188.55797,167.462368 C180.841429,160.814305 165.577669,157.035855 151.380075,158.405131 C144.852406,159.033494 134.002632,161.219822 126.342932,168.614667 C129.467744,167.772486 133.199624,167.321227 137.116767,167.55581 C143.036015,167.912574 153.864436,170.267579 159.88203,182.031017 C160.294962,182.839041 159.828045,183.766838 158.838271,184.104192 C158.594211,184.187853 158.340526,184.227276 158.091203,184.227276 C157.331353,184.227276 156.60985,183.860431 156.298421,183.252231 C151.34203,173.56287 142.976316,171.087941 136.831053,170.717033 C129.629398,170.290751 123.028045,172.716176 121.649398,174.580499 C121.642481,174.589828 121.634361,174.598104 121.627444,174.607132 C121.606541,174.634216 121.584737,174.660549 121.56188,174.68658 C121.548195,174.702229 121.53406,174.717577 121.519774,174.732774 C121.496316,174.757451 121.472105,174.781225 121.446842,174.804849 C121.430451,174.820197 121.41391,174.835395 121.396767,174.84999 C121.372256,174.871206 121.346842,174.891821 121.320677,174.911833 C121.300977,174.927181 121.280977,174.942228 121.260376,174.956824 C121.235414,174.974579 121.209549,174.991733 121.183233,175.008586 C121.159774,175.023482 121.136015,175.038228 121.111654,175.052222 C121.088045,175.066065 121.063985,175.079457 121.039323,175.092397 C121.037519,175.0933 121.035414,175.094203 121.033459,175.095256 C121.008045,175.108648 120.98218,175.121288 120.956165,175.133626 C120.940677,175.140999 120.92594,175.149124 120.91015,175.156197 C120.91,175.156197 120.91,175.156197 120.90985,175.156347 C120.905489,175.158303 120.900827,175.159808 120.896466,175.161613 C120.887293,175.165526 120.877669,175.168686 120.868496,175.172598 C120.844887,175.182378 120.821278,175.191557 120.797368,175.200435 C120.777368,175.208109 120.75782,175.216685 120.737368,175.223758 C120.725489,175.22767 120.713459,175.230378 120.701579,175.234441 C120.700075,175.234892 120.698571,175.235344 120.696917,175.235795 C120.674662,175.242867 120.651955,175.249488 120.629248,175.255958 C120.60609,175.262579 120.583684,175.270253 120.560226,175.276272 C120.546842,175.279582 120.533459,175.281538 120.520226,175.284698 C120.497519,175.289964 120.474662,175.294328 120.451955,175.299143 C120.415414,175.306366 120.379023,175.313438 120.342331,175.319005 C120.318722,175.322616 120.295113,175.325174 120.271504,175.328033 C120.243835,175.331344 120.216316,175.335707 120.188647,175.337964 C120.180226,175.338717 120.171504,175.338717 120.163083,175.339469 C120.136466,175.341425 120.109699,175.342177 120.082932,175.343231 C120.054361,175.344434 120.02594,175.34609 119.997519,175.34624 C119.99391,175.34624 119.990451,175.346691 119.986692,175.346691 C119.983083,175.346691 119.979624,175.34624 119.976015,175.34624 C119.947744,175.34609 119.919323,175.344434 119.890902,175.343231 C119.863985,175.342177 119.837218,175.341425 119.810451,175.339469 C119.80203,175.338717 119.793308,175.338717 119.784887,175.337964 C119.757368,175.335707 119.73015,175.331344 119.702632,175.328184 C119.678722,175.325174 119.654812,175.322616 119.631053,175.319005 C119.594812,175.313438 119.559023,175.306516 119.522932,175.299293 C119.499474,175.294478 119.475865,175.289964 119.452556,175.284547 C119.439774,175.281388 119.426692,175.279582 119.413759,175.276272 C119.390602,175.270403 119.368195,175.262729 119.345188,175.256109 C119.32188,175.249488 119.298722,175.242867 119.275714,175.235494 C119.26985,175.233538 119.263534,175.232033 119.257669,175.230077 C119.250752,175.22782 119.243684,175.226165 119.236917,175.223908 C119.216466,175.216986 119.197218,175.20856 119.177368,175.201037 C119.152556,175.191858 119.128195,175.182228 119.103985,175.172146 C119.075113,175.160109 119.046692,175.147469 119.018722,175.134228 C118.991654,175.121588 118.965038,175.108347 118.938872,175.094654 C118.926541,175.088184 118.913308,175.082617 118.901278,175.075846 C118.888346,175.068924 118.876917,175.060949 118.864286,175.053727 C118.838421,175.03868 118.812857,175.023031 118.787744,175.00693 C118.763083,174.991131 118.738872,174.975031 118.715414,174.958479 C118.693308,174.94268 118.671805,174.926579 118.650602,174.910178 C118.62594,174.891069 118.60188,174.871507 118.578571,174.851495 C118.560376,174.835696 118.542632,174.819746 118.525038,174.803345 C118.500827,174.780624 118.477519,174.757602 118.455113,174.733978 C118.440075,174.718028 118.425338,174.702078 118.410902,174.685527 C118.388496,174.659947 118.366992,174.634066 118.346541,174.607433 C118.339474,174.598254 118.331353,174.589978 118.324436,174.580499 C116.94609,172.716176 110.348195,170.293911 103.142782,170.717033 C96.9975188,171.087941 88.6315038,173.56287 83.6752632,183.252231 C83.3638346,183.860431 82.6424812,184.226524 81.8824812,184.227276 C81.6333083,184.227276 81.3800752,184.187853 81.1354135,184.104192 C80.1456391,183.766838 79.6787218,182.839041 80.0918045,182.031017 C86.1092481,170.267579 96.9378195,167.912574 102.856917,167.55581 C106.775113,167.320475 110.505639,167.772486 113.630301,168.613613 C105.97015,161.219822 95.1203759,159.033494 88.5921053,158.404228 C74.3922556,157.037209 59.1315038,160.815058 51.4157143,167.462368 C53.1118045,168.800647 54.9426316,169.954601 56.8856391,170.870361 C57.0418797,170.944092 57.1791729,171.033922 57.2996241,171.134135 C68.3895489,171.420479 81.1155639,169.171706 87.588797,164.617132 C81.5531579,163.753434 74.63,163.990425 65.6949624,168.200423 C64.7662406,168.638591 63.5782707,168.377676 63.0426316,167.61991 C62.5066917,166.861692 62.8245865,165.892666 63.7531579,165.454798 C75.5775188,159.881693 84.5758647,160.640212 91.8193233,162.119933 C92.4492481,162.248284 92.9588722,162.625211 93.1773684,163.12432 C93.3954135,163.623579 93.2934586,164.179264 92.9057895,164.604041 C84.6274436,173.67813 59.3154135,176.534652 44.6014286,172.711662 C46.2996241,175.079758 48.7096992,177.619088 51.8973684,179.959799 C56.9584211,182.679392 67.0118045,179.807072 72.6609774,177.143754 C73.5895489,176.707391 74.7769173,176.966651 75.3131579,177.724116 C75.8492481,178.481733 75.531203,179.451511 74.6026316,179.889379 C70.8397744,181.662968 64.7984211,183.759917 59.0847368,184.153546 C65.3945113,187.032788 73.5399248,188.934126 83.7525564,188.621751 C84.8071429,188.584585 85.7253383,189.270878 85.7653383,190.146162 C85.8054887,191.021445 84.9693985,191.756792 83.8975188,191.789895 C83.1106015,191.81382 82.334812,191.825707 81.5703008,191.825707 C67.1414286,191.825707 56.6727068,187.636022 49.5842857,182.509662 C49.4581203,182.438941 49.3331579,182.366716 49.2103008,182.290879 C49.0315038,182.180584 48.8845865,182.049074 48.7669925,181.904773 C43.6142105,177.982925 40.376015,173.599585 38.805188,170.153824 C38.5199248,169.527718 38.7465414,168.822014 39.3716541,168.390767 C39.9970677,167.959671 40.887594,167.894066 41.5958647,168.22826 C43.7593233,169.247995 46.5390226,169.996432 49.6778195,170.481698 C41.7854887,164.722611 36.4280451,155.57118 35.2791729,146.598809 C35.2373684,146.457066 35.2211278,146.313066 35.2277444,146.170421 C34.7704511,142.127745 35.1728571,138.133069 36.5916541,134.513816 C36.8257895,133.9163 37.4695489,133.487461 38.233609,133.420953 C38.9915038,133.351436 39.7376692,133.660802 40.1221805,134.204149 C41.8110526,136.592107 43.7390226,138.619087 45.8357143,140.335648 C44.5179699,136.824884 43.7585714,133.250019 43.473609,129.715631 C43.4525564,129.624596 43.431203,129.533562 43.4127068,129.441625 C43.3766165,129.261964 43.3809774,129.084861 43.4170677,128.91498 C42.7032331,117.144169 47.1939098,105.917156 53.7433835,99.1454067 C54.228797,98.6422353 55.0370677,98.4302231 55.7925564,98.6013074 C56.5472932,98.7746488 57.1003759,99.3015945 57.194812,99.937029 C57.6515038,103.011581 58.5703008,105.676554 59.857218,108.024337 C59.8868421,107.387096 59.9364662,106.751662 60.0071429,106.118936 C60.0101504,106.068077 60.0166165,106.016767 60.0257895,105.965306 C60.346391,103.222691 61.0447368,100.529128 62.0525564,97.9223871 C62.0618797,97.8716787 62.0739098,97.8208199 62.0895489,97.769961 C62.1256391,97.6531964 62.1779699,97.5433533 62.2420301,97.4402814 C66.7066917,86.357268 76.7303008,76.9050477 86.9802256,72.0743609 C87.6474436,71.7594274 88.4808271,71.796443 89.1017293,72.1703608 C89.722782,72.5433757 90.0142105,73.1810673 89.8450376,73.7951351 C89.2878947,75.8136893 89.0119549,77.8108767 88.9740602,79.7725532 C91.5089474,76.3838198 94.9351128,73.3024965 98.4973684,70.099744 C106.50203,62.9024661 115.574662,54.7445882 118.063835,40.2075374 C118.064586,40.2028729 118.06609,40.1985092 118.066992,40.1939951 C118.073609,40.1577319 118.082632,40.1220705 118.092256,40.0865596 C118.096617,40.0704593 118.100075,40.0539076 118.105188,40.0378074 C118.115865,40.0030488 118.129248,39.9690426 118.142932,39.9351869 C118.149248,39.9193875 118.154662,39.9029863 118.161729,39.8874879 C118.177218,39.8527293 118.195113,39.8190241 118.213459,39.7853188 C118.220677,39.7720775 118.226842,39.7585352 118.234511,39.7455947 C118.258571,39.704366 118.285338,39.6644914 118.313609,39.6252188 C118.316466,39.6213066 118.318722,39.6172439 118.321579,39.6133317 C118.613158,39.2165425 119.113158,38.926286 119.71812,38.8570698 C119.762331,38.8521043 119.806391,38.8501482 119.850451,38.8477406 C119.857218,38.8472892 119.863684,38.8465369 119.870451,38.8462359 C119.919173,38.8439789 119.967594,38.8435275 120.015865,38.8442798 C120.036466,38.8444303 120.057068,38.8442798 120.07797,38.8450322 C120.111955,38.8462359 120.145489,38.8490949 120.179173,38.8518033 C120.204737,38.8537594 120.23015,38.8543613 120.255714,38.8570698 C120.26609,38.8582735 120.276015,38.8606811 120.286541,38.8618848 C120.305038,38.8642923 120.323083,38.8677532 120.341429,38.8704616 C120.389248,38.8778346 120.436617,38.8855086 120.482932,38.8954396 C120.486241,38.896192 120.489549,38.8972453 120.492857,38.8979976 C120.926992,38.9933955 121.293759,39.2049563 121.547744,39.4854322 C121.549398,39.4875388 121.550902,39.4894949 121.552556,39.4913006 C121.586992,39.5296704 121.619474,39.568943 121.649549,39.6095699 C121.659023,39.6223599 121.666992,39.6359022 121.676015,39.6488426 C121.697519,39.6798394 121.719023,39.7108362 121.73797,39.7431872 C121.748045,39.7601903 121.756165,39.7779458 121.765489,39.7952498 C121.781579,39.8253438 121.79782,39.8552873 121.811654,39.8861337 C121.819173,39.9032872 121.825188,39.9211932 121.832105,39.9386477 C121.845188,39.9712996 121.85812,40.0039516 121.868496,40.0373559 C121.873609,40.0539076 121.877218,40.0707603 121.881579,40.087312 C121.891203,40.1226724 121.900226,40.1578824 121.906692,40.1938447 C121.907594,40.1985092 121.909248,40.2028729 121.91,40.2075374 C124.398872,54.7445882 133.471805,62.9024661 141.476466,70.1001954 C145.038271,73.3027975 148.464586,76.3841208 150.999474,79.7725532 C150.961579,77.8110272 150.685789,75.8136893 150.128647,73.7951351 C149.959474,73.1810673 150.250902,72.5433757 150.871805,72.1703608 C151.493459,71.796443 152.325789,71.7594274 152.993609,72.0743609 C163.242932,76.9050477 173.26609,86.3566661 177.730902,97.4393786 C177.795113,97.5427514 177.847594,97.6528954 177.883835,97.769961 C177.899624,97.8211208 177.911654,97.8722806 177.920977,97.9232899 C178.927143,100.526119 179.624737,103.215468 179.94594,105.95387 C179.94609,105.954322 179.946241,105.954623 179.946241,105.954924 C179.956617,106.010447 179.963083,106.065519 179.966241,106.12044 C180.036917,106.752715 180.086391,107.387548 180.115865,108.024487 C181.402932,105.676705 182.32188,103.011732 182.778571,99.937029 C182.872857,99.3015945 183.42594,98.7746488 184.180526,98.6013074 C184.935714,98.4287184 185.743985,98.6429876 186.22985,99.1454067 C192.779173,105.917005 197.269699,117.143416 196.556466,128.913927 C196.592707,129.084108 196.597218,129.261663 196.560977,129.441625 C196.542481,129.533562 196.520977,129.624596 196.499925,129.715781 C196.214962,133.25032 195.455564,136.825185 194.13782,140.33625 C196.234511,138.619539 198.162632,136.592408 199.851654,134.204149 C200.235113,133.660802 200.970301,133.351436 201.740075,133.420953 C202.504135,133.487461 203.147895,133.9163 203.38203,134.513816 C204.800526,138.132467 205.202932,142.126391 204.74594,146.168164 C204.752857,146.312013 204.736466,146.457367 204.69406,146.600313 M237.35797,146.087211 C218.411955,80.9988832 141.597669,21.8446381 119.868496,0.148829811 C98.1391729,21.8446381 21.3247368,80.9988832 2.3787218,146.087211 C0.211503759,153.533065 -0.701879699,161.862479 0.602781955,169.989811 C3.67661654,200.36623 29.3104511,224.072919 60.4782707,224.072919 C89.2865414,224.072919 113.688045,202.907216 119.595865,175.854076 C119.847895,175.144008 120.055714,175.473989 120.173459,175.837825 C125.728195,203.353961 150.025489,224.072919 179.16218,224.072919 C205.81,224.072919 228.39782,206.736977 236.31406,182.725737 C241.434962,170.772405 240.60218,157.23282 237.35797,146.087211" id="Fill-9" fill="#585AFA" mask="url(#mask-2)"></path>
                </g>
                <path d="M184.677325,156.311306 C184.602689,156.318236 184.528204,156.3214 184.454769,156.3214 C183.482551,156.3214 182.643685,155.723888 182.530605,154.914851 C182.409416,154.043893 183.172894,153.257305 184.237019,153.157418 C192.001854,152.431394 198.305657,149.048354 200.757528,145.958797 C201.01958,143.62615 200.96717,141.321374 200.561102,139.126127 C187.623716,153.37527 164.063255,154.42747 146.958123,150.714488 C145.922982,150.488952 145.306673,149.620254 145.581188,148.773251 C145.856305,147.926399 146.919528,147.420337 147.952417,147.646626 C152.727612,148.683007 172.737537,152.314181 188.120788,144.379744 C189.462732,141.94721 190.476699,139.422774 191.195576,136.859618 C185.406715,140.878739 174.97421,143.500952 159.694879,144.807464 C159.62625,144.812888 159.558221,144.815901 159.490944,144.815901 C158.510616,144.815901 157.668747,144.209199 157.564828,143.393985 C157.4534,142.522425 158.226489,141.742013 159.291665,141.650563 C179.367666,139.933958 190.514542,135.937738 192.454624,129.767363 C192.842971,124.907868 192.298595,120.085888 191.041649,115.655168 C188.412874,118.625102 185.10727,121.454019 181.314055,123.964595 C180.955142,124.202635 180.523846,124.31804 180.096004,124.31804 C179.530453,124.31804 178.970459,124.116609 178.586917,123.729115 C177.913693,123.047234 178.042541,122.048518 178.875099,121.497409 C183.326071,118.550978 187.038943,115.151968 189.662612,111.62987 C188.584221,108.966527 187.241376,106.509285 185.690541,104.353359 C181.833353,117.489889 169.406554,123.051904 157.354586,128.446689 C148.00723,132.630178 139.178721,136.581954 134.289245,143.862081 C133.801634,144.589612 132.71198,144.88656 131.786615,144.541702 C130.863804,144.197598 130.420343,143.3289 130.770096,142.550146 C136.272127,130.291052 151.843244,108.963212 175.826441,105.022585 C175.558082,103.391103 175.146308,101.781014 174.610642,100.201207 C163.147351,102.775662 153.994169,106.980545 146.787527,112.992276 C145.873875,113.843046 144.924483,114.696828 143.938598,115.553323 C129.883926,127.764657 123.676684,140.851319 122.254697,162.930795 C135.521113,139.014489 166.910832,128.281417 185.805874,127.165036 C186.868647,127.106129 187.802271,127.760138 187.87916,128.634108 C187.956499,129.508079 187.153224,130.267549 186.085195,130.330977 C166.744741,131.473271 137.454437,142.896359 125.468846,164.915119 C131.817551,159.7296 140.516461,156.449008 150.88334,155.448183 C166.334319,153.952293 182.455369,157.984973 191.101568,165.331992 C195.009364,161.458408 197.96041,156.568781 199.563204,151.505597 C195.597141,153.989355 190.195725,155.794999 184.677325,156.311306" id="Fill-12" fill="#585AFA"></path>
                <path d="M53.9147806,130.331058 C52.8468989,130.267631 52.0436224,129.508162 52.1208114,128.634193 C52.1973998,127.760225 53.1256204,127.1139 54.1942529,127.164974 C73.0891964,128.281502 104.478701,139.014399 117.745303,162.930348 C116.323313,140.851225 110.115903,127.764744 96.0614926,115.553438 C95.0750048,114.696493 94.1251592,113.842412 93.2110549,112.991042 C86.0045429,106.979926 76.8514858,102.775053 65.389065,100.201207 C64.853247,101.78101 64.4414721,103.391246 64.1731126,105.022725 C88.1566752,108.963192 103.727985,130.291133 109.229881,142.550198 C109.579935,143.328951 109.136623,144.197647 108.213659,144.54175 C107.290995,144.885703 106.199536,144.588906 105.710722,143.862131 C100.821383,136.582021 91.9922491,132.630254 82.6456187,128.446774 C70.5933176,123.052002 58.1661842,117.489999 54.3091355,104.3535 C52.7582967,106.50927 51.4154479,108.966356 50.3372042,111.629844 C52.9604299,115.151933 56.6733123,118.551086 61.1248968,121.49751 C61.957457,122.048467 62.0863056,123.047332 61.4130791,123.729211 C61.0301375,124.116554 60.469691,124.318135 59.9038384,124.318135 C59.4761451,124.318135 59.0452981,124.20273 58.6860838,123.96469 C54.892258,121.45412 51.5867955,118.62521 48.9581636,115.655283 C47.7013641,120.085842 47.1569862,124.90751 47.5453341,129.766993 C49.4849713,135.937655 60.6315778,139.934017 80.7083843,141.650618 C81.7734127,141.742067 82.5466546,142.522327 82.4353763,143.394035 C82.331156,144.209247 81.4895854,144.815948 80.5092547,144.815948 C80.4419771,144.815948 80.3737984,144.812935 80.3051693,144.807361 C65.025796,143.501003 54.5932632,140.878494 48.8042361,136.859533 C49.5231153,139.422683 50.5370848,141.946963 51.8788824,144.37919 C67.2621755,152.31376 87.2720048,148.683045 92.0473627,147.646667 C93.0783018,147.419474 94.1437807,147.925686 94.4184475,148.77329 C94.6931143,149.620291 94.0768035,150.488836 93.0413592,150.714371 C75.938733,154.426742 52.3768568,153.375901 39.4388341,139.125133 C39.0327657,141.320827 38.9805054,143.626049 39.2424075,145.958842 C41.6942855,149.048542 47.9981063,152.431424 55.7629623,153.157446 C56.8270897,153.257333 57.5905703,154.043919 57.4695307,154.914875 C57.3563001,155.723759 56.5174325,156.321421 55.5449108,156.321421 C55.4716263,156.321421 55.3974407,156.318257 55.3226544,156.311327 C49.8042395,155.795021 44.4026593,153.989381 40.436735,151.505327 C42.0395337,156.568952 44.9904373,161.458567 48.8982445,165.331992 C57.5441667,157.985442 73.668865,153.955182 89.1152308,155.448055 C99.4831892,156.449179 108.182723,159.729914 114.531746,164.915723 C102.546122,142.896562 73.2555883,131.473349 53.9147806,130.331058" id="Fill-14" fill="#585AFA"></path>
            </g>
        </g>
    </g>
</svg>