<?xml version="1.0" encoding="UTF-8"?>
<svg width="512px" height="512px" viewBox="0 0 512 512" version="1.1" xmlns="http://www.w3.org/2000/svg" xmlns:xlink="http://www.w3.org/1999/xlink">
    <!-- Generator: Sketch 48.2 (47327) - http://www.bohemiancoding.com/sketch -->
    <title>Mac_512</title>
    <desc>Created with Sketch.</desc>
    <defs>
        <polygon id="path-1" points="0 0.297061913 478.946878 0.297061913 478.946878 447.245946 0 447.245946"></polygon>
    </defs>
    <g id="Page-1" stroke="none" stroke-width="1" fill="none" fill-rule="evenodd">
        <g id="Mac_512">
            <g id="Page-1-Copy-2" transform="translate(17.000000, 8.000000)">
                <path d="M355,497 L355,482.918952 C298.009488,481.669863 250.794055,440.607652 239.8725,386.307271 C239.637679,385.578083 239.22269,384.916748 238.719117,386.340142 C227.151055,439.507236 180.065944,481.299841 124,482.902365 L124,497 L355,497 Z" id="Fill-1" fill="#585AFA"></path>
                <path d="M167.692011,205.817526 C160.253086,196.09673 155.377807,186.634675 153.137279,177.513606 C152.716655,175.801474 154.076633,174.134065 156.174053,173.791579 C158.269673,173.451794 160.313689,174.556996 160.733713,176.269429 C164.16981,190.258249 174.464898,205.285636 191.363664,221.009402 C193.344077,222.663603 195.230885,224.378737 197.07749,226.162609 C216.183782,242.732836 228.40198,259.97663 235.317675,282.4997 L235.317675,237.359909 C235.317675,212.280646 235.347077,170.30548 216.588205,146.336822 C215.436439,144.865721 215.97947,142.910456 217.782273,141.970043 C219.586876,141.031432 221.957312,141.462167 223.109678,142.932668 C228.520487,149.846034 232.391608,158.051904 235.317675,166.853299 L235.317675,123.142587 C235.317675,121.396235 237.035273,119.980664 239.174396,119.980664 C241.313818,119.980664 243.031116,121.396235 243.031116,123.142587 L243.031116,166.853299 C245.957183,158.051904 249.897008,149.846034 255.307818,142.932668 C256.460483,141.460666 258.878322,141.031432 260.681125,141.970043 C262.483628,142.910456 262.977456,144.865721 261.82569,146.336822 C243.065918,170.30548 243.031116,212.280646 243.031116,237.359909 L243.031116,282.5 C250.212926,259.97663 262.241214,242.732836 281.347506,226.162609 C283.193211,224.379938 285.131622,222.665704 287.110835,221.012703 C304.012901,205.286536 314.32089,190.257949 317.756086,176.269429 C318.17731,174.556996 320.221027,173.453294 322.321447,173.791579 C324.419167,174.134065 325.781845,175.801474 325.360921,177.513606 C323.120693,186.634075 318.246614,196.09673 310.806489,205.818426 C321.203583,200.75857 332.896451,196.782904 346,193.827194 C338.432968,177.033345 324.015944,162.455603 308.442954,153.282906 C313.554646,190.46146 278.606549,220.526138 260.555717,229.032472 C259.945783,229.319429 259.279745,229.455703 258.622707,229.455703 C257.28373,229.455703 255.982256,228.888694 255.264315,227.874742 C254.195054,226.361918 254.82929,224.428864 256.682196,223.555088 C271.640451,216.505748 294.150437,196.388489 299.80786,171.744764 C299.684253,171.568267 299.577147,171.380965 299.494643,171.180756 C296.703583,164.41387 291.558589,158.498247 285.229427,152.416634 C273.073333,159.885603 264.706455,177.561332 265.047874,194.801224 C272.411495,189.553765 278.606849,176.443824 280.501157,169.487234 C280.965284,167.781405 283.038402,166.712822 285.122621,167.086526 C287.211041,167.465032 288.527216,169.153752 288.062789,170.858081 C287.986285,171.143836 279.548003,199.480773 262.475527,203.011297 C262.161409,203.076132 261.841891,203.10855 261.524173,203.10855 C260.733628,203.10855 259.954183,202.911042 259.295345,202.532836 C258.371593,202.001847 257.777559,201.169794 257.668652,200.250993 C255.206112,179.481178 264.885565,157.380138 280.113535,147.657241 C278.897566,146.55264 277.654295,145.434531 276.389122,144.297511 C262.52563,131.833821 247.12875,117.99148 239.2506,96 C231.37185,117.99118 215.97587,131.833821 202.112378,144.296611 C200.847206,145.43393 199.603634,146.55234 198.387665,147.656941 C213.615635,157.379538 223.295388,179.480878 220.832848,200.250993 C220.724241,201.169794 220.130207,202.001847 219.206155,202.532836 C218.546717,202.911042 217.766672,203.10855 216.977327,203.10855 C216.659609,203.10855 216.339491,203.076132 216.025973,203.011297 C198.953797,199.480773 190.515215,171.143836 190.438711,170.858081 C189.973984,169.153752 191.290759,167.465032 193.378879,167.086526 C195.475399,166.711322 197.536216,167.781405 198.000343,169.487234 C199.894651,176.443824 206.090005,189.553765 213.453326,194.801224 C213.795045,177.561332 205.427867,159.885303 193.271773,152.416334 C186.942611,158.498247 181.797917,164.41387 179.006858,171.180756 C178.924053,171.381266 178.817247,171.568568 178.69334,171.745364 C184.350163,196.388789 206.860149,216.505748 221.819304,223.555088 C223.67191,224.428864 224.306446,226.361918 223.237185,227.874742 C222.519844,228.888694 221.21777,229.455703 219.878793,229.455703 C219.221155,229.455703 218.555717,229.319429 217.945483,229.032472 C199.894651,220.526138 164.945954,190.46146 170.058246,153.282906 C154.484956,162.456504 140.067332,177.033645 132.5,193.827194 C145.603249,196.782604 157.295217,200.758269 167.692011,205.817526" id="Fill-3" fill="#585AFA"></path>
                <path d="M280,265.5 C289.221817,259.498289 299.805988,254.783791 310.195366,250.157242 C325.624797,243.285921 340.538775,236.640753 350.924857,226.264371 C350.898185,226.038219 350.898185,225.80728 350.933847,225.572452 C351.443606,222.198117 351.598242,218.833952 351.441509,215.5 C319.077343,221.163081 294.573839,244.841466 280,265.5" id="Fill-5" fill="#585AFA"></path>
                <path d="M168.805084,250.157242 C179.193708,254.783791 189.778021,259.499485 199,265.5 C184.426379,244.83997 159.925637,221.162782 127.558658,215.5 C127.401627,218.834251 127.556261,222.198117 128.066312,225.572452 C128.101674,225.806981 128.101974,226.038219 128.075003,226.264072 C138.461229,236.640753 153.375584,243.285921 168.805084,250.157242" id="Fill-7" fill="#585AFA"></path>
                <g id="Group-11">
                    <mask id="mask-2" fill="white">
                        <use xlink:href="#path-1"></use>
                    </mask>
                    <g id="Clip-10"></g>
                    <path d="M408.535228,292.611871 C406.24107,310.519679 395.549106,328.783986 379.79883,340.27873 C386.063346,339.310147 391.611162,337.816579 395.929365,335.780904 C397.344456,335.113859 399.121198,335.244805 400.368218,336.105267 C401.616139,336.966028 402.068128,338.374602 401.49879,339.624298 C398.364882,346.499881 391.902884,355.246554 381.621191,363.072998 C381.385893,363.363122 381.090869,363.628018 380.731619,363.849666 C380.480715,364.004639 380.225308,364.152404 379.9678,364.296866 C365.819593,374.522691 344.930271,382.879228 316.147053,382.88103 C314.618215,382.88103 313.07527,382.857304 311.502013,382.80955 C309.36272,382.743476 307.694023,381.275736 307.774457,379.528684 C307.85399,377.783134 309.685655,376.414505 311.791334,376.485985 C332.190552,377.110082 348.44804,373.315342 361.037696,367.568721 C349.629933,366.785746 337.566997,362.597567 330.053059,359.05631 C328.200086,358.182334 327.56502,356.246671 328.634967,354.734481 C329.704914,353.222592 332.073803,352.705114 333.928277,353.576087 C345.21509,358.898033 365.30938,364.635043 375.401694,359.179147 C381.747844,354.511933 386.545647,349.450077 389.93016,344.729703 C360.563799,352.355824 310.043104,346.66026 293.523007,328.547022 C292.748983,327.699174 292.545799,326.590035 292.98128,325.593522 C293.417062,324.597309 294.433887,323.844968 295.691412,323.588782 C310.145147,320.639787 328.105246,319.122792 351.7056,330.245119 C353.558874,331.119095 354.193939,333.053257 353.123992,334.566647 C352.053745,336.079137 349.682755,336.599919 347.830682,335.725342 C329.999337,327.31925 316.184268,326.849225 304.135138,328.573151 C317.054632,337.663107 342.453937,342.151923 364.587579,341.580384 C364.827979,341.380661 365.101693,341.201361 365.413223,341.054496 C369.291143,339.226654 372.945168,336.923381 376.330282,334.252196 C360.929351,320.98277 330.465431,313.441043 302.1294,316.174097 C289.10126,317.428298 267.446919,321.792174 252.159436,336.552166 C258.39604,334.871188 265.84425,333.970481 273.662214,334.438705 C285.476047,335.1508 307.08777,339.851352 319.097885,363.330986 C319.922029,364.943788 318.99014,366.795658 317.014715,367.46901 C316.527612,367.635996 316.0213,367.714684 315.523693,367.714684 C314.007159,367.714684 312.567158,366.982466 311.945599,365.76851 C302.053468,346.428701 285.356897,341.488782 273.091976,340.748455 C258.718674,339.897604 245.543473,344.738713 242.791924,348.459871 C242.778119,348.478491 242.761912,348.49501 242.748106,348.51303 C242.706389,348.56709 242.662871,348.619649 242.617252,348.671607 C242.58994,348.702842 242.561728,348.733476 242.533216,348.76381 C242.486397,348.813065 242.438077,348.860518 242.387656,348.907671 C242.354942,348.938305 242.321928,348.968639 242.287714,348.997772 C242.238794,349.040119 242.188072,349.081265 242.135851,349.12121 C242.096534,349.151844 242.056617,349.181877 242.0155,349.21101 C241.96568,349.246449 241.914058,349.280688 241.861536,349.314325 C241.814716,349.344059 241.767297,349.373491 241.718676,349.401423 C241.671557,349.429054 241.623537,349.455783 241.574316,349.481612 C241.570715,349.483414 241.566513,349.485216 241.562611,349.487319 C241.51189,349.514048 241.460268,349.539277 241.408347,349.563904 C241.377434,349.578621 241.348022,349.594839 241.316508,349.608955 C241.316208,349.608955 241.316208,349.608955 241.315908,349.609255 C241.307205,349.613159 241.297901,349.616163 241.289197,349.619767 C241.270889,349.627575 241.251681,349.633882 241.233374,349.641691 C241.186254,349.661213 241.139134,349.679533 241.091414,349.697253 C241.051498,349.71257 241.012482,349.729689 240.971664,349.743805 C240.947955,349.751614 240.923945,349.75702 240.900235,349.765129 C240.897233,349.76603 240.894232,349.766931 240.890931,349.767832 C240.846512,349.781948 240.801193,349.795163 240.755874,349.808077 C240.709655,349.821292 240.664936,349.836609 240.618117,349.848622 C240.591406,349.85523 240.564695,349.859134 240.538284,349.865441 C240.492965,349.875953 240.447346,349.884663 240.402027,349.894273 C240.329096,349.908689 240.256466,349.922805 240.183235,349.933918 C240.136116,349.941126 240.088996,349.946231 240.041876,349.951938 C239.986653,349.958545 239.93173,349.967255 239.876507,349.97176 C239.8597,349.973262 239.842293,349.973262 239.825486,349.974763 C239.772364,349.978668 239.718941,349.980169 239.665519,349.982272 C239.608495,349.984674 239.551772,349.987978 239.495048,349.988278 C239.487845,349.988278 239.480942,349.989179 239.473439,349.989179 C239.466236,349.989179 239.459333,349.988278 239.45213,349.988278 C239.395706,349.987978 239.338983,349.984674 239.282259,349.982272 C239.228537,349.980169 239.175114,349.978668 239.121692,349.974763 C239.104885,349.973262 239.087478,349.973262 239.070671,349.97176 C239.015748,349.967255 238.961425,349.958545 238.906502,349.952238 C238.858782,349.946231 238.811062,349.941126 238.763643,349.933918 C238.691312,349.922805 238.619883,349.90899 238.547852,349.894574 C238.501033,349.884963 238.453913,349.875953 238.407394,349.865141 C238.381883,349.858834 238.355772,349.85523 238.329961,349.848622 C238.283742,349.836909 238.239023,349.821592 238.193104,349.808377 C238.146585,349.795163 238.100366,349.781948 238.054446,349.767231 C238.042742,349.763327 238.030136,349.760324 238.018431,349.756419 C238.004626,349.751914 237.99052,349.748611 237.977014,349.744106 C237.936197,349.73029 237.897781,349.713471 237.858164,349.698455 C237.808644,349.680134 237.760023,349.660913 237.711703,349.64079 C237.654079,349.616763 237.597356,349.591535 237.541532,349.565106 C237.48751,349.539877 237.434388,349.513448 237.382166,349.486117 C237.357555,349.473203 237.331144,349.46209 237.307134,349.448575 C237.281324,349.43476 237.258514,349.418842 237.233304,349.404426 C237.181682,349.374392 237.130661,349.343158 237.08054,349.311022 C237.031319,349.279486 236.982999,349.247351 236.93618,349.214314 C236.892061,349.182778 236.849143,349.150642 236.806826,349.117906 C236.757605,349.079763 236.709585,349.04072 236.663065,349.000775 C236.62675,348.96924 236.591336,348.937404 236.556221,348.904668 C236.507901,348.859317 236.461381,348.813366 236.416663,348.766213 C236.38665,348.734377 236.357238,348.702542 236.328426,348.669505 C236.283707,348.618448 236.240789,348.56679 236.199972,348.513631 C236.185866,348.49531 236.169659,348.478792 236.155854,348.459871 C233.404905,344.738713 220.236607,339.903911 205.855802,340.748455 C193.590881,341.488782 176.89371,346.428701 167.001879,365.76851 C166.38032,366.982466 164.940619,367.713183 163.423785,367.714684 C162.926478,367.714684 162.421067,367.635996 161.932763,367.46901 C159.957338,366.795658 159.025449,364.943788 159.849893,363.330986 C171.859708,339.851352 193.471732,335.1508 205.285264,334.438705 C213.105329,333.96898 220.550838,334.871188 226.787142,336.550064 C211.498758,321.792174 189.844417,317.428298 176.815077,316.172295 C148.474544,313.443746 118.016626,320.984272 102.617196,334.252196 C106.00231,336.923381 109.656336,339.226654 113.534255,341.054496 C113.846085,341.201661 114.120099,341.380961 114.3605,341.580985 C136.494141,342.152523 161.893146,337.664008 174.812641,328.573151 C162.766511,326.849225 148.949042,327.322253 131.116196,335.725342 C129.262622,336.599919 126.891632,336.079137 125.822586,334.566647 C124.752939,333.053257 125.387404,331.119095 127.240678,330.245119 C150.840131,319.12129 168.79933,320.635282 183.256066,323.588782 C184.513291,323.844968 185.530416,324.597309 185.966498,325.593522 C186.40168,326.590035 186.198195,327.699174 185.424471,328.547022 C168.902273,346.658758 118.38368,352.360329 89.0170179,344.729703 C92.406333,349.456384 97.2164414,354.524847 103.578498,359.196867 C113.679515,364.625132 133.744393,358.892027 145.019201,353.576087 C146.872475,352.705114 149.242264,353.222592 150.312511,354.734481 C151.382458,356.246671 150.747693,358.182334 148.894419,359.05631 C141.384383,362.596366 129.326849,366.781842 117.923287,367.56752 C130.516545,373.314441 146.773433,377.109481 167.156144,376.485985 C169.260923,376.411802 171.093488,377.781632 171.173321,379.528684 C171.253455,381.275736 169.584758,382.743476 167.445465,382.80955 C165.874909,382.857304 164.326562,382.88103 162.800725,382.88103 C134.003101,382.88103 113.109277,374.518486 98.9619702,364.286354 C98.7101651,364.145196 98.460761,364.001035 98.2155586,363.849666 C97.8587096,363.62952 97.5654872,363.367027 97.3307892,363.079005 C87.0466952,355.251059 80.5837967,346.501983 77.4486877,339.624298 C76.8793499,338.374602 77.3316388,336.966028 78.5792597,336.105267 C79.8274809,335.244805 81.604823,335.113859 83.0184132,335.780904 C87.3363161,337.816278 92.8841325,339.310147 99.1486482,340.27873 C83.3968712,328.783686 72.7043067,310.517577 70.4113493,292.608867 C70.3279145,292.325951 70.2955009,292.03853 70.3087065,291.753812 C69.3960254,283.684696 70.1991607,275.711387 73.030843,268.487416 C73.4981382,267.294783 74.7829746,266.438827 76.3079113,266.306079 C77.8205429,266.167324 79.3097647,266.784814 80.0771852,267.869325 C83.4478925,272.635651 87.2957992,276.681471 91.4804464,280.107699 C88.8504483,273.10027 87.3348155,265.964897 86.766078,258.910315 C86.7240605,258.728612 86.6814427,258.546909 86.6445273,258.363404 C86.5724972,258.004804 86.5812008,257.651309 86.6532309,257.31223 C85.228536,233.817879 94.1911783,211.408941 107.262836,197.892639 C108.231641,196.888317 109.844814,196.465144 111.352644,196.806626 C112.858973,197.152612 113.962834,198.204387 114.151312,199.472705 C115.062793,205.609461 116.896559,210.928705 119.465031,215.61484 C119.524156,214.342919 119.623197,213.074602 119.764256,211.811691 C119.770258,211.710178 119.783164,211.607763 119.801471,211.505048 C120.441339,206.030832 121.835121,200.654525 123.84656,195.451512 C123.865168,195.350298 123.889178,195.248785 123.920391,195.147272 C123.992421,194.914211 124.096865,194.694966 124.224718,194.489236 C133.135439,172.36772 153.140892,153.50124 173.598034,143.859267 C174.92969,143.230664 176.592984,143.304547 177.832201,144.050881 C179.071719,144.795413 179.653362,146.068235 179.315721,147.293904 C178.203757,151.322906 177.653027,155.30926 177.577395,159.224735 C182.636607,152.460877 189.474663,146.310606 196.584331,139.917963 C212.560302,125.552312 230.667762,109.269319 235.635737,80.2535988 C235.637237,80.2442884 235.640238,80.2355787 235.642039,80.2265686 C235.655245,80.1541878 235.673252,80.0830082 235.69246,80.012129 C235.701164,79.9799931 235.708067,79.9469562 235.718271,79.9148203 C235.73958,79.8454428 235.766291,79.7775669 235.793602,79.7099914 C235.806208,79.6784562 235.817012,79.6457196 235.831118,79.6147851 C235.862031,79.5454076 235.897746,79.4781324 235.934361,79.4108572 C235.948767,79.3844277 235.961072,79.3573975 235.976379,79.3315686 C236.024399,79.2492767 236.077821,79.1696878 236.134245,79.0913002 C236.139947,79.0834914 236.144449,79.0753824 236.150151,79.0675737 C236.732094,78.2755888 237.730011,77.6962414 238.937415,77.5580871 C239.025652,77.548176 239.113589,77.5442716 239.201525,77.5394663 C239.215031,77.5385653 239.227936,77.5370636 239.241442,77.5364629 C239.338683,77.5319579 239.435323,77.5310569 239.531663,77.5325586 C239.57278,77.5328589 239.613898,77.5325586 239.655615,77.5340602 C239.723443,77.5364629 239.790371,77.5421693 239.857599,77.5475753 C239.908621,77.5514797 239.959342,77.552681 240.010363,77.5580871 C240.031072,77.5604898 240.05088,77.5652951 240.071889,77.5676978 C240.108804,77.5725032 240.144819,77.5794109 240.181435,77.5848169 C240.276874,77.5995334 240.371414,77.6148505 240.463852,77.6346727 C240.470455,77.6361743 240.477058,77.6382767 240.483661,77.6397784 C241.350122,77.8301911 242.082128,78.2524629 242.58904,78.8122884 C242.592341,78.8164931 242.595342,78.8203975 242.598644,78.8240015 C242.667372,78.9005871 242.7322,78.9789747 242.792225,79.0600653 C242.811133,79.0855938 242.827039,79.112624 242.845047,79.1384529 C242.887965,79.200322 242.930883,79.2621911 242.968698,79.3267633 C242.988807,79.3607012 243.005013,79.3961408 243.023621,79.4306794 C243.055735,79.4907465 243.088148,79.5505133 243.11576,79.612082 C243.130766,79.6463203 243.142771,79.6820602 243.156577,79.7168992 C243.182688,79.782072 243.208498,79.8472448 243.229207,79.9139193 C243.239411,79.9469562 243.246614,79.9805938 243.255318,80.0136307 C243.274526,80.0842096 243.292534,80.1544881 243.305439,80.2262683 C243.30724,80.2355787 243.310541,80.2442884 243.312042,80.2535988 C248.279416,109.269319 266.387477,125.552312 282.363447,139.918864 C289.472215,146.311206 296.31057,152.461478 301.369783,159.224735 C301.294151,155.30956 300.743721,151.322906 299.631757,147.293904 C299.294116,146.068235 299.875759,144.795413 301.114977,144.050881 C302.355695,143.304547 304.016888,143.230664 305.349745,143.859267 C325.805686,153.50124 345.810238,172.366518 354.721259,194.487434 C354.849413,194.693765 354.954156,194.913611 355.026487,195.147272 C355.058,195.249386 355.08201,195.3515 355.100617,195.453314 C357.108756,200.648518 358.501037,206.016416 359.142105,211.482223 C359.142405,211.483124 359.142705,211.483725 359.142705,211.484325 C359.163414,211.595149 359.176319,211.705072 359.182622,211.814694 C359.323681,213.076705 359.422422,214.34382 359.481247,215.615141 C362.050019,210.929005 363.884085,205.609762 364.795565,199.472705 C364.983744,198.204387 366.087605,197.152612 367.593634,196.806626 C369.100863,196.462141 370.714037,196.889819 371.683742,197.892639 C384.755099,211.408641 393.717441,233.816377 392.293947,257.310127 C392.366277,257.649807 392.375281,258.004203 392.302951,258.363404 C392.266035,258.546909 392.223117,258.728612 392.1811,258.910616 C391.612362,265.965498 390.09673,273.100871 387.466732,280.108901 C391.651379,276.682372 395.499586,272.636252 398.870593,267.869325 C399.635913,266.784814 401.103225,266.167324 402.639567,266.306079 C404.164503,266.438827 405.44934,267.294783 405.916635,268.487416 C408.747717,275.710186 409.550852,283.681993 408.638772,291.749307 C408.652577,292.036428 408.619864,292.326552 408.535228,292.611871 M473.726948,291.587726 C435.91386,161.67247 282.605348,43.6015468 239.23754,0.297061913 C195.869433,43.6015468 42.5606206,161.67247 4.74753227,291.587726 C0.422126253,306.449532 -1.4008349,323.074908 1.20305232,339.296933 C7.33791385,399.927777 58.4987754,447.245946 120.704549,447.245946 C178.201055,447.245946 226.90239,404.999543 238.693413,351.001911 C239.196423,349.584627 239.611196,350.243263 239.846195,350.969475 C250.932523,405.89124 299.425871,447.245946 357.577852,447.245946 C410.762458,447.245946 455.843982,412.643684 471.643478,364.717636 C481.863946,340.858978 480.201852,313.834183 473.726948,291.587726" id="Fill-9" fill="#585AFA" mask="url(#mask-2)"></path>
                </g>
                <path d="M368.585162,311.994856 C368.436201,312.008688 368.28754,312.015003 368.140977,312.015003 C366.200591,312.015003 364.526355,310.822379 364.300666,309.207554 C364.058792,307.469137 365.582568,305.899118 367.706383,305.699746 C383.203699,304.250614 395.785041,297.498121 400.678567,291.331415 C401.201578,286.675488 401.096976,282.075192 400.286534,277.693514 C374.465666,306.134576 327.442914,308.23475 293.30392,300.823697 C291.237951,300.373531 290.007901,298.639624 290.555789,296.94902 C291.104875,295.258717 293.226892,294.248624 295.288366,294.700294 C304.818858,296.768893 344.755333,304.016659 375.457739,288.17965 C378.136036,283.324351 380.159744,278.285616 381.594503,273.169599 C370.040901,281.191699 349.219361,286.425596 318.724362,289.033372 C318.58739,289.044198 318.451617,289.050212 318.317343,289.050212 C316.360771,289.050212 314.680541,287.839244 314.473135,286.21209 C314.250743,284.47247 315.793701,282.91478 317.919614,282.732248 C357.987966,279.305933 380.235274,271.329541 384.107355,259.013571 C384.88243,249.314099 383.795946,239.689503 381.28729,230.845857 C376.040694,236.773797 369.44326,242.420271 361.872635,247.431339 C361.156305,247.906465 360.295509,248.13681 359.441608,248.13681 C358.312862,248.13681 357.195207,247.734758 356.429722,246.961326 C355.086078,245.600303 355.343238,243.606881 357.004885,242.506876 C365.888282,236.625847 373.298557,229.841478 378.534963,222.811428 C376.382674,217.495437 373.702579,212.590821 370.607372,208.287629 C362.909067,234.507931 338.107247,245.609625 314.053528,256.377528 C295.397763,264.727705 277.777531,272.615387 268.018952,287.146403 C267.045761,288.598542 264.870994,289.191246 263.02412,288.502916 C261.182341,287.816089 260.297268,286.082182 260.995316,284.527801 C271.976453,260.058847 303.053808,217.488822 350.920272,209.623393 C350.384672,206.36698 349.56284,203.153268 348.493739,200 C325.614922,205.138571 307.346696,213.531449 292.963438,225.530769 C291.139943,227.228891 289.245114,228.933027 287.277453,230.642576 C259.226669,255.016204 246.838048,281.13697 244,325.207249 C270.477554,277.470686 333.126202,256.047647 370.837557,253.819369 C372.958674,253.701791 374.822033,255.007182 374.975489,256.751614 C375.129845,258.496046 373.526644,260.011936 371.395036,260.138536 C332.794712,262.418536 274.336148,285.218838 250.414905,329.167929 C263.085862,318.817715 280.447436,312.269706 301.137998,310.272075 C331.975577,307.286303 364.150507,315.335468 381.406879,330 C389.206189,322.268388 395.095985,312.508773 398.294895,302.402737 C390.379293,307.360279 379.598968,310.964315 368.585162,311.994856" id="Fill-12" fill="#585AFA"></path>
                <path d="M107.604916,260.138697 C105.473602,260.012098 103.870396,258.496211 104.024453,256.751783 C104.17731,255.007356 106.029884,253.717303 108.162697,253.819245 C145.873854,256.047818 208.522074,277.470507 235,325.206358 C232.161945,281.136782 219.77299,255.016377 191.722729,230.642806 C189.753864,228.932358 187.85813,227.227625 186.03373,225.528304 C171.650734,213.530215 153.382757,205.137356 130.505676,200 C129.436272,203.153261 128.614438,206.367266 128.078837,209.623671 C175.946031,217.488781 207.02377,260.059009 218.004638,284.527906 C218.703286,286.082284 217.818511,287.816187 215.976428,288.503012 C214.134944,289.189536 211.956574,288.597134 210.980983,287.146502 C201.222676,272.615519 183.601197,264.727856 164.946881,256.377698 C140.892496,245.60982 116.090009,234.508152 108.391983,208.28791 C105.296767,212.590792 102.616665,217.495096 100.46467,222.811375 C105.700191,229.841409 113.110486,236.626063 121.995106,242.507078 C123.656758,243.60678 123.913918,245.600498 122.57027,246.961518 C121.805983,247.734648 120.687425,248.137 119.558077,248.137 C118.704473,248.137 117.844574,247.906655 117.127642,247.43153 C109.555798,242.420473 102.958646,236.774013 97.7123349,230.846087 C95.2039724,239.689411 94.1174849,249.313383 94.8925626,259.012833 C98.7637551,271.329376 121.010524,279.30605 161.080484,282.732357 C163.206103,282.914889 164.749365,284.472274 164.527272,286.212191 C164.319266,287.839341 162.639631,289.050307 160.683054,289.050307 C160.548779,289.050307 160.412706,289.044292 160.275734,289.033166 C129.780651,286.425696 108.959054,281.191211 97.4051212,273.16943 C98.8398842,278.285435 100.863598,283.323857 103.541603,288.178544 C134.244092,304.015817 174.180376,296.76897 183.711195,294.700376 C185.768777,294.246903 187.895296,295.257293 188.443485,296.949096 C188.991674,298.639697 187.76162,300.373299 185.695046,300.823464 C151.561055,308.233297 104.535477,306.135834 78.7133396,277.69153 C77.9028949,282.0741 77.7985921,286.675287 78.321305,291.331504 C83.2148448,297.498496 95.7962205,304.250673 111.293579,305.699802 C113.4174,305.899174 114.94118,307.469189 114.699605,309.207602 C114.473616,310.822122 112.799376,312.015045 110.858384,312.015045 C110.712121,312.015045 110.564059,312.00873 110.414798,311.994897 C99.4009613,310.964359 88.6203076,307.360331 80.7049837,302.402199 C83.9039027,312.509114 89.7934144,322.268707 97.5927464,330 C114.848566,315.336404 147.030776,307.29207 177.859148,310.27182 C198.551865,312.270048 215.914685,318.818342 228.586277,329.169134 C204.664968,285.219242 146.205945,262.418692 107.604916,260.138697" id="Fill-14" fill="#585AFA"></path>
            </g>
        </g>
    </g>
</svg>