<?xml version="1.0" encoding="UTF-8"?>
<svg width="16px" height="16px" viewBox="0 0 16 16" version="1.1" xmlns="http://www.w3.org/2000/svg" xmlns:xlink="http://www.w3.org/1999/xlink">
    <!-- Generator: Sketch 48.2 (47327) - http://www.bohemiancoding.com/sketch -->
    <title>Mac_16</title>
    <desc>Created with Sketch.</desc>
    <defs>
        <polygon id="path-1" points="0 0.00871660542 13.9984474 0.00871660542 13.9984474 13.1234139 0 13.1234139"></polygon>
    </defs>
    <g id="Page-1" stroke="none" stroke-width="1" fill="none" fill-rule="evenodd">
        <g id="Mac_16">
            <g id="Page-1-Copy-6" transform="translate(1.000000, 1.000000)">
                <path d="M10.3757829,14.5833333 L10.3757829,14.170157 C8.71008942,14.1335054 7.33009763,12.9286283 7.01088726,11.3353073 C7.00402403,11.3139109 6.99189489,11.2945055 6.97717669,11.3362718 C6.6390705,12.8963391 5.26288771,14.1226479 3.62421712,14.1696703 L3.62421712,14.5833333 L10.3757829,14.5833333 Z" id="Fill-1" fill="#585AFA"></path>
                <path d="M4.90122788,6.03924664 C4.68380627,5.75401203 4.54131378,5.47636958 4.47582862,5.20873258 C4.46353481,5.15849394 4.50328364,5.10956764 4.56458609,5.09951815 C4.62583594,5.08954793 4.68557756,5.12197757 4.69785384,5.17222502 C4.79828254,5.58269511 5.09918282,6.02363955 5.59309247,6.48501765 C5.6509751,6.53355642 5.70612189,6.58388313 5.76009366,6.63622679 C6.3185239,7.12244237 6.67563199,7.62842224 6.87776086,8.28931044 L6.87776086,6.96478606 C6.87776086,6.22889221 6.8786202,4.99722651 6.3303442,4.29392084 C6.2966809,4.25075471 6.31255237,4.19338191 6.3652439,4.16578765 C6.41798804,4.13824624 6.48727007,4.15088517 6.52095091,4.19403367 C6.67909565,4.39689066 6.79223907,4.63767324 6.87776086,4.89593013 L6.87776086,3.61333881 C6.87776086,3.5620961 6.92796206,3.52055939 6.99048338,3.52055939 C7.05301347,3.52055939 7.1032059,3.5620961 7.1032059,3.61333881 L7.1032059,4.89593013 C7.18872769,4.63767324 7.30387916,4.39689066 7.4620239,4.19403367 C7.4957135,4.15084113 7.56638101,4.13824624 7.61907254,4.16578765 C7.6717553,4.19338191 7.68618869,4.25075471 7.65252539,4.29392084 C7.10422307,4.99722651 7.1032059,6.22889221 7.1032059,6.96478606 L7.1032059,8.28931925 C7.31311267,7.62842224 7.66467013,7.12244237 8.22310037,6.63622679 C8.27704583,6.58391836 8.33370085,6.53361807 8.39154841,6.48511454 C8.88555451,6.02366597 9.18683185,5.5826863 9.28723425,5.17222502 C9.2995456,5.12197757 9.35927845,5.08959197 9.4206686,5.09951815 C9.48197982,5.10956764 9.52180757,5.15849394 9.50950499,5.20873258 C9.44402859,5.47635196 9.30157118,5.75401203 9.0841145,6.03927306 C9.38799616,5.8908031 9.72975014,5.77414624 10.1127349,5.68741765 C9.89156899,5.1946404 9.4701946,4.76688976 9.01503414,4.49773786 C9.16443642,5.58865786 8.1429889,6.47083739 7.61540719,6.7204364 C7.59758029,6.72885648 7.57811362,6.73285513 7.55891002,6.73285513 C7.519775,6.73285513 7.48173609,6.71621755 7.46075242,6.68646542 C7.42950053,6.64207505 7.44803771,6.585354 7.50219362,6.55971504 C7.93938687,6.3528682 8.59729879,5.76257303 8.76265145,5.03945903 C8.75903872,5.03428015 8.75590827,5.0287842 8.75349686,5.02290952 C8.67192101,4.82435064 8.5215454,4.65077017 8.33655946,4.47231908 C7.98126651,4.69147896 7.7367231,5.21013299 7.74670196,5.71599836 C7.96192261,5.56202364 8.14299767,5.17734224 8.19836368,4.97321695 C8.21192896,4.92316328 8.27252115,4.89180817 8.33343778,4.90277365 C8.39447718,4.91388005 8.43294577,4.96343169 8.41937171,5.01344133 C8.41713568,5.02182618 8.1705053,5.85330908 7.67151854,5.95690425 C7.66233764,5.95880669 7.6529989,5.95975792 7.64371278,5.95975792 C7.62060707,5.95975792 7.59782581,5.9539625 7.5785696,5.94286491 C7.55157056,5.92728424 7.5342084,5.90286953 7.53102533,5.87590942 C7.45905128,5.2664665 7.74195806,4.6179618 8.18703443,4.33266553 C8.15149461,4.30025351 8.11515683,4.26744515 8.07817894,4.2340819 C7.67298292,3.8683633 7.22296973,3.46219132 6.99271065,2.81690141 C6.76243402,3.46218252 6.31244714,3.8683633 5.90725113,4.23405548 C5.87027323,4.26742753 5.83392669,4.3002447 5.79838687,4.33265673 C6.24346324,4.61794419 6.52637878,5.26645769 6.45440473,5.87590942 C6.45123044,5.90286953 6.43386828,5.92728424 6.40686047,5.94286491 C6.38758672,5.9539625 6.36478792,5.95975792 6.34171729,5.95975792 C6.33243116,5.95975792 6.32307489,5.95880669 6.31391153,5.95690425 C5.81493353,5.85330908 5.56829439,5.02182618 5.56605835,5.01344133 C5.55247553,4.96343169 5.59096165,4.91388005 5.65199228,4.90277365 C5.71326843,4.89176413 5.7735011,4.92316328 5.78706639,4.97321695 C5.84243239,5.17734224 6.02350746,5.56202364 6.23871934,5.71599836 C6.24870696,5.21013299 6.00415479,4.69147016 5.64886183,4.47231027 C5.4638759,4.65077017 5.31350906,4.82435064 5.23193321,5.02290952 C5.22951303,5.02879301 5.22639134,5.03428896 5.22276984,5.03947664 C5.38810497,5.76258184 6.04601689,6.3528682 6.48323644,6.55971504 C6.53738359,6.585354 6.55592953,6.64207505 6.52467764,6.68646542 C6.50371152,6.71621755 6.46565506,6.73285513 6.42652005,6.73285513 C6.40729891,6.73285513 6.38784978,6.72885648 6.37001411,6.7204364 C5.84243239,6.47083739 4.82096734,5.58865786 4.97038715,4.49773786 C4.51521793,4.76691619 4.093826,5.1946492 3.87265136,5.68741765 C4.25562731,5.77413743 4.59735498,5.89079429 4.90122788,6.03924664" id="Fill-3" fill="#585AFA"></path>
                <path d="M8.18371608,7.79049296 C8.45324725,7.61438641 8.76259673,7.47605021 9.06625287,7.34029465 C9.51721745,7.13867139 9.9531166,6.94368406 10.2566764,6.63921276 C10.2558968,6.63257684 10.2558968,6.62580047 10.2569392,6.61890999 C10.2718382,6.51989779 10.2763578,6.42118402 10.2717769,6.32335681 C9.32585137,6.48952702 8.60967379,7.18431532 8.18371608,7.79049296" id="Fill-5" fill="#585AFA"></path>
                <path d="M4.93376029,7.34029465 C5.23739439,7.47605021 5.54674801,7.61442152 5.81628392,7.79049296 C5.39033257,7.18427143 4.67423574,6.48951825 3.728228,6.32335681 C3.72363837,6.4211928 3.72815793,6.51989779 3.74306548,6.61890999 C3.74409903,6.62579169 3.74410778,6.63257684 3.74331949,6.63920398 C4.04688351,6.94368406 4.48279368,7.13867139 4.93376029,7.34029465" id="Fill-7" fill="#585AFA"></path>
                <g id="Group-11">
                    <mask id="mask-2" fill="white">
                        <use xlink:href="#path-1"></use>
                    </mask>
                    <g id="Clip-10"></g>
                    <path d="M11.9404868,8.58602907 C11.8734342,9.11149294 11.5609342,9.64741744 11.1005921,9.98470451 C11.2836886,9.95628367 11.4458377,9.91245829 11.5720482,9.85272606 C11.6134079,9.83315314 11.6653377,9.83699546 11.7017851,9.86224374 C11.7382588,9.88750083 11.7514693,9.92883222 11.7348289,9.96550172 C11.6432325,10.16725 11.454364,10.4239012 11.1538553,10.6535504 C11.1469781,10.6620634 11.1383553,10.6698362 11.1278553,10.67634 C11.1205219,10.6808873 11.113057,10.6852231 11.1055307,10.689462 C10.6920132,10.9895156 10.0814693,11.2347191 9.24020614,11.234772 C9.19552193,11.234772 9.15042544,11.2340758 9.10444298,11.2326746 C9.04191667,11.2307358 8.99314474,11.1876683 8.99549561,11.1364051 C8.99782018,11.0851859 9.05135526,11.0450266 9.11289912,11.047124 C9.70911842,11.0654367 10.1842851,10.9540887 10.55225,10.7854672 C10.2188289,10.7624926 9.86625877,10.6396 9.64664474,10.5356899 C9.59248684,10.510045 9.57392544,10.4532474 9.60519737,10.4088756 C9.6364693,10.3645127 9.70570614,10.3493285 9.75990789,10.3748852 C10.0897939,10.5310456 10.6771009,10.6993851 10.9720746,10.5392942 C11.157557,10.4023454 11.2977851,10.2538168 11.3967061,10.1153082 C10.5383991,10.3390793 9.06180263,10.171956 8.57896053,9.64046425 C8.55633772,9.6155861 8.55039912,9.58304094 8.56312719,9.55380052 C8.57586404,9.52456891 8.60558333,9.50249319 8.64233772,9.49497599 C9.06478509,9.40844445 9.58971491,9.36393168 10.2794956,9.69029105 C10.3336623,9.7159359 10.3522237,9.77268945 10.3209518,9.81709646 C10.2896711,9.86147704 10.2203728,9.8767582 10.1662412,9.85109572 C9.64507456,9.60443808 9.24129386,9.59064626 8.88912719,9.64123095 C9.26673246,9.90795502 10.0090921,10.0396691 10.6560044,10.0228986 C10.6630307,10.0170382 10.6710307,10.011777 10.680136,10.0074676 C10.7934781,9.95383375 10.9002763,9.88624943 10.9992149,9.80786961 C10.5490833,9.41850851 9.65869737,9.19721372 8.83050439,9.27740895 C8.44972368,9.31421064 7.81682018,9.44225864 7.37000439,9.87535698 C7.55228509,9.8260325 7.76997807,9.79960333 7.99847807,9.81334227 C8.34376754,9.83423709 8.97542544,9.97216409 9.32645175,10.6611205 C9.35053947,10.7084445 9.32330263,10.7627834 9.26556579,10.7825414 C9.25132895,10.7874412 9.2365307,10.7897501 9.22198684,10.7897501 C9.17766228,10.7897501 9.13557456,10.7682649 9.11740789,10.7326441 C8.82828509,10.1651614 8.34028509,10.0202107 7.9818114,9.99848752 C7.56171491,9.97352124 7.17663596,10.1155726 7.09621491,10.2247615 C7.0958114,10.2253078 7.09533772,10.2257925 7.09493421,10.2263213 C7.09371491,10.2279076 7.09244298,10.2294498 7.09110965,10.2309744 C7.0903114,10.2318909 7.08948684,10.2327898 7.08865351,10.2336799 C7.08728509,10.2351252 7.08587281,10.2365176 7.08439912,10.2379011 C7.08344298,10.2388 7.08247807,10.2396901 7.08147807,10.2405449 C7.08004825,10.2417875 7.07856579,10.2429949 7.07703947,10.2441669 C7.07589035,10.2450658 7.07472368,10.2459471 7.07352193,10.2468019 C7.07206579,10.2478418 7.07055702,10.2488465 7.06902193,10.2498335 C7.06765351,10.2507059 7.06626754,10.2515696 7.06484649,10.2523892 C7.0634693,10.2531999 7.06206579,10.2539843 7.06062719,10.2547421 C7.06052193,10.254795 7.06039912,10.2548479 7.06028509,10.2549096 C7.05880263,10.2556939 7.05729386,10.2564342 7.05577632,10.2571568 C7.05487281,10.2575886 7.05401316,10.2580645 7.05309211,10.2584787 C7.05308333,10.2584787 7.05308333,10.2584787 7.05307456,10.2584875 C7.05282018,10.2586021 7.05254825,10.2586902 7.05229386,10.258796 C7.05175877,10.2590251 7.05119737,10.2592102 7.05066228,10.2594393 C7.04928509,10.2600121 7.04790789,10.2605497 7.04651316,10.2610696 C7.04534649,10.2615191 7.04420614,10.2620214 7.04301316,10.2624356 C7.04232018,10.2626647 7.04161842,10.2628234 7.04092544,10.2630613 C7.04083772,10.2630877 7.04075,10.2631142 7.04065351,10.2631406 C7.03935526,10.2635548 7.0380307,10.2639426 7.03670614,10.2643215 C7.03535526,10.2647093 7.03404825,10.2651587 7.03267982,10.2655112 C7.03189912,10.2657051 7.03111842,10.2658197 7.03034649,10.2660047 C7.02902193,10.2663132 7.0276886,10.2665687 7.02636404,10.2668507 C7.02423246,10.2672738 7.02210965,10.2676879 7.0199693,10.268014 C7.01859211,10.2682255 7.01721491,10.2683753 7.01583772,10.2685428 C7.01422368,10.2687367 7.01261842,10.2689922 7.01100439,10.2691244 C7.01051316,10.2691685 7.01000439,10.2691685 7.00951316,10.2692125 C7.00796053,10.2693271 7.00639912,10.2693712 7.00483772,10.2694329 C7.00317105,10.2695034 7.00151316,10.2696003 6.99985526,10.2696091 C6.99964474,10.2696091 6.99944298,10.2696355 6.99922368,10.2696355 C6.99901316,10.2696355 6.9988114,10.2696091 6.99860088,10.2696091 C6.99695175,10.2696003 6.99529386,10.2695034 6.99363596,10.2694329 C6.99206579,10.2693712 6.99050439,10.2693271 6.98894298,10.2692125 C6.98845175,10.2691685 6.98794298,10.2691685 6.98745175,10.2691244 C6.98584649,10.2689922 6.98425877,10.2687367 6.98265351,10.2685516 C6.98125877,10.2683753 6.97986404,10.2682255 6.97847807,10.268014 C6.97636404,10.2676879 6.97427632,10.2672826 6.97217105,10.2668596 C6.97080263,10.2665776 6.96942544,10.2663132 6.96806579,10.2659959 C6.96732018,10.2658108 6.96655702,10.2657051 6.96580263,10.2655112 C6.96445175,10.2651675 6.96314474,10.2647181 6.96180263,10.2643303 C6.96044298,10.2639426 6.95909211,10.2635548 6.95775,10.263123 C6.95740789,10.2630084 6.95703947,10.2629203 6.95669737,10.2628057 C6.95629386,10.2626735 6.95588158,10.2625766 6.95548684,10.2624444 C6.95429386,10.262039 6.95317105,10.2615455 6.95201316,10.2611049 C6.95056579,10.2605673 6.94914474,10.2600033 6.94773246,10.2594129 C6.94604825,10.2587078 6.94439035,10.2579676 6.94275877,10.2571921 C6.94117982,10.2564518 6.93962719,10.2556763 6.93810088,10.2548743 C6.93738158,10.2544954 6.93660965,10.2541693 6.93590789,10.2537728 C6.93515351,10.2533674 6.93448684,10.2529003 6.93375,10.2524773 C6.93224123,10.251596 6.93075,10.2506795 6.92928509,10.2497366 C6.92784649,10.2488112 6.92643421,10.2478683 6.92506579,10.2468989 C6.92377632,10.2459735 6.92252193,10.2450306 6.92128509,10.24407 C6.91984649,10.2429508 6.91844298,10.2418052 6.91708333,10.2406331 C6.91602193,10.2397077 6.91498684,10.2387736 6.91396053,10.237813 C6.91254825,10.2364823 6.9111886,10.235134 6.90988158,10.2337504 C6.90900439,10.2328162 6.90814474,10.2318821 6.90730263,10.2309127 C6.90599561,10.2294145 6.90474123,10.2278988 6.90354825,10.2263389 C6.90313596,10.2258014 6.90266228,10.2253167 6.90225877,10.2247615 C6.82185526,10.1155726 6.43697807,9.97370631 6.01666228,9.99848752 C5.6581886,10.0202107 5.17017105,10.1651614 4.88105702,10.7326441 C4.86289035,10.7682649 4.8208114,10.7897061 4.77647807,10.7897501 C4.76194298,10.7897501 4.74717105,10.7874412 4.73289912,10.7825414 C4.67516228,10.7627834 4.64792544,10.7084445 4.67202193,10.6611205 C5.02303947,9.97216409 5.65470614,9.83423709 5.99998684,9.81334227 C6.22854825,9.79955926 6.44616228,9.8260325 6.62843421,9.87529529 C6.18159211,9.44225864 5.5486886,9.31421064 5.16787281,9.27735608 C4.33954825,9.19729303 3.44933772,9.41855257 2.99925,9.80786961 C3.0981886,9.88624943 3.20498684,9.95383375 3.31832895,10.0074676 C3.32744298,10.0117858 3.33545175,10.017047 3.34247807,10.0229162 C3.98939035,10.0396867 4.73174123,9.90798146 5.10934649,9.64123095 C4.75726754,9.59064626 4.35341667,9.60452621 3.83220614,9.85109572 C3.7780307,9.8767582 3.70873246,9.86147704 3.67748684,9.81709646 C3.64622368,9.77268945 3.66476754,9.7159359 3.71893421,9.69029105 C4.4086886,9.36388762 4.93359211,9.40831226 5.35612719,9.49497599 C5.39287281,9.50249319 5.42260088,9.52456891 5.43534649,9.55380052 C5.44806579,9.58304094 5.44211842,9.6155861 5.41950439,9.64046425 C4.93660088,10.1719119 3.46006579,10.3392115 2.60175,10.1153082 C2.7008114,10.2540019 2.84139912,10.4027244 3.02734649,10.5398142 C3.32257456,10.6990943 3.90902193,10.5308693 4.23855702,10.3748852 C4.29272368,10.3493285 4.36198684,10.3645127 4.39326754,10.4088756 C4.42453947,10.4532474 4.40598684,10.510045 4.35182018,10.5356899 C4.13232018,10.6395647 3.77990789,10.762378 3.44660965,10.7854319 C3.81467982,10.9540622 4.28982895,11.0654191 4.88556579,11.047124 C4.94708333,11.0449472 5.00064474,11.0851418 5.00297807,11.1364051 C5.00532018,11.1876683 4.95654825,11.2307358 4.89402193,11.2326746 C4.84811842,11.2340758 4.80286404,11.234772 4.75826754,11.234772 C3.91658333,11.234772 3.30590789,10.9893922 2.89241667,10.6891536 C2.88505702,10.6850116 2.87776754,10.6807815 2.87060088,10.67634 C2.86017105,10.6698803 2.85160088,10.662178 2.84474123,10.6537267 C2.54416228,10.4240334 2.35526754,10.1673117 2.26363596,9.96550172 C2.24699561,9.92883222 2.26021491,9.88750083 2.29667982,9.86224374 C2.33316228,9.83699546 2.38510965,9.83315314 2.42642544,9.85272606 C2.55262719,9.91244948 2.71477632,9.95628367 2.89787281,9.98470451 C2.43748684,9.64740863 2.1249693,9.11143125 2.05795175,8.58594094 C2.05551316,8.57763941 2.05456579,8.56920569 2.05495175,8.56085129 C2.02827632,8.32408146 2.05175,8.09012287 2.13451316,7.87815188 C2.14817105,7.84315679 2.18572368,7.8180407 2.23029386,7.8141455 C2.27450439,7.81007405 2.3180307,7.82819289 2.34046053,7.86001541 C2.43897807,7.99987238 2.55144298,8.11858777 2.67375,8.21912264 C2.59688158,8.01350557 2.55258333,7.80413432 2.53596053,7.59713366 C2.53473246,7.591802 2.53348684,7.58647034 2.53240789,7.5810858 C2.53030263,7.57056348 2.53055702,7.56019098 2.53266228,7.55024148 C2.49102193,6.86085326 2.75297807,6.203314 3.1350307,5.80670889 C3.16334649,5.77723935 3.21049561,5.7648223 3.25456579,5.7748423 C3.29859211,5.78499449 3.33085526,5.81585644 3.33636404,5.85307232 C3.36300439,6.03314147 3.41660088,6.18922255 3.49167105,6.32672654 C3.49339912,6.28940491 3.49629386,6.25218903 3.50041667,6.21513178 C3.50059211,6.2121531 3.5009693,6.20914798 3.50150439,6.20613405 C3.52020614,6.04550564 3.56094298,5.88775015 3.61973246,5.73507957 C3.62027632,5.7321097 3.62097807,5.72913102 3.62189035,5.72615234 C3.62399561,5.71931371 3.62704825,5.71288047 3.63078509,5.70684379 C3.89122368,5.05773825 4.47593421,4.50414436 5.07384649,4.22122261 C5.11276754,4.20277771 5.16138158,4.20494562 5.19760088,4.22684509 C5.23382895,4.24869168 5.25082895,4.28603975 5.24096053,4.32200423 C5.20846053,4.44022611 5.19236404,4.55719659 5.19015351,4.67208729 C5.33802193,4.47361729 5.53788158,4.29315157 5.74567982,4.10557403 C6.21261842,3.68404671 6.74185526,3.20625935 6.88705702,2.35485912 C6.88710088,2.35458593 6.8871886,2.35433036 6.88724123,2.35406598 C6.88762719,2.35194213 6.88815351,2.34985353 6.88871491,2.34777374 C6.8889693,2.34683078 6.88917105,2.34586139 6.8894693,2.34491844 C6.89009211,2.34288271 6.89087281,2.34089105 6.89167105,2.3389082 C6.89203947,2.33798287 6.89235526,2.33702229 6.89276754,2.33611459 C6.89367105,2.33407886 6.89471491,2.33210482 6.89578509,2.33013079 C6.89620614,2.32935527 6.89656579,2.32856213 6.89701316,2.32780424 C6.89841667,2.32538957 6.89997807,2.32305422 6.90162719,2.32075411 C6.90179386,2.32052498 6.90192544,2.32028704 6.90209211,2.32005791 C6.91910088,2.29681892 6.94826754,2.27981929 6.98355702,2.27576547 C6.98613596,2.27547465 6.98870614,2.27536008 6.99127632,2.27521908 C6.99167105,2.27519264 6.99204825,2.27514858 6.99244298,2.27513095 C6.99528509,2.27499876 6.99810965,2.27497233 7.00092544,2.27501639 C7.00212719,2.2750252 7.00332895,2.27501639 7.00454825,2.27506045 C7.0065307,2.27513095 7.00848684,2.27529839 7.01045175,2.27545702 C7.01194298,2.27557159 7.01342544,2.27560684 7.01491667,2.27576547 C7.01552193,2.27583597 7.01610088,2.27597697 7.01671491,2.27604747 C7.01779386,2.27618847 7.01884649,2.27639117 7.01991667,2.27654979 C7.02270614,2.27698161 7.0254693,2.27743106 7.02817105,2.2780127 C7.02836404,2.27805676 7.02855702,2.27811845 7.02875,2.27816251 C7.05407456,2.28374974 7.0754693,2.29614034 7.09028509,2.31256715 C7.09038158,2.31269053 7.0904693,2.31280509 7.09056579,2.31291084 C7.09257456,2.31515807 7.0944693,2.31745818 7.09622368,2.3198376 C7.09677632,2.32058667 7.09724123,2.32137981 7.09776754,2.3221377 C7.09902193,2.32395311 7.10027632,2.32576852 7.10138158,2.32766324 C7.1019693,2.32865907 7.10244298,2.32969897 7.10298684,2.33071242 C7.10392544,2.33247496 7.10487281,2.33422868 7.10567982,2.33603527 C7.10611842,2.33703991 7.1064693,2.33808862 7.10687281,2.33911089 C7.10763596,2.34102324 7.10839035,2.34293559 7.10899561,2.344892 C7.10929386,2.34586139 7.10950439,2.34684841 7.10975877,2.3478178 C7.11032018,2.34988878 7.11084649,2.35195094 7.11122368,2.35405717 C7.11127632,2.35433036 7.11137281,2.35458593 7.11141667,2.35485912 C7.25660088,3.20625935 7.78585526,3.68404671 8.25279386,4.10560047 C8.46056579,4.2931692 8.66043421,4.47363492 8.80830263,4.67208729 C8.80609211,4.55720541 8.79000439,4.44022611 8.75750439,4.32200423 C8.74763596,4.28603975 8.76463596,4.24869168 8.80085526,4.22684509 C8.83711842,4.20494562 8.88567105,4.20277771 8.92462719,4.22122261 C9.52250439,4.50414436 10.1071886,5.057703 10.367636,5.70679092 C10.3713816,5.71284522 10.374443,5.71929608 10.376557,5.72615234 C10.3774781,5.72914864 10.3781798,5.73214495 10.3787237,5.73513244 C10.4374167,5.88757389 10.4781096,6.04508263 10.4968465,6.20546429 C10.4968553,6.20549073 10.496864,6.20550835 10.496864,6.20552598 C10.4974693,6.20877785 10.4978465,6.21200329 10.4980307,6.21521991 C10.5021535,6.25225072 10.5050395,6.28943135 10.5067588,6.32673535 C10.5818377,6.18923136 10.635443,6.03315028 10.6620833,5.85307232 C10.6675833,5.81585644 10.6998465,5.78499449 10.743864,5.7748423 C10.7879167,5.76473418 10.8350658,5.77728341 10.8634079,5.80670889 C11.2454518,6.20330519 11.5073991,6.86080919 11.4657939,7.55017979 C11.4679079,7.56014692 11.4681711,7.57054586 11.466057,7.5810858 C11.4649781,7.58647034 11.4637237,7.591802 11.4624956,7.59714248 C11.4458728,7.80415194 11.4015746,8.0135232 11.3247061,8.21915789 C11.4470132,8.11861421 11.5594868,7.99989001 11.6580132,7.86001541 C11.6803816,7.82819289 11.7232675,7.81007405 11.7681711,7.8141455 C11.8127412,7.8180407 11.8502939,7.84315679 11.8639518,7.87815188 C11.9466974,8.09008762 11.9701711,8.32400215 11.9435132,8.5607191 C11.9439167,8.569144 11.9429605,8.57765704 11.9404868,8.58602907 M13.8458816,8.55597789 C12.7406974,4.74391049 8.25986404,1.27938811 6.99232895,0.00871660542 C5.72478509,1.27938811 1.24394298,4.74391049 0.138758772,8.55597789 C0.0123377193,8.99206372 -0.0409429825,9.47989752 0.0351622807,9.95589591 C0.214469298,11.73497 1.70977632,13.1234139 3.52789912,13.1234139 C5.20838158,13.1234139 6.63180263,11.8837894 6.97642544,10.2993518 C6.99112719,10.2577649 7.00325,10.2770911 7.01011842,10.2984001 C7.33414474,11.9099542 8.75148684,13.1234139 10.4511272,13.1234139 C12.0055833,13.1234139 13.3232061,12.1080893 13.7849868,10.7018086 C14.0837061,10.0017306 14.0351272,9.20874949 13.8458816,8.55597789" id="Fill-9" fill="#585AFA" mask="url(#mask-2)"></path>
                </g>
                <path d="M10.772844,9.15477862 C10.7684902,9.15518451 10.7641452,9.15536981 10.7598615,9.15536981 C10.7031488,9.15536981 10.654215,9.12037496 10.6476186,9.0729916 C10.6405493,9.02198171 10.6850855,8.97591309 10.7471594,8.97006296 C11.2001081,8.92754148 11.56783,8.72940495 11.7108558,8.54845701 C11.7261422,8.41183942 11.7230849,8.27685422 11.6993976,8.14828386 C10.9447167,8.98282206 9.57035656,9.04444689 8.57255717,8.82698642 C8.51217394,8.81377731 8.47622257,8.76289977 8.49223599,8.71329284 C8.50828446,8.66369474 8.57030583,8.63405588 8.63055766,8.6473091 C8.90911068,8.70800744 10.0763563,8.92067663 10.9737126,8.45597565 C11.0519927,8.31350794 11.1111407,8.16565776 11.1530753,8.01553989 C10.8153917,8.25093015 10.2068289,8.40450692 9.31553459,8.48102618 C9.31153124,8.48134383 9.30756292,8.48152031 9.3036384,8.48152031 C9.2464526,8.48152031 9.19734359,8.4459872 9.19128162,8.39824208 C9.18478164,8.34719688 9.22987853,8.30149004 9.29201378,8.29613404 C10.4631138,8.19559663 11.1133483,7.96154757 11.2265198,7.60016348 C11.2491733,7.31555453 11.217418,7.0331427 11.1440962,6.77364605 C10.990751,6.94758795 10.7979241,7.11327086 10.5766532,7.26030925 C10.5557166,7.27425072 10.5305577,7.28100969 10.5056002,7.28100969 C10.4726098,7.28100969 10.4399434,7.26921238 10.4175702,7.24651778 C10.3782987,7.20658165 10.3858149,7.14808924 10.4343808,7.11581209 C10.6940208,6.94324668 10.910605,6.74417484 11.0636524,6.53789401 C11.0007462,6.38190837 10.9224136,6.23799357 10.8319482,6.1117262 C10.6069456,6.88110125 9.88204897,7.20685518 9.17901751,7.52281479 C8.63375509,7.76783172 8.11875874,7.99927778 7.8335393,8.42565736 C7.80509532,8.46826708 7.74153218,8.48565863 7.68755257,8.46546114 C7.63372187,8.44530778 7.60785336,8.39443023 7.62825558,8.34882045 C7.9492074,7.63083471 8.85752257,6.38171425 10.2565424,6.15092115 C10.2408881,6.05536913 10.216868,5.96107008 10.1856208,5.8685446 C9.51692883,6.01932425 8.9829932,6.26559415 8.56260572,6.61768687 C8.50930939,6.66751439 8.45392816,6.71751839 8.39641824,6.76768121 C7.57656235,7.48286983 7.21447321,8.24932423 7.13152401,9.54246621 C7.90539824,8.14174549 9.7364652,7.51313517 10.838676,7.44775144 C10.9006711,7.44430137 10.9551325,7.48260512 10.9596176,7.53379149 C10.9641291,7.58497786 10.9172714,7.62945821 10.8549697,7.633173 C9.72677655,7.70007441 8.0181755,8.36909735 7.319016,9.65868337 C7.68935714,9.35497991 8.19679354,9.1628435 8.80152814,9.10422756 C9.70283525,9.01661689 10.6432298,9.25280128 11.1475914,9.68309859 C11.3755462,9.45623204 11.5476906,9.16985835 11.6411869,8.87331975 C11.4098332,9.01878752 11.0947506,9.12453975 10.772844,9.15477862" id="Fill-12" fill="#585AFA"></path>
                <path d="M3.14502887,7.63317774 C3.08273577,7.62946297 3.03587797,7.58498272 3.04038067,7.53379646 C3.04484832,7.48261021 3.09899452,7.44475656 3.16133142,7.44774779 C4.26353645,7.51314019 6.09459089,8.14174023 6.86847599,9.54244007 C6.78552657,8.24931872 6.42342767,7.48287492 5.60358707,6.76768796 C5.54604195,6.71749878 5.49063429,6.66747725 5.43731154,6.61761455 C5.01693167,6.26555794 4.48300334,6.01928861 3.81436213,5.8685446 C3.78310608,5.96106987 3.75908587,6.05537752 3.74343157,6.15092932 C5.14247272,6.38171306 6.05079913,7.63083946 6.37174306,8.34882353 C6.39216286,8.39443321 6.36630304,8.44531064 6.31246344,8.46546396 C6.25864136,8.48560846 6.19497292,8.46822578 6.16645879,8.42566027 C5.88124732,7.99928168 5.36621453,7.76783615 4.82099443,7.52281979 C4.11794353,7.20686091 3.39302741,6.88110773 3.1680329,6.11173446 C3.07756731,6.23799272 2.99923446,6.38189836 2.93633691,6.53789247 C3.08935841,6.74417281 3.30594322,6.94325302 3.56561898,7.11581802 C3.61418499,7.14808628 3.62170116,7.20658738 3.58242962,7.24652342 C3.56009135,7.26920914 3.52739864,7.28101524 3.49439057,7.28101524 C3.4694418,7.28101524 3.44430906,7.27425629 3.42335489,7.26031486 C3.20204838,7.1132768 3.00922974,6.94759428 2.85589288,6.77365278 C2.78257957,7.03314 2.75082419,7.31553354 2.77347782,7.60014183 C2.88662332,7.96154273 3.53684204,8.19560007 4.70798909,8.29613725 C4.77011574,8.30149323 4.81522152,8.34719115 4.80873028,8.39824505 C4.80265077,8.44599006 4.75355915,8.48152308 4.69637319,8.48152308 C4.69244866,8.48152308 4.68847158,8.48134661 4.68446821,8.48102013 C3.79317144,8.40450987 3.18460702,8.25091581 2.84691377,8.01553492 C2.88884839,8.16565245 2.94799661,8.31349346 3.02626814,8.45594319 C3.9236269,8.92065192 5.09086695,8.70800969 5.36942949,8.64731149 C5.42956761,8.63400536 5.49172054,8.66365298 5.50774277,8.71329508 C5.523765,8.7629019 5.48781354,8.8137705 5.42741262,8.82697957 C4.42975943,9.04440424 3.05531664,8.98285897 2.30059865,8.14822565 C2.27691133,8.27682218 2.27386282,8.41183354 2.28914044,8.54845964 C2.43216665,8.72941598 2.79988953,8.92754323 3.25283947,8.97006461 C3.31491356,8.97591472 3.35944993,9.02198323 3.35238929,9.07299302 C3.34578417,9.12036744 3.29685023,9.15537103 3.2401198,9.15537103 C3.23584487,9.15537103 3.23151737,9.15518574 3.22715484,9.15477985 C2.9052473,9.12454104 2.59015513,9.01878906 2.35880954,8.87330397 C2.45230613,9.16986836 2.62444217,9.45624139 2.8523976,9.68309859 C3.35674306,9.25282875 4.29735046,9.01678608 5.19838846,9.10422007 C5.80318604,9.16285353 6.31065886,9.35499831 6.68101853,9.65871872 C5.98185712,8.36910921 4.27324265,7.700079 3.14502887,7.63317774" id="Fill-14" fill="#585AFA"></path>
            </g>
        </g>
    </g>
</svg>