<?xml version="1.0" encoding="UTF-8"?>
<svg width="1024px" height="1024px" viewBox="0 0 1024 1024" version="1.1" xmlns="http://www.w3.org/2000/svg" xmlns:xlink="http://www.w3.org/1999/xlink">
    <!-- Generator: Sketch 48.2 (47327) - http://www.bohemiancoding.com/sketch -->
    <title>Mac_1024</title>
    <desc>Created with Sketch.</desc>
    <defs>
        <polygon id="path-1" points="0 0.594123826 957.893756 0.594123826 957.893756 894.491892 0 894.491892"></polygon>
    </defs>
    <g id="Page-1" stroke="none" stroke-width="1" fill="none" fill-rule="evenodd">
        <g id="Mac_1024">
            <g id="Page-1-Copy" transform="translate(33.000000, 15.000000)">
                <path d="M710,994 L710,965.837903 C596.018976,963.339725 501.588109,881.215304 479.745,772.614543 C479.275359,771.156167 478.445379,769.833496 477.438234,772.680284 C454.30211,879.014471 360.131887,962.599681 248,965.804731 L248,994 L710,994 Z" id="Fill-1" fill="#585AFA"></path>
                <path d="M335.384022,411.635051 C320.506172,392.19346 310.755615,373.26935 306.274559,355.027213 C305.43331,351.602947 308.153266,348.268131 312.348106,347.583157 C316.539345,346.903587 320.627379,349.113991 321.467427,352.538857 C328.339619,380.516499 348.929796,410.571272 382.727327,442.018803 C386.688154,445.327206 390.461769,448.757474 394.15498,452.325218 C432.367564,485.465672 456.80396,519.95326 470.635351,564.9994 L470.635351,474.719818 C470.635351,424.561293 470.694154,340.610959 433.17641,292.673644 C430.872878,289.731441 431.958941,285.820911 435.564547,283.940086 C439.173753,282.062864 443.914624,282.924333 446.219355,285.865335 C457.040974,299.692068 464.783216,316.103808 470.635351,333.706598 L470.635351,246.285173 C470.635351,242.79247 474.070547,239.961328 478.348791,239.961328 C482.627636,239.961328 486.062232,242.79247 486.062232,246.285173 L486.062232,333.706598 C491.914367,316.103808 499.794017,299.692068 510.615635,285.865335 C512.920967,282.921331 517.756643,282.062864 521.362249,283.940086 C524.967255,285.820911 525.954912,289.731441 523.65138,292.673644 C486.131836,340.610959 486.062232,424.561293 486.062232,474.719818 L486.062232,565 C500.425853,519.95326 524.482428,485.465672 562.695011,452.325218 C566.386422,448.759876 570.263244,445.331408 574.22167,442.025407 C608.025801,410.573073 628.64178,380.515898 635.512172,352.538857 C636.35462,349.113991 640.442054,346.906589 644.642894,347.583157 C648.838334,348.268131 651.563689,351.602947 650.721841,355.027213 C646.241385,373.26815 636.493228,392.19346 621.612978,411.636852 C642.407166,401.517139 665.792902,393.565807 692,387.654387 C676.865935,354.066689 648.031888,324.911206 616.885908,306.565812 C627.109292,380.92292 557.213098,441.052277 521.111435,458.064945 C519.891565,458.638857 518.559489,458.911406 517.245414,458.911406 C514.567461,458.911406 511.964512,457.777388 510.52863,455.749483 C508.390108,452.723835 509.65858,448.857729 513.364392,447.110177 C543.280902,433.011496 588.300874,392.776978 599.615721,343.489527 C599.368507,343.136535 599.154295,342.761931 598.989285,342.361513 C593.407166,328.82774 583.117178,316.996495 570.458855,304.833268 C546.146666,319.771206 529.412909,355.122665 530.095748,389.602448 C544.82299,379.107531 557.213698,352.887647 561.002314,338.974468 C561.930567,335.562809 566.076804,333.425645 570.245243,334.173052 C574.422081,334.930064 577.054432,338.307504 576.125579,341.716161 C575.97257,342.287673 559.096005,398.961547 524.951054,406.022594 C524.322818,406.152264 523.683782,406.2171 523.048346,406.2171 C521.467255,406.2171 519.908366,405.822084 518.590691,405.065672 C516.743185,404.003694 515.555117,402.339587 515.337305,400.501986 C510.412224,358.962356 529.77113,314.760276 560.22707,295.314483 C557.795131,293.105279 555.308589,290.869061 552.778244,288.595022 C525.05126,263.667643 494.2575,235.982961 478.5012,192 C462.7437,235.98236 431.95174,263.667643 404.224756,288.593221 C401.694411,290.86786 399.207269,293.104679 396.77533,295.313883 C427.23127,314.759076 446.590777,358.961756 441.665695,400.501986 C441.448483,402.339587 440.260415,404.003694 438.412309,405.065672 C437.093434,405.822084 435.533345,406.2171 433.954655,406.2171 C433.319218,406.2171 432.678982,406.152264 432.051946,406.022594 C397.907595,398.961547 381.03043,342.287673 380.877422,341.716161 C379.947968,338.307504 382.581519,334.930064 386.757758,334.173052 C390.950797,333.422643 395.072433,335.562809 396.000686,338.974468 C399.789302,352.887647 412.18001,379.107531 426.906652,389.602448 C427.590091,355.122665 410.855735,319.770606 386.543545,304.832668 C373.885222,316.996495 363.595834,328.82774 358.013715,342.361513 C357.848106,342.762531 357.634493,343.137135 357.386679,343.490728 C368.700326,392.777578 413.720298,433.011496 443.638608,447.110177 C447.34382,448.857729 448.612892,452.723835 446.47437,455.749483 C445.039688,457.777388 442.435539,458.911406 439.757586,458.911406 C438.442311,458.911406 437.111435,458.638857 435.890965,458.064945 C399.789302,441.052277 329.891908,380.92292 340.116492,306.565812 C308.969913,324.913007 280.134665,354.06729 265,387.654387 C291.206498,393.565207 314.590434,401.516539 335.384022,411.635051" id="Fill-3" fill="#585AFA"></path>
                <path d="M560,531 C578.443633,518.996578 599.611976,509.567582 620.390732,500.314483 C651.249594,486.571842 681.07755,473.281506 701.849713,452.528742 C701.79637,452.076437 701.79637,451.61456 701.867694,451.144905 C702.887213,444.396233 703.196485,437.667903 702.883017,431 C638.154687,442.326162 589.147678,489.682932 560,531" id="Fill-5" fill="#585AFA"></path>
                <path d="M337.610169,500.314483 C358.387416,509.567582 379.556042,518.998971 398,531 C368.852757,489.679941 319.851274,442.325564 255.117316,431 C254.803254,437.668501 255.112521,444.396233 256.132624,451.144905 C256.203348,451.613962 256.203947,452.076437 256.150005,452.528143 C276.922458,473.281506 306.751167,486.571842 337.610169,500.314483" id="Fill-7" fill="#585AFA"></path>
                <g id="Group-11">
                    <mask id="mask-2" fill="white">
                        <use xlink:href="#path-1"></use>
                    </mask>
                    <g id="Clip-10"></g>
                    <path d="M817.070457,585.223741 C812.482141,621.039359 791.098212,657.567973 759.59766,680.557459 C772.126691,678.620295 783.222324,675.633157 791.85873,671.561808 C794.688912,670.227718 798.242395,670.48961 800.736437,672.210533 C803.232279,673.932057 804.136256,676.749204 802.997581,679.248597 C796.729764,692.999761 783.805768,710.493107 763.242382,726.145996 C762.771785,726.726245 762.181739,727.256037 761.463239,727.699332 C760.961429,728.009278 760.450616,728.304808 759.935601,728.593731 C731.639186,749.045382 689.860542,765.758456 632.294106,765.76206 C629.236429,765.76206 626.150541,765.714607 623.004027,765.6191 C618.72544,765.486953 615.388047,762.551473 615.548914,759.057369 C615.707981,755.566268 619.37131,752.82901 623.582669,752.971969 C664.381103,754.220164 696.89608,746.630684 722.075393,735.137443 C699.259867,733.571493 675.133993,725.195134 660.106118,718.11262 C656.400171,716.364667 655.130041,712.493342 657.269934,709.468963 C659.409828,706.445184 664.147606,705.410228 667.856555,707.152174 C690.43018,717.796067 730.61876,729.270087 750.803388,718.358295 C763.495687,709.023865 773.091294,698.900154 779.86032,689.459406 C721.127597,704.711647 620.086209,693.32052 587.046013,657.094043 C585.497967,655.398349 585.091597,653.18007 585.962561,651.187043 C586.834125,649.194617 588.867774,647.689936 591.382824,647.177563 C620.290294,641.279573 656.210492,638.245584 703.4112,660.490238 C707.117747,662.238191 708.387878,666.106513 706.247984,669.133295 C704.107491,672.158275 699.365511,673.199839 695.661364,671.450684 C659.998674,654.6385 632.368537,653.698449 608.270275,657.146302 C634.109264,675.326214 684.907874,684.303845 729.175157,683.160768 C729.655958,682.761322 730.203387,682.402721 730.826447,682.108993 C738.582285,678.453308 745.890336,673.846761 752.660563,668.504392 C721.858702,641.96554 660.930863,626.882087 604.2588,632.348194 C578.202521,634.856597 534.893838,643.584349 504.318872,673.104332 C516.79208,669.742376 531.688499,667.940963 547.324428,668.877409 C570.952093,670.3016 614.175541,679.702704 638.19577,726.661973 C639.844058,729.887577 637.98028,733.591315 634.02943,734.93802 C633.055224,735.271993 632.042601,735.429369 631.047385,735.429369 C628.014319,735.429369 625.134316,733.964933 623.891197,731.53702 C604.106937,692.857402 570.713794,682.977563 546.183952,681.496909 C517.437349,679.795208 491.086947,689.477426 485.583849,696.919741 C485.556237,696.956983 485.523824,696.99002 485.496212,697.02606 C485.412778,697.134181 485.325741,697.239298 485.234503,697.343214 C485.17988,697.405684 485.123457,697.466953 485.066433,697.52762 C484.972794,697.626131 484.876154,697.721037 484.775311,697.815342 C484.709884,697.87661 484.643857,697.937278 484.575428,697.995543 C484.477587,698.080238 484.376145,698.16253 484.271701,698.242419 C484.193068,698.303688 484.113235,698.363755 484.031001,698.42202 C483.931359,698.492899 483.828116,698.561376 483.723072,698.628651 C483.629433,698.688117 483.534593,698.746983 483.437353,698.802845 C483.343113,698.858107 483.247073,698.911567 483.148632,698.963224 C483.141429,698.966829 483.133026,698.970433 483.125222,698.974637 C483.02378,699.028097 482.920537,699.078553 482.816694,699.127808 C482.754868,699.157241 482.696043,699.189678 482.633017,699.217909 C482.632417,699.217909 482.632417,699.217909 482.631816,699.21851 C482.614409,699.226318 482.595801,699.232325 482.578394,699.239533 C482.541779,699.255151 482.503363,699.267765 482.466747,699.283382 C482.372508,699.322426 482.278269,699.359067 482.182829,699.394506 C482.102996,699.425141 482.024963,699.459379 481.943329,699.48761 C481.895909,699.503228 481.847889,699.51404 481.800469,699.530258 C481.794467,699.53206 481.788464,699.533862 481.781862,699.535664 C481.693024,699.563896 481.602387,699.590325 481.511749,699.616154 C481.41931,699.642584 481.329873,699.673218 481.236234,699.697245 C481.182811,699.710459 481.129389,699.718268 481.076567,699.730882 C480.985929,699.751906 480.894691,699.769325 480.804053,699.788547 C480.658192,699.817379 480.512932,699.84561 480.366471,699.867835 C480.272231,699.882251 480.177992,699.892463 480.083753,699.903876 C479.973306,699.91709 479.863461,699.93451 479.753014,699.94352 C479.7194,699.946523 479.684586,699.946523 479.650972,699.949527 C479.544727,699.957335 479.437883,699.960339 479.331038,699.964543 C479.216991,699.969349 479.103543,699.975956 478.990096,699.976557 C478.97569,699.976557 478.961884,699.978359 478.946878,699.978359 C478.932472,699.978359 478.918666,699.976557 478.90426,699.976557 C478.791413,699.975956 478.677966,699.969349 478.564518,699.964543 C478.457073,699.960339 478.350229,699.957335 478.243384,699.949527 C478.20977,699.946523 478.174956,699.946523 478.141341,699.94352 C478.031496,699.93451 477.92285,699.91709 477.813004,699.904476 C477.717565,699.892463 477.622125,699.882251 477.527285,699.867835 C477.382625,699.84561 477.239765,699.81798 477.095705,699.789147 C477.002066,699.769926 476.907826,699.751906 476.814788,699.730282 C476.763766,699.717667 476.711544,699.710459 476.659923,699.697245 C476.567484,699.673818 476.478047,699.643184 476.386209,699.616755 C476.29317,699.590325 476.200731,699.563896 476.108893,699.534463 C476.085483,699.526654 476.060273,699.520647 476.036863,699.512839 C476.009251,699.503829 475.981039,699.497221 475.954028,699.488211 C475.872394,699.46058 475.795562,699.426943 475.716329,699.396909 C475.617288,699.360268 475.520047,699.321825 475.423407,699.28158 C475.308159,699.233527 475.194711,699.18307 475.083065,699.130211 C474.975019,699.079755 474.868775,699.026896 474.764331,698.972235 C474.715111,698.946406 474.662289,698.924181 474.614269,698.897151 C474.562647,698.86952 474.517028,698.837684 474.466607,698.808852 C474.363364,698.748785 474.261321,698.686315 474.16108,698.622043 C474.062638,698.558973 473.965998,698.494701 473.872359,698.428627 C473.784122,698.365557 473.698286,698.301285 473.613651,698.235812 C473.51521,698.159527 473.41917,698.081439 473.326131,698.00155 C473.253501,697.93848 473.182671,697.874808 473.112442,697.809335 C473.015801,697.718634 472.922763,697.626731 472.833325,697.532426 C472.7733,697.468755 472.714476,697.405084 472.656852,697.33901 C472.567414,697.236896 472.481578,697.13358 472.399944,697.027261 C472.371732,696.99062 472.339319,696.957584 472.311707,696.919741 C466.80981,689.477426 440.473214,679.807822 411.711605,681.496909 C387.181763,682.977563 353.787419,692.857402 334.003759,731.53702 C332.76064,733.964933 329.881237,735.426365 326.847571,735.429369 C325.852956,735.429369 324.842133,735.271993 323.865526,734.93802 C319.914676,733.591315 318.050898,729.887577 319.699786,726.661973 C343.719415,679.702704 386.943463,670.3016 410.570528,668.877409 C426.210659,667.937959 441.101676,669.742376 453.574284,673.100127 C422.997517,643.584349 379.688834,634.856597 353.630154,632.34459 C296.949087,626.887493 236.033253,641.968543 205.234393,668.504392 C212.00462,673.846761 219.312671,678.453308 227.068509,682.108993 C227.69217,682.403322 228.240199,682.761922 228.720999,683.161969 C272.988283,684.305047 323.786293,675.328016 349.625281,657.146302 C325.533022,653.698449 297.898083,654.644506 262.232392,671.450684 C258.525244,673.199839 253.783264,672.158275 251.645171,669.133295 C249.505878,666.106513 250.774808,662.238191 254.481355,660.490238 C301.680263,638.24258 337.59866,641.270563 366.512132,647.177563 C369.026582,647.689936 371.060831,649.194617 371.932996,651.187043 C372.803359,653.18007 372.396389,655.398349 370.848943,657.094043 C337.804546,693.317516 236.767359,704.720657 178.034036,689.459406 C184.812666,698.912768 194.432883,709.049694 207.156996,718.393735 C227.359031,729.250265 267.488786,717.784053 290.038402,707.152174 C293.744949,705.410228 298.484528,706.445184 300.625022,709.468963 C302.764915,712.493342 301.495385,716.364667 297.788838,718.11262 C282.768766,725.192731 258.653697,733.563684 235.846575,735.13504 C261.033091,746.628882 293.546867,754.218963 334.312288,752.971969 C338.521845,752.823604 342.186976,755.563265 342.346642,759.057369 C342.506909,762.551473 339.169516,765.486953 334.890929,765.6191 C331.749818,765.714607 328.653125,765.76206 325.601451,765.76206 C268.006202,765.76206 226.218555,749.036973 197.92394,728.572708 C197.42033,728.290392 196.921522,728.00207 196.431117,727.699332 C195.717419,727.25904 195.130974,726.734053 194.661578,726.15801 C174.09339,710.502117 161.167593,693.003966 154.897375,679.248597 C153.7587,676.749204 154.663278,673.932057 157.158519,672.210533 C159.654962,670.48961 163.209646,670.227718 166.036826,671.561808 C174.672632,675.632557 185.768265,678.620295 198.297296,680.557459 C166.793742,657.567372 145.408613,621.035154 140.822699,585.217735 C140.655829,584.651902 140.591002,584.07706 140.617413,583.507624 C138.792051,567.369392 140.398321,551.422775 146.061686,536.974832 C146.996276,534.589567 149.565949,532.877654 152.615823,532.612157 C155.641086,532.334647 158.619529,533.569627 160.15437,535.738651 C166.895785,545.271302 174.591598,553.362943 182.960893,560.215399 C177.700897,546.20054 174.669631,531.929795 173.532156,517.820631 C173.448121,517.457224 173.362885,517.093818 173.289055,516.726808 C173.144994,516.009607 173.162402,515.302617 173.306462,514.624459 C170.457072,467.635758 188.382357,422.817882 214.525672,395.785278 C216.463281,393.776634 219.689628,392.930288 222.705288,393.613251 C225.717945,394.305224 227.925667,396.408775 228.302625,398.945409 C230.125586,411.218922 233.793117,421.857409 238.930062,431.229681 C239.048311,428.685839 239.246394,426.149204 239.528512,423.623382 C239.540517,423.420355 239.566328,423.215527 239.602943,423.010097 C240.882677,412.061664 243.670241,401.30905 247.693121,390.903023 C247.730336,390.700597 247.778357,390.49757 247.840783,390.294543 C247.984843,389.828422 248.19373,389.389933 248.449437,388.978473 C266.270878,344.735439 306.281784,307.00248 347.196067,287.718533 C349.859379,286.461329 353.185968,286.609094 355.664403,288.101761 C358.143438,289.590825 359.306724,292.136469 358.631442,294.587808 C356.407513,302.645812 355.306053,310.61852 355.15479,318.449469 C365.273215,304.921755 378.949325,292.621211 393.168662,279.835926 C425.120603,251.104624 461.335524,218.538637 471.271473,160.507198 C471.274474,160.488577 471.280477,160.471157 471.284078,160.453137 C471.310489,160.308376 471.346504,160.166016 471.38492,160.024258 C471.402328,159.959986 471.416133,159.893912 471.436542,159.829641 C471.47916,159.690886 471.532582,159.555134 471.587205,159.419983 C471.612415,159.356912 471.634024,159.291439 471.662236,159.22957 C471.724062,159.090815 471.795492,158.956265 471.868722,158.821714 C471.897534,158.768855 471.922145,158.714795 471.952758,158.663137 C472.048798,158.498553 472.155642,158.339376 472.268489,158.1826 C472.279894,158.166983 472.288898,158.150765 472.300303,158.135147 C473.464189,156.551178 475.460022,155.392483 477.87483,155.116174 C478.051304,155.096352 478.227177,155.088543 478.403051,155.078933 C478.430062,155.077131 478.455873,155.074127 478.482884,155.072926 C478.677365,155.063916 478.870646,155.062114 479.063326,155.065117 C479.145561,155.065718 479.227795,155.065117 479.31123,155.06812 C479.446887,155.072926 479.580742,155.084339 479.715199,155.095151 C479.817241,155.102959 479.918684,155.105362 480.020726,155.116174 C480.062143,155.12098 480.10176,155.13059 480.143778,155.135396 C480.217608,155.145006 480.289638,155.158822 480.362869,155.169634 C480.553749,155.199067 480.742828,155.229701 480.927705,155.269345 C480.94091,155.272349 480.954116,155.276553 480.967321,155.279557 C482.700245,155.660382 484.164256,156.504926 485.17808,157.624577 C485.184682,157.632986 485.190685,157.640795 485.197288,157.648003 C485.334745,157.801174 485.464399,157.957949 485.584449,158.120131 C485.622265,158.171188 485.654078,158.225248 485.690093,158.276906 C485.775929,158.400644 485.861765,158.524382 485.937397,158.653527 C485.977613,158.721402 486.010027,158.792282 486.047242,158.861359 C486.111469,158.981493 486.176296,159.101027 486.231519,159.224164 C486.261532,159.292641 486.285542,159.36412 486.313154,159.433798 C486.365375,159.564144 486.416997,159.69449 486.458414,159.827839 C486.478823,159.893912 486.493229,159.961188 486.510636,160.027261 C486.549052,160.168419 486.585067,160.308976 486.610878,160.452537 C486.614479,160.471157 486.621082,160.488577 486.624083,160.507198 C496.558831,218.538637 532.774953,251.104624 564.726894,279.837728 C578.94443,292.622412 592.621141,304.922956 602.739566,318.449469 C602.588303,310.61912 601.487443,302.645812 599.263514,294.587808 C598.588232,292.136469 599.751518,289.590825 602.229953,288.101761 C604.711389,286.609094 608.033776,286.461329 610.699489,287.718533 C651.611372,307.00248 691.620477,344.733037 709.442518,388.974869 C709.698825,389.38753 709.908313,389.827221 710.052973,390.294543 C710.115999,390.498771 710.164019,390.703 710.201235,390.906627 C714.217512,401.297037 717.002075,412.032832 718.28421,422.964446 C718.28481,422.966248 718.28541,422.967449 718.28541,422.968651 C718.326828,423.190298 718.352638,423.410144 718.365244,423.629389 C718.647362,426.153409 718.844844,428.687641 718.962493,431.230282 C724.100038,421.85801 727.76817,411.219523 729.591131,398.945409 C729.967488,396.408775 732.17521,394.305224 735.187268,393.613251 C738.201726,392.924282 741.428073,393.779637 743.367483,395.785278 C769.510199,422.817282 787.434883,467.632755 784.587894,514.620255 C784.732555,515.299614 784.750562,516.008406 784.605902,516.726808 C784.532071,517.093818 784.446235,517.457224 784.3622,517.821231 C783.224725,531.930996 780.193459,546.201741 774.933463,560.217802 C783.302758,553.364745 790.999171,545.272503 797.741186,535.738651 C799.271825,533.569627 802.206451,532.334647 805.279133,532.612157 C808.329007,532.877654 810.89868,534.589567 811.83327,536.974832 C817.495434,551.420372 819.101705,567.363986 817.277543,583.498614 C817.305155,584.072855 817.239727,584.653104 817.070457,585.223741 M947.453897,583.175453 C871.82772,323.344939 565.210696,87.2030936 478.475081,0.594123826 C391.738865,87.2030936 85.1212412,323.344939 9.49506454,583.175453 C0.844252506,612.899063 -2.8016698,646.149815 2.40610464,678.593865 C14.6758277,799.855553 116.997551,894.491892 241.409097,894.491892 C356.402111,894.491892 453.80478,809.999087 477.386826,702.003822 C478.392846,699.169255 479.222393,700.486527 479.692389,701.938949 C501.865047,811.78248 598.851742,894.491892 715.155704,894.491892 C821.524917,894.491892 911.687963,825.287369 943.286957,729.435271 C963.727892,681.717956 960.403704,627.668365 947.453897,583.175453" id="Fill-9" fill="#585AFA" mask="url(#mask-2)"></path>
                </g>
                <path d="M737.170324,623.989711 C736.872402,624.017377 736.57508,624.030006 736.281954,624.030006 C732.401181,624.030006 729.052711,621.644757 728.601332,618.415108 C728.117585,614.938273 731.165136,611.798236 735.412766,611.399492 C766.407399,608.501227 791.570081,594.996241 801.357134,582.66283 C802.403157,573.350975 802.193952,564.150384 800.573067,555.387028 C748.931332,612.269151 654.885827,616.4695 586.60784,601.647394 C582.475902,600.747062 580.015801,597.279248 581.111577,593.89804 C582.209751,590.517433 586.453784,588.497248 590.576731,589.400588 C609.637717,593.537787 689.510667,608.033319 750.915477,576.3593 C756.272071,566.648701 760.319488,556.571233 763.189007,546.339199 C740.081803,562.383399 698.438723,572.851191 637.448724,578.066744 C637.17478,578.088396 636.903234,578.100424 636.634685,578.100424 C632.721542,578.100424 629.361083,575.678488 628.946271,572.42418 C628.501486,568.94494 631.587402,565.829561 635.839228,565.464496 C715.975932,558.611866 760.470547,542.659083 768.214709,518.027143 C769.764861,498.628197 767.591892,479.379006 762.574581,461.691714 C752.081388,473.547595 738.88652,484.840542 723.745271,494.862679 C722.31261,495.812929 720.591019,496.27362 718.883215,496.27362 C716.625725,496.27362 714.390414,495.469516 712.859445,493.922652 C710.172156,491.200605 710.686476,487.213762 714.00977,485.013752 C731.776565,473.251694 746.597113,459.682957 757.069925,445.622856 C752.765349,434.990875 747.405158,425.181642 741.214744,416.575258 C725.818134,469.015861 676.214493,491.219249 628.107055,512.755056 C590.795527,529.45541 555.555063,545.230774 536.037903,574.292806 C534.091523,577.197084 529.741988,578.382492 526.04824,577.005832 C522.364683,575.632178 520.594537,572.164365 521.990632,569.055602 C543.952906,520.117694 606.107616,434.977643 701.840543,419.246785 C700.769344,412.73396 699.125681,406.306537 696.987479,400 C651.229844,410.277141 614.693392,427.062897 585.926877,451.061537 C582.279885,454.457781 578.490227,457.866054 574.554905,461.285152 C518.453338,510.032408 493.676095,562.27394 488,650.414497 C540.955108,554.941373 666.252404,512.095293 741.675114,507.638738 C745.917349,507.403581 749.644066,510.014365 749.950979,513.503228 C750.25969,516.992091 747.053287,520.023872 742.790071,520.277072 C665.589424,524.837072 548.672295,570.437675 500.829809,658.335859 C526.171724,637.63543 560.894872,624.539413 602.275997,620.54415 C663.951155,614.572607 728.301013,630.670935 762.813757,660 C778.412379,644.536776 790.191969,625.017545 796.58979,604.805474 C780.758586,614.720557 759.197937,621.928629 737.170324,623.989711" id="Fill-12" fill="#585AFA"></path>
                <path d="M215.209833,520.277395 C210.947205,520.024196 207.740793,516.992422 208.048906,513.503567 C208.354621,510.014712 212.059768,507.434607 216.325393,507.638489 C291.747709,512.095636 417.044148,554.941014 470,650.412715 C464.323889,562.273564 439.545979,510.032754 383.445458,461.285611 C379.507727,457.864717 375.716261,454.455249 372.067461,451.056608 C343.301467,427.060429 306.765514,410.274712 261.011351,400 C258.872544,406.306522 257.228876,412.734532 256.157674,419.247342 C351.892062,434.977562 414.047541,520.118018 436.009275,569.055812 C437.406573,572.164568 435.637022,575.632373 431.952855,577.006023 C428.269887,578.379072 423.913147,577.194269 421.961965,574.293004 C402.445352,545.231039 367.202395,529.455712 329.893761,512.755397 C281.784993,491.21964 232.180018,469.016303 216.783966,416.575821 C210.593534,425.181584 205.233329,434.990192 200.92934,445.62275 C211.400383,459.682819 226.220972,473.252126 243.990213,485.014157 C247.313516,487.213561 247.827837,491.200996 245.140541,493.923036 C243.611965,495.469295 241.37485,496.273999 239.116155,496.273999 C237.408946,496.273999 235.689148,495.813309 234.255285,494.863061 C219.111597,484.840947 205.917292,473.548026 195.42467,461.692173 C190.407945,479.378823 188.23497,498.626766 189.785125,518.025667 C197.52751,542.658753 242.021048,558.612101 322.160967,565.464715 C326.412206,565.829779 329.49873,568.944549 329.054544,572.424383 C328.638531,575.678683 325.279262,578.100613 321.366108,578.100613 C321.097558,578.100613 320.825412,578.088585 320.551467,578.066332 C259.561303,572.851393 217.918109,562.382422 194.810242,546.33886 C197.679768,556.570871 201.727197,566.647714 207.083206,576.357088 C268.488184,608.031635 348.360753,593.537941 367.42239,589.400751 C371.537555,588.493805 375.790591,590.514587 376.88697,593.898193 C377.983348,597.279393 375.523241,600.746597 371.390092,601.646928 C303.122109,616.466593 209.070953,612.271667 157.426679,555.38306 C155.80579,564.1482 155.597184,573.350574 156.64261,582.663009 C166.42969,594.996993 191.592441,608.501346 222.587158,611.399604 C226.8348,611.798347 229.88236,614.938377 229.39921,618.415204 C228.947231,621.644244 225.598751,624.03009 221.716769,624.03009 C221.424242,624.03009 221.128117,624.01746 220.829596,623.989794 C198.801923,621.928717 177.240615,614.720662 161.409967,604.804399 C167.807805,625.018228 179.586829,644.537413 195.185493,660 C229.697132,630.672807 294.061553,614.584139 355.718296,620.54364 C397.10373,624.540096 431.82937,637.636685 457.172554,658.338268 C409.329937,570.438484 292.41189,524.837384 215.209833,520.277395" id="Fill-14" fill="#585AFA"></path>
            </g>
        </g>
    </g>
</svg>