<?xml version="1.0" encoding="UTF-8"?>
<svg width="32px" height="32px" viewBox="0 0 32 32" version="1.1" xmlns="http://www.w3.org/2000/svg" xmlns:xlink="http://www.w3.org/1999/xlink">
    <!-- Generator: Sketch 48.2 (47327) - http://www.bohemiancoding.com/sketch -->
    <title>Mac_32</title>
    <desc>Created with Sketch.</desc>
    <defs>
        <polygon id="path-1" points="0 0.0179313026 28.796806 0.0179313026 28.796806 26.9967372 0 26.9967372"></polygon>
    </defs>
    <g id="Page-1" stroke="none" stroke-width="1" fill="none" fill-rule="evenodd">
        <g id="Mac_32">
            <g id="Page-1-Copy-5" transform="translate(2.000000, 1.000000)">
                <path d="M21.3444676,30 L21.3444676,29.1500373 C17.9178982,29.0746396 15.079058,26.5960353 14.4223966,23.3183464 C14.408278,23.274331 14.3833266,23.2344113 14.3530492,23.3203305 C13.6575164,26.5296118 10.8265119,29.0523043 7.45553236,29.1490361 L7.45553236,30 L21.3444676,30 Z" id="Fill-1" fill="#585AFA"></path>
                <path d="M10.0825259,12.4235931 C9.63525861,11.8368247 9.34213121,11.2656746 9.20741888,10.715107 C9.18212875,10.611759 9.26389776,10.5111106 9.39000568,10.4904373 C9.51600536,10.4699272 9.63890241,10.5366396 9.66415646,10.6400057 C9.87075265,11.4844014 10.4897475,12.3914871 11.5057902,13.3406077 C11.6248631,13.4404589 11.7383079,13.5439882 11.8493355,13.6516665 C12.9981063,14.6518814 13.7327287,15.6927543 14.1485366,17.0522958 L14.1485366,14.3275599 C14.1485366,12.8137211 14.1503044,10.2800088 13.0224223,8.83320858 C12.9531721,8.7444097 12.985822,8.62638564 13.094216,8.56962031 C13.2027182,8.51296369 13.3452413,8.53896377 13.4145276,8.62772642 C13.7398539,9.04503222 13.9726061,9.54035639 14.1485366,10.0716277 L14.1485366,7.43315412 C14.1485366,7.32774055 14.2518077,7.2422936 14.380423,7.2422936 C14.5090563,7.2422936 14.6123093,7.32774055 14.6123093,7.43315412 L14.6123093,10.0716277 C14.7882398,9.54035639 15.0251228,9.04503222 15.3504492,8.62772642 C15.4197535,8.53887318 15.5651266,8.51296369 15.6735206,8.56962031 C15.7818966,8.62638564 15.8115882,8.7444097 15.7423379,8.83320858 C14.6144018,10.2800088 14.6123093,12.8137211 14.6123093,14.3275599 L14.6123093,17.0523139 C15.0441175,15.6927543 15.7673214,14.6518814 16.9160922,13.6516665 C17.0270657,13.5440606 17.1436132,13.4405858 17.2626139,13.340807 C18.278855,12.3915414 18.8986255,11.4843832 19.1051676,10.6400057 C19.1304938,10.5366396 19.2533728,10.4700178 19.3796611,10.4904373 C19.5057871,10.5111106 19.5877184,10.611759 19.5624103,10.715107 C19.427716,11.2656383 19.1346607,11.8368247 18.6873213,12.4236474 C19.3124493,12.1182235 20.015486,11.8782437 20.8033403,11.6998306 C20.3483705,10.6861174 19.4815432,9.80617323 18.5452131,9.2524893 C18.8525549,11.4966676 16.7512915,13.3114369 15.6659805,13.8248977 C15.629308,13.842219 15.5892623,13.8504448 15.5497577,13.8504448 C15.4692514,13.8504448 15.391,13.816219 15.3478336,13.7550146 C15.283544,13.6636972 15.3216776,13.547014 15.433084,13.4942709 C16.332453,13.0687574 17.6858718,11.8544359 18.0260258,10.3668871 C18.0185939,10.3562334 18.0121542,10.3449275 18.0071935,10.3328424 C17.8393804,9.92437847 17.5300363,9.56729863 17.1494938,9.20019925 C16.4186054,9.65104244 15.9155447,10.7179879 15.9360726,11.7586252 C16.3788122,11.4418772 16.7513095,10.6505326 16.8652053,10.2306177 C16.893111,10.1276502 17.0177578,10.0631482 17.143072,10.0857058 C17.2686388,10.1085532 17.3477741,10.2104881 17.3198504,10.313365 C17.3152505,10.3306139 16.8078966,12.041093 15.7814096,12.254203 C15.7625231,12.2581166 15.743312,12.2600734 15.7242091,12.2600734 C15.6766774,12.2600734 15.6298131,12.2481514 15.5902003,12.2253221 C15.5346594,12.1932704 15.498943,12.1430459 15.492395,12.0875851 C15.3443341,10.8338739 15.9263137,9.49980713 16.8418994,8.91291196 C16.7687889,8.84623579 16.6940369,8.7787443 16.6179681,8.71011134 C15.784422,7.95777593 14.8586806,7.12222215 14.3850048,5.79476861 C13.9112928,7.12220404 12.9856055,7.95777593 12.1520595,8.71005698 C12.0759906,8.77870806 12.0012206,8.84621768 11.9281101,8.91289384 C12.8436958,9.4997709 13.4256935,10.8338558 13.2776326,12.0875851 C13.2711026,12.1430459 13.2353862,12.1932704 13.1798273,12.2253221 C13.1401784,12.2481514 13.093278,12.2600734 13.0458184,12.2600734 C13.0267155,12.2600734 13.0074683,12.2581166 12.988618,12.254203 C11.962149,12.041093 11.454777,10.3306139 11.4501772,10.313365 C11.4222354,10.2104881 11.5014068,10.1085532 11.6269556,10.0857058 C11.7530094,10.0630576 11.8769166,10.1276502 11.9048223,10.2306177 C12.0187181,10.6505326 12.3912153,11.4418772 12.8339369,11.7586252 C12.8544829,10.7179879 12.3514041,9.65102432 11.6205158,9.20018113 C11.2399733,9.56729863 10.9306472,9.92437847 10.762834,10.3328424 C10.7578554,10.3449456 10.7514336,10.3562516 10.7439837,10.3669234 C11.0841017,11.8544541 12.4375205,13.0687574 13.3369435,13.4942709 C13.4483319,13.547014 13.4864836,13.6636972 13.422194,13.7550146 C13.3790637,13.816219 13.3007761,13.8504448 13.2202698,13.8504448 C13.1807292,13.8504448 13.1407195,13.842219 13.104029,13.8248977 C12.0187181,13.3114369 9.91741853,11.4966676 10.2247964,9.2524893 C9.28844831,9.80622758 8.42158491,10.6861355 7.96659708,11.6998306 C8.75443333,11.8782256 9.45741596,12.1182054 10.0825259,12.4235931" id="Fill-3" fill="#585AFA"></path>
                <path d="M16.8350731,16.0261569 C17.3895372,15.6638806 18.0259133,15.3793033 18.6505773,15.1000347 C19.5782759,14.6852669 20.4749827,14.2841501 21.0994486,13.6578091 C21.0978449,13.6441581 21.0978449,13.6302181 21.0999891,13.6160434 C21.1306385,13.4123612 21.1399361,13.2092929 21.1305124,13.0080483 C19.1846085,13.3498842 17.7113289,14.7791629 16.8350731,16.0261569" id="Fill-5" fill="#585AFA"></path>
                <path d="M10.1494497,15.1000347 C10.7740685,15.3793033 11.410453,15.6639528 11.9649269,16.0261569 C11.0886841,14.7790727 9.61557066,13.3498661 7.6694976,13.0080483 C7.66005607,13.2093109 7.66935346,13.4123612 7.70002042,13.6160434 C7.70214657,13.6302 7.70216459,13.6441581 7.70054295,13.657791 C8.32501751,14.2841501 9.22174699,14.6852669 10.1494497,15.1000347" id="Fill-7" fill="#585AFA"></path>
                <g id="Group-11">
                    <mask id="mask-2" fill="white">
                        <use xlink:href="#path-1"></use>
                    </mask>
                    <g id="Clip-10"></g>
                    <path d="M24.5632872,17.6626884 C24.4253504,18.7436426 23.7824932,19.8461159 22.8355038,20.5399636 C23.2121594,20.4814978 23.5457233,20.3913428 23.8053564,20.268465 C23.8904391,20.2282007 23.9972662,20.2361049 24.0722436,20.2880443 C24.1472752,20.3400017 24.1744511,20.4250263 24.1402195,20.5004607 C23.9517925,20.9154858 23.5632632,21.4434539 22.9450737,21.9158751 C22.9309263,21.9333877 22.913188,21.9493774 22.891588,21.9627565 C22.8765023,21.972111 22.8611459,21.9810304 22.8456632,21.9897504 C21.9949985,22.6070035 20.7390226,23.1114222 19.0084241,23.111531 C18.9165023,23.111531 18.8237323,23.1100988 18.7291398,23.1072163 C18.6005143,23.1032279 18.5001835,23.014632 18.5050195,22.9091761 C18.5098015,22.8038109 18.6199308,22.7211975 18.7465353,22.7255122 C19.9730436,22.763184 20.9505293,22.5341253 21.7074857,22.1872468 C21.021591,22.1399847 20.2963038,21.8871771 19.8445263,21.6734191 C19.7331158,21.620664 19.6949323,21.5038232 19.7592632,21.4125441 C19.823594,21.3212832 19.9660241,21.2900471 20.0775248,21.342621 C20.7561474,21.6638652 21.9643218,22.0101636 22.5711248,21.6808339 C22.9526887,21.3991106 23.2411579,21.093566 23.4446526,20.808634 C21.6789925,21.2689632 18.6414226,20.9251666 17.6481474,19.8318122 C17.601609,19.7806343 17.5893925,19.7136842 17.6155759,19.6535325 C17.6417774,19.5933989 17.7029143,19.547986 17.7785233,19.532522 C18.6475579,19.3545143 19.7274135,19.2629452 21.146391,19.934313 C21.2578195,19.9870681 21.296003,20.1038183 21.2316722,20.1951699 C21.1673233,20.286467 21.0247669,20.3179026 20.9134105,20.2651112 C19.8412962,19.7577012 19.0106617,19.7293295 18.2862045,19.8333894 C19.0629925,20.3820789 20.5901323,20.6530336 21.9209233,20.6185342 C21.9353774,20.6064785 21.9518346,20.5956556 21.9705654,20.5867905 C22.2037263,20.476458 22.4234256,20.3374274 22.6269564,20.1761889 C21.7009714,19.3752175 19.8693203,18.9199825 18.165609,19.0849556 C17.3822887,19.1606619 16.0803158,19.4240749 15.1611519,20.3150201 C15.5361293,20.2135526 15.9839549,20.159184 16.454012,20.187447 C17.1643218,20.2304306 18.4637323,20.5141661 19.1858436,21.9314479 C19.2353955,22.0288001 19.1793654,22.140583 19.0605925,22.181228 C19.0313053,22.1913076 19.0008632,22.1960574 18.9709444,22.1960574 C18.8797624,22.1960574 18.793182,22.1518591 18.7558105,22.0785821 C18.1610436,20.9111892 17.1571579,20.6130049 16.4197263,20.5683172 C15.5555278,20.516958 14.7633654,20.8091778 14.5979278,21.033795 C14.5970977,21.034919 14.5961233,21.0359161 14.5952932,21.0370038 C14.592785,21.040267 14.5901684,21.0434396 14.5874256,21.0465759 C14.5857835,21.0484613 14.5840872,21.0503104 14.5823729,21.0521415 C14.5795579,21.0551146 14.5766526,21.057979 14.5736211,21.0608252 C14.5716541,21.0626744 14.5696692,21.0645054 14.567612,21.0662639 C14.5646707,21.0688201 14.5616211,21.0713037 14.5584812,21.0737149 C14.5561173,21.075564 14.5537173,21.0773769 14.5512451,21.0791354 C14.5482496,21.0812746 14.5451459,21.0833413 14.541988,21.0853718 C14.5391729,21.0871665 14.5363218,21.0889431 14.5333985,21.0906291 C14.5305654,21.092297 14.5276782,21.0939105 14.5247188,21.0954696 C14.5245023,21.0955783 14.5242496,21.0956871 14.524015,21.095814 C14.5209654,21.0974275 14.5178617,21.0989503 14.5147398,21.1004369 C14.5128812,21.1013252 14.5111128,21.1023042 14.509218,21.1031562 C14.5092,21.1031562 14.5092,21.1031562 14.509182,21.1031743 C14.5086586,21.10341 14.5080992,21.1035913 14.5075759,21.1038088 C14.5064752,21.1042802 14.5053203,21.1046609 14.5042195,21.1051323 C14.5013865,21.1063106 14.4985534,21.1074165 14.4956842,21.1084861 C14.4932842,21.1094107 14.4909383,21.110444 14.4884842,21.1112961 C14.4870586,21.1117674 14.485615,21.1120938 14.4841895,21.1125832 C14.484009,21.1126376 14.4838286,21.112692 14.4836301,21.1127464 C14.4809594,21.1135985 14.4782346,21.1143961 14.4755098,21.1151757 C14.4727308,21.1159733 14.4700421,21.1168979 14.4672271,21.1176231 C14.4656211,21.1180219 14.464015,21.1182576 14.4624271,21.1186383 C14.4597023,21.1192728 14.4569594,21.1197985 14.4542346,21.1203787 C14.4498496,21.1212489 14.4454827,21.1221009 14.4410797,21.1227717 C14.4382466,21.1232068 14.4354135,21.123515 14.4325805,21.1238594 C14.4292602,21.1242583 14.4259579,21.124784 14.4226376,21.1250559 C14.4216271,21.1251466 14.4205805,21.1251466 14.4195699,21.1252372 C14.4163759,21.1254729 14.4131639,21.1255635 14.4099519,21.1256904 C14.4065233,21.1258355 14.4031128,21.1260349 14.3997023,21.126053 C14.3992692,21.126053 14.3988541,21.1261074 14.398403,21.1261074 C14.3979699,21.1261074 14.3975549,21.126053 14.3971218,21.126053 C14.3937293,21.1260349 14.3903188,21.1258355 14.3869083,21.1256904 C14.3836782,21.1255635 14.3804662,21.1254729 14.3772541,21.1252372 C14.3762436,21.1251466 14.375197,21.1251466 14.3741865,21.1250559 C14.3708842,21.124784 14.367618,21.1242583 14.3643158,21.1238776 C14.3614466,21.123515 14.3585774,21.1232068 14.3557263,21.1227717 C14.3513774,21.1221009 14.3470827,21.121267 14.3427519,21.1203968 C14.3399368,21.1198167 14.3371038,21.1192728 14.3343068,21.1186202 C14.3327729,21.1182395 14.331203,21.1180219 14.3296511,21.1176231 C14.3268722,21.116916 14.3241835,21.1159915 14.3214226,21.1151938 C14.3186256,21.1143961 14.3158466,21.1135985 14.3130857,21.1127101 C14.312382,21.1124745 14.3116241,21.1122932 14.3109203,21.1120575 C14.3100902,21.1117856 14.3092421,21.1115862 14.3084301,21.1113142 C14.3059759,21.1104803 14.3036662,21.1094651 14.3012842,21.1085586 C14.2983068,21.1074528 14.2953835,21.1062925 14.2924782,21.1050779 C14.2890135,21.1036276 14.285603,21.1021047 14.2822466,21.1005094 C14.2789985,21.0989866 14.2758045,21.0973912 14.2726647,21.0957415 C14.271185,21.0949619 14.269597,21.0942912 14.2681534,21.0934754 C14.2666015,21.0926414 14.2652301,21.0916806 14.2637143,21.0908104 C14.2606105,21.0889975 14.2575429,21.0871121 14.2545293,21.0851723 C14.2515699,21.0832688 14.2486647,21.081329 14.2458496,21.0793348 C14.243197,21.0774313 14.2406165,21.0754915 14.2380722,21.0735154 C14.2351128,21.0712131 14.2322256,21.0688563 14.2294286,21.0664452 C14.2272451,21.0645416 14.2251158,21.06262 14.2230045,21.0606439 C14.2200992,21.0579065 14.2173023,21.0551327 14.2146135,21.0522865 C14.212809,21.0503648 14.2110406,21.0484432 14.2093083,21.046449 C14.2066195,21.0433671 14.2040391,21.0402489 14.201585,21.0370401 C14.2007368,21.0359342 14.1997624,21.0349371 14.1989323,21.033795 C14.0335308,20.8091778 13.2417835,20.5173387 12.3771338,20.5683172 C11.6397023,20.6130049 10.6357805,20.9111892 10.0410316,22.0785821 C10.0036602,22.1518591 9.91709774,22.1959668 9.82589774,22.1960574 C9.79599699,22.1960574 9.76560902,22.1913076 9.73624962,22.181228 C9.61747669,22.140583 9.56144662,22.0288001 9.61101654,21.9314479 C10.3331098,20.5141661 11.6325383,20.2304306 12.3428301,20.187447 C12.8130135,20.1590933 13.2606767,20.2135526 13.6356361,20.3148932 C12.716418,19.4240749 11.4144451,19.1606619 10.6310526,19.0848468 C8.92707068,18.9201457 7.09578045,19.3753081 6.16988571,20.1761889 C6.37341654,20.3374274 6.59311579,20.476458 6.82627669,20.5867905 C6.84502556,20.5956737 6.86150075,20.6064967 6.87595489,20.6185705 C8.20674586,20.6530698 9.73386767,20.3821333 10.5106556,19.8333894 C9.78637895,19.7293295 8.9556,19.7578825 7.88339549,20.2651112 C7.77194887,20.3179026 7.62939248,20.286467 7.56511579,20.1951699 C7.50080301,20.1038183 7.53895038,19.9870681 7.65037895,19.934313 C9.06930226,19.2628545 10.1491038,19.3542424 11.0183188,19.532522 C11.0939098,19.547986 11.1550647,19.5933989 11.1812842,19.6535325 C11.2074496,19.7136842 11.195215,19.7806343 11.1486947,19.8318122 C10.1552932,20.9250759 7.11784962,21.2692351 5.35217143,20.808634 C5.55595489,21.0939467 5.84516391,21.3998902 6.22768421,21.6819035 C6.83501053,22.0095653 8.04141654,21.6635026 8.71931729,21.342621 C8.83074586,21.2900471 8.97323008,21.3212832 9.03757895,21.4125441 C9.10190977,21.5038232 9.06374436,21.620664 8.95231579,21.6734191 C8.50077293,21.8871046 7.77581053,22.139749 7.09016842,22.1871742 C7.84734135,22.5340709 8.82479098,22.7631478 10.0503068,22.7255122 C10.1768571,22.7210343 10.2870406,22.8037203 10.2918406,22.9091761 C10.2966586,23.014632 10.1963278,23.1032279 10.0677023,23.1072163 C9.97327218,23.1100988 9.88017744,23.111531 9.78843609,23.111531 C8.05697143,23.111531 6.80072481,22.6067497 5.95011429,21.9891159 C5.93497444,21.9805953 5.91997895,21.9718935 5.90523609,21.9627565 C5.88378045,21.949468 5.86615038,21.9336233 5.8520391,21.9162377 C5.23370526,21.4437259 4.8451218,20.9156127 4.65662256,20.5004607 C4.62239098,20.4250263 4.64958496,20.3400017 4.7245985,20.2880443 C4.79964812,20.2361049 4.90651128,20.2282007 4.99150376,20.268465 C5.2511188,20.3913246 5.58468271,20.4814978 5.96133835,20.5399636 C5.01425865,19.8460978 4.37136541,18.7435157 4.23350075,17.6625071 C4.22848421,17.6454296 4.22653534,17.6280803 4.22732932,17.6108941 C4.17245414,17.1238247 4.22074286,16.6425385 4.3909985,16.2064839 C4.41909474,16.134494 4.49634586,16.0828266 4.58803308,16.0748136 C4.67898045,16.066438 4.7685203,16.1037111 4.81466165,16.1691746 C5.01732632,16.4568803 5.24868271,16.7010948 5.50028571,16.9079094 C5.34215639,16.4849258 5.25102857,16.0542192 5.21683308,15.6283893 C5.21430677,15.6174213 5.21174436,15.6064533 5.20952481,15.5953765 C5.20519398,15.5737306 5.20571729,15.5523929 5.21004812,15.5319253 C5.12438797,14.1137553 5.66326917,12.7611031 6.44920602,11.9452297 C6.50745564,11.8846067 6.60444812,11.859063 6.69510677,11.8796756 C6.78567519,11.9005601 6.85204511,11.9640475 6.86337744,12.0406059 C6.91818045,12.4110339 7.02843609,12.732115 7.18286617,13.0149803 C7.18642105,12.9382044 7.19237594,12.861646 7.20085714,12.785414 C7.20121805,12.7792864 7.20199398,12.7731044 7.20309474,12.7669043 C7.24156692,12.4364687 7.32536842,12.1119432 7.44630677,11.797878 C7.44742556,11.7917685 7.44886917,11.7856409 7.45074586,11.7795134 C7.45507669,11.7654453 7.46135639,11.7522112 7.46904361,11.7397929 C8.00480301,10.4044901 9.20763609,9.2656684 10.4376271,8.68365794 C10.5176932,8.64571414 10.6176992,8.65017385 10.6922075,8.69522419 C10.7667338,8.74016575 10.8017053,8.81699606 10.7814045,8.89098013 C10.7145474,9.13417943 10.6814346,9.37480442 10.6768872,9.61115099 C10.9810737,9.20286986 11.3922135,8.83162609 11.8196842,8.44575229 C12.7802436,7.57861038 13.8689594,6.59573352 14.1676602,4.84428162 C14.1677504,4.84371962 14.1679308,4.84319388 14.1680391,4.84265002 C14.1688331,4.83828095 14.1699158,4.8339844 14.1710707,4.82970598 C14.171594,4.82776618 14.172009,4.825772 14.1726226,4.82383221 C14.1739038,4.81964443 14.1755098,4.8155473 14.1771519,4.8114683 C14.1779098,4.80956476 14.1785594,4.80758871 14.1794075,4.80572143 C14.1812662,4.80153365 14.1834135,4.79747278 14.185615,4.7934119 C14.1864812,4.79181656 14.1872211,4.79018496 14.1881414,4.78862587 C14.1910286,4.78365855 14.1942406,4.77885439 14.1976331,4.77412275 C14.1979759,4.77365139 14.1982466,4.77316191 14.1985895,4.77269056 C14.2335789,4.72488463 14.2935789,4.68991397 14.3661744,4.68157467 C14.3714797,4.68097642 14.3767669,4.68074074 14.3820541,4.68045068 C14.3828662,4.68039629 14.3836421,4.68030565 14.3844541,4.68026939 C14.3903008,4.67999746 14.3961113,4.67994307 14.4019038,4.68003372 C14.4043759,4.68005184 14.4068481,4.68003372 14.4093564,4.68012436 C14.4134346,4.68026939 14.4174586,4.68061384 14.4215008,4.68094016 C14.4245684,4.68117584 14.427618,4.68124835 14.4306857,4.68157467 C14.4319308,4.6817197 14.4331218,4.68200977 14.434385,4.6821548 C14.4366045,4.68244486 14.4387699,4.68286183 14.4409714,4.68318815 C14.4467098,4.68407646 14.452394,4.68500104 14.4579519,4.68619754 C14.4583489,4.68628819 14.4587459,4.68641509 14.4591429,4.68650574 C14.5112391,4.69799946 14.5552511,4.72348871 14.5857293,4.75728099 C14.5859278,4.7575348 14.5861083,4.75777047 14.5863068,4.75798802 C14.5904391,4.76261089 14.5943368,4.76734254 14.5979459,4.77223734 C14.5990827,4.7737783 14.6000391,4.7754099 14.6011218,4.77696899 C14.6037023,4.78070354 14.6062827,4.7844381 14.6085564,4.78833581 C14.6097654,4.79038438 14.6107398,4.79252359 14.6118586,4.79460841 C14.6137895,4.79823419 14.6157383,4.80184185 14.6173985,4.80555827 C14.6183008,4.80762497 14.6190226,4.80978231 14.6198526,4.81188526 C14.6214226,4.81581923 14.6229744,4.81975321 14.6242195,4.82377782 C14.6248331,4.825772 14.6252662,4.82780244 14.6257895,4.82979662 C14.6269444,4.83405692 14.6280271,4.83829908 14.628803,4.84263189 C14.6289113,4.84319388 14.6291098,4.84371962 14.6292,4.84428162 C14.9278647,6.59573352 16.0166165,7.57861038 16.9771759,8.44580668 C17.4045925,8.83166235 17.8157504,9.20290612 18.1199368,9.61115099 C18.1153895,9.37482255 18.0822947,9.13417943 18.0154376,8.89098013 C17.9951368,8.81699606 18.0301083,8.74016575 18.1046165,8.69522419 C18.179215,8.65017385 18.2790947,8.64571414 18.3592331,8.68365794 C19.5891519,9.2656684 20.7919308,10.4044176 21.3277083,11.7396842 C21.3354135,11.7521387 21.3417113,11.7654091 21.3460602,11.7795134 C21.3479549,11.7856772 21.3493985,11.791841 21.3505173,11.7979867 C21.4712571,12.1115806 21.5549684,12.4355985 21.5935128,12.7655265 C21.5935308,12.7655809 21.5935489,12.7656172 21.5935489,12.7656534 C21.594794,12.772343 21.5955699,12.7789782 21.5959489,12.7855952 C21.6044301,12.8617729 21.6103669,12.9382588 21.6139038,13.0149984 C21.7683519,12.7321331 21.8786256,12.411052 21.9334286,12.0406059 C21.9447429,11.9640475 22.0111128,11.9005601 22.1016632,11.8796756 C22.1922857,11.8588817 22.2892782,11.8846973 22.347582,11.9452297 C23.1335008,12.761085 23.6723639,14.1136646 23.5867759,15.5317984 C23.5911248,15.5523022 23.5916662,15.5736943 23.5873173,15.5953765 C23.5850977,15.6064533 23.5825173,15.6174213 23.579991,15.6284074 C23.5457955,16.0542554 23.4546677,16.484962 23.2965383,16.9079819 C23.5481414,16.7011492 23.7795158,16.4569166 23.9821985,16.1691746 C24.0282135,16.1037111 24.1164361,16.066438 24.208809,16.0748136 C24.3004962,16.0828266 24.3777474,16.134494 24.4058436,16.2064839 C24.5760632,16.642466 24.6243519,17.1236616 24.5695128,17.6106221 C24.5703429,17.6279534 24.5683759,17.6454659 24.5632872,17.6626884 M28.4829564,17.6008688 C26.2094346,9.75890159 16.9917203,2.63188411 14.3842195,0.0179313026 C11.7767008,2.63188411 2.55896842,9.75890159 0.285446617,17.6008688 C0.0253804511,18.4979597 -0.0842255639,19.5015035 0.0723338346,20.4807002 C0.441193985,24.1405097 3.51725414,26.9967372 7.25739248,26.9967372 C10.714385,26.9967372 13.6425654,24.4466525 14.3515038,21.1872381 C14.3817474,21.1016878 14.4066857,21.1414445 14.420815,21.1852802 C15.0873835,24.5004772 18.0030586,26.9967372 21.4994617,26.9967372 C24.6972,26.9967372 27.4077383,24.9080695 28.3576872,22.015149 C28.9721955,20.5749886 28.8722617,18.9437132 28.4829564,17.6008688" id="Fill-9" fill="#585AFA" mask="url(#mask-2)"></path>
                </g>
                <path d="M22.161279,18.8326875 C22.1523227,18.8335224 22.1433845,18.8339036 22.1345723,18.8339036 C22.0179061,18.8339036 21.9172422,18.7619142 21.9036726,18.6644399 C21.8891299,18.5595052 21.9807473,18.4647355 22.1084422,18.452701 C23.0402224,18.3652282 23.7966789,17.957633 24.0909034,17.5853973 C24.1223496,17.3043554 24.1160604,17.0266715 24.0673323,16.7621839 C22.5148459,18.4789482 19.6875906,18.6057193 17.6349747,18.1583721 C17.5107578,18.131199 17.4368007,18.0265367 17.4697426,17.9244881 C17.5027566,17.8224577 17.6303434,17.7614864 17.75429,17.7887501 C18.3273134,17.9136153 20.7285044,18.3511062 22.5744945,17.3951499 C22.7355278,17.1020735 22.8572038,16.7979245 22.9434691,16.4891106 C22.2488058,16.973342 20.9969052,17.2892714 19.1633854,17.4466824 C19.15515,17.4473359 19.1469866,17.4476989 19.1389133,17.4476989 C19.0212739,17.4476989 18.9202497,17.3746022 18.9077793,17.2763837 C18.8944079,17.1713764 18.9871787,17.0773509 19.1149998,17.0663329 C21.5241199,16.8595131 22.8617451,16.3780407 23.0945549,15.634622 C23.1411566,15.0491408 23.0758314,14.4681793 22.9249978,13.9343576 C22.6095449,14.2921809 22.2128724,14.6330143 21.7576866,14.9354933 C21.7146171,14.9641729 21.6628615,14.9780771 21.6115205,14.9780771 C21.5436544,14.9780771 21.476455,14.9538083 21.4304301,14.9071223 C21.3496431,14.824968 21.3651049,14.7046407 21.4650119,14.638242 C21.9991285,14.2832503 22.4446731,13.8737311 22.7595134,13.449382 C22.6301065,13.1284972 22.4689651,12.8324439 22.2828649,12.5726939 C21.8200023,14.1554083 20.3287864,14.8255307 18.8825503,15.4755047 C17.7608676,15.9795395 16.7014466,16.4556571 16.1147094,17.3327809 C16.0561961,17.4204351 15.9254376,17.456212 15.8143938,17.4146629 C15.7036564,17.3732046 15.6504412,17.2685422 15.6924115,17.1747163 C16.3526552,15.6977171 18.2211893,13.1280979 21.0991729,12.6533235 C21.0669699,12.4567594 21.017557,12.2627727 20.953277,12.0724346 C19.5776822,12.3826099 18.4793003,12.8892223 17.6145032,13.6135273 C17.504865,13.7160296 17.3909379,13.818895 17.2726318,13.9220871 C15.5860711,15.3933322 14.841202,16.9700384 14.6705637,19.6302162 C16.2625335,16.7487336 20.0292998,15.4555924 22.2967049,15.3210887 C22.4242376,15.3139914 22.5362725,15.3927877 22.5454992,15.4980854 C22.5547798,15.603383 22.4583869,15.6948855 22.3302234,15.7025273 C20.0093689,15.8401531 16.4945325,17.2164288 15.0562615,19.8692915 C15.8181061,19.2445301 16.8619753,18.8492781 18.1060007,18.7286967 C19.9601182,18.548469 21.8946442,19.0343341 22.9321881,19.9195171 C23.4011237,19.4528202 23.7552492,18.8637086 23.9475845,18.2536863 C23.4716569,18.5529343 22.823487,18.7704818 22.161279,18.8326875" id="Fill-12" fill="#585AFA"></path>
                <path d="M6.46977367,15.7025371 C6.34162787,15.6948952 6.24523469,15.603393 6.25449737,15.4980956 C6.26368797,15.3927981 6.37507445,15.3149278 6.50331035,15.3210812 C8.77070356,15.4556027 12.5374441,16.7487228 14.1294363,19.6301624 C13.9587975,16.9700271 13.2139084,15.3933427 11.5273791,13.9221009 C11.4090006,13.8188546 11.2950191,13.7159532 11.1853266,13.6133785 C10.3205452,12.8891478 9.2221783,12.3825366 7.8466878,12.0724346 C7.78238964,12.2627723 7.73297665,12.4567766 7.70077351,12.6533403 C10.578801,13.1280954 12.4473582,15.6977269 13.1075857,17.1747227 C13.1495922,17.2685483 13.0963948,17.3732105 12.9856391,17.4146687 C12.8749194,17.4561088 12.7439443,17.4203502 12.6852866,17.3327868 C12.0985659,16.4556652 11.0390699,15.9795487 9.91747425,15.475515 C8.47119811,14.8255424 6.9799421,14.1554216 6.51709625,12.5727109 C6.33099561,12.8324422 6.16985374,13.1284766 6.04046451,13.4493788 C6.35525158,13.8737269 6.80079748,14.2832634 7.33498761,14.6382542 C7.43489484,14.7046346 7.45035668,14.8249797 7.3695695,14.9071339 C7.32361649,14.9538017 7.25636292,14.9780885 7.18846061,14.9780885 C7.13713741,14.9780885 7.08543578,14.9641844 7.04233006,14.9355048 C6.58707096,14.6330266 6.19041546,14.2921939 5.87497964,13.9343714 C5.72416369,14.4681737 5.65883834,15.0490976 5.70544009,15.6345775 C5.93819655,16.3780308 7.27578933,16.8595201 9.68500612,17.0663395 C9.81280953,17.0773575 9.90559855,17.1713647 9.89224515,17.2763898 C9.87973873,17.3746081 9.77875025,17.4477046 9.66111056,17.4477046 C9.65303725,17.4477046 9.64485581,17.4473416 9.63662031,17.44667 C7.80309553,17.2892775 6.55119158,16.9733125 5.85650833,16.4891004 C5.94277383,16.7979136 6.06445017,17.1020437 6.22546589,17.3950831 C8.07146106,18.3510554 10.4726406,17.9136199 11.0456835,17.7887551 C11.1693962,17.7613825 11.2972537,17.8223718 11.3302137,17.9244927 C11.3631737,18.026541 11.2892164,18.131185 11.1649631,18.158358 C9.11264796,18.6056316 6.28522281,18.4790242 4.73266009,16.7620642 C4.68393188,17.0266056 4.67766065,17.3043433 4.7090889,17.5854027 C5.00331426,17.9576557 5.75977276,18.3652318 6.69155548,18.4527043 C6.81925076,18.4647389 6.91086843,18.5595084 6.89634368,18.6644428 C6.88275601,18.7618987 6.7820919,18.8339061 6.6653893,18.8339061 C6.65659515,18.8339061 6.64769288,18.8335249 6.63871853,18.83269 C5.97650874,18.7704844 5.32831912,18.5529375 4.8524082,18.2536539 C5.04474404,18.8637292 5.39885247,19.4528394 5.86778934,19.9195171 C6.90530001,19.0343906 8.8402638,18.5488171 10.6938277,18.7286813 C11.9379827,18.8492987 12.9819268,19.244568 13.7438095,19.8693642 C12.3055346,17.2164532 8.79067059,15.8401625 6.46977367,15.7025371" id="Fill-14" fill="#585AFA"></path>
            </g>
        </g>
    </g>
</svg>