<?xml version="1.0" encoding="UTF-8"?>
<svg width="72px" height="72px" viewBox="0 0 72 72" version="1.1" xmlns="http://www.w3.org/2000/svg" xmlns:xlink="http://www.w3.org/1999/xlink">
    <!-- Generator: Sketch 48.2 (47327) - http://www.bohemiancoding.com/sketch -->
    <title>Windows_72</title>
    <desc>Created with Sketch.</desc>
    <defs>
        <polygon id="path-1" points="0 0.0420264904 67.4925141 0.0420264904 67.4925141 63.2736028 0 63.2736028"></polygon>
    </defs>
    <g id="Page-1" stroke="none" stroke-width="1" fill="none" fill-rule="evenodd">
        <g id="Windows_72">
            <g id="Page-1-Copy-4" transform="translate(2.250000, 1.125000)">
                <path d="M50.026096,70.3125 L50.026096,68.3204 C41.995074,68.1436866 35.3415422,62.3344578 33.8024921,54.6523743 C33.7694016,54.5492133 33.7109218,54.4556516 33.639959,54.6570246 C32.0098042,62.1787777 25.3746372,68.0913381 17.473904,68.3180534 L17.473904,70.3125 L50.026096,70.3125 Z" id="Fill-1" fill="#585AFA"></path>
                <path d="M23.6309201,29.1177963 C22.5826374,27.742558 21.89562,26.4039248 21.579888,25.1135321 C21.5206143,24.8713101 21.7122604,24.6354154 22.0078258,24.5869625 C22.3031376,24.5388918 22.5911775,24.695249 22.6503667,24.9375135 C23.1345765,26.9165657 24.5853458,29.0425478 26.9666958,31.2670494 C27.2457728,31.5010756 27.5116591,31.7437222 27.7718801,31.9960934 C30.4643116,34.3403471 32.1860828,36.7798929 33.1606327,39.9663182 L33.1606327,33.5802185 C33.1606327,30.0321589 33.164776,24.0937707 30.5213024,20.7028326 C30.3589972,20.4947102 30.4355203,20.2180914 30.6895688,20.0850476 C30.9438709,19.9522587 31.2779093,20.0131963 31.440299,20.2212338 C32.2027826,21.1992943 32.7482955,22.3602103 33.1606327,23.6053774 L33.1606327,17.421455 C33.1606327,17.1743919 33.4026742,16.9741256 33.7041163,16.9741256 C34.0056006,16.9741256 34.2475999,17.1743919 34.2475999,17.421455 L34.2475999,23.6053774 C34.6599371,22.3602103 35.2151317,21.1992943 35.9776152,20.2212338 C36.1400473,20.012984 36.4807656,19.9522587 36.734814,20.0850476 C36.9888202,20.2180914 37.0584097,20.4947102 36.8961045,20.7028326 C34.2525041,24.0937707 34.2475999,30.0321589 34.2475999,33.5802185 L34.2475999,39.9663607 C35.2596504,36.7798929 36.9546596,34.3403471 39.6470911,31.9960934 C39.9071853,31.7438921 40.1803434,31.5013729 40.4592513,31.2675165 C42.8410664,29.0426752 44.2936536,26.9165232 44.7777366,24.9375135 C44.8370949,24.695249 45.1250925,24.5391041 45.4210807,24.5869625 C45.7166884,24.6354154 45.9087151,24.8713101 45.849399,25.1135321 C45.5337093,26.4038398 44.8468611,27.742558 43.7984092,29.1179237 C45.2635529,28.4020864 46.9112953,27.8396336 48.7578288,27.421478 C47.6914933,25.0455876 45.6598668,22.9832185 43.4653432,21.6855218 C44.1856756,26.9453147 39.2608394,31.1986803 36.7171418,32.4021041 C36.6311907,32.4427009 36.5373335,32.4619801 36.4447447,32.4619801 C36.2560581,32.4619801 36.0726561,32.3817632 35.9714849,32.2383154 C35.8208061,32.0242904 35.9101818,31.7508139 36.1712907,31.6271975 C38.2791867,30.6299002 41.451262,27.7838342 42.2484981,24.2973917 C42.2310795,24.2724221 42.2159863,24.2459238 42.2043599,24.2175995 C41.8110477,23.260262 41.0860225,22.4233562 40.194126,21.562967 C38.4811064,22.6196307 37.3020578,25.1202841 37.3501702,27.5592778 C38.3878411,26.8168997 39.2608816,24.9621858 39.5278249,23.9780103 C39.5932289,23.7366801 39.8853698,23.5855037 40.179075,23.638373 C40.4733721,23.6919217 40.6588457,23.9308314 40.5933993,24.1719493 C40.5826184,24.2123762 39.3935077,28.2213116 36.9876787,28.7207883 C36.9434136,28.7299608 36.8983876,28.7345471 36.8536152,28.7345471 C36.7422127,28.7345471 36.6323744,28.7066049 36.539532,28.6530987 C36.409358,28.5779776 36.3256476,28.4602638 36.3103007,28.3302776 C35.963283,25.391892 37.3272978,22.265173 39.4732017,20.8896374 C39.301849,20.7333651 39.126649,20.575182 38.9483627,20.4143234 C36.9947391,18.6510373 34.8250327,16.6927082 33.7148549,13.5814889 C32.6045926,16.6926657 30.435013,18.6510373 28.4813894,20.414196 C28.3031031,20.575097 28.1278608,20.7333227 27.9565081,20.8895949 C30.1024121,22.265088 31.4664691,25.3918496 31.1194514,28.3302776 C31.1041468,28.4602638 31.0204363,28.5779776 30.8902201,28.6530987 C30.7972931,28.7066049 30.6873703,28.7345471 30.5761369,28.7345471 C30.5313645,28.7345471 30.4862539,28.7299608 30.4420734,28.7207883 C28.0362867,28.2213116 26.8471337,24.2123762 26.8363528,24.1719493 C26.7708642,23.9308314 26.9564223,23.6919217 27.2506771,23.638373 C27.5461157,23.5852913 27.8365232,23.7366801 27.9019272,23.9780103 C28.1688705,24.9621858 29.041911,26.8168997 30.0795397,27.5592778 C30.1276943,25.1202841 28.9486034,22.6195883 27.2355838,21.5629245 C26.3436874,22.4233562 25.6187044,23.260262 25.2253922,24.2175995 C25.2137235,24.2459663 25.1986726,24.2724646 25.1812117,24.2974767 C25.9783632,27.7838767 29.1504386,30.6299002 31.2584614,31.6271975 C31.519528,31.7508139 31.608946,32.0242904 31.4582672,32.2383154 C31.3571805,32.3817632 31.173694,32.4619801 30.9850074,32.4619801 C30.892334,32.4619801 30.7985614,32.4427009 30.712568,32.4021041 C28.1688705,31.1986803 23.2439497,26.9453147 23.9643666,21.6855218 C21.7698007,22.9833459 19.7380896,25.0456301 18.6717119,27.421478 C20.5182031,27.8395912 22.1658187,28.4020439 23.6309201,29.1177963" id="Fill-3" fill="#585AFA"></path>
                <path d="M39.4572025,37.5613053 C40.7567278,36.7122202 42.2482342,36.0452421 43.7122906,35.3907063 C45.8865842,34.4185942 47.9882408,33.4784767 49.4518326,32.0104901 C49.4480741,31.9784955 49.4480741,31.9458237 49.4530995,31.9126017 C49.5249341,31.4352215 49.5467252,30.9592801 49.5246385,30.4876132 C44.9639262,31.288791 41.5109272,34.6386631 39.4572025,37.5613053" id="Fill-5" fill="#585AFA"></path>
                <path d="M23.7877728,35.3907063 C25.2517229,36.0452421 26.7432493,36.7123895 28.0427975,37.5613053 C25.9891035,34.6384515 22.5364937,31.2887487 17.975385,30.4876132 C17.9532564,30.9593224 17.9750472,31.4352215 18.0469229,31.9126017 C18.051906,31.9457814 18.0519482,31.9784955 18.0481475,32.0104478 C19.5117598,33.4784767 21.6134695,34.4185942 23.7877728,35.3907063" id="Fill-7" fill="#585AFA"></path>
                <g id="Group-11">
                    <mask id="mask-2" fill="white">
                        <use xlink:href="#path-1"></use>
                    </mask>
                    <g id="Clip-10"></g>
                    <path d="M57.5702044,41.3969259 C57.2469149,43.9304124 55.7402185,46.5143341 53.5207119,48.1405396 C54.4034986,48.0035106 55.185289,47.7922096 55.793804,47.5042149 C55.9932166,47.4098455 56.2435926,47.428371 56.419321,47.5501037 C56.5951762,47.671879 56.6588698,47.8711554 56.5786396,48.0479547 C56.1370136,49.0206697 55.226398,50.2580952 53.7775164,51.3653324 C53.7443586,51.4063773 53.7027843,51.4438532 53.6521593,51.4752105 C53.6168022,51.4971352 53.5808106,51.5180401 53.544523,51.5384776 C51.5507777,52.9851644 48.6070841,54.1673958 44.5509939,54.1676508 C44.3355522,54.1676508 44.1181227,54.1642941 43.8964215,54.1575382 C43.5949554,54.1481905 43.359805,53.9405437 43.3711396,53.6933815 C43.3823473,53.4464318 43.6404629,53.2528066 43.9371922,53.2629191 C46.811821,53.3512126 49.1028031,52.8143561 50.8769196,52.0013596 C49.2693539,51.8905891 47.5694619,51.2980713 46.5106086,50.7970761 C46.2494901,50.6734313 46.1599977,50.3995856 46.310773,50.1856503 C46.4615484,49.9717576 46.7953689,49.8985479 47.0566988,50.0217679 C48.6472204,50.774684 51.4788792,51.5863209 52.9010738,50.8144543 C53.7953642,50.1541655 54.4714638,49.4380454 54.9484046,48.7702359 C50.8101386,49.8491325 43.6908341,49.0433592 41.3628454,46.4808098 C41.2537711,46.3608616 41.2251386,46.2039474 41.2865061,46.0629668 C41.3479159,45.9220287 41.4912054,45.8155922 41.668414,45.7793485 C43.7052138,45.3621429 46.2361255,45.1475278 49.5618539,46.7210461 C49.8230146,46.8446909 49.912507,47.1183241 49.7617317,47.3324294 C49.610914,47.5464071 49.2767975,47.6200842 49.0158059,47.4963544 C46.5030381,46.3071122 44.5562383,46.2406159 42.8582918,46.4845064 C44.6788886,47.7704974 48.2581227,48.4055474 51.377164,48.3246896 C51.4110409,48.296434 51.4496123,48.2710677 51.4935127,48.2502903 C52.0399836,47.9916984 52.5549037,47.6658455 53.031929,47.2879427 C50.8616518,45.410666 46.5687195,44.343709 42.5756461,44.7303646 C40.7397392,44.9078013 37.6882401,45.5251756 35.5339497,47.6133283 C36.4128031,47.3755139 37.4623943,47.2480875 38.5640907,47.3143288 C40.2288792,47.4150717 43.2743727,48.0800769 44.966821,51.4018309 C45.0829582,51.6300002 44.9516377,51.8919913 44.6732636,51.987253 C44.6046217,52.0108773 44.533273,52.0220096 44.4631508,52.0220096 C44.2494431,52.0220096 44.0465202,51.9184198 43.9589309,51.7466768 C42.564946,49.0105997 40.2120888,48.3117303 38.4837336,48.2069934 C36.4582683,48.0866203 34.6016377,48.7715106 34.2138933,49.2979571 C34.2119478,49.3005914 34.209664,49.3029283 34.2077185,49.3054777 C34.2018398,49.3131258 34.1957072,49.3205615 34.1892787,49.3279122 C34.18543,49.3323312 34.1814544,49.3366651 34.1774366,49.3409566 C34.1708388,49.3479249 34.1640296,49.3546382 34.1569243,49.3613091 C34.1523144,49.365643 34.1476621,49.3699345 34.1428407,49.374056 C34.1359469,49.380047 34.1287993,49.3858681 34.1214403,49.3915192 C34.1158999,49.3958532 34.1102749,49.4001021 34.1044807,49.4042236 C34.0974601,49.4092374 34.0901856,49.4140812 34.0827843,49.41884 C34.0761866,49.4230465 34.0695042,49.4272105 34.0626527,49.431162 C34.0560127,49.4350711 34.0492458,49.4388527 34.0423097,49.4425068 C34.0418022,49.4427617 34.0412101,49.4430166 34.0406602,49.4433141 C34.0335127,49.4470956 34.0262383,49.4506648 34.0189215,49.4541489 C34.0145653,49.4562309 34.0104206,49.4585254 34.0059798,49.4605224 C34.0059375,49.4605224 34.0059375,49.4605224 34.0058952,49.4605649 C34.0046687,49.4611172 34.0033576,49.4615421 34.0021311,49.462052 C33.9995512,49.4631567 33.9968445,49.464049 33.9942646,49.4651537 C33.9876245,49.4679156 33.9809845,49.4705074 33.9742599,49.4730143 C33.9686349,49.4751813 33.9631367,49.4776032 33.9573849,49.4796002 C33.9540437,49.4807049 33.9506602,49.4814698 33.9473191,49.482617 C33.9468961,49.4827444 33.9464732,49.4828719 33.946008,49.4829994 C33.9397486,49.4849964 33.9333623,49.4868659 33.926976,49.488693 C33.9204629,49.4905625 33.9141612,49.4927295 33.9075634,49.4944291 C33.9037993,49.4953639 33.9000352,49.4959162 33.8963134,49.4968085 C33.8899272,49.4982956 33.8834986,49.4995278 33.8771123,49.5008875 C33.8668351,49.502927 33.8566001,49.504924 33.8462805,49.5064961 C33.8396405,49.5075159 33.8330005,49.5082382 33.8263604,49.5090455 C33.8185785,49.5099803 33.8108388,49.5112125 33.8030569,49.5118498 C33.8006884,49.5120623 33.7982354,49.5120623 33.795867,49.5122747 C33.7883811,49.5128271 33.7808529,49.5130395 33.7733247,49.513337 C33.765289,49.5136769 33.7572956,49.5141443 33.7493022,49.5141868 C33.7482871,49.5141868 33.7473144,49.5143142 33.746257,49.5143142 C33.745242,49.5143142 33.7442693,49.5141868 33.7432542,49.5141868 C33.7353031,49.5141443 33.7273097,49.5136769 33.7193163,49.513337 C33.7117458,49.5130395 33.7042176,49.5128271 33.6966894,49.5122747 C33.694321,49.5120623 33.691868,49.5120623 33.6894995,49.5118498 C33.6817599,49.5112125 33.6741048,49.5099803 33.6663651,49.509088 C33.6596405,49.5082382 33.6529159,49.5075159 33.6462336,49.5064961 C33.6360409,49.504924 33.6259751,49.5029695 33.6158247,49.50093 C33.609227,49.4995703 33.6025869,49.4982956 33.5960315,49.496766 C33.5924366,49.4958737 33.588757,49.4953639 33.5851198,49.4944291 C33.5786067,49.492772 33.572305,49.490605 33.5658341,49.4887355 C33.5592787,49.4868659 33.5527655,49.4849964 33.5462946,49.4829144 C33.5446452,49.482362 33.5428689,49.4819371 33.5412195,49.4813848 C33.539274,49.4807474 33.5372862,49.48028 33.535383,49.4796427 C33.5296311,49.4776882 33.5242176,49.4753088 33.5186349,49.4731843 C33.5116565,49.4705924 33.504805,49.4678731 33.4979958,49.4650263 C33.4898755,49.4616271 33.481882,49.458058 33.4740155,49.4543189 C33.4664027,49.4507498 33.4589168,49.4470107 33.4515578,49.4431441 C33.4480898,49.4413171 33.444368,49.4397449 33.4409845,49.4378329 C33.4373473,49.4358784 33.434133,49.4336264 33.4305804,49.4315869 C33.4233059,49.427338 33.4161161,49.422919 33.4090531,49.4183727 C33.402117,49.4139112 33.3953078,49.4093649 33.3887101,49.404691 C33.382493,49.4002296 33.376445,49.3956832 33.3704817,49.3910518 C33.3635456,49.3856556 33.3567787,49.380132 33.3502232,49.3744809 C33.3451057,49.3700195 33.3401151,49.3655156 33.3351668,49.3608842 C33.3283576,49.3544683 33.3218022,49.3479673 33.3155005,49.3412965 C33.3112711,49.3367926 33.3071264,49.3322887 33.3030663,49.3276148 C33.2967646,49.3203916 33.2907166,49.3130834 33.2849648,49.3055627 C33.282977,49.3029708 33.2806931,49.3006339 33.2787477,49.2979571 C32.8910879,48.7715106 31.03543,48.0875125 29.0089074,48.2069934 C27.2805522,48.3117303 24.9276104,49.0105997 23.5336678,51.7466768 C23.4460785,51.9184198 23.2431978,52.0217971 23.0294478,52.0220096 C22.959368,52.0220096 22.8881461,52.0108773 22.8193351,51.987253 C22.540961,51.8919913 22.4096405,51.6300002 22.52582,51.4018309 C24.218226,48.0800769 27.2637617,47.4150717 28.928508,47.3143288 C30.0305005,47.247875 31.079711,47.3755139 31.9585221,47.6130309 C29.8041048,45.5251756 26.7526057,44.9078013 24.9165296,44.7301097 C20.9228219,44.3440914 16.6307354,45.4108785 14.4606696,47.2879427 C14.937695,47.6658455 15.4526151,47.9916984 15.999086,48.2502903 C16.0430287,48.2711102 16.0816424,48.2964765 16.1155193,48.3247746 C19.2345606,48.4056324 22.8137523,47.7706249 24.6343492,46.4845064 C22.9368257,46.2406159 20.9896875,46.3075371 18.4767082,47.4963544 C18.2155052,47.6200842 17.8813886,47.5464071 17.7307401,47.3324294 C17.580007,47.1183241 17.6694149,46.8446909 17.9305757,46.7210461 C21.2561772,45.1473153 23.7869619,45.3615055 25.8241847,45.7793485 C26.001351,45.8155922 26.1446828,45.9220287 26.2061349,46.0629668 C26.2674601,46.2039474 26.2387852,46.3608616 26.1297533,46.4808098 C23.8014685,49.0431468 16.6824601,49.8497698 12.5441518,48.7702359 C13.0217693,49.4389376 13.6996029,50.1559926 14.5961349,50.8169612 C16.0195559,51.5849188 18.84707,50.7738343 20.4358999,50.0217679 C20.6970606,49.8985479 21.031008,49.9717576 21.1818257,50.1856503 C21.332601,50.3995856 21.2431508,50.6734313 20.9819901,50.7970761 C19.9236866,51.2979013 18.2245559,51.8900368 16.6175822,52.0011896 C18.3922063,52.8142287 20.6831039,53.3511276 23.5554065,53.2629191 C23.8520089,53.2524242 24.1102514,53.4462194 24.1215014,53.6933815 C24.1327937,53.9405437 23.8976433,54.1481905 23.5961772,54.1575382 C23.3748567,54.1642941 23.1566659,54.1676508 22.9416471,54.1676508 C18.8835268,54.1676508 15.9391988,52.9845696 13.9455804,51.5369905 C13.9100963,51.5170203 13.8749507,51.4966253 13.8403971,51.4752105 C13.7901104,51.4440656 13.7487899,51.4069297 13.7157166,51.3661822 C12.2664967,50.2587325 11.3557542,49.0209672 10.9139591,48.0479547 C10.8337289,47.8711554 10.8974648,47.671879 11.0732777,47.5501037 C11.2491753,47.428371 11.4996358,47.4098455 11.6988369,47.5042149 C12.3073097,47.7921671 13.0891001,48.0035106 13.9718867,48.1405396 C11.7521687,46.5142916 10.2453877,43.930115 9.92226739,41.396501 C9.91050987,41.3564757 9.9059422,41.3158132 9.9078031,41.275533 C9.77918938,40.1339642 9.89236607,39.0059496 10.2914027,37.9839465 C10.3572533,37.8152202 10.5383106,37.6941248 10.7532025,37.6753444 C10.9663604,37.6557142 11.1762195,37.7430728 11.2843633,37.8965029 C11.7593586,38.5708133 12.3016001,39.143191 12.8912946,39.6279127 C12.520679,38.6365447 12.3070982,37.6270762 12.2269525,36.6290373 C12.2210315,36.6033311 12.2150258,36.5776249 12.2098238,36.5516637 C12.1996734,36.5009311 12.2008999,36.4509208 12.2110503,36.40295 C12.0102843,33.0791139 13.2732871,29.9088354 15.1153266,27.9966322 C15.2518492,27.8545469 15.4791753,27.794679 15.6916565,27.8429897 C15.9039262,27.8919377 16.0594807,28.0407364 16.0860409,28.2201701 C16.2144854,29.0883607 16.4728971,29.8408944 16.8348426,30.5038601 C16.8431743,30.3239165 16.8571311,30.1444828 16.8770089,29.9658139 C16.8778548,29.9514525 16.8796734,29.9369635 16.8822533,29.922432 C16.9724225,29.1479736 17.1688322,28.3873668 17.4522815,27.6512765 C17.4549037,27.6369575 17.4582871,27.622596 17.4626856,27.6082345 C17.472836,27.5752625 17.487554,27.5442451 17.505571,27.5151397 C18.761257,24.3855237 21.5803971,21.7164103 24.4631884,20.3523233 C24.6508435,20.2633925 24.8852326,20.273845 25.0598614,20.3794317 C25.2345324,20.4847635 25.3164967,20.6648345 25.2689168,20.8382347 C25.1122204,21.408233 25.0346123,21.9721979 25.0239544,22.5261351 C25.7368914,21.5692262 26.7005005,20.6991236 27.7023849,19.7947319 C29.953696,17.7623681 32.5053736,15.4587504 33.2054535,11.353785 C33.2056649,11.3524679 33.2060879,11.3512357 33.2063416,11.349961 C33.2082025,11.339721 33.2107401,11.3296509 33.2134469,11.3196234 C33.2146734,11.315077 33.2156461,11.3104031 33.2170841,11.3058567 C33.2200869,11.2960416 33.223851,11.286439 33.2276997,11.2768788 C33.229476,11.2724174 33.2309986,11.267786 33.2329864,11.2634096 C33.2373426,11.2535945 33.2423755,11.2440768 33.2475352,11.2345592 C33.2495653,11.2308201 33.2512993,11.226996 33.2534563,11.2233419 C33.2602232,11.2116997 33.2677514,11.20044 33.2757025,11.1893502 C33.2765061,11.1882455 33.2771405,11.1870982 33.2779441,11.1859935 C33.3599507,11.0739484 33.5005757,10.9919859 33.6707213,10.9724406 C33.6831555,10.9710385 33.6955475,10.9704861 33.7079394,10.9698063 C33.7098426,10.9696788 33.7116612,10.9694664 33.7135644,10.9693814 C33.7272674,10.968744 33.7408858,10.9686166 33.7544619,10.968829 C33.7602561,10.9688715 33.7660503,10.968829 33.771929,10.9690415 C33.7814873,10.9693814 33.7909187,10.9701887 33.8003924,10.9709535 C33.8075822,10.9715059 33.8147298,10.9716758 33.8219196,10.9724406 C33.8248379,10.9727806 33.8276292,10.9734604 33.8305898,10.9738003 C33.8357918,10.9744801 33.840867,10.9754574 33.8460268,10.9762222 C33.859476,10.9783042 33.8727984,10.9804712 33.8858247,10.9832755 C33.8867552,10.9834879 33.8876856,10.9837854 33.8886161,10.9839978 C34.0107166,11.0109362 34.1138698,11.0706767 34.1853031,11.1498773 C34.1857683,11.1504722 34.1861913,11.1510245 34.1866565,11.1515344 C34.1963416,11.1623693 34.205477,11.1734591 34.2139356,11.1849313 C34.2166001,11.1885429 34.2188416,11.192367 34.2213792,11.1960211 C34.2274272,11.2047739 34.2334751,11.2135268 34.238804,11.2226621 C34.2416377,11.2274634 34.2439215,11.2324772 34.2465437,11.2373635 C34.2510691,11.2458614 34.2556367,11.2543168 34.2595277,11.2630272 C34.2616424,11.267871 34.2633341,11.2729273 34.2652796,11.2778561 C34.2689591,11.2870763 34.2725963,11.2962966 34.2755146,11.3057293 C34.2769525,11.3104031 34.2779676,11.315162 34.2791941,11.3198358 C34.2819008,11.3298209 34.2844384,11.3397635 34.286257,11.3499185 C34.2865108,11.3512357 34.286976,11.3524679 34.2871875,11.353785 C34.9871828,15.4587504 37.538945,17.7623681 39.7902561,19.7948594 C40.7920136,20.6992086 41.7556649,21.5693112 42.468602,22.5261351 C42.4579441,21.9722404 42.3803783,21.408233 42.2236819,20.8382347 C42.176102,20.6648345 42.2580663,20.4847635 42.432695,20.3794317 C42.6075352,20.273845 42.8416283,20.2633925 43.0294525,20.3523233 C45.9120747,21.7164103 48.7310879,24.3853538 49.9868163,27.5148848 C50.0048755,27.5440751 50.0196358,27.5751776 50.0298285,27.6082345 C50.0342693,27.622681 50.0376527,27.6371274 50.0402749,27.6515314 C50.3232589,28.386517 50.5194572,29.1459341 50.6097956,29.9192028 C50.6098379,29.9193303 50.6098802,29.9194153 50.6098802,29.9195003 C50.6127984,29.9351789 50.614617,29.9507301 50.6155052,29.9662388 C50.635383,30.1447803 50.6492975,30.324044 50.6575869,30.5039026 C51.0195747,29.8409369 51.2780287,29.0884031 51.4064732,28.2201701 C51.4329911,28.0407364 51.5885456,27.8919377 51.800773,27.8429897 C52.0131696,27.7942541 52.2404958,27.8547593 52.3771452,27.9966322 C54.2191424,29.9087929 55.4821029,33.0789015 55.2815061,36.4026526 C55.2916988,36.4507083 55.2929676,36.5008461 55.2827749,36.5516637 C55.2775728,36.5776249 55.2715249,36.6033311 55.2656039,36.6290798 C55.1854582,37.6271611 54.9718773,38.6366297 54.6012617,39.6280827 C55.1909563,39.1433185 55.7332401,38.5708983 56.2082777,37.8965029 C56.3161255,37.7430728 56.5228971,37.6557142 56.7393961,37.6753444 C56.9542881,37.6941248 57.1353454,37.8152202 57.201196,37.9839465 C57.600148,39.0057796 57.7133247,40.1335818 57.5847956,41.2748957 C57.5867411,41.3155157 57.5821311,41.3565607 57.5702044,41.3969259 M66.756929,41.2520362 C61.4283623,22.8724256 39.8243445,6.16847839 33.7130146,0.0420264904 C27.6016424,6.16847839 5.99758224,22.8724256 0.669015508,41.2520362 C0.0594854323,43.354593 -0.197403665,45.7066488 0.169532425,48.001641 C1.0340484,56.5793195 8.24356438,63.2736028 17.0095136,63.2736028 C25.1118398,63.2736028 31.9747627,57.2968418 33.6363369,49.6575893 C33.7072204,49.4570807 33.7656696,49.5502605 33.7987852,49.6530004 C35.361055,57.4229936 42.1946687,63.2736028 50.3893633,63.2736028 C57.8840625,63.2736028 64.2368867,58.3782878 66.4633294,51.5980056 C67.9035832,48.2226296 67.6693633,44.3993279 66.756929,41.2520362" id="Fill-9" fill="#585AFA" mask="url(#mask-2)"></path>
                </g>
                <path d="M51.9404978,44.1391112 C51.9195064,44.1410682 51.8985573,44.1419616 51.8779039,44.1419616 C51.6044673,44.1419616 51.3685365,43.9732364 51.3367327,43.744781 C51.3026482,43.4988404 51.5173765,43.2767238 51.8166615,43.2485179 C54.0005213,43.0435036 55.7734661,42.0882024 56.4630549,41.2157749 C56.5367569,40.5570829 56.5220165,39.9062614 56.4078101,39.2863686 C52.76917,43.3100349 46.1427906,43.6071546 41.3319721,42.5586845 C41.0408386,42.4949978 40.8675017,42.2496953 40.9447093,42.0105191 C41.0220858,41.7713853 41.3211174,41.6284837 41.6116173,41.6923831 C42.9546408,41.9850358 48.5824322,43.0104052 52.9089715,40.7698826 C53.2863933,40.0829847 53.5715715,39.3701356 53.7737557,38.646353 C52.1456385,39.7812704 49.2114966,40.5217298 44.9141846,40.8906619 C44.8948827,40.8921935 44.8757498,40.8930443 44.856828,40.8930443 C44.5811108,40.8930443 44.3443352,40.721724 44.3151078,40.4915243 C44.2837686,40.2454135 44.5012001,40.0250413 44.8007807,39.9992177 C50.447156,39.5144837 53.582215,38.3860329 54.1278631,36.6436453 C54.2370857,35.2714236 54.0839798,33.9097951 53.7304637,32.6586506 C52.9911207,33.497299 52.0614197,34.2961273 50.9945781,35.0050625 C50.8936338,35.0722803 50.7723317,35.1048681 50.6520011,35.1048681 C50.4929399,35.1048681 50.3354415,35.0479883 50.2275705,34.9385679 C50.0382261,34.7460187 50.0744646,34.4640017 50.3086216,34.3083797 C51.5604573,33.4763679 52.6047027,32.5165572 53.3426096,31.521989 C53.0393121,30.7699154 52.6616369,30.0760404 52.2254647,29.4672513 C51.1406305,33.1767382 47.6455932,34.7473375 44.2559773,36.2707142 C41.6270335,37.4520458 39.1440154,38.5679464 37.7688502,40.6237051 C37.6317096,40.8291449 37.3252444,40.912997 37.0649856,40.8156162 C36.8054448,40.7184482 36.6807215,40.4731458 36.7790894,40.2532414 C38.3265357,36.7915245 42.7059124,30.7689794 49.4511865,29.656227 C49.3757106,29.1955297 49.2598992,28.7408736 49.109243,28.2947686 C45.8851926,29.0217419 43.31086,30.2091147 41.2839918,31.9067046 C41.0270274,32.1469444 40.7600108,32.3880351 40.4827308,32.6298916 C36.5298542,36.0781224 34.7840672,39.7735275 34.3841336,46.0083192 C38.1153129,39.2548443 46.9436715,36.2240446 52.2579021,35.9088016 C52.5568069,35.8921673 52.8193888,36.0768461 52.8410136,36.3236375 C52.8627652,36.570429 52.6368443,36.7848878 52.3364612,36.8027984 C46.8969584,37.1253588 38.6590605,40.3510051 35.2881129,46.568652 C37.0736862,45.1043674 39.5202545,44.1779954 42.4359392,43.8953829 C46.7815271,43.4729743 51.3155724,44.6117205 53.7473159,46.6863682 C54.8463837,45.5925473 55.6763653,44.2118171 56.1271512,42.7820773 C55.0116958,43.4834398 53.4925477,43.9933167 51.9404978,44.1391112" id="Fill-12" fill="#585AFA"></path>
                <path d="M15.163532,36.8028213 C14.8631903,36.7849107 14.6372688,36.5704524 14.6589782,36.3236615 C14.6805187,36.0768706 14.9415807,35.894362 15.2421336,35.908784 C20.5563365,36.2240688 29.3846347,39.254819 33.1158664,46.0081932 C32.7159317,39.773501 30.9700977,36.0781469 27.0172948,32.6299241 C26.7398451,32.3879405 26.472701,32.1467653 26.2156092,31.9063559 C24.1887777,30.2089401 21.6144804,29.0215701 18.3906745,28.2947686 C18.2399757,28.7408726 18.124164,29.1955702 18.0486879,29.6562663 C24.7940649,30.7689737 29.1734958,36.7915474 30.720904,40.2532563 C30.8193567,40.4731601 30.6946753,40.718462 30.4350916,40.8156298 C30.1755923,40.9127551 29.8686195,40.8289457 29.7311406,40.6237192 C28.3560139,38.5679652 25.8728201,37.4520672 23.2440803,36.2707383 C19.8543706,34.7473651 16.3592393,33.1767694 15.2744443,29.4672912 C14.838271,30.0760363 14.4605947,30.7698671 14.1573387,31.5219815 C14.8951209,32.5165475 15.9393691,33.4763985 17.1913772,34.3084083 C17.4255348,34.4639874 17.4617735,34.7460463 17.2724285,34.9385951 C17.1647262,35.0479726 17.0071006,35.1048949 16.8479545,35.1048949 C16.7276658,35.1048949 16.6064901,35.0723071 16.5054611,35.0050895 C15.4384476,34.296156 14.5087862,33.4973296 13.7694835,32.658683 C13.4160086,33.9097822 13.2629024,35.2713224 13.3721252,36.6435409 C13.9176482,38.3860096 17.0526312,39.5145003 22.6992331,39.9992332 C22.9987723,40.0250567 23.2162466,40.2453859 23.1849496,40.4915386 C23.1556376,40.7217378 22.9189459,40.8930577 22.6432279,40.8930577 C22.624306,40.8930577 22.6051308,40.8922069 22.5858289,40.8906328 C18.2885051,40.521744 15.3543553,39.7812012 13.7261914,38.6463291 C13.9283762,39.37011 14.2135551,40.0829149 14.5909357,40.7697261 C18.9174869,43.010286 24.5452514,41.9850467 25.8883208,41.6923947 C26.1782724,41.6282401 26.4779383,41.771184 26.5551884,42.0105299 C26.6324384,42.2497056 26.459101,42.4949649 26.1678823,42.5586515 C21.3577687,43.606949 14.730991,43.3102129 11.0921721,39.2860879 C10.9779654,39.9061069 10.9632671,40.5570546 11.0369271,41.2157875 C11.7265178,42.0882556 13.4994674,43.043512 15.6833331,43.2485258 C15.982619,43.2767317 16.1973479,43.4988477 16.1633055,43.7447878 C16.1314594,43.9732001 15.8955279,44.1419675 15.6220062,44.1419675 C15.6013949,44.1419675 15.5805302,44.1410741 15.5594966,44.1391171 C14.0074424,43.9933229 12.4882479,43.4834472 11.3728317,42.7820013 C11.8236189,44.2118653 12.6535605,45.5925924 13.7526313,46.6863682 C16.1842969,44.6118529 20.7193683,43.47379 25.0636587,43.8953468 C27.979647,44.1780438 30.4263909,45.1044561 32.2120536,46.5688224 C28.8410968,40.3510623 20.6031342,37.1253809 15.163532,36.8028213" id="Fill-14" fill="#585AFA"></path>
            </g>
        </g>
    </g>
</svg>