<?xml version="1.0" encoding="UTF-8"?>
<svg width="128px" height="128px" viewBox="0 0 128 128" version="1.1" xmlns="http://www.w3.org/2000/svg" xmlns:xlink="http://www.w3.org/1999/xlink">
    <!-- Generator: Sketch 48.2 (47327) - http://www.bohemiancoding.com/sketch -->
    <title>Windows_128</title>
    <desc>Created with Sketch.</desc>
    <defs>
        <polygon id="path-1" points="0 0.0747137608 119.986692 0.0747137608 119.986692 112.486405 0 112.486405"></polygon>
    </defs>
    <g id="Page-1" stroke="none" stroke-width="1" fill="none" fill-rule="evenodd">
        <g id="Windows_128">
            <g id="Page-1-Copy-4" transform="translate(4.000000, 2.000000)">
                <path d="M88.9352818,125 L88.9352818,121.458489 C74.6579093,121.144332 62.8294083,110.816814 60.0933194,97.1597765 C60.0344917,96.9763791 59.9305277,96.8100473 59.8043716,97.1680438 C56.9063185,110.540049 45.1104661,121.051268 31.0647182,121.454317 L31.0647182,125 L88.9352818,125 Z" id="Fill-1" fill="#585AFA"></path>
                <path d="M42.0105247,51.7649712 C40.1469109,49.3201031 38.9255467,46.9403107 38.3642453,44.6462793 C38.2588698,44.2156624 38.599574,43.7962941 39.1250237,43.7101556 C39.6500224,43.6246966 40.1620934,43.9026649 40.2673186,44.3333573 C41.128136,47.8516724 43.7072813,51.6311961 47.9407926,55.5858656 C48.4369295,56.0019122 48.9096162,56.433284 49.3722314,56.8819439 C54.1587763,61.049506 57.2197027,65.3864763 58.952236,71.0512324 L58.952236,59.6981662 C58.952236,53.3905046 58.9596017,42.8333701 54.2600931,36.8050357 C53.9715505,36.4350404 54.1075917,35.9432735 54.5592334,35.7067513 C55.011326,35.4706821 55.6051721,35.5790157 55.893865,35.9488601 C57.2493913,37.6876343 58.219192,39.7514849 58.952236,41.9651154 L58.952236,30.9714755 C58.952236,30.5322523 59.382532,30.1762233 59.918429,30.1762233 C60.4544012,30.1762233 60.884622,30.5322523 60.884622,30.9714755 L60.884622,41.9651154 C61.617666,39.7514849 62.6046785,37.6876343 63.9602048,35.9488601 C64.2489729,35.5786383 64.8546944,35.4706821 65.306336,35.7067513 C65.7579025,35.9432735 65.8816173,36.4350404 65.5930747,36.8050357 C60.8933406,42.8333701 60.884622,53.3905046 60.884622,59.6981662 L60.884622,71.0513078 C62.6838229,65.3864763 65.6971726,61.049506 70.4837175,56.8819439 C70.9461072,56.433586 71.4317215,56.0024406 71.9275578,55.586696 C76.1618958,51.6314226 78.744273,47.8515969 79.604865,44.3333573 C79.7103908,43.9026649 80.2223867,43.625074 80.748588,43.7101556 C81.2741128,43.7962941 81.6154934,44.2156624 81.5100427,44.6462793 C80.9488165,46.9401597 79.727753,49.3201031 77.8638386,51.7651977 C80.4685386,50.492598 83.3978583,49.492682 86.6805846,48.7492941 C84.7848771,44.5254891 81.1730966,40.8590551 77.2717212,38.5520388 C78.5523121,47.9027817 69.7970478,55.4643205 65.2749188,57.6037405 C65.1221167,57.6759127 64.9552596,57.7101869 64.7906573,57.7101869 C64.4552143,57.7101869 64.1291665,57.567579 63.9493065,57.3125608 C63.6814332,56.9320718 63.8403232,56.4458915 64.3045168,56.2261289 C68.0518875,54.453156 73.6911325,49.3934831 75.108441,43.1953631 C75.0774748,43.1509727 75.0506423,43.1038645 75.0299731,43.0535102 C74.3307515,41.351577 73.0418177,39.8637443 71.456224,38.3341635 C68.4108558,40.2126768 66.3147694,44.6582828 66.4003025,48.9942717 C68.2450509,47.6744883 69.7971229,44.3772192 70.2716887,42.6275739 C70.3879625,42.1985424 70.9073241,41.9297843 71.4294667,42.0237741 C71.9526615,42.1189719 72.2823923,42.5437002 72.1660432,42.9723543 C72.1468772,43.0442244 70.0329026,50.1712207 65.7558732,51.0591793 C65.6771798,51.0754859 65.5971334,51.0836393 65.5175381,51.0836393 C65.3194892,51.0836393 65.1242212,51.0339643 64.959168,50.9388421 C64.7277476,50.8052935 64.5789291,50.5960245 64.5516457,50.3649379 C63.9347253,45.1411414 66.3596405,39.5825297 70.1745808,37.1371332 C69.8699538,36.8593158 69.5584871,36.5781012 69.2415338,36.2921306 C65.7684251,33.1573997 61.9111692,29.6759256 59.9375198,24.1448692 C57.9637202,29.6758501 54.1066898,33.1573997 50.6335811,36.2919041 C50.3166277,36.5779503 50.0050859,36.8592403 49.7004589,37.1370577 C53.5153992,39.5823787 55.9403896,45.1410659 55.3234691,50.3649379 C55.2962609,50.5960245 55.1474424,50.8052935 54.9159469,50.9388421 C54.7507433,51.0339643 54.555325,51.0836393 54.3575768,51.0836393 C54.2779814,51.0836393 54.1977848,51.0754859 54.1192416,51.0591793 C49.8422874,50.1712207 47.7282376,43.0442244 47.7090716,42.9723543 C47.5926474,42.5437002 47.9225285,42.1189719 48.4456481,42.0237741 C48.9708723,41.9294068 49.4871523,42.1985424 49.6034262,42.6275739 C50.0779919,44.3772192 51.6300639,47.6744883 53.4747372,48.9942717 C53.5603454,44.6582828 51.4641839,40.2126013 48.4188157,38.334088 C46.833222,39.8637443 45.5443633,41.351577 44.8451418,43.0535102 C44.8243974,43.10394 44.7976401,43.1510482 44.7665987,43.1955141 C46.1837569,49.3935586 51.8230019,54.453156 55.5705981,56.2261289 C56.0347164,56.4458915 56.1936817,56.9320718 55.9258083,57.3125608 C55.7460987,57.567579 55.4199005,57.7101869 55.0844576,57.7101869 C54.9197049,57.7101869 54.7529981,57.6759127 54.6001209,57.6037405 C50.0779919,55.4643205 41.3225772,47.9027817 42.6033185,38.5520388 C38.701868,40.8592816 35.0899371,44.5255646 33.1941545,48.7492941 C36.4768055,49.4926065 39.4058998,50.4925225 42.0105247,51.7649712" id="Fill-3" fill="#585AFA"></path>
                <path d="M70.1461378,66.7756539 C72.456405,65.2661692 75.107972,64.0804304 77.7107389,62.9168113 C81.5761496,61.188612 85.312428,59.517292 87.9143691,56.9075379 C87.9076873,56.8506586 87.9076873,56.7925754 87.9166214,56.7335142 C88.0443273,55.8848382 88.083067,55.0387202 88.0438017,54.2002012 C79.9358689,55.6245173 73.7972039,61.5798456 70.1461378,66.7756539" id="Fill-5" fill="#585AFA"></path>
                <path d="M42.2893739,62.9168113 C44.8919519,64.0804304 47.5435544,65.2664702 49.8538622,66.7756539 C46.2028506,61.5794694 40.0648777,55.6244421 31.95624,54.2002012 C31.9169003,55.0387954 31.9556394,55.8848382 32.0834184,56.7335142 C32.0922774,56.7925002 32.0923524,56.8506586 32.0855956,56.9074627 C34.687573,59.517292 38.4239458,61.188612 42.2893739,62.9168113" id="Fill-7" fill="#585AFA"></path>
                <g id="Group-11">
                    <mask id="mask-2" fill="white">
                        <use xlink:href="#path-1"></use>
                    </mask>
                    <g id="Clip-10"></g>
                    <path d="M102.34703,73.5945349 C101.772293,78.0985109 99.0937218,82.6921495 95.1479323,85.5831815 C96.7173308,85.3395743 98.1071805,84.9639282 99.188985,84.4519377 C99.5434962,84.2841697 99.988609,84.3171039 100.301015,84.5335178 C100.613647,84.7500071 100.72688,85.1042762 100.584248,85.4185861 C99.7991353,87.1478573 98.1802632,89.3477247 95.6044737,91.3161464 C95.5455263,91.3891153 95.4716165,91.455739 95.3816165,91.5114854 C95.3187594,91.5504625 95.2547744,91.5876268 95.1902632,91.6239602 C91.6458271,94.1958479 86.412594,96.2975926 79.2017669,96.2980458 C78.8187594,96.2980458 78.432218,96.2920784 78.0380827,96.2800679 C77.5021429,96.2634498 77.0840977,95.8942999 77.1042481,95.4549005 C77.1241729,95.0158788 77.5830451,94.6716562 78.1105639,94.689634 C83.221015,94.8466001 87.2938722,93.8921887 90.4478571,92.4468615 C87.5899624,92.2499362 84.5679323,91.1965712 82.6855263,90.305913 C82.2213158,90.0861 82.062218,89.5992633 82.3302632,89.2189339 C82.5983083,88.8386801 83.1917669,88.7085297 83.6563534,88.9275873 C86.4839474,90.266105 91.5180075,91.709015 94.0463534,90.3368077 C95.636203,89.1629609 96.8381579,87.8898584 97.6860526,86.7026416 C90.3291353,88.62068 77.672594,87.1881941 73.5339474,82.6325507 C73.3400376,82.4193094 73.2891353,82.1403509 73.3982331,81.8897187 C73.507406,81.6391621 73.7621429,81.4499416 74.0771805,81.3855085 C77.6981579,80.6438095 82.1975564,80.2622716 88.1099624,83.0596376 C88.5742481,83.2794506 88.7333459,83.7659096 88.4653008,84.1465411 C88.1971805,84.526946 87.6031955,84.6579274 87.1392105,84.4379633 C82.6720677,82.323755 79.2110902,82.2055394 76.1925188,82.6391224 C79.4291353,84.9253288 85.792218,86.0543065 91.3371805,85.9105594 C91.397406,85.8603272 91.4659774,85.8152315 91.5440226,85.7782939 C92.5155263,85.318575 93.4309398,84.7392809 94.278985,84.0674538 C90.4207143,80.7300729 82.7888346,78.8332604 75.6900376,79.5206482 C72.426203,79.8360912 67.0013158,80.9336455 63.1714662,84.645917 C64.7338722,84.2231358 66.599812,83.9965999 68.5583835,84.1143623 C71.5180075,84.2934608 76.932218,85.4756922 79.941015,91.3810328 C80.1474812,91.7866671 79.9140226,92.252429 79.4191353,92.4217832 C79.2971053,92.4637818 79.1702632,92.4835725 79.0456015,92.4835725 C78.6656767,92.4835725 78.3049248,92.299413 78.1492105,91.994092 C75.671015,87.129955 71.4881579,85.8875206 68.4155263,85.7013216 C64.8146992,85.4873249 61.5140226,86.7049077 60.8246992,87.6408125 C60.8212406,87.6454958 60.8171805,87.6496504 60.8137218,87.6541826 C60.8032707,87.6677793 60.7923684,87.6809983 60.7809398,87.6940662 C60.7740977,87.7019221 60.7670301,87.7096268 60.7598872,87.7172561 C60.7481579,87.7296442 60.7360526,87.741579 60.7234211,87.7534384 C60.7152256,87.7611432 60.7069549,87.7687724 60.6983835,87.7760995 C60.6861278,87.7867502 60.6734211,87.7970988 60.6603383,87.8071453 C60.6504887,87.81485 60.6404887,87.8224038 60.630188,87.8297309 C60.6177068,87.8386442 60.6047744,87.8472555 60.5916165,87.8557156 C60.5798872,87.8631938 60.5680075,87.8705964 60.5558271,87.8776214 C60.5440226,87.8845708 60.5319925,87.8912936 60.5196617,87.8977898 C60.5187594,87.898243 60.5177068,87.8986962 60.5167293,87.899225 C60.5040226,87.9059478 60.4910902,87.9122929 60.4780827,87.918487 C60.4703383,87.9221883 60.4629699,87.9262673 60.4550752,87.9298175 C60.455,87.9298175 60.455,87.9298175 60.4549248,87.9298931 C60.4527444,87.9308751 60.4504135,87.9316304 60.4482331,87.9325369 C60.4436466,87.9345008 60.4388346,87.9360871 60.4342481,87.9380511 C60.4224436,87.942961 60.4106391,87.9475688 60.3986842,87.9520254 C60.3886842,87.9558778 60.3789098,87.9601835 60.3686842,87.9637337 C60.3627444,87.9656977 60.3567293,87.9670573 60.3507895,87.9690968 C60.3500376,87.9693234 60.3492857,87.9695501 60.3484586,87.9697767 C60.3373308,87.9733269 60.3259774,87.9766505 60.3146241,87.9798986 C60.3030451,87.9832223 60.2918421,87.9870747 60.2801128,87.9900962 C60.2734211,87.991758 60.2667293,87.99274 60.2601128,87.9943262 C60.2487594,87.99697 60.2373308,87.9991606 60.2259774,88.0015778 C60.2077068,88.0052036 60.1895113,88.0087538 60.1711654,88.0115487 C60.1593609,88.0133616 60.1475564,88.0146457 60.1357519,88.0160809 C60.1219173,88.0177427 60.1081579,88.0199333 60.0943233,88.0210664 C60.0901128,88.0214441 60.0857519,88.0214441 60.0815414,88.0218217 C60.0682331,88.0228037 60.0548496,88.0231814 60.0414662,88.0237102 C60.0271805,88.0243145 60.0129699,88.0251454 59.9987594,88.0252209 C59.9969549,88.0252209 59.9952256,88.0254475 59.9933459,88.0254475 C59.9915414,88.0254475 59.989812,88.0252209 59.9880075,88.0252209 C59.9738722,88.0251454 59.9596617,88.0243145 59.9454511,88.0237102 C59.9319925,88.0231814 59.918609,88.0228037 59.9052256,88.0218217 C59.901015,88.0214441 59.8966541,88.0214441 59.8924436,88.0210664 C59.8786842,88.0199333 59.8650752,88.0177427 59.8513158,88.0161565 C59.8393609,88.0146457 59.827406,88.0133616 59.8155263,88.0115487 C59.797406,88.0087538 59.7795113,88.0052791 59.7614662,88.0016533 C59.7497368,87.9992361 59.7379323,87.99697 59.7262782,87.9942507 C59.7198872,87.9926644 59.7133459,87.991758 59.7068797,87.9900962 C59.6953008,87.9871502 59.6840977,87.9832978 59.672594,87.9799742 C59.6609398,87.9766505 59.6493609,87.9733269 59.6378571,87.9696256 C59.6349248,87.9686436 59.6317669,87.9678882 59.6288346,87.9669063 C59.6253759,87.9657732 59.6218421,87.9649423 59.6184586,87.9638092 C59.6082331,87.9603345 59.598609,87.9561045 59.5886842,87.9523276 C59.5762782,87.9477198 59.5640977,87.9428855 59.5519925,87.9378245 C59.5375564,87.9317815 59.5233459,87.9254364 59.5093609,87.9187891 C59.4958271,87.912444 59.4825188,87.9057967 59.4694361,87.8989229 C59.4632707,87.8956748 59.4566541,87.8928799 59.4506391,87.8894807 C59.4441729,87.886006 59.4384586,87.8820025 59.4321429,87.8783768 C59.4192105,87.8708231 59.4064286,87.8629672 59.3938722,87.8548847 C59.3815414,87.8469533 59.3694361,87.8388709 59.3577068,87.8305618 C59.3466541,87.8226304 59.3359023,87.8145479 59.3253008,87.8063144 C59.3129699,87.7967211 59.3009398,87.7869013 59.2892857,87.7768549 C59.280188,87.7689235 59.2713158,87.7609165 59.2625188,87.752683 C59.2504135,87.7412769 59.2387594,87.7297197 59.2275564,87.7178604 C59.2200376,87.7098535 59.2126692,87.7018465 59.2054511,87.6935374 C59.1942481,87.6806961 59.1834962,87.6677037 59.1732707,87.6543337 C59.1697368,87.6497259 59.1656767,87.6455714 59.162218,87.6408125 C58.4730451,86.7049077 55.1740977,85.4889112 51.571391,85.7013216 C48.4987594,85.8875206 44.3157519,87.129955 41.8376316,91.994092 C41.6819173,92.299413 41.3212406,92.4831948 40.9412406,92.4835725 C40.8166541,92.4835725 40.6900376,92.4637818 40.5677068,92.4217832 C40.0728195,92.252429 39.8393609,91.7866671 40.0459023,91.3810328 C43.0546241,85.4756922 48.4689098,84.2934608 51.4284586,84.1143623 C53.3875564,83.9962223 55.2528195,84.2231358 56.8151504,84.6453882 C52.9850752,80.9336455 47.560188,79.8360912 44.2960526,79.520195 C37.1961278,78.8339403 29.5657519,80.7304506 25.7078571,84.0674538 C26.5559023,84.7392809 27.4713158,85.318575 28.4428195,85.7782939 C28.5209398,85.8153071 28.5895865,85.8604027 28.649812,85.9107104 C34.1947744,86.0544576 40.557782,84.9255554 43.7943985,82.6391224 C40.7765789,82.2055394 37.315,82.3245104 32.8474812,84.4379633 C32.3831203,84.6579274 31.7891353,84.526946 31.5213158,84.1465411 C31.2533459,83.7659096 31.4122932,83.2794506 31.8765789,83.0596376 C37.7887594,80.2618939 42.2879323,80.6426765 45.9096617,81.3855085 C46.2246241,81.4499416 46.4794361,81.6391621 46.5886842,81.8897187 C46.6977068,82.1403509 46.6467293,82.4193094 46.4528947,82.6325507 C42.3137218,87.1878165 29.6577068,88.6218131 22.3007143,86.7026416 C23.149812,87.8914447 24.3548496,89.166209 25.9486842,90.3412644 C28.4792105,91.7065222 33.5059023,90.2645942 36.3304887,88.9275873 C36.7947744,88.7085297 37.3884586,88.8386801 37.6565789,89.2189339 C37.9246241,89.5992633 37.7656015,90.0861 37.3013158,90.305913 C35.4198872,91.196269 32.3992105,92.2489543 29.5423684,92.4465593 C32.6972556,93.891962 36.7699624,94.846449 41.8762782,94.689634 C42.4035714,94.6709763 42.8626692,95.0155011 42.8826692,95.4549005 C42.9027444,95.8942999 42.4846992,96.2634498 41.9487594,96.2800679 C41.5553008,96.2920784 41.167406,96.2980458 40.7851504,96.2980458 C33.5707143,96.2980458 28.3363534,94.1947903 24.7921429,91.6213164 C24.7290602,91.5858139 24.6665789,91.5495561 24.6051504,91.5114854 C24.5157519,91.4561167 24.4422932,91.3900973 24.3834962,91.3176572 C21.8071053,89.3488578 20.1880075,87.1483861 19.402594,85.4185861 C19.2599624,85.1042762 19.3732707,84.7500071 19.6858271,84.5335178 C19.9985338,84.3171039 20.443797,84.2841697 20.7979323,84.4519377 C21.8796617,84.9638527 23.2695113,85.3395743 24.8389098,85.5831815 C20.8927444,82.692074 18.2140226,78.0979821 17.6395865,73.5937795 C17.6186842,73.5226235 17.6105639,73.4503345 17.6138722,73.3787253 C17.3852256,71.3492697 17.5864286,69.3439103 18.2958271,67.5270161 C18.4128947,67.2270582 18.7347744,67.0117774 19.1168045,66.97839 C19.4957519,66.9434919 19.8688346,67.0987962 20.0610902,67.3715607 C20.9055263,68.5703347 21.8695113,69.5878952 22.9178571,70.4496226 C22.258985,68.6871906 21.8792857,66.8925798 21.7368045,65.1182885 C21.7262782,65.0725886 21.7156015,65.0268886 21.7063534,64.9807355 C21.6883083,64.8905441 21.6904887,64.801637 21.7085338,64.7163556 C21.3516165,58.8073136 23.5969549,53.1712629 26.8716917,49.7717905 C27.1143985,49.5191944 27.5185338,49.4127626 27.8962782,49.4986483 C28.2736466,49.5856671 28.550188,49.850198 28.597406,50.1691913 C28.8257519,51.7126412 29.2851504,53.050479 29.928609,54.2290846 C29.9434211,53.9091849 29.9682331,53.5901917 30.0035714,53.2725581 C30.0050752,53.2470266 30.0083083,53.2212684 30.0128947,53.1954347 C30.1731955,51.8186197 30.5223684,50.4664298 31.0262782,49.1578248 C31.0309398,49.1323688 31.0369549,49.1068373 31.0447744,49.0813057 C31.0628195,49.0226889 31.088985,48.9675468 31.121015,48.9158039 C33.3533459,43.3520422 38.3651504,38.6069517 43.4901128,36.1819081 C43.8237218,36.0238089 44.2404135,36.042391 44.5508647,36.2301008 C44.861391,36.4173573 45.0071053,36.7374836 44.9225188,37.0457506 C44.6439474,38.059081 44.5059774,39.0616851 44.4870301,40.0464625 C45.7544737,38.3452911 47.4675564,36.798442 49.2486842,35.1906345 C53.251015,31.5775432 57.7873308,27.482223 59.0319173,20.1845067 C59.0322932,20.1821651 59.0330451,20.1799745 59.0334962,20.1777084 C59.0368045,20.159504 59.0413158,20.1416017 59.0461278,20.1237749 C59.0483083,20.1156924 59.0500376,20.1073834 59.052594,20.0993009 C59.0579323,20.0818518 59.0646241,20.0647804 59.0714662,20.0477846 C59.0746241,20.0398532 59.0773308,20.0316196 59.0808647,20.0238393 C59.088609,20.0063902 59.0975564,19.9894699 59.1067293,19.9725496 C59.1103383,19.9659023 59.1134211,19.959104 59.1172556,19.9526078 C59.1292857,19.9319106 59.1426692,19.9118933 59.1568045,19.8921781 C59.1582331,19.8902141 59.1593609,19.8881746 59.1607895,19.8862107 C59.3065789,19.6870193 59.5565789,19.5413082 59.8590602,19.5065611 C59.8811654,19.5040684 59.9031955,19.5030864 59.9252256,19.5018778 C59.928609,19.5016512 59.9318421,19.5012735 59.9352256,19.5011225 C59.9595865,19.4999894 59.983797,19.4997628 60.0079323,19.5001405 C60.0182331,19.500216 60.0285338,19.5001405 60.038985,19.5005182 C60.0559774,19.5011225 60.0727444,19.5025577 60.0895865,19.5039173 C60.1023684,19.5048993 60.1150752,19.5052015 60.1278571,19.5065611 C60.1330451,19.5071654 60.1380075,19.508374 60.1432707,19.5089783 C60.1525188,19.5101869 60.1615414,19.5119243 60.1707143,19.5132839 C60.1946241,19.5169853 60.2183083,19.5208377 60.2414662,19.5258231 C60.2431203,19.5262008 60.2447744,19.5267295 60.2464286,19.5271072 C60.4634962,19.5749978 60.6468797,19.6812029 60.7738722,19.8220041 C60.7746992,19.8230617 60.7754511,19.8240436 60.7762782,19.8249501 C60.7934962,19.844212 60.8097368,19.8639272 60.8247744,19.8843223 C60.8295113,19.8907429 60.8334962,19.8975412 60.8380075,19.9040374 C60.8487594,19.9195981 60.8595113,19.9351587 60.868985,19.9513992 C60.8740226,19.9599349 60.8780827,19.9688483 60.8827444,19.9775351 C60.8907895,19.9926425 60.8989098,20.0076744 60.9058271,20.0231595 C60.9095865,20.0317707 60.912594,20.0407596 60.9160526,20.0495219 C60.922594,20.0659135 60.9290602,20.082305 60.9342481,20.0990743 C60.9368045,20.1073834 60.938609,20.1158435 60.9407895,20.1241526 C60.9456015,20.1419038 60.9501128,20.1595795 60.9533459,20.1776329 C60.953797,20.1799745 60.9546241,20.1821651 60.955,20.1845067 C62.1994361,27.482223 66.7359023,31.5775432 70.7382331,35.1908611 C72.5191353,36.7985931 74.2322932,38.3454422 75.4997368,40.0464625 C75.4807895,39.0617606 75.3428947,38.059081 75.0643233,37.0457506 C74.9797368,36.7374836 75.1254511,36.4173573 75.4359023,36.2301008 C75.7467293,36.042391 76.1628947,36.0238089 76.4968045,36.1819081 C81.6214662,38.6069517 86.6330451,43.35174 88.8654511,48.9153507 C88.8975564,48.9672447 88.923797,49.0225379 88.9419173,49.0813057 C88.949812,49.1069884 88.9558271,49.132671 88.9604887,49.1582781 C89.4635714,50.4649191 89.8123684,51.8149939 89.9729699,53.1896939 C89.9730451,53.1899205 89.9731203,53.1900716 89.9731203,53.1902227 C89.9783083,53.2180959 89.9815414,53.2457424 89.9831203,53.2733135 C90.0184586,53.5907205 90.0431955,53.9094115 90.0579323,54.2291602 C90.7014662,53.0505545 91.1609398,51.7127167 91.3892857,50.1691913 C91.4364286,49.850198 91.7129699,49.5856671 92.0902632,49.4986483 C92.4678571,49.4120072 92.8719925,49.5195721 93.1149248,49.7717905 C96.3895865,53.1711873 98.6348496,58.806936 98.2782331,64.7158268 C98.2963534,64.8012593 98.298609,64.8903931 98.2804887,64.9807355 C98.2712406,65.0268886 98.2604887,65.0725886 98.2499624,65.1183641 C98.1074812,66.8927309 97.727782,68.6873417 97.0689098,70.4499248 C98.1172556,69.5881218 99.0813158,68.5704858 99.9258271,67.3715607 C100.117556,67.0987962 100.48515,66.9434919 100.870038,66.97839 C101.252068,67.0117774 101.573947,67.2270582 101.691015,67.5270161 C102.400263,69.3436082 102.601466,71.3485898 102.37297,73.3775923 C102.376429,73.4498058 102.368233,73.5227746 102.34703,73.5945349 M118.678985,73.3369533 C109.205977,40.6620899 70.7988346,10.9661838 59.9342481,0.0747137608 C49.0695865,10.9661838 10.6623684,40.6620899 1.1893609,73.3369533 C0.10575188,77.0748319 -0.35093985,81.2562645 0.301390977,85.3362507 C1.83830827,100.585457 14.6552256,112.486405 30.2391353,112.486405 C44.6432707,112.486405 56.8440226,101.861052 59.7979323,88.2801587 C59.9239474,87.923699 60.0278571,88.0893519 60.0867293,88.2720007 C62.8640977,102.085322 75.0127444,112.486405 89.5810902,112.486405 C102.905,112.486405 114.19891,103.783623 118.15703,91.7297877 C120.717481,85.7291192 120.30109,78.9321385 118.678985,73.3369533" id="Fill-9" fill="#585AFA" mask="url(#mask-2)"></path>
                </g>
                <path d="M92.3386627,78.4695311 C92.3013447,78.4730101 92.2641019,78.4745984 92.2273846,78.4745984 C91.7412753,78.4745984 91.3218427,78.1746425 91.2653026,77.7684995 C91.2047079,77.3312718 91.5864471,76.9363979 92.1185094,76.886254 C96.0009268,76.5217841 99.1528286,74.823471 100.378764,73.2724887 C100.50979,72.1014808 100.483585,70.9444648 100.280551,69.8424331 C93.8118578,76.9956176 82.0316276,77.5238304 73.4790614,75.6598836 C72.9614909,75.5466627 72.6533363,75.1105695 72.7905942,74.6853672 C72.9281525,74.2602406 73.4597642,74.0061932 73.9762085,74.1197923 C76.3638058,74.6400637 86.3687683,76.4629425 94.0603938,72.4797913 C94.7313659,71.2586395 95.2383493,69.9913522 95.5977879,68.7046276 C92.7033573,70.7222584 87.4871051,72.0386307 79.8474394,72.6945101 C79.8131249,72.6972328 79.7791107,72.6987455 79.745472,72.6987455 C79.255308,72.6987455 78.8343737,72.394176 78.7824139,71.9849321 C78.7266998,71.5474019 79.1132445,71.1556289 79.6458324,71.1097204 C89.6838328,70.2479711 95.257271,68.2418363 96.2273122,65.1442584 C96.4214857,62.7047532 96.1492975,60.2840802 95.5208243,58.0598232 C94.2064369,59.5507539 92.553635,60.9708931 90.6570277,62.2312222 C90.4775712,62.3507205 90.261923,62.4086545 90.0480019,62.4086545 C89.7652265,62.4086545 89.4852293,62.3075347 89.2934586,62.1130096 C88.9568463,61.7706998 89.0212704,61.2693363 89.4375494,60.992675 C91.6630353,59.513543 93.5194714,57.8072129 94.8313059,56.0390915 C94.2921105,54.7020717 93.6206879,53.4685163 92.8452706,52.3862246 C90.9166764,58.9808679 84.7032768,61.7730444 78.6772929,64.4812696 C74.003615,66.5814148 69.5893607,68.5652381 67.1446226,72.2199202 C66.900817,72.5851464 66.3559901,72.7342168 65.8933077,72.5610955 C65.4319018,72.3883524 65.2101716,71.9522591 65.3850479,71.5613181 C68.1360634,65.4071547 75.921622,54.7004078 87.9132204,52.7221812 C87.779041,51.903164 87.5731541,51.0948864 87.3053209,50.3018109 C81.5736757,51.5942079 76.9970845,53.7050927 73.3937633,56.7230303 C72.9369376,57.1501234 72.4622414,57.5787291 71.9692992,58.0086961 C64.941963,64.1388842 61.8383418,70.7084934 61.1273486,81.7925675 C67.7605563,69.7863899 83.455416,64.3983015 92.902937,63.8378695 C93.4343234,63.8082974 93.9011356,64.1366153 93.9395798,64.5753556 C93.9782493,65.014096 93.5766122,65.3953561 93.0425977,65.4271971 C83.3723704,66.0006378 68.7272186,71.7351201 62.7344229,82.7887146 C65.9087755,80.185542 70.2582303,78.5386586 75.4416698,78.0362362 C83.1671593,77.2852876 91.2276843,79.3097253 95.5507838,82.9979879 C97.5046821,81.0534175 98.9802049,78.5987859 99.7816021,76.0570264 C97.7985703,77.303893 95.0978626,78.2103407 92.3386627,78.4695311" id="Fill-12" fill="#585AFA"></path>
                <path d="M26.9573903,65.4272378 C26.4234495,65.3953968 26.0218112,65.0141376 26.0604057,64.5753983 C26.0986999,64.1366589 26.5628102,63.812199 27.0971265,63.8378382 C36.5445982,64.3983445 52.2393505,69.7863449 58.8726514,81.7923434 C58.1616563,70.7084462 55.0579515,64.1389279 48.0307463,58.0087539 C47.5375024,57.578561 47.0625796,57.149805 46.6055275,56.7224104 C43.0022715,53.7047823 38.4257429,51.5939024 32.6945325,50.3018109 C32.4266235,51.0948846 32.220736,51.9032359 32.0865563,52.7222513 C44.0783376,54.7003977 51.8639926,65.4071954 54.6149405,71.5613446 C54.7899674,71.9522847 54.5683117,72.3883769 54.1068295,72.5611197 C53.6454974,72.7337868 53.0997679,72.5847924 52.855361,72.2199452 C50.4106913,68.5652715 45.9961246,66.5814527 41.3228094,64.4813125 C35.2966588,61.7730935 29.0830921,58.9809234 27.1545677,52.3862954 C26.3791484,53.468509 25.7077239,54.7019859 25.1686021,56.0390783 C26.4802149,57.8071955 28.3366561,59.5135973 30.5624484,60.9927259 C30.9787285,61.269311 31.0431528,61.7707489 30.7065396,62.1130579 C30.5150687,62.3075069 30.2348455,62.4087021 29.9519192,62.4087021 C29.7380725,62.4087021 29.5226491,62.3507682 29.3430419,62.2312702 C27.446129,60.970944 25.7933978,59.5508081 24.4790818,58.0598809 C23.850682,60.2840572 23.5784931,62.7045732 23.772667,65.1440728 C24.7424856,68.2417948 30.3157889,70.2480006 40.3541922,71.1097479 C40.8867064,71.1556563 41.2733273,71.5473527 41.2176881,71.9849576 C41.165578,72.3942006 40.7447927,72.6987693 40.2546273,72.6987693 C40.2209885,72.6987693 40.1868992,72.6972567 40.1525846,72.6944583 C32.512898,72.0386561 27.2966316,70.7221355 24.4021181,68.704585 C24.7615576,69.9913067 25.2685424,71.2585154 25.9394412,72.4795131 C33.6310877,76.4627307 43.6360024,74.6400831 46.0236814,74.1198128 C46.5391509,74.0057602 47.0718904,74.2598826 47.2092238,74.6853864 C47.3465572,75.1105877 47.0384017,75.5466043 46.5206796,75.6598249 C37.9693665,77.5234649 26.1884284,76.995934 19.719417,69.8419341 C19.5163828,70.9441901 19.4902527,72.1014303 19.6212037,73.2725112 C20.8471427,74.8235655 23.9990532,76.5217991 27.8814811,76.8862681 C28.4135448,76.9364119 28.7952851,77.3312849 28.7347653,77.7685116 C28.67815,78.174578 28.2587163,78.4746089 27.7724554,78.4746089 C27.7358131,78.4746089 27.6987204,78.4730206 27.6613272,78.4695415 C24.9021198,78.2103518 22.2013297,77.3039062 20.2183675,76.0568912 C21.0197668,78.5988717 22.4952186,81.0534976 24.4491223,82.9979879 C28.7720834,79.3099607 36.8344325,77.2867378 44.5576154,78.0361721 C49.7415946,78.5387445 54.0913616,80.1856998 57.2658731,82.7890176 C51.273061,71.7352218 36.6277941,66.0006771 26.9573903,65.4272378" id="Fill-14" fill="#585AFA"></path>
            </g>
        </g>
    </g>
</svg>