<?xml version="1.0" encoding="UTF-8"?>
<svg width="320px" height="320px" viewBox="0 0 320 320" version="1.1" xmlns="http://www.w3.org/2000/svg" xmlns:xlink="http://www.w3.org/1999/xlink">
    <!-- Generator: Sketch 48.2 (47327) - http://www.bohemiancoding.com/sketch -->
    <title>Windows_320</title>
    <desc>Created with Sketch.</desc>
    <defs>
        <polygon id="path-1" points="0 0.187149611 302.246607 0.187149611 302.246607 281.765859 0 281.765859"></polygon>
    </defs>
    <g id="Page-1" stroke="none" stroke-width="1" fill="none" fill-rule="evenodd">
        <g id="Windows_320">
            <g id="Page-1-Copy-2" transform="translate(9.381107, 3.127036)">
                <path d="M224.028072,313.111014 L224.028072,304.239925 C188.063355,303.452997 158.267348,277.58372 151.375137,243.37437 C151.22695,242.91498 150.965064,242.498337 150.647277,243.395078 C143.347078,276.890455 113.633313,303.219882 78.2520588,304.229476 L78.2520588,313.111014 L224.028072,313.111014 Z" id="Fill-1" fill="#585AFA"></path>
                <path d="M105.824557,129.665461 C101.130112,123.54134 98.0534944,117.580226 96.6395756,111.833934 C96.3741345,110.755287 97.2323689,109.704817 98.5559771,109.489049 C99.8784494,109.274984 101.168357,109.971264 101.433419,111.0501 C103.601819,119.863085 110.098689,129.33037 120.762909,139.236374 C122.012678,140.278524 123.203376,141.359062 124.368704,142.482905 C136.426016,152.922182 144.136493,163.785807 148.500746,177.975388 L148.500746,149.537227 C148.500746,133.737241 148.519301,107.2928 136.681233,92.1924966 C135.954394,91.2656997 136.297082,90.0338787 137.434768,89.441417 C138.57359,88.8500899 140.069489,89.1214537 140.796707,90.0478723 C144.211279,94.4033072 146.654208,99.5730222 148.500746,105.117919 L148.500746,77.5800809 C148.500746,76.4798759 149.584663,75.5880632 150.934588,75.5880632 C152.284702,75.5880632 153.368429,76.4798759 153.368429,77.5800809 L153.368429,105.117919 C155.214967,99.5730222 157.701253,94.4033072 161.115825,90.0478723 C161.843232,89.1205081 163.369045,88.8500899 164.506731,89.441417 C165.644228,90.0338787 165.955866,91.2656997 165.229027,92.1924966 C153.390391,107.2928 153.368429,133.737241 153.368429,149.537227 L153.368429,177.975577 C157.900618,163.785807 165.491249,152.922182 177.548561,142.482905 C178.713321,141.359819 179.936584,140.279848 181.185596,139.238454 C191.851898,129.330937 198.356909,119.862896 200.524741,111.0501 C200.790561,109.971264 202.080279,109.27593 203.405781,109.489049 C204.729578,109.704817 205.589517,110.755287 205.323886,111.833934 C203.910157,117.579848 200.834296,123.54134 196.139094,129.666028 C202.700336,126.478309 210.079296,123.973631 218.348487,122.111528 C213.573197,111.531369 204.475118,102.347362 194.64755,96.5685437 C197.87336,119.991109 175.818839,138.931917 164.427591,144.290925 C164.042683,144.471708 163.622369,144.557561 163.207736,144.557561 C162.362755,144.557561 161.54144,144.200344 161.088373,143.561552 C160.413599,142.60847 160.813844,141.390643 161.983148,140.840162 C171.422778,136.399063 185.628043,123.725149 189.198245,108.199552 C189.12024,108.088359 189.052649,107.970358 189.000584,107.844226 C187.239244,103.581074 183.992418,99.8542193 179.998306,96.0227907 C172.32702,100.728256 167.046976,111.864002 167.262434,122.725169 C171.909357,119.419259 175.819028,111.159969 177.01446,106.777303 C177.307354,105.702627 178.615626,105.029418 179.930904,105.264852 C181.248833,105.503312 182.079425,106.567209 181.786341,107.64094 C181.738062,107.820966 176.412958,125.673294 165.639116,127.897531 C165.440887,127.938378 165.23925,127.958801 165.03875,127.958801 C164.539864,127.958801 164.047984,127.834371 163.632215,127.5961 C163.049267,127.261576 162.674393,126.737381 162.605666,126.158534 C161.051642,113.073509 167.160006,99.1498083 176.769845,93.0243635 C176.002489,92.3284621 175.217905,91.6240511 174.419499,90.9077265 C165.670734,83.0555765 155.954302,74.3348735 150.982678,60.4801959 C146.010674,74.3346843 136.29481,83.0555765 127.546046,90.9071592 C126.74764,91.6236729 125.962866,92.328273 125.19551,93.0241744 C134.805349,99.1494301 140.913902,113.07332 139.359879,126.158534 C139.291341,126.737381 138.916467,127.261576 138.33333,127.5961 C137.917182,127.834371 137.424923,127.958801 136.926795,127.958801 C136.726294,127.958801 136.524279,127.938378 136.326428,127.897531 C125.552776,125.673294 120.227482,107.820966 120.179203,107.64094 C119.88593,106.567209 120.716901,105.503312 122.03464,105.264852 C123.35768,105.028473 124.65819,105.702627 124.951084,106.777303 C126.146516,111.159969 130.056187,119.419259 134.702921,122.725169 C134.918568,111.864002 129.638335,100.728067 121.967049,96.0226016 C117.972937,99.8542193 114.726301,103.581074 112.964961,107.844226 C112.912706,107.970547 112.845304,108.088548 112.767111,108.19993 C116.336934,123.725338 130.542198,136.399063 139.982397,140.840162 C141.151512,141.390643 141.551945,142.60847 140.877172,143.561552 C140.424483,144.200344 139.60279,144.557561 138.757808,144.557561 C138.342796,144.557561 137.922862,144.471708 137.537764,144.290925 C126.146516,138.931917 104.091617,119.991109 107.317805,96.5685437 C97.4900474,102.347929 88.3915898,111.531558 83.6161112,122.111528 C91.8851127,123.973442 99.2635045,126.478119 105.824557,129.665461" id="Fill-3" fill="#585AFA"></path>
                <path d="M176.698197,167.265542 C182.517763,163.484452 189.197063,160.514309 195.753436,157.599573 C205.490409,153.270627 214.902099,149.084157 221.456391,142.547015 C221.43956,142.404539 221.43956,142.259047 221.462065,142.111105 C221.783756,139.985267 221.881341,137.865836 221.782432,135.76544 C201.358541,139.333192 185.895237,154.250623 176.698197,167.265542" id="Fill-5" fill="#585AFA"></path>
                <path d="M106.526979,157.599573 C113.082876,160.514309 119.762265,163.485206 125.581933,167.265542 C116.385031,154.249681 100.923471,139.333004 80.4978033,135.76544 C80.3987065,137.866025 80.4962903,139.985267 80.8181658,142.111105 C80.8404815,142.258859 80.8406706,142.404539 80.8236502,142.546827 C87.378034,149.084157 96.7899612,153.270627 106.526979,157.599573" id="Fill-7" fill="#585AFA"></path>
                <g id="Group-11">
                    <mask id="mask-2" fill="white">
                        <use xlink:href="#path-1"></use>
                    </mask>
                    <g id="Clip-10"></g>
                    <path d="M257.81228,184.346076 C256.364517,195.628032 249.617193,207.134583 239.677745,214.376294 C243.631061,213.766085 247.132094,212.825134 249.857161,211.542655 C250.750175,211.122415 251.871415,211.204912 252.658366,211.747004 C253.445885,212.289286 253.731119,213.17669 253.37183,213.964001 C251.39413,218.295632 247.316189,223.806054 240.827773,228.73673 C240.679285,228.919509 240.493106,229.086394 240.266396,229.226032 C240.108058,229.323666 239.94688,229.416758 239.784376,229.507769 C230.855938,235.95006 217.673418,241.214695 199.509337,241.21583 C198.544541,241.21583 197.570842,241.200883 196.578015,241.170798 C195.227982,241.129171 194.174926,240.204492 194.225685,239.103846 C194.275875,238.004146 195.431775,237.141906 196.760595,237.186939 C209.633827,237.580121 219.893359,235.189428 227.83825,231.569045 C220.63921,231.075769 213.026713,228.437207 208.284931,226.206208 C207.115584,225.655601 206.714816,224.43613 207.390022,223.483447 C208.065228,222.530954 209.560151,222.204942 210.730445,222.753657 C217.853157,226.106494 230.53396,229.720822 236.902866,226.283596 C240.907699,223.343241 243.935425,220.154262 246.071273,217.180416 C227.53919,221.984888 195.657349,218.396671 185.232093,206.985294 C184.743634,206.451149 184.615411,205.752389 184.890229,205.124583 C185.165236,204.496967 185.806918,204.022991 186.600498,203.861593 C195.721744,202.00372 207.055734,201.04801 221.949091,208.055099 C223.118627,208.605706 223.519395,209.824231 222.844189,210.777671 C222.168793,211.730543 220.672545,212.058636 219.503766,211.507651 C208.251028,206.211795 199.532822,205.915679 191.929038,207.001756 C200.082078,212.728447 216.11069,215.55641 230.078457,215.196339 C230.230165,215.070513 230.402896,214.957554 230.599492,214.865029 C233.046711,213.713485 235.352639,212.262418 237.488865,210.579566 C227.769877,202.2198 208.545164,197.468497 190.663287,199.190327 C182.441684,199.980476 168.776387,202.729727 159.128992,212.028551 C163.064694,210.969532 167.764999,210.402085 172.698642,210.697066 C180.153939,211.145688 193.792341,214.107046 201.371504,228.899263 C201.891592,229.915332 201.30351,231.082013 200.056888,231.506226 C199.749494,231.611428 199.429979,231.661002 199.115956,231.661002 C198.158925,231.661002 197.250191,231.199703 196.857946,230.434908 C190.615369,218.250789 180.078747,215.13863 172.338785,214.672222 C163.268298,214.136184 154.95389,217.186093 153.217483,219.53043 C153.208771,219.542161 153.198544,219.552568 153.189831,219.56392 C153.163505,219.597978 153.136042,219.631091 153.107253,219.663824 C153.090018,219.683502 153.072215,219.702802 153.054222,219.721912 C153.024676,219.752943 152.994183,219.782839 152.962364,219.812545 C152.941719,219.831845 152.920885,219.850955 152.899294,219.869308 C152.868422,219.895987 152.836414,219.921909 152.803458,219.947075 C152.778647,219.966374 152.753457,219.985295 152.727509,220.003649 C152.696069,220.025976 152.663493,220.047546 152.630348,220.068738 C152.600802,220.08747 152.570877,220.106013 152.540194,220.123609 C152.510459,220.141017 152.480155,220.157857 152.449093,220.174129 C152.446821,220.175264 152.444169,220.1764 152.441707,220.177724 C152.409699,220.194564 152.377122,220.210458 152.344356,220.225973 C152.324848,220.235245 152.306287,220.245462 152.2864,220.254355 C152.286211,220.254355 152.286211,220.254355 152.286021,220.254544 C152.280529,220.257004 152.274657,220.258896 152.269165,220.261167 C152.257611,220.266086 152.24549,220.27006 152.233937,220.274979 C152.204201,220.287278 152.174465,220.29882 152.144351,220.309983 C152.119161,220.319633 152.094539,220.330418 152.068781,220.339311 C152.053819,220.344231 152.038667,220.347636 152.023704,220.352745 C152.02181,220.353313 152.019916,220.35388 152.017833,220.354448 C151.989802,220.363341 151.961203,220.371666 151.932603,220.379803 C151.903436,220.388128 151.875216,220.397778 151.84567,220.405346 C151.828813,220.409509 151.811957,220.411969 151.79529,220.415942 C151.76669,220.422564 151.737902,220.428052 151.709303,220.434106 C151.663279,220.443189 151.617444,220.452082 151.571231,220.459082 C151.541495,220.463623 151.51176,220.46684 151.482024,220.470435 C151.447175,220.474598 151.412515,220.480085 151.377666,220.482923 C151.367059,220.483869 151.356074,220.483869 151.345468,220.484815 C151.311944,220.487275 151.278231,220.488221 151.244518,220.489545 C151.208533,220.491059 151.172736,220.493141 151.13694,220.49333 C151.132395,220.49333 151.128038,220.493897 151.123303,220.493897 C151.118758,220.493897 151.114402,220.49333 151.109856,220.49333 C151.074249,220.493141 151.038453,220.491059 151.002656,220.489545 C150.968754,220.488221 150.935041,220.487275 150.901328,220.484815 C150.890722,220.483869 150.879737,220.483869 150.86913,220.482923 C150.834471,220.480085 150.800189,220.474598 150.765529,220.470624 C150.735415,220.46684 150.705301,220.463623 150.675376,220.459082 C150.629731,220.452082 150.584654,220.443378 150.539198,220.434296 C150.509652,220.428241 150.479916,220.422564 150.45056,220.415753 C150.434461,220.411779 150.417983,220.409509 150.401695,220.405346 C150.372527,220.397967 150.344307,220.388317 150.315329,220.379992 C150.285972,220.371666 150.256805,220.363341 150.227827,220.35407 C150.22044,220.35161 150.212486,220.349718 150.205099,220.347258 C150.196387,220.34442 150.187485,220.342339 150.178962,220.3395 C150.153204,220.330797 150.128961,220.320201 150.10396,220.31074 C150.072709,220.299198 150.042027,220.287089 150.011534,220.274411 C149.975169,220.259274 149.939373,220.243381 149.904145,220.22673 C149.870053,220.210836 149.836529,220.194186 149.803574,220.176967 C149.788043,220.168831 149.771376,220.16183 149.756224,220.153316 C149.739936,220.144612 149.725542,220.134584 149.709632,220.125502 C149.677056,220.10658 149.644858,220.086902 149.613229,220.066657 C149.582167,220.046789 149.551674,220.026544 149.522128,220.00573 C149.494286,219.985863 149.467202,219.965617 149.440497,219.944993 C149.409436,219.920963 149.379132,219.896366 149.349775,219.871201 C149.326858,219.851333 149.304509,219.831277 149.282349,219.810653 C149.251856,219.782082 149.222499,219.753132 149.194279,219.723426 C149.175339,219.70337 149.156778,219.683313 149.138596,219.6625 C149.110375,219.630334 149.083291,219.597789 149.057533,219.564299 C149.048631,219.552757 149.038404,219.54235 149.029691,219.53043 C147.293664,217.186093 138.983612,214.140158 129.90839,214.672222 C122.168428,215.13863 111.631427,218.250789 105.389039,230.434908 C104.996795,231.199703 104.08825,231.660056 103.13103,231.661002 C102.817196,231.661002 102.498249,231.611428 102.190097,231.506226 C100.943476,231.082013 100.355393,229.915332 100.875671,228.899263 C108.454645,214.107046 122.093236,211.145688 129.548343,210.697066 C134.483313,210.401139 139.181912,210.969532 143.117425,212.027227 C133.469462,202.729727 119.804165,199.980476 111.581805,199.189191 C93.6970864,197.4702 74.4761611,202.220746 64.7581201,210.579566 C66.8943466,212.262418 69.2002743,213.713485 71.6474933,214.865029 C71.8442784,214.957743 72.0171994,215.070702 72.1689076,215.196718 C86.1366739,215.556788 102.165097,212.729014 110.318137,207.001756 C102.716247,205.915679 93.9965255,206.213688 82.7428408,211.507651 C81.5731152,212.058636 80.0768664,211.730543 79.4022287,210.777671 C78.7272122,209.824231 79.1276008,208.605706 80.297137,208.055099 C95.189926,201.047064 106.523347,202.000882 115.646488,203.861593 C116.439878,204.022991 117.08175,204.496967 117.356946,205.124583 C117.631574,205.752389 117.503162,206.451149 117.014892,206.985294 C106.588311,218.395725 74.7077955,221.987726 56.1755235,217.180416 C58.3144016,220.158235 61.3498926,223.351377 65.3647637,226.29476 C71.7391622,229.714578 84.4014042,226.102709 91.5165405,222.753657 C92.6860768,222.204942 94.1815679,222.530954 94.8569633,223.483447 C95.5321692,224.43613 95.1315912,225.655601 93.962055,226.206208 C89.2227344,228.43645 81.6136465,231.073309 74.4172581,231.568288 C82.3644225,235.18886 92.6235752,237.579743 105.48639,237.186939 C106.814642,237.140203 107.97111,238.0032 108.02149,239.103846 C108.07206,240.204492 107.019004,241.129171 105.66897,241.170798 C104.677848,241.200883 103.70074,241.21583 102.737838,241.21583 C84.5646657,241.21583 71.3793049,235.947411 62.4514348,229.501146 C62.2925294,229.412217 62.1351392,229.321395 61.9804005,229.226032 C61.7552056,229.08734 61.5701632,228.921968 61.4220535,228.740514 C54.9321218,223.808892 50.8536129,218.296957 48.8751553,213.964001 C48.5158662,213.17669 48.8012899,212.289286 49.5886198,211.747004 C50.3763284,211.204912 51.4979468,211.122415 52.3900141,211.542655 C55.1148915,212.824945 58.6159242,213.766085 62.5692407,214.376294 C52.6288457,207.134393 45.8811426,195.626707 44.4341375,184.344184 C44.3814847,184.165946 44.3610296,183.98487 44.3693631,183.805497 C43.7934021,178.721938 44.3002327,173.698737 46.0872082,169.14762 C46.3821018,168.396259 47.1929171,167.857005 48.1552513,167.773373 C49.1098202,167.685957 50.0496159,168.074977 50.5339081,168.758222 C52.6610435,171.761017 55.0893227,174.309892 57.730107,176.468422 C56.0704073,172.053728 55.1139445,167.558428 54.7550342,163.114027 C54.7285184,162.999554 54.7016238,162.885081 54.6783277,162.769472 C54.6328721,162.543553 54.6383646,162.32085 54.6838203,162.10723 C53.7847453,147.305741 59.440755,133.188064 67.6898206,124.672767 C68.3011993,124.040042 69.3192166,123.773442 70.2707551,123.988576 C71.2213465,124.206548 71.9179545,124.869169 72.0368968,125.668211 C72.6121003,129.53438 73.7693256,132.885514 75.3901986,135.83779 C75.4275101,135.036477 75.4900117,134.237434 75.579029,133.441798 C75.582817,133.377844 75.5909611,133.313323 75.6025144,133.248612 C76.0063122,129.799845 76.8858792,126.41276 78.1552285,123.134851 C78.1669712,123.071087 78.1821231,123.007133 78.2018205,122.943179 C78.2472762,122.796351 78.3131869,122.658226 78.3938707,122.528616 C84.0171144,108.592015 96.6418555,96.7060944 109.551641,90.6316316 C110.392003,90.2356108 111.44165,90.282157 112.223676,90.7523489 C113.005893,91.2214055 113.372947,92.023286 113.159874,92.7954603 C112.458152,95.3337396 112.110606,97.8451507 112.062877,100.311908 C115.255569,96.0506639 119.570826,92.1759801 124.057489,88.1486022 C134.139365,79.0982128 145.566349,68.8398938 148.701464,50.5599311 C148.702411,50.5540655 148.704305,50.5485783 148.705441,50.542902 C148.713775,50.4973019 148.725139,50.4524586 148.73726,50.4078046 C148.742753,50.3875589 148.747109,50.3667456 148.753548,50.3464999 C148.766996,50.3027919 148.783852,50.26003 148.801087,50.2174573 C148.809042,50.19759 148.81586,50.1769659 148.824762,50.1574771 C148.84427,50.1137691 148.866809,50.0713856 148.889915,50.0290021 C148.899006,50.0123515 148.906772,49.9953224 148.916431,49.9790502 C148.946735,49.9272061 148.980448,49.8770649 149.016055,49.8276805 C149.019653,49.822761 149.022494,49.8176523 149.026093,49.8127328 C149.393337,49.3137807 150.023087,48.9487907 150.785038,48.8617532 C150.840721,48.8555092 150.896214,48.8530494 150.951708,48.850022 C150.960231,48.8494544 150.968375,48.8485083 150.976898,48.8481299 C151.038263,48.8452917 151.09925,48.8447241 151.160047,48.8456701 C151.185994,48.8458594 151.211942,48.8456701 151.238268,48.8466162 C151.281072,48.8481299 151.323308,48.8517249 151.365734,48.8551307 C151.397931,48.8575905 151.42994,48.8583474 151.462137,48.8617532 C151.475206,48.8632669 151.487706,48.8662943 151.500964,48.867808 C151.52426,48.8708353 151.546988,48.8751872 151.570095,48.878593 C151.630323,48.8878644 151.689984,48.8975142 151.748319,48.9100022 C151.752485,48.9109483 151.756652,48.9122728 151.760819,48.9132188 C152.307613,49.0331793 152.769556,49.2992114 153.08945,49.6519026 C153.091533,49.6545515 153.093427,49.6570113 153.095511,49.6592818 C153.138883,49.7075309 153.179793,49.7569152 153.217673,49.8080025 C153.229605,49.8240855 153.239643,49.8411146 153.251007,49.8573868 C153.278091,49.8963645 153.305175,49.9353422 153.329039,49.9760228 C153.341729,49.9974037 153.351956,50.0197307 153.363699,50.0414901 C153.383965,50.0793325 153.40442,50.1169857 153.421845,50.1557742 C153.431314,50.1773444 153.43889,50.1998606 153.447603,50.2218092 C153.46408,50.2628682 153.480369,50.3039272 153.493437,50.3459323 C153.499877,50.3667456 153.504422,50.3879373 153.509915,50.4087507 C153.522036,50.4532155 153.5334,50.4974911 153.541544,50.5427128 C153.542681,50.5485783 153.544764,50.5540655 153.545711,50.5599311 C156.680447,68.8398938 168.10781,79.0982128 178.189686,88.1491699 C182.675781,92.1763586 186.991227,96.0510423 190.183919,100.311908 C190.136191,97.84534 189.788834,95.3337396 189.087112,92.7954603 C188.874039,92.023286 189.241093,91.2214055 190.02312,90.7523489 C190.806093,90.282157 191.854415,90.2356108 192.695534,90.6316316 C205.604562,96.7060944 218.228735,108.591258 223.852168,122.527481 C223.933041,122.657469 223.999141,122.795973 224.044786,122.943179 C224.064673,123.007512 224.079825,123.071844 224.091568,123.135987 C225.358834,126.408976 226.237454,129.790763 226.642009,133.234232 C226.642198,133.2348 226.642388,133.235178 226.642388,133.235557 C226.655456,133.305376 226.6636,133.374627 226.667578,133.44369 C226.756595,134.238759 226.818907,135.037044 226.856029,135.837979 C228.477092,132.885704 229.634506,129.534569 230.20971,125.668211 C230.328463,124.869169 231.025071,124.206548 231.975473,123.988576 C232.926633,123.77155 233.94465,124.040988 234.556597,124.672767 C242.805473,133.187875 248.461293,147.304795 247.562976,162.105905 C247.608621,162.319904 247.614303,162.543174 247.568658,162.769472 C247.545362,162.885081 247.518278,162.999554 247.491762,163.114216 C247.132852,167.558807 246.176389,172.054106 244.516689,176.469179 C247.157473,174.310459 249.585942,171.761395 251.713267,168.758222 C252.196233,168.074977 253.122203,167.685957 254.091734,167.773373 C255.054068,167.857005 255.864884,168.396259 256.159777,169.14762 C257.946374,173.69798 258.453205,178.720235 257.877622,183.802659 C257.886335,183.983546 257.86569,184.166324 257.81228,184.346076 M298.952492,183.700863 C275.089976,101.853986 178.342341,27.4690635 150.974436,0.187149611 C123.606342,27.4690635 26.8585176,101.853986 2.9960014,183.700863 C0.2663891,193.06383 -0.884017862,203.537851 0.759204199,213.75776 C4.63070053,251.955316 36.9165291,281.765859 76.1724148,281.765859 C112.456447,281.765859 143.190155,255.150539 150.631056,221.13192 C150.948488,220.239029 151.210237,220.653971 151.358536,221.111485 C158.35473,255.71231 188.957184,281.765859 225.654864,281.765859 C259.217807,281.765859 287.667178,259.966363 297.637687,229.772855 C304.087466,214.741852 303.038577,197.716176 298.952492,183.700863" id="Fill-9" fill="#585AFA" mask="url(#mask-2)"></path>
                </g>
                <path d="M232.601192,196.557396 C232.507188,196.56611 232.413373,196.570089 232.320882,196.570089 C231.096372,196.570089 230.039821,195.818733 229.897396,194.80139 C229.744758,193.706184 230.70636,192.717069 232.046625,192.591464 C241.826439,191.678508 249.766083,187.424423 252.854216,183.539386 C253.18427,180.606142 253.118259,177.707947 252.606817,174.947481 C236.312172,192.865408 206.637759,194.188522 185.093836,189.519543 C183.790075,189.235938 183.013833,188.143573 183.359586,187.078489 C183.706095,186.013594 185.045226,185.377234 186.34615,185.661787 C192.36051,186.965009 217.563021,191.531116 236.938234,181.553768 C238.628414,178.494919 239.905505,175.320506 240.810931,172.097405 C233.519858,177.151345 220.380113,180.44871 201.135786,182.091614 C201.049348,182.098435 200.963667,182.102224 200.878931,182.102224 C199.644207,182.102224 198.583873,181.339311 198.452986,180.314201 C198.312642,179.218237 199.286349,178.236889 200.627938,178.121893 C225.913672,175.963308 239.953169,170.938165 242.396704,163.179079 C242.885827,157.068391 242.200185,151.004876 240.61706,145.433361 C237.306117,149.167976 233.142707,152.725265 228.365151,155.882249 C227.9131,156.181579 227.369882,156.326697 226.831015,156.326697 C226.118703,156.326697 225.41339,156.073403 224.930319,155.58614 C224.082392,154.728692 224.244677,153.472832 225.293284,152.779827 C230.899285,149.074767 235.57565,144.800601 238.880163,140.371654 C237.521929,137.022569 235.830614,133.932651 233.877338,131.221631 C229.019207,147.740475 213.367646,154.734565 198.188186,161.518366 C186.415187,166.778995 175.295675,171.74825 169.137377,180.90282 C168.523231,181.817671 167.150811,182.191075 165.985314,181.757426 C164.823032,181.324724 164.264493,180.232359 164.705007,179.253095 C171.634818,163.837604 191.246648,137.018402 221.453498,132.063165 C221.1155,130.011619 220.59687,127.986974 219.922198,126.000408 C205.484178,129.237718 193.95574,134.525249 184.878969,142.084845 C183.728225,143.154665 182.532465,144.228274 181.290743,145.305294 C163.588875,160.660729 155.77085,177.116865 153.979858,204.88123 C170.688915,174.807099 210.224283,161.31054 234.022599,159.906721 C235.361162,159.832646 236.537062,160.655045 236.633904,161.754041 C236.731312,162.853036 235.719588,163.80805 234.374405,163.887809 C210.015092,165.324213 173.123938,179.68845 158.028079,207.376467 C166.024277,200.855811 176.980558,196.730552 190.037648,195.472041 C209.498165,193.590998 229.802636,198.661988 240.692528,207.900674 C245.6144,203.029742 249.331244,196.881165 251.349964,190.514342 C246.354705,193.637603 239.551619,195.908153 232.601192,196.557396" id="Fill-12" fill="#585AFA"></path>
                <path d="M67.9056954,163.88791 C66.5606979,163.808152 65.5489707,162.853141 65.6461903,161.754148 C65.7426534,160.655155 66.9117477,159.842419 68.257691,159.906642 C92.0558825,161.310648 131.590981,174.806986 148.300273,204.880669 C146.509275,177.116747 138.69104,160.660838 120.989502,145.305438 C119.74702,144.227853 118.550689,143.153867 117.399374,142.083292 C108.322769,134.524471 96.7944881,129.236953 82.3575629,126.000408 C81.6826998,127.986969 81.1640691,130.011799 80.8260701,132.063341 C111.03338,137.018376 130.645454,163.837706 137.575094,179.253162 C138.015987,180.232423 137.457637,181.324785 136.295162,181.757486 C135.133066,182.189998 133.758373,181.816784 133.142712,180.902882 C126.984586,171.748334 115.864288,166.77909 104.092202,161.518473 C88.9123219,154.734688 73.2603405,147.740614 68.4023856,131.221809 C66.4491034,133.932633 64.7577845,137.022354 63.3997361,140.371621 C66.7036902,144.800557 71.3800676,149.074903 76.9868406,152.779954 C78.0354508,153.472769 78.1977357,154.728815 77.3498065,155.586261 C76.8674913,156.073334 76.1616087,156.326816 75.448917,156.326816 C74.910237,156.326816 74.3675851,156.181698 73.9151544,155.882369 C69.1368288,152.725393 64.9735969,149.168111 61.6628337,145.433506 C60.0798939,151.004818 59.3942497,157.06794 59.8833741,163.178614 C62.3263482,170.938061 76.3655051,175.963382 101.652254,178.121962 C102.993658,178.236958 103.967556,179.218114 103.827401,180.314265 C103.696136,181.339373 102.636177,182.102283 101.40145,182.102283 C101.316714,182.102283 101.230843,182.098494 101.144404,182.091485 C81.9000254,180.448773 68.7602446,177.151037 61.4689619,172.097299 C62.3743906,175.320392 63.6514857,178.494608 65.3414805,181.553071 C84.7167465,191.530586 109.919137,186.965057 115.933703,185.661838 C117.232172,185.376149 118.574143,186.012698 118.920086,187.078537 C119.266029,188.143618 118.489785,189.235791 117.185642,189.519396 C95.6448755,194.187606 65.9686795,192.8662 49.6732329,174.946231 C49.1617896,177.707259 49.0959677,180.606016 49.4258335,183.539442 C52.5139752,187.42466 60.453641,191.678545 70.2334813,192.591499 C71.5737503,192.717104 72.5353545,193.706216 72.3829051,194.80142 C72.2402911,195.818571 71.1837369,196.570115 69.9588453,196.570115 C69.8665434,196.570115 69.7731066,196.566137 69.6789133,196.557422 C62.7284667,195.908181 55.9251735,193.637636 50.9300897,190.514003 C52.9488155,196.88138 56.6654802,203.029943 61.5873655,207.900674 C72.4769092,198.662578 92.7859754,193.594631 112.240682,195.47188 C125.299131,196.730768 136.256199,200.856207 144.252797,207.377226 C129.156896,179.688705 92.2654532,165.324312 67.9056954,163.88791" id="Fill-14" fill="#585AFA"></path>
            </g>
        </g>
    </g>
</svg>