<?xml version="1.0" encoding="UTF-8"?>
<svg width="60px" height="60px" viewBox="0 0 60 60" version="1.1" xmlns="http://www.w3.org/2000/svg" xmlns:xlink="http://www.w3.org/1999/xlink">
    <!-- Generator: Sketch 48.2 (47327) - http://www.bohemiancoding.com/sketch -->
    <title>Windows_60</title>
    <desc>Created with Sketch.</desc>
    <defs>
        <polygon id="path-1" points="0 0.0350220754 56.2437617 0.0350220754 56.2437617 52.7280023 0 52.7280023"></polygon>
    </defs>
    <g id="Page-1" stroke="none" stroke-width="1" fill="none" fill-rule="evenodd">
        <g id="Windows_60">
            <g id="Page-1-Copy-4" transform="translate(1.875000, 0.937500)">
                <path d="M41.6884134,58.59375 L41.6884134,56.9336666 C34.995895,56.7864055 29.4512851,51.9453815 28.1687434,45.5436452 C28.141168,45.4576777 28.0924348,45.3797097 28.0332992,45.5475205 C26.6748368,51.8156481 21.145531,56.7427818 14.5615866,56.9317112 L14.5615866,58.59375 L41.6884134,58.59375 Z" id="Fill-1" fill="#585AFA"></path>
                <path d="M19.6924334,24.2648303 C18.8188645,23.1187983 18.24635,22.0032706 17.98324,20.9279434 C17.9338452,20.7260917 18.0935503,20.5295128 18.3398548,20.4891354 C18.585948,20.4490765 18.8259813,20.5793742 18.8753056,20.7812612 C19.2788138,22.4304714 20.4877881,24.2021232 22.4722465,26.0558745 C22.7048107,26.2508963 22.9263826,26.4531019 23.1432334,26.6634112 C25.3869264,28.6169559 26.8217357,30.6499108 27.6338606,33.3052652 L27.6338606,27.9835154 C27.6338606,25.0267991 27.6373133,20.0781422 25.4344187,17.2523605 C25.2991643,17.0789252 25.3629336,16.8484095 25.5746407,16.7375397 C25.7865591,16.6268822 26.0649244,16.6776636 26.2002492,16.8510282 C26.8356522,17.6660786 27.2902463,18.6335086 27.6338606,19.6711479 L27.6338606,14.5178791 C27.6338606,14.3119933 27.8355619,14.1451047 28.0867636,14.1451047 C28.3380005,14.1451047 28.5396666,14.3119933 28.5396666,14.5178791 L28.5396666,19.6711479 C28.8832809,18.6335086 29.3459431,17.6660786 29.981346,16.8510282 C30.116706,16.6774867 30.400638,16.6268822 30.612345,16.7375397 C30.8240168,16.8484095 30.8820081,17.0789252 30.7467538,17.2523605 C28.5437534,20.0781422 28.5396666,25.0267991 28.5396666,27.9835154 L28.5396666,33.3053006 C29.383042,30.6499108 30.7955496,28.6169559 33.0392426,26.6634112 C33.2559877,26.4532434 33.4836195,26.251144 33.7160427,26.0562638 C35.7008887,24.2022293 36.911378,22.430436 37.3147805,20.7812612 C37.3642457,20.5793742 37.6042438,20.4492535 37.8509006,20.4891354 C38.0972404,20.5295128 38.2572626,20.7260917 38.2078325,20.9279434 C37.9447577,22.0031999 37.3723842,23.1187983 36.4986743,24.2649364 C37.7196274,23.6684053 39.0927461,23.1996947 40.631524,22.8512316 C39.7429111,20.871323 38.049889,19.1526821 36.2211193,18.0712682 C36.8213963,22.4544289 32.7173661,25.9989002 30.5976182,27.0017534 C30.5259922,27.0355841 30.4477779,27.0516501 30.3706206,27.0516501 C30.2133817,27.0516501 30.0605468,26.9848027 29.9762374,26.8652629 C29.8506718,26.6869087 29.9251515,26.4590116 30.1427422,26.3559979 C31.8993223,25.5249169 34.5427184,23.1531952 35.2070817,20.2478264 C35.1925663,20.2270185 35.1799886,20.2049365 35.1702999,20.1813329 C34.8425398,19.3835517 34.2383521,18.6861301 33.495105,17.9691392 C32.0675887,18.8496923 31.0850482,20.9335701 31.1251418,22.9660648 C31.9898676,22.3474164 32.7174014,20.8018215 32.9398541,19.9816753 C32.9943574,19.7805667 33.2378082,19.6545864 33.4825625,19.6986441 C33.7278101,19.7432681 33.8823714,19.9423595 33.8278328,20.1432911 C33.8188487,20.1769802 32.8279231,23.5177597 30.8230656,23.9339903 C30.786178,23.941634 30.7486563,23.9454559 30.711346,23.9454559 C30.6185106,23.9454559 30.5269787,23.9221708 30.44961,23.8775822 C30.3411317,23.8149813 30.271373,23.7168865 30.2585839,23.6085646 C29.9694025,21.15991 31.1060815,18.5543108 32.8943348,17.4080312 C32.7515408,17.2778043 32.6055409,17.145985 32.4569689,17.0119362 C30.8289492,15.5425311 29.0208605,13.9105901 28.0957124,11.3179074 C27.1704938,13.9105548 25.3625108,15.5425311 23.7344911,17.01183 C23.5859192,17.1459142 23.439884,17.2777689 23.2970901,17.4079958 C25.0853434,18.55424 26.2220576,21.1598746 25.9328762,23.6085646 C25.9201223,23.7168865 25.8503636,23.8149813 25.7418501,23.8775822 C25.6644109,23.9221708 25.5728086,23.9454559 25.4801141,23.9454559 C25.4428038,23.9454559 25.4052116,23.941634 25.3683945,23.9339903 C23.3635722,23.5177597 22.3726114,20.1769802 22.3636273,20.1432911 C22.3090535,19.9423595 22.4636852,19.7432681 22.7088976,19.6986441 C22.9550964,19.6544095 23.1971027,19.7805667 23.251606,19.9816753 C23.4740587,20.8018215 24.2015925,22.3474164 25.0662831,22.9660648 C25.1064119,20.9335701 24.1238362,18.8496569 22.6963199,17.9691038 C21.9530728,18.6861301 21.3489203,19.3835517 21.0211602,20.1813329 C21.0114363,20.2049719 20.9988938,20.2270538 20.9843431,20.2478972 C21.648636,23.1532306 24.2920321,25.5249169 26.0487178,26.3559979 C26.2662733,26.4590116 26.3407883,26.6869087 26.2152227,26.8652629 C26.1309838,26.9848027 25.9780784,27.0516501 25.8208395,27.0516501 C25.7436117,27.0516501 25.6654679,27.0355841 25.5938067,27.0017534 C23.4740587,25.9989002 19.3699581,22.4544289 19.9703055,18.0712682 C18.1415006,19.1527883 16.448408,20.8713584 15.5597599,22.8512316 C17.0985026,23.1996593 18.4715156,23.6683699 19.6924334,24.2648303" id="Fill-3" fill="#585AFA"></path>
                <path d="M32.8810021,31.3010878 C33.9639399,30.5935168 35.2068619,30.0377017 36.4269089,29.4922553 C38.2388201,28.6821619 39.9902006,27.8987306 41.2098605,26.6754084 C41.2067284,26.6487462 41.2067284,26.6215197 41.2109163,26.5938348 C41.2707784,26.1960179 41.2889376,25.7994001 41.2705321,25.4063443 C37.4699385,26.0739925 34.5924393,28.8655526 32.8810021,31.3010878" id="Fill-5" fill="#585AFA"></path>
                <path d="M19.823144,29.4922553 C21.0431025,30.0377017 22.2860411,30.5936579 23.3689979,31.3010878 C21.6575862,28.8653763 18.7804114,26.0739572 14.9794875,25.4063443 C14.961047,25.7994354 14.979206,26.1960179 15.0391024,26.5938348 C15.043255,26.6214845 15.0432902,26.6487462 15.0401229,26.6753731 C16.2597998,27.8987306 18.0112246,28.6821619 19.823144,29.4922553" id="Fill-7" fill="#585AFA"></path>
                <g id="Group-11">
                    <mask id="mask-2" fill="white">
                        <use xlink:href="#path-1"></use>
                    </mask>
                    <g id="Clip-10"></g>
                    <path d="M47.9751703,34.4974382 C47.7057625,36.608677 46.4501821,38.7619451 44.6005933,40.1171163 C45.3362488,40.0029255 45.9877408,39.8268414 46.4948367,39.5868458 C46.6610139,39.5082046 46.8696605,39.5236425 47.0161008,39.6250864 C47.1626469,39.7265658 47.2157249,39.8926295 47.1488663,40.0399623 C46.7808447,40.8505581 46.0219984,41.881746 44.814597,42.8044436 C44.7869655,42.8386478 44.7523203,42.8698777 44.7101328,42.8960088 C44.6806685,42.9142793 44.6506755,42.9317001 44.6204359,42.9487313 C42.9589814,44.1543037 40.5059034,45.1394965 37.1258282,45.139709 C36.9462935,45.139709 36.7651022,45.1369117 36.5803513,45.1312819 C36.3291295,45.1234921 36.1331708,44.9504531 36.1426163,44.7444846 C36.1519561,44.5386932 36.3670524,44.3773388 36.6143268,44.3857659 C39.0098508,44.4593438 40.9190026,44.0119634 42.397433,43.3344663 C41.0577949,43.2421576 39.6412183,42.7483927 38.7588405,42.3308967 C38.5412418,42.2278594 38.4666647,41.9996547 38.5923109,41.8213753 C38.717957,41.6431313 38.9961407,41.5821233 39.2139156,41.6848065 C40.5393503,42.3122367 42.899066,42.9886008 44.0842281,42.3453786 C44.8294702,41.7951379 45.3928865,41.1983711 45.7903372,40.6418632 C42.3417822,41.5409437 36.4090284,40.869466 34.4690378,38.7340081 C34.3781426,38.6340513 34.3542822,38.5032895 34.4054218,38.3858057 C34.4565966,38.2683572 34.5760045,38.1796601 34.7236783,38.1494571 C36.4210115,37.8017857 38.5301046,37.6229398 41.3015449,38.9342051 C41.5191788,39.0372425 41.5937559,39.2652701 41.4681097,39.4436911 C41.3424283,39.622006 41.0639979,39.6834035 40.8465049,39.5802953 C38.7525317,38.5892602 37.1301985,38.5338466 35.7152432,38.7370886 C37.2324072,39.8087479 40.2151022,40.3379562 42.8143033,40.2705747 C42.8425341,40.2470284 42.8746769,40.2258898 42.9112606,40.2085753 C43.366653,39.993082 43.7957531,39.7215379 44.1932742,39.4066189 C42.3847098,37.8422217 38.8072662,36.9530908 35.4797051,37.2753038 C33.9497827,37.4231677 31.4068668,37.9376463 29.6116248,39.6777736 C30.3440026,39.4795949 31.2186619,39.3734062 32.1367422,39.4286073 C33.524066,39.5125598 36.0619772,40.0667307 37.4723508,42.8348591 C37.5691318,43.0250002 37.4596981,43.2433261 37.2277197,43.3227109 C37.1705181,43.3423977 37.1110609,43.3516746 37.0526257,43.3516746 C36.8745359,43.3516746 36.7054335,43.2653499 36.6324424,43.1222306 C35.4707883,40.8421664 33.510074,40.2597753 32.069778,40.1724945 C30.3818903,40.0721836 28.8346981,40.6429255 28.5115778,41.0816309 C28.5099565,41.0838262 28.5080533,41.0857736 28.5064321,41.0878981 C28.5015331,41.0942715 28.4964227,41.1004679 28.4910656,41.1065935 C28.4878583,41.110276 28.4845453,41.1138876 28.4811971,41.1174638 C28.475699,41.1232707 28.4700247,41.1288652 28.4641036,41.1344242 C28.460262,41.1380359 28.4563851,41.1416121 28.4523672,41.1450466 C28.4466224,41.1500392 28.4406661,41.1548901 28.4345336,41.1595993 C28.4299166,41.163211 28.4252291,41.1667518 28.4204006,41.1701863 C28.41455,41.1743645 28.408488,41.178401 28.4023203,41.1823667 C28.3968221,41.1858721 28.3912535,41.1893421 28.3855439,41.192635 C28.3800106,41.1958926 28.3743715,41.1990439 28.3685914,41.202089 C28.3681685,41.2023014 28.367675,41.2025139 28.3672169,41.2027617 C28.3612606,41.205913 28.3551985,41.2088873 28.3491013,41.2117908 C28.3454711,41.2135258 28.3420172,41.2154378 28.3383165,41.217102 C28.3382813,41.217102 28.3382813,41.217102 28.338246,41.2171374 C28.3372239,41.2175977 28.3361313,41.2179518 28.3351093,41.2183767 C28.3329594,41.2192973 28.3307037,41.2200408 28.3285538,41.2209614 C28.3230204,41.223263 28.3174871,41.2254229 28.3118832,41.2275119 C28.3071957,41.2293177 28.302614,41.231336 28.2978207,41.2330002 C28.2950364,41.2339208 28.2922169,41.2345581 28.2894326,41.2355141 C28.2890801,41.2356204 28.2887277,41.2357266 28.28834,41.2358328 C28.2831238,41.237497 28.2778019,41.2390549 28.27248,41.2405775 C28.2670524,41.2421354 28.261801,41.2439413 28.2563029,41.2453576 C28.2531661,41.2461365 28.2500294,41.2465969 28.2469279,41.2473404 C28.241606,41.2485797 28.2362488,41.2496065 28.2309269,41.2507396 C28.2223625,41.2524392 28.2138334,41.2541034 28.2052338,41.2554135 C28.1997004,41.2562632 28.1941671,41.2568652 28.1886337,41.2575379 C28.1821487,41.2583169 28.175699,41.2593437 28.1692141,41.2598749 C28.1672404,41.2600519 28.1651962,41.2600519 28.1632225,41.2602289 C28.1569843,41.2606892 28.1507108,41.2608663 28.1444373,41.2611141 C28.1377408,41.2613974 28.1310797,41.2617869 28.1244185,41.2618223 C28.1235726,41.2618223 28.122762,41.2619285 28.1218809,41.2619285 C28.121035,41.2619285 28.1202244,41.2618223 28.1193785,41.2618223 C28.1127526,41.2617869 28.1060914,41.2613974 28.0994302,41.2611141 C28.0931215,41.2608663 28.086848,41.2606892 28.0805745,41.2602289 C28.0786008,41.2600519 28.0765566,41.2600519 28.0745829,41.2598749 C28.0681332,41.2593437 28.061754,41.2583169 28.0553043,41.2575733 C28.0497004,41.2568652 28.0440966,41.2562632 28.038528,41.2554135 C28.0300341,41.2541034 28.0216459,41.2524746 28.0131873,41.250775 C28.0076891,41.2496419 28.0021558,41.2485797 27.9966929,41.247305 C27.9936971,41.2465614 27.9906309,41.2461365 27.9875999,41.2453576 C27.9821722,41.2439767 27.9769208,41.2421709 27.9715284,41.2406129 C27.9660656,41.2390549 27.9606379,41.237497 27.9552455,41.235762 C27.953871,41.2353017 27.9523907,41.2349476 27.9510162,41.2344873 C27.949395,41.2339562 27.9477385,41.2335667 27.9461525,41.2330356 C27.9413593,41.2314068 27.936848,41.229424 27.9321957,41.2276536 C27.9263804,41.2254937 27.9206708,41.2232276 27.9149965,41.2208552 C27.9082296,41.2180226 27.9015684,41.2150483 27.8950129,41.2119324 C27.8886689,41.2089581 27.8824307,41.2058422 27.8762982,41.2026201 C27.8734081,41.2010975 27.8703066,41.1997874 27.8674871,41.1981941 C27.8644561,41.1965653 27.8617775,41.1946887 27.858817,41.1929891 C27.8527549,41.1894483 27.8467634,41.1857659 27.8408776,41.1819772 C27.8350975,41.1782594 27.8294232,41.1744707 27.823925,41.1705758 C27.8187441,41.166858 27.8137042,41.1630693 27.8087347,41.1592099 C27.8029547,41.154713 27.7973156,41.15011 27.7918527,41.1454007 C27.7875881,41.1416829 27.7834293,41.1379296 27.7793057,41.1340702 C27.7736313,41.1287235 27.7681685,41.1233061 27.7629171,41.1177471 C27.7593926,41.1139938 27.7559387,41.1102406 27.7525552,41.1063457 C27.7473038,41.1003263 27.7422639,41.0942361 27.7374706,41.0879689 C27.7358141,41.085809 27.7339109,41.0838616 27.7322897,41.0816309 C27.4092399,40.6429255 25.8628583,40.0729271 24.1740895,40.1724945 C22.7337935,40.2597753 20.7730087,40.8421664 19.6113898,43.1222306 C19.5383987,43.2653499 19.3693315,43.3514976 19.1912065,43.3516746 C19.1328066,43.3516746 19.0734551,43.3423977 19.0161125,43.3227109 C18.7841342,43.2433261 18.6747004,43.0250002 18.7715167,42.8348591 C20.181855,40.0667307 22.7198015,39.5125598 24.10709,39.4286073 C25.0254171,39.3732292 25.8997592,39.4795949 26.6321017,39.6775257 C24.836754,37.9376463 22.2938381,37.4231677 20.7637747,37.2750914 C17.4356849,36.9534095 13.8589462,37.8423987 12.050558,39.4066189 C12.4480792,39.7215379 12.8771793,39.993082 13.3325717,40.2085753 C13.3691906,40.2259252 13.4013687,40.2470638 13.4295994,40.2706455 C16.0288005,40.338027 19.0114603,39.8088541 20.5286243,38.7370886 C19.1140214,38.5338466 17.4914062,38.5896142 15.3972568,39.5802953 C15.1795876,39.6834035 14.9011572,39.622006 14.7756168,39.4436911 C14.6500059,39.2652701 14.7245125,39.0372425 14.9421464,38.9342051 C17.713481,37.6227628 19.8224683,37.8012546 21.5201539,38.1494571 C21.6677925,38.1796601 21.7872357,38.2683572 21.8384457,38.3858057 C21.88955,38.5032895 21.8656544,38.6340513 21.7747944,38.7340081 C19.8345571,40.869289 13.90205,41.5414749 10.4534598,40.6418632 C10.8514744,41.1991147 11.4163358,41.7966605 12.1634457,42.3474677 C13.3496299,42.9874323 15.7058917,42.3115285 17.0299166,41.6848065 C17.2475505,41.5821233 17.52584,41.6431313 17.6515214,41.8213753 C17.7771675,41.9996547 17.7026257,42.2278594 17.4849918,42.3308967 C16.6030721,42.7482511 15.1871299,43.2416973 13.8479852,43.3343247 C15.3268386,44.0118572 17.2359199,44.459273 19.6295054,44.3857659 C19.8766741,44.3770201 20.0918762,44.5385161 20.1012512,44.7444846 C20.1106614,44.9504531 19.9147028,45.1234921 19.663481,45.1312819 C19.4790472,45.1369117 19.2972216,45.139709 19.1180392,45.139709 C15.7362723,45.139709 13.2826656,44.153808 11.621317,42.947492 C11.5917469,42.9308503 11.5624589,42.9138544 11.5336642,42.8960088 C11.4917587,42.8700547 11.457325,42.8391081 11.4297639,42.8051518 C10.2220806,41.8822771 9.46312852,40.850806 9.09496593,40.0399623 C9.02810738,39.8926295 9.08122063,39.7265658 9.22773144,39.6250864 C9.37431273,39.5236425 9.58302984,39.5082046 9.74903078,39.5868458 C10.2560914,39.826806 10.9075834,40.0029255 11.643239,40.1171163 C9.79347392,38.7619097 8.53782307,36.6084291 8.26855616,34.4970841 C8.25875822,34.4637298 8.25495183,34.4298443 8.25650258,34.3962775 C8.14932448,33.4449701 8.24363839,32.504958 8.57616894,31.6532888 C8.63104441,31.5126835 8.78192552,31.4117707 8.96100211,31.3961203 C9.13863369,31.3797618 9.31351621,31.4525607 9.40363604,31.5804191 C9.79946546,32.1423444 10.2513334,32.6193259 10.7427455,33.0232606 C10.4338992,32.1971206 10.2559152,31.3558968 10.1891271,30.5241978 C10.1841929,30.5027759 10.1791882,30.481354 10.1748531,30.4597197 C10.1663945,30.4174426 10.1674166,30.3757673 10.1758752,30.3357917 C10.0085703,27.5659283 11.0610726,24.9240295 12.5961055,23.3305268 C12.7098743,23.2121224 12.8993127,23.1622325 13.0763804,23.2024914 C13.2532719,23.2432814 13.3829006,23.3672803 13.4050341,23.5168084 C13.5120712,24.2403005 13.7274142,24.867412 14.0290355,25.4198834 C14.0359786,25.2699304 14.0476093,25.1204024 14.0641741,24.9715116 C14.064879,24.9595437 14.0663945,24.9474696 14.0685444,24.93536 C14.1436854,24.289978 14.3073602,23.656139 14.5435679,23.0427304 C14.5457531,23.0307979 14.5485726,23.01883 14.552238,23.0068621 C14.5606967,22.9793854 14.5729617,22.9535376 14.5879758,22.9292831 C15.6343809,20.3212698 17.9836642,18.0970086 20.3859904,16.9602694 C20.5423696,16.8861604 20.7376938,16.8948708 20.8832178,16.9828597 C21.028777,17.0706362 21.0970806,17.2206954 21.0574307,17.3651956 C20.9268503,17.8401942 20.8621769,18.3101649 20.8532953,18.7717793 C21.4474095,17.9743552 22.2504171,17.2492697 23.0853207,16.4956099 C24.9614133,14.8019734 27.0878113,12.882292 27.6712112,9.46148754 C27.6713875,9.46038989 27.6717399,9.45936306 27.6719514,9.45830082 C27.6735021,9.44976748 27.6756168,9.44137578 27.6778724,9.43301949 C27.6788945,9.42923083 27.6797051,9.42533595 27.6809034,9.42154729 C27.6834058,9.41336803 27.6865425,9.40536582 27.6897498,9.39739902 C27.69123,9.39368117 27.6924988,9.3898217 27.6941553,9.38617467 C27.6977855,9.37799542 27.7019796,9.37006402 27.7062794,9.36213263 C27.7079711,9.35901672 27.7094161,9.35583 27.7112136,9.35278491 C27.7168527,9.34308311 27.7231262,9.33369998 27.7297521,9.32445849 C27.7304218,9.32353788 27.7309504,9.32258186 27.7316201,9.32166126 C27.7999589,9.2282903 27.9171464,9.15998822 28.0589344,9.14370053 C28.0692963,9.14253207 28.0796229,9.14207176 28.0899495,9.14150524 C28.0915355,9.14139901 28.093051,9.14122197 28.094637,9.14115116 C28.1060562,9.14062003 28.1174048,9.14051381 28.1287183,9.14069085 C28.1335468,9.14072626 28.1383752,9.14069085 28.1432742,9.14086789 C28.1512394,9.14115116 28.1590989,9.14182391 28.1669937,9.14246125 C28.1729852,9.14292156 28.1789415,9.14306319 28.184933,9.14370053 C28.1873649,9.1439838 28.189691,9.14455033 28.1921581,9.14483359 C28.1964932,9.14540012 28.2007225,9.1462145 28.2050223,9.14685185 C28.21623,9.14858684 28.227332,9.15039265 28.2381873,9.15272958 C28.2389626,9.15290662 28.239738,9.15315448 28.2405134,9.15333152 C28.3422639,9.1757802 28.4282249,9.22556388 28.4877526,9.29156444 C28.4881403,9.29206015 28.4884927,9.29252045 28.4888804,9.29294535 C28.4969514,9.30197439 28.5045641,9.31121589 28.511613,9.32077605 C28.5138334,9.32378574 28.5157014,9.32697246 28.517816,9.33001755 C28.522856,9.3373116 28.5278959,9.34460565 28.5323367,9.35221838 C28.5346981,9.35621949 28.5366013,9.36039763 28.5387864,9.36446956 C28.5425576,9.37155116 28.546364,9.37859736 28.5496064,9.385856 C28.5513687,9.38989252 28.5527784,9.39410607 28.5543997,9.3982134 C28.5574659,9.40589694 28.5604969,9.41358048 28.5629288,9.42144106 C28.5641271,9.42533595 28.564973,9.42930164 28.5659951,9.43319653 C28.5682507,9.44151741 28.5703654,9.44980289 28.5718809,9.45826541 C28.5720923,9.45936306 28.57248,9.46038989 28.5726563,9.46148754 C29.1559857,12.882292 31.2824542,14.8019734 33.1585468,16.4957162 C33.9933447,17.2493405 34.7963875,17.974426 35.3905016,18.7717793 C35.3816201,18.3102003 35.3169819,17.8401942 35.1864016,17.3651956 C35.1467516,17.2206954 35.2150552,17.0706362 35.3605792,16.9828597 C35.5062794,16.8948708 35.7013569,16.8861604 35.8578771,16.9602694 C38.2600623,18.0970086 40.6092399,20.3211281 41.6556802,22.9290706 C41.6707296,22.953396 41.6830298,22.9793146 41.6915237,23.0068621 C41.6952244,23.0189008 41.6980439,23.0309395 41.7002291,23.0429428 C41.9360491,23.6554308 42.0995477,24.2882784 42.1748297,24.932669 C42.1748649,24.9327752 42.1749001,24.9328461 42.1749001,24.9329169 C42.177332,24.9459824 42.1788475,24.9589418 42.1795876,24.9718657 C42.1961525,25.1206502 42.2077479,25.2700367 42.2146558,25.4199188 C42.5163123,24.8674474 42.7316906,24.240336 42.8387277,23.5168084 C42.8608259,23.3672803 42.9904547,23.2432814 43.1673109,23.2024914 C43.344308,23.1618784 43.5337465,23.2122994 43.647621,23.3305268 C45.1826187,24.9239941 46.2350858,27.5657512 46.0679218,30.3355438 C46.0764156,30.3755903 46.077473,30.4173718 46.0689791,30.4597197 C46.064644,30.481354 46.0596041,30.5027759 46.0546699,30.5242332 C45.9878818,31.3559676 45.8098978,32.1971914 45.5010515,33.0234022 C45.9924636,32.6194321 46.4443668,32.1424152 46.8402314,31.5804191 C46.9301046,31.4525607 47.1024142,31.3797618 47.2828301,31.3961203 C47.4619067,31.4117707 47.6127878,31.5126835 47.6676633,31.6532888 C48.0001234,32.5048163 48.0944373,33.4446515 47.9873297,34.3957464 C47.9889509,34.4295964 47.9851093,34.4638006 47.9751703,34.4974382 M55.6307742,34.3766969 C51.1903019,19.0603547 33.1869537,5.14039866 28.0941788,0.0350220754 C23.0013687,5.14039866 4.9979852,19.0603547 0.557512923,34.3766969 C0.0495711936,36.1288275 -0.164503055,38.088874 0.141277021,40.0013675 C0.861707002,47.1494329 6.86963698,52.7280023 14.1745947,52.7280023 C20.9265331,52.7280023 26.6456356,47.7473682 28.0302808,41.3813244 C28.0893503,41.2142339 28.138058,41.2918837 28.1656544,41.3775003 C29.4675458,47.8524946 35.1622239,52.7280023 41.991136,52.7280023 C48.2367188,52.7280023 53.530739,48.6485732 55.3861078,42.998338 C56.5863193,40.1855246 56.391136,36.9994399 55.6307742,34.3766969" id="Fill-9" fill="#585AFA" mask="url(#mask-2)"></path>
                </g>
                <path d="M43.2837481,36.7825927 C43.2662553,36.7842235 43.2487978,36.784968 43.2315865,36.784968 C43.0037228,36.784968 42.8071137,36.6443637 42.7806106,36.4539841 C42.7522068,36.2490336 42.9311471,36.0639365 43.1805513,36.0404315 C45.0004344,35.8695863 46.4778884,35.073502 47.0525457,34.3464791 C47.1139641,33.7975691 47.1016804,33.2552179 47.0065084,32.7386405 C43.9743084,36.0916958 38.4523255,36.3392955 34.44331,35.4655704 C34.2006988,35.4124981 34.0562514,35.2080794 34.120591,35.0087659 C34.1850715,34.8094878 34.4342645,34.6904031 34.6763477,34.7436526 C35.795534,34.9875299 40.4853601,35.8420043 44.0908096,33.9749022 C44.4053278,33.4024872 44.6429762,32.8084464 44.8114631,32.2052942 C43.4546987,33.1510586 41.0095805,33.7681081 37.4284872,34.0755516 C37.4124023,34.0768279 37.3964582,34.0775369 37.38069,34.0775369 C37.1509256,34.0775369 36.9536126,33.93477 36.9292565,33.7429369 C36.9031405,33.5378446 37.0843334,33.354201 37.3339839,33.3326814 C42.0392966,32.9287364 44.6518458,31.9883608 45.1065526,30.5363711 C45.1975714,29.392853 45.0699832,28.2581626 44.7753864,27.2155421 C44.1592673,27.9144159 43.3845164,28.5801061 42.4954817,29.1708854 C42.4113615,29.2269002 42.3102764,29.2540568 42.2100009,29.2540568 C42.0774499,29.2540568 41.9462012,29.2066569 41.8563087,29.1154732 C41.6985217,28.9550155 41.7287205,28.7200014 41.9238513,28.5903164 C42.9670478,27.8969733 43.8372522,27.097131 44.4521746,26.2683242 C44.1994268,25.6415961 43.8846974,25.063367 43.5212206,24.5560428 C42.6171921,27.6472818 39.704661,28.9561146 36.879981,30.2255951 C34.6891945,31.2100382 32.6200128,32.1399554 31.4740418,33.8530876 C31.359758,34.0242874 31.1043704,34.0941641 30.887488,34.0130135 C30.671204,33.9320402 30.567268,33.7276215 30.6492412,33.5443679 C31.9387797,30.6596038 35.5882603,25.6408162 41.2093221,24.7135225 C41.1464255,24.3296081 41.049916,23.950728 40.9243692,23.5789738 C38.2376605,24.1847849 36.0923834,25.1742622 34.4033265,26.5889205 C34.1891895,26.7891203 33.9666757,26.9900292 33.735609,27.1915763 C30.4415452,30.065102 28.9867227,33.1446063 28.6534447,38.340266 C31.7627608,32.7123703 39.1197262,30.1867038 43.5482517,29.9240013 C43.7973391,29.9101394 44.0161573,30.0640384 44.034178,30.269698 C44.0523044,30.4753575 43.8640369,30.6540732 43.6137177,30.6689987 C39.0807986,30.937799 32.2158837,33.6258375 29.4067607,38.80721 C30.8947385,37.5869728 32.9335455,36.8149962 35.3632827,36.5794857 C38.9846059,36.2274786 42.762977,37.1764337 44.7894299,38.9053068 C45.7053197,37.9937895 46.3969711,36.8431809 46.772626,35.6517311 C45.8430798,36.2361999 44.5771231,36.6610972 43.2837481,36.7825927" id="Fill-12" fill="#585AFA"></path>
                <path d="M12.6362767,30.6690177 C12.3859919,30.6540923 12.197724,30.475377 12.2158152,30.2697179 C12.2337656,30.0640589 12.4513173,29.9119683 12.701778,29.9239866 C17.1302804,30.186724 24.4871956,32.7123492 27.5965553,38.340161 C27.2632764,33.1445842 25.8084148,30.0651224 22.5144123,27.1916034 C22.2832042,26.9899505 22.0605842,26.7889711 21.846341,26.5886299 C20.1573147,25.1741167 18.012067,24.1846417 15.3255621,23.5789738 C15.1999798,23.9507271 15.10347,24.3296418 15.0405733,24.7135553 C20.6617207,25.6408114 24.3112465,30.6596228 25.6007534,33.5443803 C25.6827972,33.7276334 25.5788961,33.9320517 25.3625763,34.0130248 C25.1463269,34.0939625 24.8905162,34.0241214 24.7759505,33.8530993 C23.6300116,32.139971 21.5606834,31.210056 19.3700669,30.2256152 C16.5453088,28.9561376 13.6326994,27.6473079 12.7287036,24.556076 C12.3652258,25.0633636 12.0504956,25.6415559 11.7977822,26.2683179 C12.4126007,27.0971229 13.2828076,27.8969987 14.3261477,28.5903403 C14.521279,28.7199895 14.5514779,28.9550386 14.3936904,29.1154959 C14.3039385,29.2066439 14.1725838,29.2540791 14.0399621,29.2540791 C13.9397215,29.2540791 13.8387418,29.2269226 13.7545509,29.1709079 C12.865373,28.58013 12.0906552,27.9144413 11.4745696,27.2155692 C11.1800072,28.2581518 11.0524186,29.3927687 11.1434377,30.5362841 C11.5980401,31.9883413 14.210526,32.9287503 18.9160276,33.3326943 C19.1656436,33.3542139 19.3468722,33.5378216 19.3207913,33.7429489 C19.2963647,33.9347815 19.0991216,34.0775481 18.8693566,34.0775481 C18.8535884,34.0775481 18.837609,34.0768391 18.821524,34.0755273 C15.2404209,33.76812 12.7952961,33.151001 11.4384928,32.2052742 C11.6069801,32.808425 11.8446292,33.4024291 12.1591131,33.9747718 C15.7645724,35.841905 20.4543761,34.9875389 21.5736006,34.7436622 C21.815227,34.6902001 22.0649486,34.80932 22.1293236,35.0087749 C22.1936987,35.208088 22.0492508,35.4124708 21.8065686,35.4655429 C17.7981406,36.3391242 12.2758258,36.0918441 9.24347673,32.7384066 C9.14830446,33.2550891 9.13605596,33.7975455 9.19743926,34.3464896 C9.77209816,35.0735463 11.2495562,35.8695933 13.0694443,36.0404382 C13.3188491,36.0639431 13.4977899,36.2490398 13.4694212,36.4539898 C13.4428828,36.6443334 13.2462732,36.7849729 13.0183385,36.7849729 C13.0011624,36.7849729 12.9837752,36.7842284 12.9662471,36.7825976 C11.6728686,36.6611024 10.4068733,36.236206 9.47735977,35.6516677 C9.85301571,36.8432211 10.5446337,37.993827 11.4605261,38.9053068 C13.4869141,37.1765441 17.2661402,36.2281583 20.8863822,36.5794557 C23.3163725,36.8150365 25.3553258,37.5870468 26.843378,38.807352 C24.0342473,33.6258852 17.1692785,30.9378174 12.6362767,30.6690177" id="Fill-14" fill="#585AFA"></path>
            </g>
        </g>
    </g>
</svg>