<?xml version="1.0" encoding="UTF-8"?>
<svg width="30px" height="30px" viewBox="0 0 30 30" version="1.1" xmlns="http://www.w3.org/2000/svg" xmlns:xlink="http://www.w3.org/1999/xlink">
    <!-- Generator: Sketch 48.2 (47327) - http://www.bohemiancoding.com/sketch -->
    <title>Windows_30</title>
    <desc>Created with Sketch.</desc>
    <defs>
        <polygon id="path-1" points="0 0.0175110377 28.1218809 0.0175110377 28.1218809 26.3640012 0 26.3640012"></polygon>
    </defs>
    <g id="Page-1" stroke="none" stroke-width="1" fill="none" fill-rule="evenodd">
        <g id="Windows_30">
            <g id="Page-1-Copy-4" transform="translate(0.937500, 0.468750)">
                <path d="M20.8442067,29.296875 L20.8442067,28.4668333 C17.4979475,28.3932027 14.7256426,25.9726908 14.0843717,22.7718226 C14.070584,22.7288389 14.0462174,22.6898548 14.0166496,22.7737603 C13.3374184,25.907824 10.5727655,28.3713909 7.28079332,28.4658556 L7.28079332,29.296875 L20.8442067,29.296875 Z" id="Fill-1" fill="#585AFA"></path>
                <path d="M9.84621672,12.1324151 C9.40943224,11.5593992 9.12317501,11.0016353 8.99162,10.4639717 C8.96692261,10.3630459 9.04677516,10.2647564 9.16992742,10.2445677 C9.29297399,10.2245383 9.41299063,10.2896871 9.43765279,10.3906306 C9.63940688,11.2152357 10.2438941,12.1010616 11.2361233,13.0279373 C11.3524053,13.1254482 11.4631913,13.2265509 11.5716167,13.3317056 C12.6934632,14.308478 13.4108678,15.3249554 13.8169303,16.6526326 L13.8169303,13.9917577 C13.8169303,12.5133995 13.8186567,10.0390711 12.7172093,8.62618025 C12.6495822,8.5394626 12.6814668,8.42420473 12.7873203,8.36876984 C12.8932795,8.31344111 13.0324622,8.33883181 13.1001246,8.42551408 C13.4178261,8.83303928 13.6451231,9.31675428 13.8169303,9.83557393 L13.8169303,7.25893957 C13.8169303,7.15599663 13.9177809,7.07255235 14.0433818,7.07255235 C14.1690003,7.07255235 14.2698333,7.15599663 14.2698333,7.25893957 L14.2698333,9.83557393 C14.4416405,9.31675428 14.6729715,8.83303928 14.990673,8.42551408 C15.058353,8.33874334 15.200319,8.31344111 15.3061725,8.36876984 C15.4120084,8.42420473 15.4410041,8.5394626 15.3733769,8.62618025 C14.2718767,10.0390711 14.2698333,12.5133995 14.2698333,13.9917577 L14.2698333,16.6526503 C14.691521,15.3249554 15.3977748,14.308478 16.5196213,13.3317056 C16.6279939,13.2266217 16.7418097,13.125572 16.8580214,13.0281319 C17.8504443,12.1011147 18.455689,11.215218 18.6573902,10.3906306 C18.6821229,10.2896871 18.8021219,10.2246267 18.9254503,10.2445677 C19.0486202,10.2647564 19.1286313,10.3630459 19.1039163,10.4639717 C18.9723789,11.0015999 18.6861921,11.5593992 18.2493372,12.1324682 C18.8598137,11.8342027 19.546373,11.5998473 20.315762,11.4256158 C19.8714556,10.4356615 19.0249445,9.57634104 18.1105597,9.03563409 C18.4106982,11.2272145 16.3586831,12.9994501 15.2988091,13.5008767 C15.2629961,13.517792 15.223889,13.525825 15.1853103,13.525825 C15.1066909,13.525825 15.0302734,13.4924013 14.9881187,13.4326314 C14.9253359,13.3434543 14.9625758,13.2295058 15.0713711,13.177999 C15.9496611,12.7624584 17.2713592,11.5765976 17.6035409,10.1239132 C17.5962831,10.1135092 17.5899943,10.1024683 17.5851499,10.0906664 C17.4212699,9.69177585 17.119176,9.34306507 16.7475525,8.98456958 C16.0337943,9.42484613 15.5425241,10.466785 15.5625709,11.4830324 C15.9949338,11.1737082 16.3587007,10.4009108 16.469927,9.99083763 C16.4971787,9.89028337 16.6189041,9.8272932 16.7412813,9.84932206 C16.863905,9.87163403 16.9411857,9.97117974 16.9139164,10.0716455 C16.9094244,10.0884901 16.4139615,11.7588798 15.4115328,11.9669951 C15.393089,11.970817 15.3743281,11.972728 15.355673,11.972728 C15.3092553,11.972728 15.2634894,11.9610854 15.224805,11.9387911 C15.1705659,11.9074907 15.1356865,11.8584433 15.129292,11.8042823 C14.9847012,10.579955 15.5530407,9.2771554 16.4471674,8.70401558 C16.3757704,8.63890214 16.3027704,8.57299248 16.2284845,8.5059681 C15.4144746,7.77126556 14.5104303,6.95529507 14.0478562,5.65895372 C13.5852469,6.95527738 12.6812554,7.77126556 11.8672456,8.50591502 C11.7929596,8.57295709 11.719942,8.63888445 11.648545,8.70399789 C12.5426717,9.27712002 13.1110288,10.5799373 12.9664381,11.8042823 C12.9600611,11.8584433 12.9251818,11.9074907 12.8709251,11.9387911 C12.8322055,11.9610854 12.7864043,11.972728 12.7400571,11.972728 C12.7214019,11.972728 12.7026058,11.970817 12.6841973,11.9669951 C11.6817861,11.7588798 11.1863057,10.0884901 11.1818137,10.0716455 C11.1545267,9.97117974 11.2318426,9.87163403 11.3544488,9.84932206 C11.4775482,9.82720473 11.5985513,9.89028337 11.625803,9.99083763 C11.7370294,10.4009108 12.1007962,11.1737082 12.5331415,11.4830324 C12.553206,10.466785 12.0619181,9.42482844 11.3481599,8.98455188 C10.9765364,9.34306507 10.6744602,9.69177585 10.5105801,10.0906664 C10.5057181,10.1024859 10.4994469,10.1135269 10.4921716,10.1239486 C10.824318,11.5766153 12.1460161,12.7624584 13.0243589,13.177999 C13.1331367,13.2295058 13.1703941,13.3434543 13.1076113,13.4326314 C13.0654919,13.4924013 12.9890392,13.525825 12.9104197,13.525825 C12.8718058,13.525825 12.8327339,13.517792 12.7969033,13.5008767 C11.7370294,12.9994501 9.68497904,11.2272145 9.98515276,9.03563409 C9.0707503,9.57639413 8.22420402,10.4356792 7.77987996,11.4256158 C8.5492513,11.5998297 9.23575778,11.834185 9.84621672,12.1324151" id="Fill-3" fill="#585AFA"></path>
                <path d="M16.440501,15.6505439 C16.9819699,15.2967584 17.6034309,15.0188509 18.2134544,14.7461276 C19.1194101,14.3410809 19.9951003,13.9493653 20.6049303,13.3377042 C20.6033642,13.3243731 20.6033642,13.3107599 20.6054581,13.2969174 C20.6353892,13.0980089 20.6444688,12.8997 20.635266,12.7031722 C18.7349693,13.0369963 17.2962197,14.4327763 16.440501,15.6505439" id="Fill-5" fill="#585AFA"></path>
                <path d="M9.91157202,14.7461276 C10.5215512,15.0188509 11.1430206,15.296829 11.684499,15.6505439 C10.8287931,14.4326881 9.39020572,13.0369786 7.48974375,12.7031722 C7.4805235,12.8997177 7.48960298,13.0980089 7.51955119,13.2969174 C7.52162751,13.3107422 7.5216451,13.3243731 7.52006147,13.3376866 C8.12989992,13.9493653 9.0056123,14.3410809 9.91157202,14.7461276" id="Fill-7" fill="#585AFA"></path>
                <g id="Group-11">
                    <mask id="mask-2" fill="white">
                        <use xlink:href="#path-1"></use>
                    </mask>
                    <g id="Clip-10"></g>
                    <path d="M23.9875852,17.2487191 C23.8528812,18.3043385 23.225091,19.3809725 22.3002966,20.0585582 C22.6681244,20.0014627 22.9938704,19.9134207 23.2474184,19.7934229 C23.3305069,19.7541023 23.4348302,19.7618212 23.5080504,19.8125432 C23.5813234,19.8632829 23.6078624,19.9463147 23.5744332,20.0199811 C23.3904223,20.4252791 23.0109992,20.940873 22.4072985,21.4022218 C22.3934827,21.4193239 22.3761601,21.4349388 22.3550664,21.4480044 C22.3403342,21.4571397 22.3253378,21.46585 22.3102179,21.4743657 C21.4794907,22.0771518 20.2529517,22.5697483 18.5629141,22.5698545 C18.4731467,22.5698545 18.3825511,22.5684559 18.2901756,22.5656409 C18.1645647,22.561746 18.0665854,22.4752265 18.0713082,22.3722423 C18.075978,22.2693466 18.1835262,22.1886694 18.3071634,22.192883 C19.5049254,22.2296719 20.4595013,22.0059817 21.1987165,21.6672332 C20.5288974,21.6210788 19.8206091,21.3741964 19.3794202,21.1654484 C19.2706209,21.1139297 19.2333324,20.9998273 19.2961554,20.9106876 C19.3589785,20.8215657 19.4980704,20.7910616 19.6069578,20.8424033 C20.2696752,21.1561184 21.449533,21.4943004 22.0421141,21.1726893 C22.4147351,20.897569 22.6964433,20.5991856 22.8951686,20.3209316 C21.1708911,20.7704719 18.2045142,20.434733 17.2345189,19.3670041 C17.1890713,19.3170256 17.1771411,19.2516447 17.2027109,19.1929028 C17.2282983,19.1341786 17.2880022,19.0898301 17.3618392,19.0747285 C18.2105058,18.9008929 19.2650523,18.8114699 20.6507724,19.4671026 C20.7595894,19.5186212 20.7968779,19.6326351 20.7340549,19.7218456 C20.6712142,19.811003 20.5319989,19.8417017 20.4232525,19.7901477 C19.3762659,19.2946301 18.5650993,19.2669233 17.8576216,19.3685443 C18.6162036,19.9043739 20.1075511,20.1689781 21.4071517,20.1352874 C21.421267,20.1235142 21.4373385,20.1129449 21.4556303,20.1042876 C21.6833265,19.996541 21.8978765,19.860769 22.0966371,19.7033095 C21.1923549,18.9211108 19.4036331,18.4765454 17.7398526,18.6376519 C16.9748913,18.7115839 15.7034334,18.9688232 14.8058124,19.8388868 C15.1720013,19.7397974 15.6093309,19.6867031 16.0683711,19.7143037 C16.762033,19.7562799 18.0309886,20.0333654 18.7361754,21.4174296 C18.7845659,21.5125001 18.729849,21.621663 18.6138598,21.6613554 C18.585259,21.6711989 18.5555304,21.6758373 18.5263129,21.6758373 C18.437268,21.6758373 18.3527168,21.6326749 18.3162212,21.5611153 C17.7353941,20.4210832 16.755037,20.1298876 16.034889,20.0862472 C15.1909451,20.0360918 14.417349,20.3214627 14.2557889,20.5408154 C14.2549783,20.5419131 14.2540267,20.5428868 14.253216,20.543949 C14.2507666,20.5471358 14.2482113,20.550234 14.2455328,20.5532968 C14.2439292,20.555138 14.2422727,20.5569438 14.2405986,20.5587319 C14.2378495,20.5616354 14.2350123,20.5644326 14.2320518,20.5672121 C14.230131,20.5690179 14.2281926,20.570806 14.2261836,20.5725233 C14.2233112,20.5750196 14.2203331,20.577445 14.2172668,20.5797997 C14.2149583,20.5816055 14.2126145,20.5833759 14.2102003,20.5850932 C14.207275,20.5871822 14.204244,20.5892005 14.2011601,20.5911834 C14.1984111,20.592936 14.1956268,20.594671 14.192772,20.5963175 C14.1900053,20.5979463 14.1871857,20.5995219 14.1842957,20.6010445 C14.1840842,20.6011507 14.1838375,20.6012569 14.1836084,20.6013809 C14.1806303,20.6029565 14.1775993,20.6044437 14.1745506,20.6058954 C14.1727355,20.6067629 14.1710086,20.6077189 14.1691582,20.608551 C14.1691406,20.608551 14.1691406,20.608551 14.169123,20.6085687 C14.168612,20.6087988 14.1680657,20.6089759 14.1675546,20.6091883 C14.1664797,20.6096486 14.1653519,20.6100204 14.1642769,20.6104807 C14.1615102,20.6116315 14.1587435,20.6127114 14.1559416,20.613756 C14.1535979,20.6146589 14.151307,20.615668 14.1489104,20.6165001 C14.1475182,20.6169604 14.1461084,20.6172791 14.1447163,20.6177571 C14.1445401,20.6178102 14.1443638,20.6178633 14.14417,20.6179164 C14.1415619,20.6187485 14.138901,20.6195275 14.13624,20.6202887 C14.1335262,20.6210677 14.1309005,20.6219706 14.1281514,20.6226788 C14.1265831,20.6230683 14.1250147,20.6232984 14.1234639,20.6236702 C14.120803,20.6242899 14.1181244,20.6248033 14.1154635,20.6253698 C14.1111813,20.6262196 14.1069167,20.6270517 14.1026169,20.6277067 C14.0998502,20.6281316 14.0970835,20.6284326 14.0943168,20.628769 C14.0910744,20.6291585 14.0878495,20.6296719 14.084607,20.6299374 C14.0836202,20.630026 14.0825981,20.630026 14.0816113,20.6301145 C14.0784921,20.6303446 14.0753554,20.6304331 14.0722186,20.6305571 C14.0688704,20.6306987 14.0655398,20.6308934 14.0622092,20.6309112 C14.0617863,20.6309112 14.061381,20.6309643 14.0609404,20.6309643 C14.0605175,20.6309643 14.0601122,20.6309112 14.0596893,20.6309112 C14.0563763,20.6308934 14.0530457,20.6306987 14.0497151,20.6305571 C14.0465607,20.6304331 14.043424,20.6303446 14.0402872,20.6301145 C14.0393004,20.630026 14.0382783,20.630026 14.0372915,20.6299374 C14.0340666,20.6296719 14.030877,20.6291585 14.0276521,20.6287867 C14.0248502,20.6284326 14.0220483,20.6281316 14.019264,20.6277067 C14.015017,20.6270517 14.010823,20.6262373 14.0065936,20.6253875 C14.0038446,20.624821 14.0010779,20.6242899 13.9983465,20.6236525 C13.9968486,20.6232807 13.9953154,20.6230683 13.9937999,20.6226788 C13.9910861,20.6219883 13.9884604,20.6210854 13.9857642,20.6203064 C13.9830328,20.6195275 13.980319,20.6187485 13.9776228,20.617881 C13.9769355,20.6176508 13.9761954,20.6174738 13.9755081,20.6172437 C13.9746975,20.6169781 13.9738692,20.6167834 13.9730762,20.6165178 C13.9706796,20.6157034 13.968424,20.614712 13.9660979,20.6138268 C13.9631902,20.6127468 13.9603354,20.6116138 13.9574982,20.6104276 C13.9541148,20.6090113 13.9507842,20.6075242 13.9475065,20.6059662 C13.9443345,20.6044791 13.9412153,20.6029211 13.9381491,20.60131 C13.9367041,20.6005488 13.9351533,20.5998937 13.9337435,20.599097 C13.932228,20.5982827 13.9308887,20.5973443 13.9294085,20.5964946 C13.9263775,20.5947242 13.9233817,20.5928829 13.9204388,20.5909886 C13.9175488,20.5891297 13.9147116,20.5872354 13.9119625,20.5852879 C13.9093721,20.583429 13.9068521,20.5815347 13.9043674,20.5796049 C13.9014773,20.5773565 13.8986578,20.575055 13.8959263,20.5727004 C13.8937941,20.5708414 13.8917146,20.5689648 13.8896528,20.5670351 C13.8868157,20.5643618 13.8840842,20.5616531 13.8814585,20.5588735 C13.8796963,20.5569969 13.8779693,20.5551203 13.8762776,20.5531728 C13.8736519,20.5501632 13.8711319,20.5471181 13.8687353,20.5439845 C13.8679071,20.5429045 13.8669555,20.5419308 13.8661449,20.5408154 C13.7046199,20.3214627 12.9314292,20.0364636 12.0870448,20.0862472 C11.3668967,20.1298876 10.3865043,20.4210832 9.8056949,21.5611153 C9.76919937,21.6326749 9.68466577,21.6757488 9.59560327,21.6758373 C9.56640331,21.6758373 9.53672756,21.6711989 9.50805627,21.6613554 C9.39206708,21.621663 9.33735021,21.5125001 9.38575834,21.4174296 C10.0909275,20.0333654 11.3599007,19.7562799 12.053545,19.7143037 C12.5127085,19.6866146 12.9498796,19.7397974 13.3160509,19.8387629 C12.418377,18.9688232 11.1469191,18.7115839 10.3818873,18.6375457 C8.71784246,18.4767047 6.9294731,18.9211994 6.02527902,19.7033095 C6.22403959,19.860769 6.43858964,19.996541 6.66628583,20.1042876 C6.68459528,20.1129626 6.70068433,20.1235319 6.71479969,20.1353228 C8.01440026,20.1690135 9.50573015,19.904427 10.2643121,19.3685443 C9.55701069,19.2669233 8.74570312,19.2948071 7.69862841,19.7901477 C7.58979382,19.8417017 7.45057859,19.811003 7.38780839,19.7218456 C7.32500294,19.6326351 7.36225623,19.5186212 7.47107319,19.4671026 C8.85674048,18.8113814 9.91123414,18.9006273 10.760077,19.0747285 C10.8338963,19.0898301 10.8936178,19.1341786 10.9192229,19.1929028 C10.944775,19.2516447 10.9328272,19.3170256 10.8873972,19.3670041 C9.91727855,20.4346445 6.95102502,20.7707374 5.22672991,20.3209316 C5.42573719,20.5995573 5.70816788,20.8983302 6.08172286,21.1737338 C6.67481497,21.4937161 7.85294584,21.1557643 8.51495829,20.8424033 C8.62377526,20.7910616 8.76292,20.8215657 8.82576069,20.9106876 C8.88858376,20.9998273 8.85131285,21.1139297 8.74249589,21.1654484 C8.30153607,21.3741256 7.59356497,21.6208487 6.9239926,21.6671623 C7.66341929,22.0059286 8.61795994,22.2296365 9.8147527,22.192883 C9.93833705,22.1885101 10.0459381,22.2692581 10.0506256,22.3722423 C10.0553307,22.4752265 9.95735139,22.561746 9.83174048,22.5656409 C9.73952361,22.5684559 9.64861078,22.5698545 9.55901962,22.5698545 C7.86813616,22.5698545 6.64133282,22.076904 5.81065848,21.473746 C5.79587347,21.4654251 5.78122944,21.4569272 5.76683212,21.4480044 C5.74587935,21.4350273 5.72866248,21.419554 5.71488193,21.4025759 C5.1110403,20.9411385 4.73156426,20.425403 4.54748297,20.0199811 C4.51405369,19.9463147 4.54061031,19.8632829 4.61386572,19.8125432 C4.68715637,19.7618212 4.79151492,19.7541023 4.87451539,19.7934229 C5.1280457,19.913403 5.45379171,20.0014627 5.82161948,20.0585582 C4.89673696,19.3809548 4.26891154,18.3042146 4.13427808,17.2485421 C4.12937911,17.2318649 4.12747592,17.2149222 4.12825129,17.1981387 C4.07466224,16.7224851 4.1218192,16.252479 4.28808447,15.8266444 C4.3155222,15.7563418 4.39096276,15.7058853 4.48050106,15.6980602 C4.56931685,15.6898809 4.65675811,15.7262804 4.70181802,15.7902095 C4.89973273,16.0711722 5.12566671,16.3096629 5.37137277,16.5116303 C5.2169496,16.0985603 5.12795759,15.6779484 5.09456356,15.2620989 C5.09209645,15.251388 5.0895941,15.240677 5.08742657,15.2298599 C5.08319725,15.2087213 5.08370829,15.1878837 5.08793762,15.1678958 C5.00428513,13.7829641 5.5305363,12.4620147 6.29805275,11.6652634 C6.35493715,11.6060612 6.44965637,11.5811162 6.5381902,11.6012457 C6.62663593,11.6216407 6.69145031,11.6836402 6.70251703,11.7584042 C6.7560356,12.1201503 6.86370712,12.433706 7.01451774,12.7099417 C7.01798931,12.6349652 7.02380463,12.5602012 7.03208705,12.4857558 C7.0324395,12.4797719 7.03319725,12.4737348 7.0342722,12.46768 C7.07184269,12.144989 7.1536801,11.8280695 7.27178395,11.5213652 C7.27287653,11.5153989 7.2742863,11.509415 7.27611901,11.503431 C7.28034833,11.4896927 7.28648085,11.4767688 7.2939879,11.4646415 C7.81719044,10.1606349 8.99183212,9.04850429 10.1929952,8.48013471 C10.2711848,8.44308022 10.3688469,8.4474354 10.4416089,8.49142987 C10.5143885,8.53531811 10.5485403,8.61034772 10.5287153,8.68259779 C10.4634252,8.9200971 10.4310885,9.15508244 10.4266477,9.38588964 C10.7237048,8.9871776 11.1252085,8.62463485 11.5426604,8.24780497 C12.4807066,7.4009867 13.5439057,6.44114601 13.8356056,4.73074377 C13.8356937,4.73019494 13.8358699,4.72968153 13.8359757,4.72915041 C13.8367511,4.72488374 13.8378084,4.72068789 13.8389362,4.71650974 C13.8394473,4.71461541 13.8398526,4.71266797 13.8404517,4.71077364 C13.8417029,4.70668402 13.8432713,4.70268291 13.8448749,4.69869951 C13.845615,4.69684059 13.8462494,4.69491085 13.8470777,4.69308734 C13.8488927,4.68899771 13.8509898,4.68503201 13.8531397,4.68106631 C13.8539855,4.67950836 13.8547081,4.677915 13.8556068,4.67639245 C13.8584263,4.67154155 13.8615631,4.66684999 13.8648761,4.66222924 C13.8652109,4.66176894 13.8654752,4.66129093 13.86581,4.66083063 C13.8999794,4.61414515 13.9585732,4.57999411 14.0294672,4.57185027 C14.0346481,4.57126603 14.0398114,4.57103588 14.0449747,4.57075262 C14.0457677,4.57069951 14.0465255,4.57061099 14.0473185,4.57057558 C14.0530281,4.57031002 14.0587024,4.57025691 14.0643591,4.57034543 C14.0667734,4.57036313 14.0691876,4.57034543 14.0716371,4.57043395 C14.0756197,4.57057558 14.0795495,4.57091195 14.0834968,4.57123063 C14.0864926,4.57146078 14.0894707,4.57153159 14.0924665,4.57185027 C14.0936824,4.5719919 14.0948455,4.57227516 14.0960791,4.57241679 C14.0982466,4.57270006 14.1003613,4.57310725 14.1025112,4.57342592 C14.108115,4.57429342 14.113666,4.57519632 14.1190936,4.57636479 C14.1194813,4.57645331 14.119869,4.57657724 14.1202567,4.57666576 C14.1711319,4.5878901 14.2141124,4.61278194 14.2438763,4.64578222 C14.2440701,4.64603007 14.2442464,4.64626023 14.2444402,4.64647267 C14.2484757,4.6509872 14.2522821,4.65560794 14.2558065,4.66038803 C14.2569167,4.66189287 14.2578507,4.66348623 14.258908,4.66500877 C14.261428,4.6686558 14.263948,4.67230283 14.2661684,4.67610919 C14.267349,4.67810974 14.2683006,4.68019882 14.2693932,4.68223478 C14.2712788,4.68577558 14.273182,4.68929868 14.2748032,4.692928 C14.2756843,4.69494626 14.2763892,4.69705304 14.2771998,4.6991067 C14.278733,4.70294847 14.2802485,4.70679024 14.2814644,4.71072053 C14.2820636,4.71266797 14.2824865,4.71465082 14.2829975,4.71659826 C14.2841254,4.72075871 14.2851827,4.72490145 14.2859404,4.7291327 C14.2860462,4.72968153 14.28624,4.73019494 14.2863281,4.73074377 C14.5779928,6.44114601 15.6412271,7.4009867 16.5792734,8.24785808 C16.9966723,8.62467026 17.3981937,8.98721301 17.6952508,9.38588964 C17.69081,9.15510015 17.658491,8.9200971 17.5932008,8.68259779 C17.5733758,8.61034772 17.6075276,8.53531811 17.6802896,8.49142987 C17.7531397,8.4474354 17.8506785,8.44308022 17.9289386,8.48013471 C19.1300311,9.04850429 20.3046199,10.1605641 20.8278401,11.4645353 C20.8353648,11.476698 20.8415149,11.4896573 20.8457619,11.503431 C20.8476122,11.5094504 20.849022,11.5154698 20.8501145,11.5214714 C20.9680246,11.8277154 21.0497738,12.1441392 21.0874148,12.4663345 C21.0874324,12.4663876 21.0874501,12.466423 21.0874501,12.4664584 C21.088666,12.4729912 21.0894238,12.4794709 21.0897938,12.4859329 C21.0980762,12.5603251 21.1038739,12.6350183 21.1073279,12.7099594 C21.2581561,12.4337237 21.3658453,12.120168 21.4193638,11.7584042 C21.4304129,11.6836402 21.4952273,11.6216407 21.5836554,11.6012457 C21.672154,11.5809392 21.7668732,11.6061497 21.8238105,11.6652634 C22.5913093,12.461997 23.1175429,13.7828756 23.0339609,15.1677719 C23.0382078,15.1877951 23.0387365,15.2086859 23.0344895,15.2298599 C23.032322,15.240677 23.029802,15.251388 23.0273349,15.2621166 C22.9939409,15.6779838 22.9049489,16.0985957 22.7505257,16.5117011 C22.9962318,16.309716 23.2221834,16.0712076 23.4201157,15.7902095 C23.4650523,15.7262804 23.5512071,15.6898809 23.6414151,15.6980602 C23.7309534,15.7058853 23.8063939,15.7563418 23.8338316,15.8266444 C24.0000617,16.2524082 24.0472186,16.7223257 23.9936648,17.1978732 C23.9944754,17.2147982 23.9925546,17.2319003 23.9875852,17.2487191 M27.8153871,17.1883484 C25.595151,9.53017733 16.5934769,2.57019933 14.0470894,0.0175110377 C11.5006843,2.57019933 2.4989926,9.53017733 0.278756461,17.1883484 C0.0247855968,18.0644137 -0.0822515273,19.044437 0.0706385103,20.0006838 C0.430853501,23.5747165 3.43481849,26.3640012 7.08729734,26.3640012 C10.4632666,26.3640012 13.3228178,23.8736841 14.0151404,20.6906622 C14.0446752,20.607117 14.069029,20.6459419 14.0828272,20.6887502 C14.7337729,23.9262473 17.581112,26.3640012 20.995568,26.3640012 C24.1183594,26.3640012 26.7653695,24.3242866 27.6930539,21.499169 C28.2931597,20.0927623 28.195568,18.49972 27.8153871,17.1883484" id="Fill-9" fill="#585AFA" mask="url(#mask-2)"></path>
                </g>
                <path d="M21.6418741,18.3912963 C21.6331277,18.3921117 21.6243989,18.392484 21.6157933,18.392484 C21.5018614,18.392484 21.4035569,18.3221818 21.3903053,18.2269921 C21.3761034,18.1245168 21.4655735,18.0319683 21.5902756,18.0202158 C22.5002172,17.9347931 23.2389442,17.536751 23.5262729,17.1732395 C23.556982,16.8987846 23.5508402,16.6276089 23.5032542,16.3693203 C21.9871542,18.0458479 19.2261627,18.1696478 17.221655,17.7327852 C17.1003494,17.7062491 17.0281257,17.6040397 17.0602955,17.5043829 C17.0925357,17.4047439 17.2171322,17.3452015 17.3381739,17.3718263 C17.897767,17.4937649 20.2426801,17.9210022 22.0454048,16.9874511 C22.2026639,16.7012436 22.3214881,16.4042232 22.4057315,16.1026471 C21.7273494,16.5755293 20.5047903,16.8840541 18.7142436,17.0377758 C18.7062011,17.0384139 18.6982291,17.0387685 18.690345,17.0387685 C18.5754628,17.0387685 18.4768063,16.967385 18.4646282,16.8714685 C18.4515703,16.7689223 18.5421667,16.6771005 18.666992,16.6663407 C21.0196483,16.4643682 22.3259229,15.9941804 22.5532763,15.2681856 C22.5987857,14.6964265 22.5349916,14.1290813 22.3876932,13.6077711 C22.0796336,13.9572079 21.6922582,14.2900531 21.2477409,14.5854427 C21.2056807,14.6134501 21.1551382,14.6270284 21.1050004,14.6270284 C21.038725,14.6270284 20.9731006,14.6033284 20.9281544,14.5577366 C20.8492609,14.4775078 20.8643603,14.3600007 20.9619257,14.2951582 C21.4835239,13.9484866 21.9186261,13.5485655 22.2260873,13.1341621 C22.0997134,12.8207981 21.9423487,12.5316835 21.7606103,12.2780214 C21.308596,13.8236409 19.8523305,14.4780573 18.4399905,15.1127976 C17.3445973,15.6050191 16.3100064,16.0699777 15.7370209,16.9265438 C15.679879,17.0121437 15.5521852,17.0470821 15.443744,17.0065068 C15.335602,16.9660201 15.283634,16.8638107 15.3246206,16.7721839 C15.9693899,15.3298019 17.7941302,12.8204081 20.604661,12.3567612 C20.5732127,12.1648041 20.524958,11.975364 20.4621846,11.7894869 C19.1188302,12.0923925 18.0461917,12.5871311 17.2016633,13.2944602 C17.0945948,13.3945602 16.9833378,13.4950146 16.8678045,13.5957882 C15.2207726,15.032551 14.4933614,16.5723031 14.3267223,19.170133 C15.8813804,16.3561851 19.5598631,15.0933519 21.7741259,14.9620007 C21.8986696,14.9550697 22.0080787,15.0320192 22.017089,15.134849 C22.0261522,15.2376787 21.9320185,15.3270366 21.8068588,15.3344993 C19.5403993,15.4688995 16.1079419,16.8129188 14.7033804,19.403605 C15.4473693,18.7934864 16.4667727,18.4074981 17.6816413,18.2897429 C19.492303,18.1137393 21.3814885,18.5882169 22.3947149,19.4526534 C22.8526599,18.9968947 23.1984855,18.4215904 23.386313,17.8258656 C22.9215399,18.1180999 22.2885616,18.3305486 21.6418741,18.3912963" id="Fill-12" fill="#585AFA"></path>
                <path d="M6.31813835,15.3345089 C6.19299597,15.3270461 6.098862,15.2376885 6.10790759,15.134859 C6.11688279,15.0320294 6.22565864,14.9559842 6.35088902,14.9619933 C8.5651402,15.093362 12.2435978,16.3561746 13.7982777,19.1700805 C13.6316382,16.5722921 12.9042074,15.0325612 11.2572062,13.5958017 C11.1416021,13.4949752 11.0302921,13.3944856 10.9231705,13.2943149 C10.0786574,12.5870584 9.00603349,12.0923209 7.66278106,11.7894869 C7.59998989,11.9753636 7.55173501,12.1648209 7.52028663,12.3567776 C10.3308604,12.8204057 12.1556233,15.3298114 12.8003767,16.7721901 C12.8413986,16.8638167 12.7894481,16.9660258 12.6812882,17.0065124 C12.5731634,17.0469813 12.4452581,17.0120607 12.3879752,16.9265497 C11.8150058,16.0699855 10.7803417,15.605028 9.68503345,15.1128076 C8.27265441,14.4780688 6.81634971,13.8236539 6.36435181,12.278038 C6.1826129,12.5316818 6.0252478,12.820778 5.89889112,13.134159 C6.20630037,13.5485614 6.64140378,13.9484994 7.16307384,14.2951701 C7.2606395,14.3599948 7.27573894,14.4775193 7.19684521,14.5577479 C7.15196923,14.6033219 7.08629192,14.6270396 7.01998106,14.6270396 C6.96986075,14.6270396 6.91937088,14.6134613 6.87727545,14.585454 C6.43268649,14.290065 6.0453276,13.9572206 5.7372848,13.6077846 C5.5900036,14.1290759 5.52620932,14.6963843 5.57171884,15.2681421 C5.79902007,15.9941707 7.10526302,16.4643751 9.45801379,16.6663472 C9.58282181,16.6771069 9.67343609,16.7689108 9.66039565,16.8714744 C9.64818235,16.9673908 9.54956079,17.0387741 9.43467828,17.0387741 C9.42679419,17.0387741 9.4188045,17.0384195 9.41076202,17.0377637 C7.62021047,16.88406 6.39764803,16.5755005 5.71924642,16.1026371 C5.80349007,16.4042125 5.92231462,16.7012145 6.07955653,16.9873859 C7.88228619,17.9209525 10.2271881,17.4937695 10.7868003,17.3718311 C10.9076135,17.3451001 11.0324743,17.40466 11.0646618,17.5043874 C11.0968493,17.604044 11.0246254,17.7062354 10.9032843,17.7327715 C8.89907028,18.1695621 6.1379129,18.045922 4.62173837,16.3692033 C4.57415223,16.6275446 4.56802798,16.8987727 4.59871963,17.1732448 C4.88604908,17.5367732 5.62477808,17.9347967 6.53472214,18.0202191 C6.65942457,18.0319715 6.74889495,18.1245199 6.73471062,18.2269949 C6.72144141,18.3221667 6.62313662,18.3924865 6.50916923,18.3924865 C6.5005812,18.3924865 6.49188758,18.3921142 6.48312357,18.3912988 C5.83643432,18.3305512 5.20343664,18.118103 4.73867989,17.8258339 C4.92650786,18.4216106 5.27231687,18.9969135 5.73026303,19.4526534 C6.74345704,18.588272 8.63307011,18.1140792 10.4431911,18.2897278 C11.6581862,18.4075182 12.6776629,18.7935234 13.421689,19.403676 C12.0171237,16.8129426 8.58463925,15.4689087 6.31813835,15.3345089" id="Fill-14" fill="#585AFA"></path>
            </g>
        </g>
    </g>
</svg>