<?xml version="1.0" encoding="UTF-8"?>
<svg width="36px" height="36px" viewBox="0 0 36 36" version="1.1" xmlns="http://www.w3.org/2000/svg" xmlns:xlink="http://www.w3.org/1999/xlink">
    <!-- Generator: Sketch 48.2 (47327) - http://www.bohemiancoding.com/sketch -->
    <title>Windows_36</title>
    <desc>Created with Sketch.</desc>
    <defs>
        <polygon id="path-1" points="0 0.0210132452 33.746257 0.0210132452 33.746257 31.6368014 0 31.6368014"></polygon>
    </defs>
    <g id="Page-1" stroke="none" stroke-width="1" fill="none" fill-rule="evenodd">
        <g id="Windows_36">
            <g id="Page-1-Copy-4" transform="translate(1.125000, 0.562500)">
                <path d="M25.013048,35.15625 L25.013048,34.1602 C20.997537,34.0718433 17.6707711,31.1672289 16.9012461,27.3261871 C16.8847008,27.2746066 16.8554609,27.2278258 16.8199795,27.3285123 C16.0049021,31.0893888 12.6873186,34.0456691 8.73695198,34.1590267 L8.73695198,35.15625 L25.013048,35.15625 Z" id="Fill-1" fill="#585AFA"></path>
                <path d="M11.8154601,14.5588982 C11.2913187,13.871279 10.94781,13.2019624 10.789944,12.556766 C10.7603071,12.435655 10.8561302,12.3177077 11.0039129,12.2934813 C11.1515688,12.2694459 11.2955888,12.3476245 11.3251834,12.4687567 C11.5672883,13.4582828 12.2926729,14.5212739 13.4833479,15.6335247 C13.6228864,15.7505378 13.7558296,15.8718611 13.8859401,15.9980467 C15.2321558,17.1701736 16.0930414,18.3899465 16.5803164,19.9831591 L16.5803164,16.7901093 C16.5803164,15.0160794 16.582388,12.0468853 15.2606512,10.3514163 C15.1794986,10.2473551 15.2177602,10.1090457 15.3447844,10.0425238 C15.4719354,9.97612933 15.6389546,10.0065982 15.7201495,10.1106169 C16.1013913,10.5996471 16.3741478,11.1801051 16.5803164,11.8026887 L16.5803164,8.71072748 C16.5803164,8.58719596 16.7013371,8.48706281 16.8520582,8.48706281 C17.0028003,8.48706281 17.1237999,8.58719596 17.1237999,8.71072748 L17.1237999,11.8026887 C17.3299685,11.1801051 17.6075658,10.5996471 17.9888076,10.1106169 C18.0700236,10.006492 18.2403828,9.97612933 18.367407,10.0425238 C18.4944101,10.1090457 18.5292049,10.2473551 18.4480523,10.3514163 C17.1262521,12.0468853 17.1237999,15.0160794 17.1237999,16.7901093 L17.1237999,19.9831803 C17.6298252,18.3899465 18.4773298,17.1701736 19.8235455,15.9980467 C19.9535926,15.8719461 20.0901717,15.7506864 20.2296256,15.6337583 C21.4205332,14.5213376 22.1468268,13.4582616 22.3888683,12.4687567 C22.4185474,12.3476245 22.5625463,12.2695521 22.7105404,12.2934813 C22.8583442,12.3177077 22.9543575,12.435655 22.9246995,12.556766 C22.7668546,13.2019199 22.4234305,13.871279 21.8992046,14.5589619 C22.6317765,14.2010432 23.4556477,13.9198168 24.3789144,13.710739 C23.8457467,12.5227938 22.8299334,11.4916093 21.7326716,10.8427609 C22.0928378,13.4726573 19.6304197,15.5993401 18.3585709,16.201052 C18.3155953,16.2213504 18.2686668,16.2309901 18.2223724,16.2309901 C18.128029,16.2309901 18.0363281,16.1908816 17.9857425,16.1191577 C17.9104031,16.0121452 17.9550909,15.875407 18.0856453,15.8135987 C19.1395934,15.3149501 20.725631,13.8919171 21.124249,12.1486959 C21.1155398,12.1362111 21.1079932,12.1229619 21.1021799,12.1087997 C20.9055239,11.630131 20.5430112,11.2116781 20.097063,10.7814835 C19.2405532,11.3098154 18.6510289,12.560142 18.6750851,13.7796389 C19.1939206,13.4084498 19.6304408,12.4810929 19.7639124,11.9890052 C19.7966145,11.86834 19.9426849,11.7927518 20.0895375,11.8191865 C20.2366861,11.8459608 20.3294228,11.9654157 20.2966997,12.0859746 C20.2913092,12.1061881 19.6967538,14.1106558 18.4938393,14.3603942 C18.4717068,14.3649804 18.4491938,14.3672735 18.4268076,14.3672735 C18.3711063,14.3672735 18.3161872,14.3533025 18.269766,14.3265493 C18.204679,14.2889888 18.1628238,14.2301319 18.1551504,14.1651388 C17.9816415,12.695946 18.6636489,11.1325865 19.7366009,10.4448187 C19.6509245,10.3666826 19.5633245,10.287591 19.4741814,10.2071617 C18.4973695,9.32551867 17.4125163,8.34635409 16.8574275,6.79074447 C16.3022963,8.34633285 15.2175065,9.32551867 14.2406947,10.207098 C14.1515515,10.2875485 14.0639304,10.3666613 13.9782541,10.4447975 C15.051206,11.132544 15.7332346,12.6959248 15.5597257,14.1651388 C15.5520734,14.2301319 15.5102182,14.2889888 15.4451101,14.3265493 C15.3986465,14.3533025 15.3436852,14.3672735 15.2880685,14.3672735 C15.2656823,14.3672735 15.243127,14.3649804 15.2210367,14.3603942 C14.0181433,14.1106558 13.4235668,12.1061881 13.4181764,12.0859746 C13.3854321,11.9654157 13.4782111,11.8459608 13.6253385,11.8191865 C13.7730578,11.7926457 13.9182616,11.86834 13.9509636,11.9890052 C14.0844352,12.4810929 14.5209555,13.4084498 15.0397698,13.7796389 C15.0638471,12.560142 14.4743017,11.3097941 13.6177919,10.7814623 C13.1718437,11.2116781 12.8093522,11.630131 12.6126961,12.1087997 C12.6068618,12.1229831 12.5993363,12.1362323 12.5906059,12.1487383 C12.9891816,13.8919384 14.5752193,15.3149501 15.6292307,15.8135987 C15.759764,15.875407 15.804473,16.0121452 15.7291336,16.1191577 C15.6785903,16.1908816 15.586847,16.2309901 15.4925037,16.2309901 C15.446167,16.2309901 15.3992807,16.2213504 15.356284,16.201052 C14.0844352,15.5993401 11.6219748,13.4726573 11.9821833,10.8427609 C10.8849004,11.491673 9.86904482,12.522815 9.33585595,13.710739 C10.2591016,13.9197956 11.0829093,14.2010219 11.8154601,14.5588982" id="Fill-3" fill="#585AFA"></path>
                <path d="M19.7286013,18.7806527 C20.3783639,18.3561101 21.1241171,18.022621 21.8561453,17.6953532 C22.9432921,17.2092971 23.9941204,16.7392384 24.7259163,16.005245 C24.724037,15.9892477 24.724037,15.9729118 24.7265498,15.9563009 C24.762467,15.7176107 24.7733626,15.4796401 24.7623192,15.2438066 C22.4819631,15.6443955 20.7554636,17.3193316 19.7286013,18.7806527" id="Fill-5" fill="#585AFA"></path>
                <path d="M11.8938864,17.6953532 C12.6258615,18.022621 13.3716247,18.3561947 14.0213987,18.7806527 C12.9945517,17.3192258 11.2682469,15.6443743 8.9876925,15.2438066 C8.9766282,15.4796612 8.98752358,15.7176107 9.02346143,15.9563009 C9.02595301,15.9728907 9.02597412,15.9892477 9.02407377,16.0052239 C9.7558799,16.7392384 10.8067348,17.2092971 11.8938864,17.6953532" id="Fill-7" fill="#585AFA"></path>
                <g id="Group-11">
                    <mask id="mask-2" fill="white">
                        <use xlink:href="#path-1"></use>
                    </mask>
                    <g id="Clip-10"></g>
                    <path d="M28.7851022,20.6984629 C28.6234575,21.9652062 27.8701093,23.257167 26.760356,24.0702698 C27.2017493,24.0017553 27.5926445,23.8961048 27.896902,23.7521075 C27.9966083,23.7049227 28.1217963,23.7141855 28.2096605,23.7750519 C28.2975881,23.8359395 28.3294349,23.9355777 28.2893198,24.0239774 C28.0685068,24.5103349 27.613199,25.1290476 26.8887582,25.6826662 C26.8721793,25.7031887 26.8513922,25.7219266 26.8260797,25.7376053 C26.8084011,25.7485676 26.7904053,25.75902 26.7722615,25.7692388 C25.7753889,26.4925822 24.3035421,27.0836979 22.2754969,27.0838254 C22.1677761,27.0838254 22.0590613,27.082147 21.9482108,27.0787691 C21.7974777,27.0740953 21.6799025,26.9702718 21.6855698,26.8466908 C21.6911736,26.7232159 21.8202314,26.6264033 21.9685961,26.6314596 C23.4059105,26.6756063 24.5514016,26.4071781 25.4384598,26.0006798 C24.6346769,25.9452946 23.784731,25.6490356 23.2553043,25.398538 C23.1247451,25.3367156 23.0799988,25.1997928 23.1553865,25.0928252 C23.2307742,24.9858788 23.3976844,24.949274 23.5283494,25.0108839 C24.3236102,25.387342 25.7394396,25.7931605 26.4505369,25.4072272 C26.8976821,25.0770828 27.2357319,24.7190227 27.4742023,24.3851179 C25.4050693,24.9245662 21.8454171,24.5216796 20.6814227,23.2404049 C20.6268856,23.1804308 20.6125693,23.1019737 20.6432531,23.0314834 C20.6739579,22.9610143 20.7456027,22.9077961 20.834207,22.8896743 C21.8526069,22.6810714 23.1180627,22.5737639 24.7809269,23.3605231 C24.9115073,23.4223455 24.9562535,23.5591621 24.8808658,23.6662147 C24.805457,23.7732036 24.6383987,23.8100421 24.507903,23.7481772 C23.251519,23.1535561 22.2781191,23.120308 21.4291459,23.2422532 C22.3394443,23.8852487 24.1290613,24.2027737 25.688582,24.1623448 C25.7055204,24.148217 25.7248062,24.1355339 25.7467563,24.1251452 C26.0199918,23.9958492 26.2774518,23.8329227 26.5159645,23.6439714 C25.4308259,22.705333 23.2843597,22.1718545 21.2878231,22.3651823 C20.3698696,22.4539006 18.8441201,22.7625878 17.7669749,23.8066642 C18.2064016,23.6877569 18.7311971,23.6240437 19.2820453,23.6571644 C20.1144396,23.7075359 21.6371863,24.0400384 22.4834105,25.7009155 C22.5414791,25.8150001 22.4758188,25.9459956 22.3366318,25.9936265 C22.3023109,26.0054386 22.2666365,26.0110048 22.2315754,26.0110048 C22.1247216,26.0110048 22.0232601,25.9592099 21.9794655,25.8733384 C21.282473,24.5052999 20.1060444,24.1558652 19.2418668,24.1034967 C18.2291342,24.0433101 17.3008188,24.3857553 17.1069467,24.6489785 C17.1059739,24.6502957 17.104832,24.6514642 17.1038593,24.6527389 C17.1009199,24.6565629 17.0978536,24.6602808 17.0946393,24.6639561 C17.092715,24.6661656 17.0907272,24.6683326 17.0887183,24.6704783 C17.0854194,24.6739624 17.0820148,24.6773191 17.0784622,24.6806545 C17.0761572,24.6828215 17.0738311,24.6849672 17.0714203,24.687028 C17.0679734,24.6900235 17.0643997,24.692934 17.0607202,24.6957596 C17.05795,24.6979266 17.0551375,24.7000511 17.0522404,24.7021118 C17.04873,24.7046187 17.0450928,24.7070406 17.0413922,24.70942 C17.0380933,24.7115233 17.0347521,24.7136052 17.0313264,24.715581 C17.0280063,24.7175355 17.0246229,24.7194263 17.0211548,24.7212534 C17.0209011,24.7213809 17.020605,24.7215083 17.0203301,24.721657 C17.0167563,24.7235478 17.0131191,24.7253324 17.0094608,24.7270745 C17.0072827,24.7281155 17.0052103,24.7292627 17.0029899,24.7302612 C17.0029688,24.7302612 17.0029688,24.7302612 17.0029476,24.7302824 C17.0023344,24.7305586 17.0016788,24.7307711 17.0010656,24.731026 C16.9997756,24.7315784 16.9984222,24.7320245 16.9971323,24.7325769 C16.9938123,24.7339578 16.9904922,24.7352537 16.9871299,24.7365072 C16.9843174,24.7375906 16.9815684,24.7388016 16.9786924,24.7398001 C16.9770219,24.7403525 16.9753301,24.7407349 16.9736595,24.7413085 C16.9734481,24.7413722 16.9732366,24.741436 16.973004,24.7414997 C16.9698743,24.7424982 16.9666812,24.743433 16.963488,24.7443465 C16.9602314,24.7452813 16.9570806,24.7463648 16.9537817,24.7472145 C16.9518997,24.7476819 16.9500176,24.7479581 16.9481567,24.7484043 C16.9449636,24.7491478 16.9417493,24.7497639 16.9385562,24.7504438 C16.9334175,24.7514635 16.9283,24.752462 16.9231403,24.7532481 C16.9198203,24.7537579 16.9165002,24.7541191 16.9131802,24.7545228 C16.9092892,24.7549901 16.9054194,24.7556062 16.9015284,24.7559249 C16.9003442,24.7560311 16.8991177,24.7560311 16.8979335,24.7561374 C16.8941906,24.7564135 16.8904265,24.7565198 16.8866624,24.7566685 C16.8826445,24.7568384 16.8786478,24.7570721 16.8746511,24.7570934 C16.8741436,24.7570934 16.8736572,24.7571571 16.8731285,24.7571571 C16.872621,24.7571571 16.8721346,24.7570934 16.8716271,24.7570934 C16.8676516,24.7570721 16.8636548,24.7568384 16.8596581,24.7566685 C16.8558729,24.7565198 16.8521088,24.7564135 16.8483447,24.7561374 C16.8471605,24.7560311 16.845934,24.7560311 16.8447498,24.7559249 C16.8408799,24.7556062 16.8370524,24.7549901 16.8331826,24.754544 C16.8298203,24.7541191 16.8264579,24.7537579 16.8231168,24.7532481 C16.8180204,24.752462 16.8129875,24.7514848 16.8079124,24.750465 C16.8046135,24.7497852 16.8012935,24.7491478 16.7980157,24.748383 C16.7962183,24.7479369 16.7943785,24.7476819 16.7925599,24.7472145 C16.7893033,24.746386 16.7861525,24.7453025 16.7829171,24.7443677 C16.7796393,24.743433 16.7763828,24.7424982 16.7731473,24.7414572 C16.7723226,24.741181 16.7714344,24.7409686 16.7706097,24.7406924 C16.769637,24.7403737 16.7686431,24.74014 16.7676915,24.7398213 C16.7648156,24.7388441 16.7621088,24.7376544 16.7593174,24.7365921 C16.7558282,24.7352962 16.7524025,24.7339365 16.7489979,24.7325131 C16.7449377,24.7308135 16.740941,24.729029 16.7370078,24.7271594 C16.7332014,24.7253749 16.7294584,24.7235053 16.7257789,24.7215721 C16.7240449,24.7206585 16.722184,24.7198725 16.7204922,24.7189165 C16.7186736,24.7179392 16.7170665,24.7168132 16.7152902,24.7157935 C16.711653,24.713669 16.708058,24.7114595 16.7045266,24.7091863 C16.7010585,24.7069556 16.6976539,24.7046824 16.694355,24.7023455 C16.6912465,24.7001148 16.6882225,24.6978416 16.6852408,24.6955259 C16.6817728,24.6928278 16.6783893,24.690066 16.6751116,24.6872404 C16.6725529,24.6850097 16.6700576,24.6827578 16.6675834,24.6804421 C16.6641788,24.6772341 16.6609011,24.6739837 16.6577502,24.6706482 C16.6556356,24.6683963 16.6535632,24.6661443 16.6515331,24.6638074 C16.6483823,24.6601958 16.6453583,24.6565417 16.6424824,24.6527813 C16.6414885,24.6514854 16.6403466,24.6503169 16.6393738,24.6489785 C16.4455439,24.3857553 15.517715,24.0437563 14.5044537,24.1034967 C13.6402761,24.1558652 12.4638052,24.5052999 11.7668339,25.8733384 C11.7230392,25.9592099 11.6215989,26.0108986 11.5147239,26.0110048 C11.479684,26.0110048 11.4440731,26.0054386 11.4096675,25.9936265 C11.2704805,25.9459956 11.2048203,25.8150001 11.26291,25.7009155 C12.109113,24.0400384 13.6318809,23.7075359 14.464254,23.6571644 C15.0152502,23.6239375 15.5398555,23.6877569 15.979261,23.8065154 C14.9020524,22.7625878 13.3763029,22.4539006 12.4582648,22.3650548 C10.4614109,22.1720457 8.31536772,22.7054392 7.23033482,23.6439714 C7.46884751,23.8329227 7.72630757,23.9958492 7.999543,24.1251452 C8.02151433,24.1355551 8.04082119,24.1482383 8.05775963,24.1623873 C9.61728031,24.2028162 11.4068762,23.8853125 12.3171746,23.2422532 C11.4684128,23.120308 10.4948437,23.1537685 9.23835409,23.7481772 C9.10775258,23.8100421 8.94069431,23.7732036 8.86537007,23.6662147 C8.79000352,23.5591621 8.83470747,23.4223455 8.96528783,23.3605231 C10.6280886,22.5736577 11.893481,22.6807528 12.9120923,22.8896743 C13.0006755,22.9077961 13.0723414,22.9610143 13.1030674,23.0314834 C13.13373,23.1019737 13.1193926,23.1804308 13.0648766,23.2404049 C11.9007343,24.5215734 8.34123003,24.9248849 6.27207589,24.3851179 C6.51088463,24.7194688 6.84980146,25.0779963 7.29806743,25.4084806 C8.00977796,25.7924594 9.42353501,25.3869171 10.21795,25.0108839 C10.3485303,24.949274 10.515504,24.9858788 10.5909128,25.0928252 C10.6663005,25.1997928 10.6215754,25.3367156 10.4909951,25.398538 C9.96184328,25.6489507 9.11227796,25.9450184 8.30879112,26.0005948 C9.19610315,26.4071143 10.3415519,26.6755638 11.7777032,26.6314596 C11.9260045,26.6262121 12.0551257,26.7231097 12.0607507,26.8466908 C12.0663969,26.9702718 11.9488217,27.0740953 11.7980886,27.0787691 C11.6874283,27.082147 11.5783329,27.0838254 11.4708235,27.0838254 C9.44176339,27.0838254 7.96959939,26.4922848 6.97279018,25.7684952 C6.95504817,25.7585102 6.93747533,25.7483127 6.92019854,25.7376053 C6.89505522,25.7220328 6.87439497,25.7034649 6.85785832,25.6830911 C6.13324836,25.1293663 5.67787711,24.5104836 5.45697956,24.0239774 C5.41686443,23.9355777 5.44873238,23.8359395 5.53663886,23.7750519 C5.62458764,23.7141855 5.7498179,23.7049227 5.84941847,23.7521075 C6.15365484,23.8960836 6.54455005,24.0017553 6.98594337,24.0702698 C5.87608435,23.2571458 5.12269384,21.9650575 4.96113369,20.6982505 C4.95525493,20.6782379 4.9529711,20.6579066 4.95390155,20.6377665 C4.88959469,20.0669821 4.94618304,19.5029748 5.14570136,18.9919733 C5.17862664,18.9076101 5.26915531,18.8470624 5.37660127,18.8376722 C5.48318022,18.8278571 5.58810973,18.8715364 5.64218163,18.9482514 C5.87967928,19.2854066 6.15080005,19.5715955 6.44564732,19.8139564 C6.26033952,19.3182724 6.15354911,18.8135381 6.11347627,18.3145187 C6.11051574,18.3016655 6.10751292,18.2888124 6.10491189,18.2758318 C6.0998367,18.2504655 6.10044995,18.2254604 6.10552514,18.201475 C6.00514215,16.539557 6.63664356,14.9544177 7.5576633,13.9983161 C7.62592458,13.9272734 7.73958764,13.8973395 7.84582824,13.9214948 C7.95196311,13.9459689 8.02974037,14.0203682 8.04302044,14.110085 C8.10724272,14.5441803 8.23644854,14.9204472 8.41742129,15.25193 C8.42158717,15.1619583 8.42856555,15.0722414 8.43850446,14.982907 C8.4389274,14.9757262 8.4398367,14.9684817 8.44112664,14.961216 C8.48621123,14.5739868 8.58441612,14.1936834 8.72614074,13.8256382 C8.72745183,13.8184787 8.72914356,13.811298 8.73134281,13.8041172 C8.736418,13.7876313 8.74377702,13.7721226 8.75278548,13.7575699 C9.38062852,12.1927619 10.7901985,10.8582052 12.2315942,10.1761617 C12.3254218,10.1316963 12.4426163,10.1369225 12.5299307,10.1897158 C12.6172662,10.2423817 12.6582484,10.3324173 12.6344584,10.4191173 C12.5561102,10.7041165 12.5173062,10.9860989 12.5119772,11.2630676 C12.8684457,10.7846131 13.3502502,10.3495618 13.8511924,9.89736596 C14.976848,8.88118404 16.2526868,7.72937522 16.6027267,5.67689252 C16.6028325,5.67623393 16.6030439,5.67561783 16.6031708,5.67498049 C16.6041013,5.66986049 16.6053701,5.66482547 16.6067234,5.65981169 C16.6073367,5.6575385 16.6078231,5.65520157 16.6085421,5.65292837 C16.6100435,5.64802082 16.6119255,5.64321949 16.6138499,5.63843941 C16.614738,5.6362087 16.6154993,5.63389302 16.6164932,5.6317048 C16.6186713,5.62679725 16.6211877,5.62203841 16.6237676,5.61727958 C16.6247827,5.61541003 16.6256497,5.613498 16.6267281,5.61167094 C16.6301116,5.60584987 16.6338757,5.60021999 16.6378513,5.59467509 C16.6382531,5.59412273 16.6385703,5.59354912 16.638972,5.59299675 C16.6799753,5.53697418 16.7502878,5.49599293 16.8353607,5.48622032 C16.8415778,5.48551924 16.8477737,5.48524306 16.8539697,5.48490314 C16.8549213,5.48483941 16.8558306,5.48473318 16.8567822,5.48469069 C16.8636337,5.48437202 16.8704429,5.48430829 16.877231,5.48441451 C16.8801281,5.48443576 16.8830251,5.48441451 16.8859645,5.48452073 C16.8907437,5.48469069 16.8954594,5.48509434 16.9001962,5.48547675 C16.9037911,5.48575293 16.9073649,5.48583791 16.9109598,5.48622032 C16.9124189,5.48639028 16.9138146,5.4867302 16.9152949,5.48690015 C16.9178959,5.48724007 16.9204335,5.4877287 16.9230134,5.48811111 C16.929738,5.4891521 16.9363992,5.49023559 16.9429124,5.49163775 C16.9433776,5.49174397 16.9438428,5.49189269 16.944308,5.49199891 C17.0053583,5.50546812 17.0569349,5.53533833 17.0926516,5.57493866 C17.0928842,5.57523609 17.0930956,5.57551227 17.0933282,5.57576721 C17.0981708,5.58118464 17.1027385,5.58672953 17.1069678,5.59246563 C17.1083,5.59427144 17.1094208,5.59618348 17.1106896,5.59801053 C17.1137136,5.60238696 17.1167375,5.60676339 17.119402,5.61133103 C17.1208188,5.61373169 17.1219608,5.61623858 17.1232719,5.61868173 C17.1255345,5.6229307 17.1278184,5.62715841 17.1297639,5.6315136 C17.1308212,5.63393551 17.1316671,5.63646364 17.1326398,5.63892804 C17.1344796,5.64353817 17.1362982,5.64814829 17.1377573,5.65286464 C17.1384763,5.65520157 17.1389838,5.65758099 17.139597,5.65991792 C17.1409504,5.66491045 17.1422192,5.66988173 17.1431285,5.67495924 C17.1432554,5.67561783 17.143488,5.67623393 17.1435938,5.67689252 C17.4935914,7.72937522 18.7694725,8.88118404 19.8951281,9.8974297 C20.3960068,10.3496043 20.8778325,10.7846556 21.234301,11.2630676 C21.228972,10.9861202 21.1901891,10.7041165 21.1118409,10.4191173 C21.088051,10.3324173 21.1290331,10.2423817 21.2163475,10.1897158 C21.3037676,10.1369225 21.4208141,10.1316963 21.5147263,10.1761617 C22.9560374,10.8582052 24.3655439,12.1926769 24.9934081,13.7574424 C25.0024377,13.7720376 25.0098179,13.7875888 25.0149142,13.8041172 C25.0171346,13.8113405 25.0188264,13.8185637 25.0201375,13.8257657 C25.1616295,14.1932585 25.2597286,14.572967 25.3048978,14.9596014 C25.3049189,14.9596651 25.3049401,14.9597076 25.3049401,14.9597501 C25.3063992,14.9675895 25.3073085,14.9753651 25.3077526,14.9831194 C25.3176915,15.0723901 25.3246487,15.162022 25.3287935,15.2519513 C25.5097874,14.9204685 25.6390143,14.5442016 25.7032366,14.110085 C25.7164955,14.0203682 25.7942728,13.9459689 25.9003865,13.9214948 C26.0065848,13.897127 26.1202479,13.9273796 26.1885726,13.9983161 C27.1095712,14.9543964 27.7410515,16.5394507 27.6407531,18.2013263 C27.6458494,18.2253542 27.6464838,18.2504231 27.6413875,18.2758318 C27.6387864,18.2888124 27.6357625,18.3016655 27.6328019,18.3145399 C27.5927291,18.8135806 27.4859387,19.3183149 27.3006309,19.8140413 C27.5954781,19.5716593 27.8666201,19.2854491 28.1041389,18.9482514 C28.1580627,18.8715364 28.2614485,18.8278571 28.3696981,18.8376722 C28.477144,18.8470624 28.5676727,18.9076101 28.600598,18.9919733 C28.800074,19.5028898 28.8566624,20.0667909 28.7923978,20.6374478 C28.7933705,20.6577579 28.7910656,20.6782804 28.7851022,20.6984629 M33.3784645,20.6260181 C30.7141812,11.4362128 19.9121722,3.0842392 16.8565073,0.0210132452 C13.8008212,3.0842392 2.99879112,11.4362128 0.334507754,20.6260181 C0.0297427162,21.6772965 -0.0987018327,22.8533244 0.0847662124,24.0008205 C0.517024201,28.2896598 4.12178219,31.6368014 8.50475681,31.6368014 C12.5559199,31.6368014 15.9873813,28.6484209 16.8181685,24.8287946 C16.8536102,24.7285404 16.8828348,24.7751302 16.8993926,24.8265002 C17.6805275,28.7114968 21.0973344,31.6368014 25.1946816,31.6368014 C28.9420313,31.6368014 32.1184434,29.1891439 33.2316647,25.7990028 C33.9517916,24.1113148 33.8346816,22.199664 33.3784645,20.6260181" id="Fill-9" fill="#585AFA" mask="url(#mask-2)"></path>
                </g>
                <path d="M25.9702489,22.0695556 C25.9597532,22.0705341 25.9492787,22.0709808 25.9389519,22.0709808 C25.8022337,22.0709808 25.6842682,21.9866182 25.6683664,21.8723905 C25.6513241,21.7494202 25.7586883,21.6383619 25.9083308,21.6242589 C27.0002606,21.5217518 27.886733,21.0441012 28.2315274,20.6078874 C28.2683784,20.2785415 28.2610082,19.9531307 28.203905,19.6431843 C26.384585,21.6550175 23.0713953,21.8035773 20.665986,21.2793423 C20.5204193,21.2474989 20.4337508,21.1248477 20.4723546,21.0052595 C20.5110429,20.8856927 20.6605587,20.8142418 20.8058086,20.8461916 C21.4773204,20.9925179 24.2912161,21.5052026 26.4544858,20.3849413 C26.6431967,20.0414923 26.7857857,19.6850678 26.8868778,19.3231765 C26.0728192,19.8906352 24.6057483,20.2608649 22.4570923,20.445331 C22.4474414,20.4460967 22.4378749,20.4465222 22.428414,20.4465222 C22.2905554,20.4465222 22.1721676,20.360862 22.1575539,20.2457622 C22.1418843,20.1227068 22.2506,20.0125206 22.4003904,19.9996089 C25.223578,19.7572419 26.7911075,19.1930165 27.0639316,18.3218227 C27.1185428,17.6357118 27.0419899,16.9548976 26.8652318,16.3293253 C26.4955604,16.7486495 26.0307099,17.1480637 25.497289,17.5025312 C25.4468169,17.5361401 25.3861659,17.5524341 25.3260005,17.5524341 C25.24647,17.5524341 25.1677207,17.5239941 25.1137852,17.4692839 C25.019113,17.3730093 25.0372323,17.2320008 25.1543108,17.1541899 C25.7802287,16.738184 26.3023513,16.2582786 26.6713048,15.7609945 C26.5196561,15.3849577 26.3308185,15.0380202 26.1127324,14.7336257 C25.5703152,16.5883691 23.8227966,17.3736687 22.1279886,18.1353571 C20.8135167,18.7260229 19.5720077,19.2839732 18.8844251,20.3118526 C18.8158548,20.4145724 18.6626222,20.4564985 18.5324928,20.4078081 C18.4027224,20.3592241 18.3403608,20.2365729 18.3895447,20.1266207 C19.1632678,18.3957623 21.3529562,15.3844897 24.7255932,14.8281135 C24.6878553,14.5977649 24.6299496,14.3704368 24.5546215,14.1473843 C22.9425963,14.510871 21.65543,15.1045573 20.6419959,15.9533523 C20.5135137,16.0734722 20.3800054,16.1940175 20.2413654,16.3149458 C18.2649271,18.0390612 17.3920336,19.8867638 17.1920668,23.0041596 C19.0576565,19.6274222 23.4718357,18.1120223 26.128951,17.9544008 C26.2784035,17.9460837 26.4096944,18.0384231 26.4205068,18.1618188 C26.4313826,18.2852145 26.3184222,18.3924439 26.1682306,18.4013992 C23.4484792,18.5626794 19.3295302,20.1755025 17.6440564,23.284326 C18.5368431,22.5521837 19.7601273,22.0889977 21.2179696,21.9476914 C23.3907635,21.7364871 25.6577862,22.3058602 26.8736579,23.3431841 C27.4231918,22.7962737 27.8381826,22.1059085 28.0635756,21.3910387 C27.5058479,21.7417199 26.7462739,21.9966583 25.9702489,22.0695556" id="Fill-12" fill="#585AFA"></path>
                <path d="M7.58176602,18.4014106 C7.43159516,18.3924554 7.3186344,18.2852262 7.32948911,18.1618308 C7.34025934,18.0384353 7.47079037,17.947181 7.62106682,17.954392 C10.2781682,18.1120344 14.6923173,19.6274095 16.5579332,23.0040966 C16.3579658,19.8867505 15.4850489,18.0390735 13.5086474,16.314962 C13.3699225,16.1939703 13.2363505,16.0733827 13.1078046,15.9531779 C12.0943888,15.10447 10.8072402,14.510785 9.19533727,14.1473843 C9.11998786,14.3704363 9.06208201,14.5977851 9.02434395,14.8281332 C12.3970324,15.3844868 14.5867479,18.3957737 15.360452,20.1266282 C15.4096783,20.2365801 15.3473377,20.359231 15.2175458,20.4078149 C15.0877961,20.4563775 14.9343097,20.4144729 14.8655703,20.3118596 C14.1780069,19.2839826 12.93641,18.7260336 11.6220401,18.1353691 C9.92718529,17.3736826 8.17961965,16.5883847 7.63722217,14.7336456 C7.41913548,15.0380182 7.23029736,15.3849335 7.07866934,15.7609908 C7.44756045,16.2582737 7.96968454,16.7381992 8.59568861,17.1542042 C8.71276739,17.2319937 8.73088673,17.3730231 8.63621425,17.4692975 C8.58236308,17.5239863 8.5035503,17.5524475 8.42397727,17.5524475 C8.3638329,17.5524475 8.30324505,17.5361536 8.25273054,17.5025447 C7.71922378,17.148078 7.25439312,16.7486648 6.88474176,16.3293415 C6.70800432,16.9548911 6.63145118,17.6356612 6.68606261,18.3217705 C6.95882408,19.1930048 8.52631562,19.7572502 11.3496165,19.9996166 C11.4993862,20.0125283 11.6081233,20.122693 11.5924748,20.2457693 C11.5778188,20.3608689 11.4594729,20.4465289 11.3216139,20.4465289 C11.312153,20.4465289 11.3025654,20.4461034 11.2929144,20.4453164 C9.14425257,20.260872 7.67717763,19.8906006 6.8630957,19.3231645 C6.96418808,19.685055 7.10677755,20.0414574 7.29546784,20.3848631 C9.45874343,21.505143 12.2726257,20.9925234 12.9441604,20.8461973 C13.0891362,20.8141201 13.2389692,20.885592 13.2775942,21.0052649 C13.3162192,21.1248528 13.2295505,21.2474825 13.0839411,21.2793258 C10.6788843,21.8034745 7.36549548,21.6551064 5.54608604,19.643044 C5.48898268,19.9530535 5.48163357,20.2785273 5.51846355,20.6078938 C5.8632589,21.0441278 6.7497337,21.521756 7.84166657,21.6242629 C7.99130948,21.6383658 8.09867394,21.7494239 8.08165275,21.8723939 C8.06572969,21.9866001 7.94776395,22.0709837 7.81100308,22.0709837 C7.80069744,22.0709837 7.7902651,22.070537 7.77974828,22.0695586 C7.00372118,21.9966614 6.24412397,21.7417236 5.68641586,21.3910006 C5.91180943,22.1059327 6.32678024,22.7962962 6.87631564,23.3431841 C8.09214845,22.3059264 10.3596841,21.736895 12.5318293,21.9476734 C13.9898235,22.0890219 15.2131955,22.5522281 16.1060268,23.2844112 C14.4205484,20.1755311 10.3015671,18.5626904 7.58176602,18.4014106" id="Fill-14" fill="#585AFA"></path>
            </g>
        </g>
    </g>
</svg>