<?xml version="1.0" encoding="UTF-8"?>
<svg width="80px" height="80px" viewBox="0 0 80 80" version="1.1" xmlns="http://www.w3.org/2000/svg" xmlns:xlink="http://www.w3.org/1999/xlink">
    <!-- Generator: Sketch 48.2 (47327) - http://www.bohemiancoding.com/sketch -->
    <title>Windows_80</title>
    <desc>Created with Sketch.</desc>
    <defs>
        <polygon id="path-1" points="0 0.0466961005 74.9916823 0.0466961005 74.9916823 70.3040031 0 70.3040031"></polygon>
    </defs>
    <g id="Page-1" stroke="none" stroke-width="1" fill="none" fill-rule="evenodd">
        <g id="Windows_80">
            <g id="Page-1-Copy-4" transform="translate(2.500000, 1.250000)">
                <path d="M55.5845511,78.125 L55.5845511,75.9115555 C46.6611933,75.7152073 39.2683802,69.2605087 37.5583246,60.7248603 C37.5215573,60.610237 37.4565798,60.5062795 37.3777323,60.7300274 C35.5664491,69.0875307 28.1940413,75.6570423 19.4154489,75.9089483 L19.4154489,78.125 L55.5845511,78.125 Z" id="Fill-1" fill="#585AFA"></path>
                <path d="M26.2565779,32.353107 C25.0918193,30.8250644 24.3284667,29.3376942 23.9776533,27.9039245 C23.9117936,27.634789 24.1247338,27.3726838 24.4531398,27.3188473 C24.781264,27.2654354 25.1013084,27.4391656 25.1670741,27.7083483 C25.705085,29.9072952 27.3170508,32.2694976 29.9629954,34.741166 C30.2730809,35.0011951 30.5685101,35.2708025 30.8576446,35.5512149 C33.8492352,38.1559413 35.7623142,40.8665477 36.8451475,44.4070202 L36.8451475,37.3113539 C36.8451475,33.3690654 36.8497511,26.7708563 33.9125582,23.0031473 C33.7322191,22.7719003 33.8172448,22.4645459 34.0995209,22.3167196 C34.3820788,22.1691763 34.7532325,22.2368848 34.9336656,22.4680375 C35.7808696,23.5547714 36.386995,24.8446781 36.8451475,26.2281971 L36.8451475,19.3571722 C36.8451475,19.0826577 37.1140825,18.8601396 37.4490181,18.8601396 C37.7840007,18.8601396 38.0528887,19.0826577 38.0528887,19.3571722 L38.0528887,26.2281971 C38.5110412,24.8446781 39.1279241,23.5547714 39.975128,22.4680375 C40.1556081,22.2366489 40.534184,22.1691763 40.81646,22.3167196 C41.0986891,22.4645459 41.1760108,22.7719003 40.9956717,23.0031473 C38.0583379,26.7708563 38.0528887,33.3690654 38.0528887,37.3113539 L38.0528887,44.4070674 C39.1773893,40.8665477 41.0607328,38.1559413 44.0523234,35.5512149 C44.341317,35.2709912 44.644826,35.0015254 44.9547236,34.741685 C47.6011849,32.2696391 49.2151706,29.907248 49.7530406,27.7083483 C49.8189943,27.4391656 50.1389917,27.2656713 50.4678675,27.3188473 C50.7963205,27.3726838 51.0096834,27.634789 50.9437767,27.9039245 C50.5930103,29.3375998 49.8298456,30.8250644 48.6648991,32.3532486 C50.2928366,31.5578737 52.1236615,30.9329263 54.1753653,30.4683088 C52.9905482,27.8284307 50.7331853,25.5369095 48.2948258,24.0950242 C49.0951951,29.9392386 43.6231548,34.6652003 40.7968242,36.0023378 C40.701323,36.0474454 40.5970372,36.0688668 40.4941608,36.0688668 C40.284509,36.0688668 40.080729,35.9797369 39.9683166,35.8203505 C39.8008957,35.5825449 39.900202,35.2786822 40.190323,35.1413306 C42.5324297,34.0332225 46.0569578,30.8709269 46.9427756,26.9971019 C46.9234217,26.9693579 46.9066515,26.9399153 46.8937332,26.9084438 C46.4567197,25.8447356 45.6511361,24.9148402 44.66014,23.9588522 C42.7567849,25.132923 41.4467309,27.9114267 41.5001891,30.6214198 C42.6531568,29.7965552 43.6232018,27.735762 43.9198054,26.6422337 C43.9924766,26.374089 44.3170776,26.2061152 44.6434167,26.2648588 C44.9704135,26.3243574 45.1764952,26.5898126 45.103777,26.8577214 C45.0917983,26.9026403 43.7705641,31.3570129 41.0974207,31.911987 C41.0482374,31.9221787 40.9982084,31.9272745 40.9484613,31.9272745 C40.8246807,31.9272745 40.7026383,31.8962277 40.59948,31.8367763 C40.4548423,31.7533084 40.3618307,31.6225153 40.3447786,31.4780862 C39.9592033,28.2132134 41.4747753,24.7390811 43.859113,23.2107082 C43.6687211,23.0370724 43.4740545,22.8613133 43.2759586,22.6825816 C41.1052657,20.7233748 38.6944807,18.5474535 37.4609499,15.0905433 C36.2273251,18.5474063 33.8166811,20.7233748 31.6459882,22.6824401 C31.4478923,22.8612189 31.2531787,23.0370252 31.0627868,23.210661 C33.4471245,24.7389867 34.9627435,28.2131662 34.5771682,31.4780862 C34.5601631,31.6225153 34.4671515,31.7533084 34.3224668,31.8367763 C34.2192146,31.8962277 34.0970781,31.9272745 33.9734855,31.9272745 C33.9237384,31.9272745 33.8736155,31.9221787 33.824526,31.911987 C31.1514296,31.3570129 29.8301485,26.9026403 29.8181697,26.8577214 C29.7454046,26.5898126 29.9515803,26.3243574 30.2785301,26.2648588 C30.6067952,26.2058793 30.9294702,26.374089 31.0021414,26.6422337 C31.298745,27.735762 32.2687899,29.7965552 33.4217107,30.6214198 C33.4752159,27.9114267 32.1651149,25.1328758 30.2617598,23.958805 C29.2707637,24.9148402 28.4652271,25.8447356 28.0282136,26.9084438 C28.0152484,26.9399625 27.9985251,26.9694051 27.9791242,26.9971963 C28.864848,30.8709741 32.3893762,34.0332225 34.7316238,35.1413306 C35.0216978,35.2786822 35.1210511,35.5825449 34.9536302,35.8203505 C34.8413117,35.9797369 34.6374378,36.0688668 34.427786,36.0688668 C34.3248156,36.0688668 34.2206238,36.0474454 34.1250756,36.0023378 C31.298745,34.6652003 25.8266108,29.9392386 26.627074,24.0950242 C24.1886675,25.537051 21.9312107,27.8284779 20.7463466,30.4683088 C22.7980035,30.9328791 24.6286874,31.5578266 26.2565779,32.353107" id="Fill-3" fill="#585AFA"></path>
                <path d="M43.8413361,41.7347837 C45.2852531,40.7913558 46.9424825,40.050269 48.5692118,39.3230071 C50.9850935,38.2428825 53.3202675,37.1983075 54.9464807,35.5672112 C54.9423045,35.5316616 54.9423045,35.4953597 54.9478884,35.4584464 C55.0277045,34.9280239 55.0519168,34.3992001 55.0273761,33.8751258 C49.9599181,34.7653233 46.1232524,38.4874035 43.8413361,41.7347837" id="Fill-5" fill="#585AFA"></path>
                <path d="M26.4308587,39.3230071 C28.0574699,40.050269 29.7147215,40.7915439 31.1586639,41.7347837 C28.8767816,38.4871684 25.0405486,34.7652763 19.97265,33.8751258 C19.9480627,34.3992472 19.9722746,34.9280239 20.0521365,35.4584464 C20.0576734,35.4953126 20.0577203,35.5316616 20.0534973,35.5671642 C21.6797331,37.1983075 24.0149661,38.2428825 26.4308587,39.3230071" id="Fill-7" fill="#585AFA"></path>
                <g id="Group-11">
                    <mask id="mask-2" fill="white">
                        <use xlink:href="#path-1"></use>
                    </mask>
                    <g id="Clip-10"></g>
                    <path d="M63.9668938,45.9965843 C63.6076833,48.8115693 61.9335761,51.6825934 59.4674577,53.4894884 C60.4483318,53.3372339 61.3169878,53.1024552 61.9931156,52.782461 C62.2146852,52.6776061 62.4928806,52.69819 62.6881344,52.8334486 C62.8835291,52.9687545 62.9542998,53.1901726 62.8651551,53.3866163 C62.3744596,54.4674108 61.3626645,55.842328 59.7527961,57.0725915 C59.7159539,57.118197 59.6697603,57.1598369 59.6135103,57.1946784 C59.5742246,57.2190391 59.534234,57.2422668 59.4939145,57.2649751 C57.2786419,58.8724049 54.0078712,60.1859954 49.5011043,60.1862786 C49.2617246,60.1862786 49.0201363,60.182549 48.7738017,60.1750425 C48.4388393,60.1646561 48.1775611,59.9339374 48.1901551,59.6593128 C48.2026081,59.3849242 48.4894032,59.1697851 48.8191024,59.1810212 C52.0131344,59.2791251 54.5586701,58.6826179 56.5299107,57.7792884 C54.7437265,57.6562101 52.8549577,56.997857 51.6784539,56.4411956 C51.3883224,56.3038125 51.2888863,55.9995396 51.4564145,55.7618337 C51.6239427,55.5241751 51.9948543,55.442831 52.2852209,55.5797421 C54.0524671,56.4163156 57.1987547,57.3181343 58.7789709,56.4605048 C59.7726269,55.7268506 60.5238487,54.9311615 61.0537829,54.189151 C56.4557096,55.387925 48.5453712,54.4926213 45.9587171,51.6453442 C45.8375235,51.5120684 45.8057096,51.3377193 45.8738957,51.1810742 C45.9421288,51.0244763 46.1013393,50.9062135 46.2982378,50.8659428 C48.5613487,50.402381 51.3734727,50.1639197 55.0687265,51.9122735 C55.3589051,52.0496566 55.4583412,52.3536935 55.290813,52.5915882 C55.1232378,52.8293413 54.7519972,52.9112046 54.4620066,52.7737271 C51.6700423,51.4523469 49.5069314,51.3784621 47.6203242,51.6494515 C49.6432096,53.0783305 53.6201363,53.7839416 57.0857378,53.6940996 C57.1233788,53.6627045 57.1662359,53.6345197 57.2150141,53.6114337 C57.8222039,53.3241094 58.3943374,52.9620505 58.9243656,52.5421586 C56.5129464,50.4562956 51.7430216,49.2707878 47.3062735,49.7004051 C45.2663769,49.897557 41.8758224,50.5835284 39.4821664,52.9036981 C40.4586701,52.6394598 41.6248825,52.497875 42.8489897,52.5714764 C44.6987547,52.683413 48.0826363,53.4223076 49.9631344,57.1131455 C50.0921758,57.3666669 49.9462641,57.6577681 49.6369596,57.7636145 C49.5606908,57.7898636 49.4814145,57.8022328 49.4035009,57.8022328 C49.1660479,57.8022328 48.940578,57.6871332 48.8432566,57.4963075 C47.2943844,54.4562219 44.6800987,53.6797003 42.7597039,53.563326 C40.509187,53.4295781 38.4462641,54.1905673 38.015437,54.7755078 C38.0132754,54.7784349 38.0107378,54.7810315 38.0085761,54.7838641 C38.0020442,54.7923621 37.9952303,54.8006239 37.9880874,54.8087914 C37.9838111,54.8137013 37.9793938,54.8185168 37.9749295,54.8232851 C37.9675987,54.8310276 37.9600329,54.8384869 37.9521382,54.845899 C37.947016,54.8507145 37.9418468,54.8554828 37.9364897,54.8600622 C37.9288299,54.8667189 37.9208882,54.8731868 37.9127115,54.8794658 C37.9065555,54.8842813 37.9003055,54.8890023 37.8938675,54.8935818 C37.8860667,54.8991526 37.877984,54.9045347 37.8697603,54.9098223 C37.8624295,54.9144961 37.8550047,54.9191228 37.8473919,54.9235134 C37.8400141,54.9278568 37.8324953,54.9320585 37.8247885,54.9361186 C37.8242246,54.9364019 37.8235667,54.9366852 37.8229558,54.9370156 C37.8150141,54.9412174 37.8069314,54.9451831 37.7988017,54.9490544 C37.7939615,54.9513677 37.7893562,54.9539171 37.784422,54.956136 C37.784375,54.956136 37.784375,54.956136 37.784328,54.9561832 C37.7829652,54.9567969 37.7815085,54.957269 37.7801457,54.9578355 C37.7772791,54.959063 37.7742716,54.9600544 37.7714051,54.9612819 C37.7640273,54.9643506 37.7566494,54.9672305 37.7491776,54.9700159 C37.7429276,54.9724237 37.7368186,54.9751147 37.7304276,54.9773336 C37.7267152,54.978561 37.7229558,54.9794108 37.7192434,54.9806855 C37.7187735,54.9808272 37.7183036,54.9809688 37.7177867,54.9811104 C37.7108318,54.9833293 37.7037359,54.9854066 37.69664,54.9874367 C37.6894032,54.9895139 37.6824013,54.9919217 37.6750705,54.9938101 C37.6708882,54.9948487 37.6667058,54.9954625 37.6625705,54.9964539 C37.6554746,54.9981063 37.6483318,54.9994754 37.6412359,55.0009861 C37.6298167,55.0032522 37.6184445,55.0054711 37.6069784,55.0072179 C37.5996006,55.008351 37.5922227,55.0091536 37.5848449,55.0100506 C37.5761983,55.0110892 37.5675987,55.0124583 37.5589521,55.0131665 C37.5563205,55.0134025 37.5535949,55.0134025 37.5509633,55.0136386 C37.5426457,55.0142523 37.534281,55.0144884 37.5259164,55.0148189 C37.5169878,55.0151965 37.5081062,55.0157159 37.4992246,55.0157631 C37.4980968,55.0157631 37.497016,55.0159047 37.4958412,55.0159047 C37.4947133,55.0159047 37.4936325,55.0157631 37.4925047,55.0157631 C37.4836701,55.0157159 37.4747885,55.0151965 37.465907,55.0148189 C37.4574953,55.0144884 37.4491306,55.0142523 37.440766,55.0136386 C37.4381344,55.0134025 37.4354088,55.0134025 37.4327773,55.0131665 C37.4241776,55.0124583 37.415672,55.0110892 37.4070724,55.0100978 C37.3996006,55.0091536 37.3921288,55.008351 37.3847039,55.0072179 C37.3733788,55.0054711 37.3621945,55.0032994 37.3509164,55.0010333 C37.3435855,54.9995226 37.3362077,54.9981063 37.3289239,54.9964067 C37.3249295,54.9954153 37.3208412,54.9948487 37.3167998,54.9938101 C37.309563,54.9919689 37.3025611,54.9895611 37.2953712,54.9874839 C37.2880874,54.9854066 37.2808506,54.9833293 37.2736607,54.981016 C37.271828,54.9804023 37.2698543,54.9799302 37.2680216,54.9793164 C37.26586,54.9786083 37.2636513,54.9780889 37.2615367,54.9773808 C37.2551457,54.9752091 37.2491306,54.9725653 37.2429276,54.9702047 C37.2351739,54.9673249 37.2275611,54.9643034 37.2199953,54.9611403 C37.2109727,54.9573634 37.2020912,54.9533977 37.1933506,54.9492432 C37.1848919,54.9452775 37.1765742,54.941123 37.1683976,54.9368268 C37.1645442,54.9347967 37.1604088,54.9330499 37.1566494,54.9309254 C37.1526081,54.9287538 37.1490367,54.9262516 37.1450893,54.9239855 C37.1370066,54.9192644 37.1290179,54.9143545 37.1211701,54.9093029 C37.1134633,54.9043458 37.1058976,54.8992943 37.0985667,54.8941011 C37.0916588,54.889144 37.0849389,54.8840924 37.078313,54.8789465 C37.0706062,54.8729507 37.0630874,54.8668133 37.0558036,54.8605343 C37.0501175,54.8555772 37.0445724,54.8505728 37.0390742,54.8454269 C37.0315085,54.8382981 37.0242246,54.8310748 37.0172227,54.8236627 C37.0125235,54.8186584 37.0079182,54.8136541 37.003407,54.8084609 C36.9964051,54.8004351 36.9896852,54.7923148 36.9832942,54.7839585 C36.9810855,54.7810787 36.9785479,54.7784821 36.9763863,54.7755078 C36.5456532,54.1905673 34.4838111,53.4305695 32.2321194,53.563326 C30.3117246,53.6797003 27.6973449,54.4562219 26.1485197,57.4963075 C26.0511983,57.6871332 25.8257754,57.8019968 25.5882754,57.8022328 C25.5104088,57.8022328 25.4312735,57.7898636 25.3548167,57.7636145 C25.0455122,57.6577681 24.8996006,57.3666669 25.0286889,57.1131455 C26.90914,53.4223076 30.2930686,52.683413 32.1427867,52.5714764 C33.3672227,52.4976389 34.5330122,52.6394598 35.509469,52.9033676 C33.115672,50.5835284 29.7251175,49.897557 27.6850329,49.7001218 C23.2475799,49.2712127 18.4785949,50.4565316 16.0674107,52.5421586 C16.5974389,52.9620505 17.1695724,53.3241094 17.7767622,53.6114337 C17.8255874,53.6345669 17.8684915,53.6627517 17.9061325,53.694194 C21.371734,53.784036 25.3486137,53.0784721 27.3714991,51.6494515 C25.4853618,51.3784621 23.321875,51.452819 20.5296758,52.7737271 C20.2394502,52.9112046 19.8682096,52.8293413 19.7008224,52.5915882 C19.5333412,52.3536935 19.6326833,52.0496566 19.9228618,51.9122735 C23.6179746,50.1636837 26.4299577,50.4016728 28.6935385,50.8659428 C28.89039,50.9062135 29.0496476,51.0244763 29.1179276,51.1810742 C29.1860667,51.3377193 29.1542058,51.5120684 29.0330592,51.6453442 C26.4460761,54.4923853 18.5360667,55.3886332 13.9379464,54.189151 C14.4686325,54.9321529 15.221781,55.7288807 16.2179276,56.4632903 C17.7995066,57.3165764 20.9411889,56.4153714 22.7065555,55.5797421 C22.996734,55.442831 23.3677867,55.5241751 23.5353618,55.7618337 C23.70289,55.9995396 23.6035009,56.3038125 23.3133224,56.4411956 C22.1374295,56.9976681 20.2495066,57.6555964 18.4639803,57.7790996 C20.4357848,58.6824763 22.9812265,59.2790306 26.1726739,59.1810212 C26.5022321,59.1693602 26.7891682,59.3846882 26.8016682,59.6593128 C26.8142152,59.9339374 26.552937,60.1646561 26.2179746,60.1750425 C25.972063,60.182549 25.7296288,60.1862786 25.490719,60.1862786 C20.9816964,60.1862786 17.7102209,58.871744 15.4950893,57.2633227 C15.4556626,57.2411337 15.4166118,57.2184726 15.378219,57.1946784 C15.3223449,57.1600729 15.2764333,57.1188108 15.2396852,57.0735357 C13.6294408,55.8430361 12.6175047,54.4677413 12.1266212,53.3866163 C12.0374765,53.1901726 12.1082942,52.9687545 12.3036419,52.8334486 C12.4990836,52.69819 12.7773731,52.6776061 12.9987077,52.782461 C13.6747885,53.1024079 14.5434445,53.3372339 15.5243186,53.4894884 C13.0579652,51.6825462 11.3837641,48.8112388 11.0247415,45.9961122 C11.0116776,45.9516397 11.0066024,45.9064591 11.0086701,45.8617033 C10.865766,44.5932935 10.9915179,43.3399439 11.4348919,42.2043851 C11.5080592,42.0169114 11.709234,41.8823609 11.9480028,41.8614938 C12.1848449,41.8396824 12.4180216,41.9367476 12.5381814,42.1072254 C13.0659539,42.8564592 13.6684445,43.4924345 14.3236607,44.0310141 C13.9118656,42.9294941 13.6745536,41.8078624 13.5855028,40.6989303 C13.5789239,40.6703679 13.5722509,40.6418054 13.5664709,40.6129597 C13.5551927,40.5565901 13.5565555,40.5010231 13.5678336,40.4477222 C13.3447603,36.754571 14.7480968,33.2320393 16.7948073,31.1073691 C16.9464991,30.9494965 17.1990836,30.8829766 17.4351739,30.9366552 C17.6710291,30.9910419 17.8438675,31.1563738 17.8733788,31.3557446 C18.0160949,32.3204007 18.303219,33.1565494 18.7053806,33.8931779 C18.7146382,33.6932406 18.7301457,33.4938698 18.7522321,33.2953488 C18.753172,33.2793916 18.7551927,33.2632928 18.7580592,33.2471467 C18.8582472,32.3866373 19.0764803,31.5415186 19.3914239,30.7236405 C19.3943374,30.7077305 19.3980968,30.6917733 19.402984,30.6758161 C19.4142622,30.6391806 19.4306156,30.6047168 19.4506344,30.5723775 C20.8458412,27.0950264 23.978219,24.1293448 27.1813205,22.6136926 C27.3898261,22.5148806 27.6502585,22.5264944 27.8442904,22.643813 C28.0383694,22.7608483 28.1294408,22.9609272 28.0765742,23.1535941 C27.9024671,23.7869256 27.8162359,24.4135532 27.8043938,25.029039 C28.5965461,23.9658069 29.6672227,22.9990263 30.7804276,21.9941466 C33.2818844,19.7359645 36.1170818,17.1763894 36.8949483,12.6153167 C36.8951833,12.6138532 36.8956532,12.6124841 36.8959352,12.6110678 C36.8980028,12.59969 36.9008224,12.588501 36.9038299,12.5773593 C36.9051927,12.5723078 36.9062735,12.5671146 36.9078712,12.5620631 C36.9112077,12.5511574 36.91539,12.5404878 36.9196664,12.5298654 C36.92164,12.5249082 36.9233318,12.5197623 36.9255404,12.5148996 C36.9303806,12.5039939 36.9359727,12.4934187 36.9417058,12.4828435 C36.9439615,12.478689 36.9458882,12.47444 36.9482848,12.4703799 C36.9558036,12.4574441 36.9641682,12.4449333 36.9730028,12.4326113 C36.9738957,12.4313838 36.9746006,12.4301092 36.9754934,12.4288817 C37.0666118,12.3043871 37.2228618,12.2133176 37.4119126,12.1916007 C37.4257284,12.1900428 37.4394972,12.189429 37.453266,12.1886736 C37.4553806,12.188532 37.4574013,12.188296 37.459516,12.1882015 C37.4747415,12.1874934 37.4898731,12.1873517 37.5049577,12.1875878 C37.5113957,12.187635 37.5178336,12.1875878 37.5243656,12.1878239 C37.5349859,12.1882015 37.5454652,12.1890985 37.5559915,12.1899483 C37.5639803,12.1905621 37.571922,12.1907509 37.5799107,12.1916007 C37.5831532,12.1919784 37.5862547,12.1927338 37.5895442,12.1931115 C37.5953242,12.1938668 37.6009633,12.1949527 37.6066964,12.1958025 C37.62164,12.1981158 37.6364427,12.2005235 37.6509164,12.2036394 C37.6519502,12.2038755 37.652984,12.204206 37.6540179,12.204442 C37.7896852,12.2343736 37.9042998,12.3007518 37.9836701,12.3887526 C37.984187,12.3894135 37.984657,12.3900273 37.9851739,12.3905938 C37.9959352,12.4026325 38.0060855,12.4149545 38.015484,12.4277014 C38.0184445,12.4317143 38.0209352,12.4359633 38.0237547,12.4400234 C38.0304746,12.4497488 38.0371945,12.4594742 38.0431156,12.4696245 C38.0462641,12.4749593 38.0488017,12.4805302 38.0517152,12.4859594 C38.0567434,12.4954015 38.0618186,12.5047965 38.0661419,12.5144747 C38.0684915,12.5198567 38.0703712,12.5254748 38.0725329,12.5309512 C38.0766212,12.5411959 38.0806626,12.5514406 38.0839051,12.5619214 C38.0855028,12.5671146 38.0866306,12.5724022 38.0879934,12.5775954 C38.0910009,12.5886899 38.0938205,12.5997372 38.0958412,12.6110205 C38.0961231,12.6124841 38.09664,12.6138532 38.096875,12.6153167 C38.8746476,17.1763894 41.7099389,19.7359645 44.2113957,21.9942882 C45.3244596,22.9991207 46.3951833,23.9659013 47.1873355,25.029039 C47.1754934,24.4136004 47.0893092,23.7869256 46.9152021,23.1535941 C46.8623355,22.9609272 46.953407,22.7608483 47.1474389,22.643813 C47.3417058,22.5264944 47.6018092,22.5148806 47.8105028,22.6136926 C51.0134164,24.1293448 54.1456532,27.0948375 55.540907,30.5720942 C55.5609727,30.6045279 55.5773731,30.6390862 55.5886983,30.6758161 C55.5936325,30.6918677 55.5973919,30.7079194 55.6003055,30.7239238 C55.9147321,31.5405744 56.1327303,32.3843712 56.2331062,33.2435587 C56.2331532,33.2437003 56.2332002,33.2437947 56.2332002,33.2438892 C56.2364427,33.2613099 56.2384633,33.278589 56.2394502,33.2958209 C56.2615367,33.4942003 56.2769972,33.6933822 56.2862077,33.8932251 C56.6884164,33.1565966 56.9755874,32.3204479 57.1183036,31.3557446 C57.1477679,31.1563738 57.3206062,30.9910419 57.5564145,30.9366552 C57.7924107,30.8825045 58.0449953,30.9497326 58.196828,31.1073691 C60.2434915,33.2319921 61.646781,36.754335 61.4238957,40.4473917 C61.4352209,40.500787 61.4366306,40.5564957 61.4253055,40.6129597 C61.4195254,40.6418054 61.4128055,40.6703679 61.4062265,40.6989776 C61.3171758,41.8079568 61.0798637,42.9295886 60.6680686,44.031203 C61.3232848,43.4925761 61.9258224,42.8565536 62.4536419,42.1072254 C62.5734727,41.9367476 62.803219,41.8396824 63.0437735,41.8614938 C63.2825423,41.8823609 63.4837171,42.0169114 63.5568844,42.2043851 C64.0001645,43.3397551 64.1259164,44.5928686 63.9831062,45.8609952 C63.9852679,45.9061286 63.9801457,45.9517341 63.9668938,45.9965843 M74.1743656,45.8355958 C68.2537359,25.4138062 44.2492716,6.85386488 37.4589051,0.0466961005 C30.6684915,6.85386488 6.66398026,25.4138062 0.743350564,45.8355958 C0.0660949248,48.1717699 -0.219337406,50.7851653 0.188369361,53.3351567 C1.14894267,62.8659106 9.15951598,70.3040031 18.8994596,70.3040031 C27.9020442,70.3040031 35.5275141,63.6631576 37.3737077,55.1750992 C37.4524671,54.9523119 37.5174107,55.055845 37.5542058,55.1700004 C39.2900611,63.8033262 46.8829652,70.3040031 55.9881814,70.3040031 C64.315625,70.3040031 71.3743186,64.8647643 73.8481438,57.3311173 C75.4484258,53.5806995 75.1881814,49.3325866 74.1743656,45.8355958" id="Fill-9" fill="#585AFA" mask="url(#mask-2)"></path>
                </g>
                <path d="M57.7116642,49.0434569 C57.6883405,49.0456313 57.6650637,49.046624 57.6421154,49.046624 C57.3382971,49.046624 57.0761517,48.8591516 57.0408141,48.6053122 C57.0029424,48.3320448 57.2415295,48.0852487 57.5740683,48.0539087 C60.0005792,47.8261151 61.9705179,46.7646694 62.7367276,45.7953054 C62.8186187,45.0634255 62.8022405,44.3402905 62.6753445,43.6515207 C58.6324112,48.122261 51.2697673,48.452394 45.9244134,47.2874272 C45.6009318,47.2166642 45.4083352,46.9441059 45.4941214,46.6783545 C45.5800953,46.4126504 45.9123526,46.2538708 46.2351303,46.3248702 C47.7273786,46.6500398 53.9804802,47.7893391 58.7877461,45.2998695 C59.2071037,44.5366497 59.5239683,43.7445951 59.7486174,42.9403923 C57.9395983,44.2014115 54.6794407,45.0241442 49.9046496,45.4340688 C49.883203,45.4357705 49.8619442,45.4367159 49.84092,45.4367159 C49.5345675,45.4367159 49.2714835,45.24636 49.2390087,44.9905826 C49.2041873,44.7171262 49.4457778,44.4722681 49.7786452,44.4435752 C56.0523955,43.9049819 59.5357944,42.6511477 60.1420702,40.7151615 C60.2634285,39.1904707 60.0933109,37.6775502 59.7005152,36.2873895 C58.8790231,37.2192212 57.8460219,38.1068082 56.6606423,38.8945138 C56.548482,38.9692003 56.4137019,39.005409 56.2800012,39.005409 C56.1032666,39.005409 55.9282683,38.9422092 55.8084117,38.820631 C55.5980289,38.6066874 55.638294,38.2933352 55.8984684,38.1204219 C57.289397,37.1959644 58.4496696,36.129508 59.2695662,35.0244322 C58.932569,34.1887948 58.5129299,33.4178227 58.0282941,32.7413904 C56.8229228,36.8630424 52.939548,38.6081528 49.1733081,40.3007935 C46.2522594,41.6133842 43.4933504,42.8532738 41.9653891,45.1374502 C41.8130106,45.3657165 41.4724938,45.4588855 41.1833173,45.3506847 C40.8949386,45.2427202 40.7563573,44.970162 40.8656549,44.7258238 C42.5850396,40.8794717 47.4510138,34.1877549 54.9457628,32.9513633 C54.8619007,32.4394775 54.7332213,31.934304 54.5658256,31.4386318 C50.9835473,32.2463799 48.1231778,33.565683 45.8711021,35.451894 C45.585586,35.7188271 45.2889009,35.9867057 44.980812,36.2554351 C40.5887269,40.0868027 38.6489636,44.1928084 38.2045929,51.1203547 C42.3503477,43.6164937 52.159635,40.2489384 58.0643356,39.8986684 C58.3964521,39.8801859 58.6882097,40.0853846 58.7122374,40.3595973 C58.7364058,40.63381 58.4853826,40.8720976 58.1516236,40.8919982 C52.1077315,41.2503986 42.9545116,44.8344501 39.2090143,51.7429466 C41.1929847,50.1159638 43.9113939,49.0866616 47.1510436,48.7726476 C51.9794745,48.3033047 57.0173027,49.5685783 59.7192399,51.8737425 C60.9404263,50.6583859 61.8626281,49.1242412 62.3635013,47.5356415 C61.1241064,48.3149331 59.4361641,48.881463 57.7116642,49.0434569" id="Fill-12" fill="#585AFA"></path>
                <path d="M16.8483689,40.8920236 C16.5146559,40.872123 16.263632,40.633836 16.2877536,40.3596239 C16.3116874,40.0854118 16.6017564,39.8826244 16.935704,39.8986489 C22.8403739,40.2489653 32.6495941,43.6164655 36.7954071,51.1202146 C36.3510352,44.1927789 34.4112197,40.0868299 30.0192164,36.2554712 C29.710939,35.9866006 29.4141123,35.7186281 29.1284547,35.4515065 C26.8764197,33.565489 24.0160893,32.246189 20.4340828,31.4386318 C20.2666397,31.9343029 20.13796,32.4395224 20.0540977,32.951407 C27.548961,34.1877485 32.4149954,40.8794971 34.1343378,44.7258404 C34.2437296,44.9701779 34.1051948,45.2427356 33.8167684,45.3506998 C33.5284358,45.4586167 33.1873549,45.3654952 33.0346006,45.1374657 C31.5066821,42.8532947 28.7475779,41.613408 25.8267559,40.3008203 C22.0604118,38.6081835 18.1769326,36.8630771 16.9716048,32.7414346 C16.4869677,33.4178181 16.0673275,34.1887412 15.7303763,35.0244239 C16.5501343,36.1294972 17.7104101,37.1959983 19.1015302,38.1204537 C19.3617053,38.2933193 19.4019705,38.6067181 19.1915872,38.8206612 C19.071918,38.9421918 18.8967784,39.0054388 18.7199495,39.0054388 C18.5862953,39.0054388 18.4516557,38.9692301 18.3394012,38.8945439 C17.1538306,38.10684 16.1208736,37.2192551 15.2994261,36.2874256 C14.9066763,37.6775357 14.7365582,39.1903583 14.8579169,40.7150455 C15.4640535,42.6511218 18.947368,43.9050004 25.2213701,44.4435924 C25.5541915,44.4722852 25.7958296,44.7170954 25.7610551,44.9905985 C25.7284863,45.2463753 25.4654954,45.4367308 25.1591421,45.4367308 C25.1381178,45.4367308 25.116812,45.4357854 25.0953654,45.4340364 C20.3205613,45.02416 17.0603947,44.2013347 15.2513238,42.9403657 C15.4759735,43.7445667 15.792839,44.5365721 16.2121507,45.2996957 C21.0194298,47.7892067 27.2725015,46.6500519 28.7648008,46.324883 C29.0869693,46.2536001 29.4199315,46.4124267 29.5057649,46.6783665 C29.5915982,46.9441173 29.3990011,47.2166277 29.0754247,47.2873906 C23.7308541,48.4521656 16.3677677,48.1224588 12.3246356,43.6512088 C12.1977393,44.3401188 12.1814079,45.063394 12.2632523,45.7953195 C13.0294642,46.7647284 14.9994082,47.8261244 17.4259257,48.0539176 C17.7584655,48.0852574 17.9970532,48.332053 17.9592283,48.6053197 C17.9238438,48.8591113 17.6616977,49.0466305 17.3577846,49.0466305 C17.3348832,49.0466305 17.3117002,49.0456379 17.2883295,49.0434635 C15.5638248,48.8814699 13.875831,48.3149414 12.6364797,47.535557 C13.1373543,49.1242948 14.0595116,50.658436 15.2807014,51.8737425 C17.9825521,49.5687254 23.0215203,48.3042111 27.8485096,48.7726075 C31.0884966,49.0867153 33.807101,50.1160624 35.7911707,51.743136 C32.0456631,44.8345136 22.8923713,41.2504232 16.8483689,40.8920236" id="Fill-14" fill="#585AFA"></path>
            </g>
        </g>
    </g>
</svg>