<?xml version="1.0" encoding="UTF-8"?>
<svg width="96px" height="96px" viewBox="0 0 96 96" version="1.1" xmlns="http://www.w3.org/2000/svg" xmlns:xlink="http://www.w3.org/1999/xlink">
    <!-- Generator: Sketch 48.2 (47327) - http://www.bohemiancoding.com/sketch -->
    <title>Windows_96</title>
    <desc>Created with Sketch.</desc>
    <defs>
        <polygon id="path-1" points="0 0.0560353206 89.9900188 0.0560353206 89.9900188 84.3648037 0 84.3648037"></polygon>
    </defs>
    <g id="Page-1" stroke="none" stroke-width="1" fill="none" fill-rule="evenodd">
        <g id="Windows_96">
            <g id="Page-1-Copy-4" transform="translate(3.000000, 1.500000)">
                <path d="M66.7014614,93.75 L66.7014614,91.0938666 C55.993432,90.8582488 47.1220562,83.1126104 45.0699895,72.8698324 C45.0258688,72.7322843 44.9478958,72.6075354 44.8532787,72.8760329 C42.6797389,82.9050369 33.8328496,90.7884508 23.2985386,91.0907379 L23.2985386,93.75 L66.7014614,93.75 Z" id="Fill-1" fill="#585AFA"></path>
                <path d="M31.5078935,38.8237284 C30.1101832,36.9900773 29.19416,35.205233 28.773184,33.4847094 C28.6941523,33.1617468 28.9496805,32.8472206 29.3437678,32.7826167 C29.7375168,32.7185224 30.12157,32.9269987 30.2004889,33.250018 C30.846102,35.8887543 32.780461,38.7233971 35.9555944,41.6893992 C36.3276971,42.0014341 36.6822121,42.324963 37.0291735,42.6614579 C40.6190822,45.7871295 42.9147771,49.0398572 44.214177,53.2884243 L44.214177,44.7736247 C44.214177,40.0428785 44.2197013,32.1250276 40.6950698,27.6037768 C40.4786629,27.3262803 40.5806938,26.9574551 40.919425,26.7800635 C41.2584945,26.6030115 41.7038791,26.6842618 41.9203987,26.961645 C42.9370435,28.2657257 43.664394,29.8136137 44.214177,31.4738366 L44.214177,23.2286066 C44.214177,22.8991892 44.536899,22.6321675 44.9388217,22.6321675 C45.3408009,22.6321675 45.6634665,22.8991892 45.6634665,23.2286066 L45.6634665,31.4738366 C46.2132495,29.8136137 46.9535089,28.2657257 47.9701536,26.961645 C48.1867297,26.6839787 48.6410208,26.6030115 48.979752,26.7800635 C49.3184269,26.9574551 49.411213,27.3262803 49.1948061,27.6037768 C45.6700055,32.1250276 45.6634665,40.0428785 45.6634665,44.7736247 L45.6634665,53.2884809 C47.0128672,49.0398572 49.2728794,45.7871295 52.8627881,42.6614579 C53.2095804,42.3251895 53.5737912,42.0018305 53.9456684,41.690022 C57.1214219,38.723567 59.0582048,35.8886976 59.7036487,33.250018 C59.7827931,32.9269987 60.16679,32.7188055 60.561441,32.7826167 C60.9555846,32.8472206 61.2116201,33.1617468 61.1325321,33.4847094 C60.7116124,35.2051198 59.7958148,36.9900773 58.3978789,38.8238983 C60.3514039,37.8694485 62.5483938,37.1195115 65.0104384,36.5619706 C63.5886578,33.3941168 60.8798224,30.6442913 57.9537909,28.9140291 C58.9142341,35.9270863 52.3477858,41.5982404 48.9561891,43.2028054 C48.8415875,43.2569345 48.7164447,43.2826401 48.592993,43.2826401 C48.3414107,43.2826401 48.0968748,43.1756842 47.9619799,42.9844206 C47.7610749,42.6990539 47.8802424,42.3344186 48.2283876,42.1695967 C51.0389156,40.839867 55.2683494,37.0451123 56.3313308,32.3965223 C56.3081061,32.3632295 56.2879817,32.3278984 56.2724798,32.2901326 C55.7480636,31.0136827 54.7813633,29.8978082 53.592168,28.7506227 C51.3081419,30.1595076 49.7360771,33.4937121 49.8002269,36.7457038 C51.1837882,35.7558662 52.3478422,33.2829144 52.7037665,31.9706804 C52.7909719,31.6489068 53.1804931,31.4473382 53.5721,31.5178306 C53.9644962,31.5892289 54.2117942,31.9077752 54.1245324,32.2292657 C54.1101579,32.2831683 52.5246769,37.6284155 49.3169049,38.2943845 C49.2578848,38.3066145 49.1978501,38.3127295 49.1381536,38.3127295 C48.9896169,38.3127295 48.8431659,38.2754732 48.719376,38.2041316 C48.5458107,38.1039701 48.4341968,37.9470184 48.4137343,37.7737034 C47.951044,33.8558561 49.7697304,29.6868973 52.6309356,27.8528499 C52.4024653,27.6444869 52.1688654,27.4335759 51.9311503,27.2190979 C49.3263188,24.8680498 46.4333769,22.2569442 44.9531399,18.1086519 C43.4727902,22.2568876 40.5800173,24.8680498 37.9751858,27.2189281 C37.7374708,27.4334627 37.5038144,27.6444302 37.2753442,27.8527932 C40.1365494,29.6867841 41.9552922,33.8557994 41.4926018,37.7737034 C41.4721957,37.9470184 41.3605818,38.1039701 41.1869602,38.2041316 C41.0630575,38.2754732 40.9164938,38.3127295 40.7681826,38.3127295 C40.7084861,38.3127295 40.6483386,38.3066145 40.5894312,38.2943845 C37.3817156,37.6284155 35.7961782,32.2831683 35.7818037,32.2292657 C35.6944856,31.9077752 35.9418964,31.5892289 36.3342361,31.5178306 C36.7281542,31.4470551 37.1153642,31.6489068 37.2025696,31.9706804 C37.5584939,33.2829144 38.7225479,35.7558662 40.1060529,36.7457038 C40.1702591,33.4937121 38.5981379,30.159451 36.3141118,28.750566 C35.1249165,29.8978082 34.1582725,31.0136827 33.6338563,32.2901326 C33.618298,32.327955 33.5982301,32.3632862 33.574949,32.3966356 C34.6378177,37.045169 38.8672514,40.839867 41.6779486,42.1695967 C42.0260373,42.3344186 42.1452613,42.6990539 41.9443563,42.9844206 C41.809574,43.1756842 41.5649254,43.2826401 41.3133432,43.2826401 C41.1897787,43.2826401 41.0647486,43.2569345 40.9500907,43.2028054 C37.5584939,41.5982404 30.9919329,35.9270863 31.9524888,28.9140291 C29.026401,30.6444612 26.3174529,33.3941735 24.8956159,36.5619706 C27.3576042,37.1194549 29.5544249,37.8693919 31.5078935,38.8237284" id="Fill-3" fill="#585AFA"></path>
                <path d="M52.6096033,50.0817404 C54.3423038,48.9496269 56.330979,48.0603228 58.2830542,47.1876085 C61.1821122,45.891459 63.984321,44.637969 65.9357768,42.6806535 C65.9307654,42.6379939 65.9307654,42.5944316 65.9374661,42.5501357 C66.0332454,41.9136286 66.0623002,41.2790402 66.0328513,40.6501509 C59.9519017,41.718388 55.3479029,46.1848842 52.6096033,50.0817404" id="Fill-5" fill="#585AFA"></path>
                <path d="M31.7170305,47.1876085 C33.6689639,48.0603228 35.6576658,48.9498526 37.3903967,50.0817404 C34.6521379,46.184602 30.0486583,41.7183316 23.96718,40.6501509 C23.9376752,41.2790966 23.9667295,41.9136286 24.0625638,42.5501357 C24.069208,42.5943752 24.0692643,42.6379939 24.0641967,42.680597 C26.0156797,44.637969 28.8179593,45.891459 31.7170305,47.1876085" id="Fill-7" fill="#585AFA"></path>
                <g id="Group-11">
                    <mask id="mask-2" fill="white">
                        <use xlink:href="#path-1"></use>
                    </mask>
                    <g id="Clip-10"></g>
                    <path d="M76.7602726,55.1959012 C76.3292199,58.5738832 74.3202914,62.0191121 71.3609492,64.1873861 C72.5379981,64.0046807 73.5803853,63.7229462 74.3917387,63.3389533 C74.6576222,63.2131273 74.9914568,63.2378279 75.2257613,63.4001383 C75.460235,63.5625053 75.5451598,63.8282072 75.4381861,64.0639396 C74.8493515,65.360893 73.6351974,67.0107935 71.7033553,68.4871098 C71.6591447,68.5418365 71.6037124,68.5918043 71.5362124,68.633614 C71.4890695,68.6628469 71.4410808,68.6907201 71.3926974,68.7179701 C68.7343703,70.6468859 64.8094455,72.2231944 59.4013252,72.2235343 C59.1140695,72.2235343 58.8241635,72.2190588 58.528562,72.210051 C58.1266071,72.1975873 57.8130733,71.9207249 57.8281861,71.5911754 C57.8431297,71.2619091 58.1872838,71.0037421 58.5829229,71.0172255 C62.4157613,71.1349501 65.4704041,70.4191415 67.8358929,69.3351461 C65.6924718,69.1874522 63.4259492,68.3974284 62.0141447,67.7294348 C61.6659868,67.564575 61.5466635,67.1994475 61.7476974,66.9142005 C61.9487312,66.6290101 62.3938252,66.5313972 62.742265,66.6956905 C64.8629605,67.6995787 68.6385056,68.7817612 70.534765,67.7526058 C71.7271523,66.8722207 72.6286184,65.9173938 73.2645395,65.0269812 C67.7468515,66.46551 58.2544455,65.3911456 55.1504605,61.974413 C55.0050282,61.8144821 54.9668515,61.6052632 55.0486748,61.417289 C55.1305545,61.2293716 55.3216071,61.0874562 55.5578853,61.0391314 C58.2736184,60.4828572 61.6481673,60.1967037 66.0824718,62.2947282 C66.4306861,62.4595879 66.5500094,62.8244322 66.3489756,63.1099058 C66.1478853,63.3952095 65.7023966,63.4934455 65.3544079,63.3284725 C62.0040508,61.7428162 59.4083177,61.6541546 57.1443891,61.9793418 C59.5718515,63.6939966 64.3441635,64.5407299 68.5028853,64.4329195 C68.5480545,64.3952454 68.5994831,64.3614236 68.6580169,64.3337204 C69.3866447,63.9889312 70.0732049,63.5544606 70.7092387,63.0505903 C67.8155357,60.5475547 62.0916259,59.1249453 56.7675282,59.6404861 C54.3196523,59.8770684 50.2509868,60.7002341 47.3785996,63.4844377 C48.5504041,63.1673518 49.949859,62.99745 51.4187876,63.0857717 C53.6385056,63.2200956 57.6991635,64.1067691 59.9557613,68.5357746 C60.1106109,68.8400003 59.9355169,69.1893217 59.5643515,69.3163374 C59.4728289,69.3478364 59.3776974,69.3626794 59.2842011,69.3626794 C58.9992575,69.3626794 58.7286936,69.2245598 58.6119079,68.995569 C56.7532613,65.3474663 53.6161184,64.4156404 51.3116447,64.2759912 C48.6110244,64.1154937 46.1355169,65.0286808 45.6185244,65.7306094 C45.6159305,65.7341219 45.6128853,65.7372378 45.6102914,65.740637 C45.602453,65.7508345 45.5942763,65.7607487 45.5857049,65.7705497 C45.5805733,65.7764415 45.5752726,65.7822201 45.5699154,65.7879421 C45.5611184,65.7972331 45.5520395,65.8061843 45.5425658,65.8150788 C45.5364192,65.8208574 45.5302162,65.8265793 45.5237876,65.8320746 C45.5145959,65.8400627 45.5050658,65.8478241 45.4952538,65.8553589 C45.4878665,65.8611375 45.4803665,65.8668028 45.472641,65.8722981 C45.4632801,65.8789832 45.4535808,65.8854416 45.4437124,65.8917867 C45.4349154,65.8973954 45.4260056,65.9029473 45.4168703,65.908216 C45.4080169,65.9134281 45.3989944,65.9184702 45.3897462,65.9233424 C45.3890695,65.9236823 45.3882801,65.9240222 45.387547,65.9244188 C45.3780169,65.9294609 45.3683177,65.9342197 45.358562,65.9388652 C45.3527538,65.9416412 45.3472274,65.9447005 45.3413064,65.9473632 C45.34125,65.9473632 45.34125,65.9473632 45.3411936,65.9474198 C45.3395583,65.9481563 45.3378102,65.9487228 45.3361748,65.9494027 C45.332735,65.9508756 45.3291259,65.9520653 45.3256861,65.9535383 C45.3168327,65.9572207 45.3079793,65.9606766 45.2990132,65.9640191 C45.2915132,65.9669084 45.2841823,65.9701376 45.2765132,65.9728003 C45.2720583,65.9742733 45.267547,65.975293 45.2630921,65.9768226 C45.2625282,65.9769926 45.2619643,65.9771625 45.261344,65.9773325 C45.2529981,65.9799952 45.2444831,65.9824879 45.235968,65.984924 C45.2272838,65.9874167 45.2188816,65.990306 45.2100846,65.9925721 C45.2050658,65.9938185 45.200047,65.994555 45.1950846,65.9957447 C45.1865695,65.9977275 45.1779981,65.9993705 45.1694831,66.0011833 C45.1557801,66.0039027 45.1421335,66.0065654 45.1283741,66.0086615 C45.1195207,66.0100212 45.1106673,66.0109843 45.1018139,66.0120607 C45.091438,66.0133071 45.0811184,66.01495 45.0707425,66.0157998 C45.0675846,66.016083 45.0643139,66.016083 45.061156,66.0163663 C45.0511748,66.0171028 45.0411372,66.0173861 45.0310996,66.0177826 C45.0203853,66.0182359 45.0097274,66.018859 44.9990695,66.0189157 C44.9977162,66.0189157 44.9964192,66.0190856 44.9950094,66.0190856 C44.993656,66.0190856 44.992359,66.0189157 44.9910056,66.0189157 C44.9804041,66.018859 44.9697462,66.0182359 44.9590883,66.0177826 C44.9489944,66.0173861 44.9389568,66.0171028 44.9289192,66.0163663 C44.9257613,66.016083 44.9224906,66.016083 44.9193327,66.0157998 C44.9090132,66.01495 44.8988064,66.0133071 44.8884868,66.0121173 C44.8795207,66.0109843 44.8705545,66.0100212 44.8616447,66.0086615 C44.8480545,66.0065654 44.8346335,66.0039593 44.8210996,66.00124 C44.8123026,65.9994271 44.8034492,65.9977275 44.7947086,65.995688 C44.7899154,65.9944983 44.7850094,65.9938185 44.7801598,65.9925721 C44.7714756,65.9903627 44.7630733,65.9874734 44.7544455,65.9849806 C44.7457049,65.9824879 44.7370207,65.9799952 44.7283929,65.9772192 C44.7261936,65.9764827 44.7238252,65.9759162 44.7216259,65.9751797 C44.719032,65.9743299 44.7163816,65.9737067 44.713844,65.9728569 C44.7061748,65.9702509 44.6989568,65.9670783 44.6915132,65.9642457 C44.6822086,65.9607899 44.6730733,65.9571641 44.6639944,65.9533684 C44.6531673,65.9488361 44.6425094,65.9440773 44.6320207,65.9390918 C44.6218703,65.934333 44.6118891,65.9293476 44.6020771,65.9241921 C44.597453,65.9217561 44.5924906,65.9196599 44.5879793,65.9171105 C44.5831297,65.9145045 44.578844,65.9115019 44.5741071,65.9087826 C44.5644079,65.9031173 44.5548214,65.8972254 44.5454041,65.8911635 C44.536156,65.885215 44.5270771,65.8791531 44.5182801,65.8729213 C44.5099906,65.8669728 44.5019267,65.8609109 44.4939756,65.8547358 C44.4847274,65.8475409 44.4757049,65.840176 44.4669643,65.8326412 C44.460141,65.8266926 44.4534868,65.8206874 44.4468891,65.8145123 C44.4378102,65.8059577 44.4290695,65.7972898 44.4206673,65.7883953 C44.4150282,65.7823901 44.4095019,65.7763849 44.4040883,65.7701531 C44.3956861,65.7605221 44.3876222,65.7507778 44.379953,65.7407503 C44.3773026,65.7372944 44.3742575,65.7341785 44.3716635,65.7306094 C43.8547838,65.0286808 41.3805733,64.1166834 38.6785432,64.2759912 C36.3740695,64.4156404 33.2368139,65.3474663 31.3782237,68.995569 C31.261438,69.2245598 30.9909305,69.3623961 30.7059305,69.3626794 C30.6124906,69.3626794 30.5175282,69.3478364 30.4257801,69.3163374 C30.0546147,69.1893217 29.8795207,68.8400003 30.0344267,68.5357746 C32.290968,64.1067691 36.3516823,63.2200956 38.571344,63.0857717 C40.0406673,62.9971667 41.4396147,63.1673518 42.6113628,63.4840412 C39.7388064,60.7002341 35.670141,59.8770684 33.2220395,59.6401462 C27.8970959,59.1254552 22.1743139,60.547838 19.2808929,63.0505903 C19.9169267,63.5544606 20.6034868,63.9889312 21.3321147,64.3337204 C21.3907049,64.3614803 21.4421898,64.395302 21.487359,64.4330328 C25.6460808,64.5408432 30.4183365,63.6941665 32.8457989,61.9793418 C30.5824342,61.6541546 27.98625,61.7433828 24.6356109,63.3284725 C24.2873402,63.4934455 23.8418515,63.3952095 23.6409868,63.1099058 C23.4400094,62.8244322 23.5592199,62.4595879 23.9074342,62.2947282 C28.3415695,60.1964204 31.7159492,60.4820074 34.4322462,61.0391314 C34.668468,61.0874562 34.8595771,61.2293716 34.9415132,61.417289 C35.0232801,61.6052632 34.985047,61.8144821 34.8396711,61.974413 C31.7352914,65.3908623 22.2432801,66.4663598 16.7255357,65.0269812 C17.362359,65.9185835 18.2661372,66.8746568 19.4615132,67.7559483 C21.3594079,68.7798917 25.1294267,67.6984457 27.2478665,66.6956905 C27.5960808,66.5313972 28.041344,66.6290101 28.2424342,66.9142005 C28.443468,67.1994475 28.3242011,67.564575 27.9759868,67.7294348 C26.5649154,68.3972018 24.2994079,69.1867157 22.1567763,69.3349195 C24.5229417,70.4189715 27.5774718,71.1348368 31.4072086,71.0172255 C31.8026786,71.0032322 32.1470019,71.2616258 32.1620019,71.5911754 C32.1770583,71.9207249 31.8635244,72.1975873 31.4615695,72.210051 C31.1664756,72.2190588 30.8755545,72.2235343 30.5888628,72.2235343 C25.1780357,72.2235343 21.252265,70.6460928 18.5941071,68.7159873 C18.5467951,68.6893604 18.4999342,68.6621671 18.4538628,68.633614 C18.3868139,68.5920875 18.3317199,68.5425729 18.2876222,68.4882429 C16.3553289,67.0116433 15.1410056,65.3612896 14.5519455,64.0639396 C14.4449718,63.8282072 14.529953,63.5625053 14.7643703,63.4001383 C14.9989004,63.2378279 15.3328477,63.2131273 15.5984492,63.3389533 C16.4097462,63.7228895 17.4521335,64.0046807 18.6291823,64.1873861 C15.6695583,62.0190555 13.6605169,58.5734866 13.2296898,55.1953346 C13.2140132,55.1419677 13.2079229,55.0877509 13.2104041,55.034044 C13.0389192,53.5119522 13.1898214,52.0079327 13.7218703,50.6452621 C13.8096711,50.4202936 14.0510808,50.2588331 14.3376034,50.2337925 C14.6218139,50.2076189 14.9016259,50.3240971 15.0458177,50.5286705 C15.6791447,51.427751 16.4021335,52.1909214 17.1883929,52.837217 C16.6942387,51.515393 16.4094643,50.1694349 16.3026034,48.8387164 C16.2947086,48.8044414 16.2867011,48.7701665 16.279765,48.7355516 C16.2662312,48.6679081 16.2678665,48.6012277 16.2814004,48.5372667 C16.0137124,44.1054852 17.6977162,39.8784471 20.1537688,37.3288429 C20.3357989,37.1393958 20.6389004,37.059572 20.9222086,37.1239862 C21.205235,37.1892503 21.412641,37.3876485 21.4480545,37.6268935 C21.6193139,38.7844809 21.9638628,39.7878593 22.4464568,40.6718135 C22.4575658,40.4318887 22.4761748,40.1926438 22.5026786,39.9544186 C22.5038064,39.9352699 22.5062312,39.9159513 22.5096711,39.896576 C22.6298966,38.8639648 22.8917763,37.8498224 23.2697086,36.8683686 C23.2732049,36.8492766 23.2777162,36.830128 23.2835808,36.8109793 C23.2971147,36.7670167 23.3167387,36.7256601 23.3407613,36.6868529 C25.0150094,32.5140316 28.7738628,28.9552137 32.6175846,27.1364311 C32.8677914,27.0178567 33.1803102,27.0317933 33.4131485,27.1725756 C33.6460432,27.313018 33.7553289,27.5531127 33.6918891,27.7843129 C33.4829605,28.5443107 33.3794831,29.2962638 33.3652726,30.0348468 C34.3158553,28.7589683 35.6006673,27.5988315 36.9365132,26.3929759 C39.9382613,23.6831574 43.3404981,20.6116672 44.273938,15.1383801 C44.2742199,15.1366238 44.2747838,15.1349809 44.2751222,15.1332813 C44.2776034,15.119628 44.2809868,15.1062012 44.2845959,15.0928312 C44.2862312,15.0867693 44.2875282,15.0805375 44.2894455,15.0744757 C44.2934492,15.0613889 44.298468,15.0485853 44.3035996,15.0358384 C44.305968,15.0298899 44.3079981,15.0237147 44.3106485,15.0178795 C44.3164568,15.0047927 44.3231673,14.9921024 44.330047,14.9794122 C44.3327538,14.9744268 44.3350658,14.969328 44.3379417,14.9644559 C44.3469643,14.948933 44.3570019,14.93392 44.3676034,14.9191336 C44.3686748,14.9176606 44.3695207,14.916131 44.3705921,14.914658 C44.4799342,14.7652645 44.6674342,14.6559812 44.8942951,14.6299209 C44.9108741,14.6280513 44.9273966,14.6273148 44.9439192,14.6264084 C44.9464568,14.6262384 44.9488816,14.6259552 44.9514192,14.6258418 C44.9696898,14.6249921 44.9878477,14.6248221 45.0059492,14.6251054 C45.0136748,14.625162 45.0214004,14.6251054 45.0292387,14.6253886 C45.0419831,14.6258418 45.0545583,14.6269183 45.0671898,14.627938 C45.0767763,14.6286745 45.0863064,14.6289011 45.0958929,14.6299209 C45.0997838,14.6303741 45.1035056,14.6312805 45.107453,14.6317337 C45.1143891,14.6326402 45.121156,14.6339432 45.1280357,14.634963 C45.145968,14.6377389 45.1637312,14.6406282 45.1810996,14.6443673 C45.1823402,14.6446506 45.1835808,14.6450472 45.1848214,14.6453304 C45.3476222,14.6812483 45.4851598,14.7609022 45.5804041,14.8665031 C45.5810244,14.8672962 45.5815883,14.8680327 45.5822086,14.8687126 C45.5951222,14.883159 45.6073026,14.8979454 45.6185808,14.9132417 C45.6221335,14.9180572 45.6251222,14.9231559 45.6285056,14.9280281 C45.6365695,14.9396986 45.6446335,14.951369 45.6517387,14.9635494 C45.6555169,14.9699512 45.658562,14.9766362 45.6620583,14.9831513 C45.6680921,14.9944819 45.6741823,15.0057558 45.6793703,15.0173696 C45.6821898,15.023828 45.6844455,15.0305697 45.6870395,15.0371414 C45.6919455,15.0494351 45.6967951,15.0617288 45.7006861,15.0743057 C45.7026034,15.0805375 45.7039568,15.0868826 45.7055921,15.0931144 C45.7092011,15.1064279 45.7125846,15.1196846 45.7150094,15.1332247 C45.7153477,15.1349809 45.715968,15.1366238 45.71625,15.1383801 C46.6495771,20.6116672 50.0519267,23.6831574 53.0536748,26.3931459 C54.3893515,27.5989448 55.6742199,28.7590816 56.6248026,30.0348468 C56.6105921,29.2963205 56.5071711,28.5443107 56.2982425,27.7843129 C56.2348026,27.5531127 56.3440883,27.313018 56.5769267,27.1725756 C56.810047,27.0317933 57.1221711,27.0178567 57.3726034,27.1364311 C61.2160996,28.9552137 64.9747838,32.513805 66.6490883,36.686513 C66.6731673,36.7254335 66.6928477,36.7669034 66.706438,36.8109793 C66.712359,36.8302413 66.7168703,36.8495032 66.7203665,36.8687085 C67.0976786,37.8486893 67.3592763,38.8612455 67.4797274,39.8922704 C67.4797838,39.8924404 67.4798402,39.8925537 67.4798402,39.892667 C67.4837312,39.9135719 67.486156,39.9343068 67.4873402,39.9549851 C67.513844,40.1930403 67.5323966,40.4320587 67.5434492,40.6718701 C68.0260996,39.7879159 68.3707049,38.7845375 68.5419643,37.6268935 C68.5773214,37.3876485 68.7847274,37.1892503 69.0676974,37.1239862 C69.3508929,37.0590054 69.6539944,37.1396791 69.8361936,37.3288429 C72.2921898,39.8783905 73.9761372,44.105202 73.7086748,48.5368701 C73.722265,48.6009445 73.7239568,48.6677948 73.7103665,48.7355516 C73.7034305,48.7701665 73.6953665,48.8044414 73.6874718,48.8387731 C73.5806109,50.1695482 73.2958365,51.5155063 72.8016823,52.8374436 C73.5879417,52.1910914 74.3109868,51.4278643 74.9443703,50.5286705 C75.0881673,50.3240971 75.3638628,50.2076189 75.6525282,50.2337925 C75.9390508,50.2588331 76.1804605,50.4202936 76.2682613,50.6452621 C76.8001974,52.0077061 76.9510996,53.5114424 76.7797274,55.0331942 C76.7823214,55.0873543 76.7761748,55.142081 76.7602726,55.1959012 M89.0092387,55.002715 C81.9044831,30.4965675 53.0991259,8.22463785 44.9506861,0.0560353206 C36.8021898,8.22463785 7.99677632,30.4965675 0.892020677,55.002715 C0.0793139098,57.8061239 -0.263204887,60.9421984 0.226043233,64.002188 C1.3787312,75.4390927 10.9914192,84.3648037 22.6793515,84.3648037 C33.482453,84.3648037 42.6330169,76.3957891 44.8484492,66.210119 C44.9429605,65.9427743 45.0208929,66.0670139 45.065047,66.2040005 C47.1480733,76.5639914 56.2595583,84.3648037 67.1858177,84.3648037 C77.17875,84.3648037 85.6491823,77.8377171 88.6177726,68.7973407 C90.5381109,64.2968394 90.2258177,59.1991039 89.0092387,55.002715" id="Fill-9" fill="#585AFA" mask="url(#mask-2)"></path>
                </g>
                <path d="M69.253997,58.8521483 C69.2260086,58.8547576 69.1980764,58.8559488 69.1705385,58.8559488 C68.8059565,58.8559488 68.491382,58.6309819 68.4489769,58.3263746 C68.4035309,57.9984538 68.6898353,57.7022984 69.088882,57.6646905 C72.0006951,57.3913381 74.3646214,56.1176032 75.2840732,54.9543665 C75.3823425,54.0761106 75.3626886,53.2083486 75.2104134,52.3818248 C70.3588934,57.7467132 61.5237207,58.1428728 55.1092961,56.7449127 C54.7211182,56.659997 54.4900022,56.3329271 54.5929457,56.0140254 C54.6961144,55.6951804 55.0948232,55.5046449 55.4821564,55.5898442 C57.2728544,55.9800478 64.7765762,57.3472069 70.5452954,54.3598435 C71.0485244,53.4439796 71.428762,52.4935142 71.6983409,51.5284707 C69.527518,53.0416938 65.6153288,54.028973 59.8855795,54.5208826 C59.8598437,54.5229246 59.8343331,54.5240591 59.809104,54.5240591 C59.441481,54.5240591 59.1257802,54.295632 59.0868104,53.9886991 C59.0450248,53.6605514 59.3349334,53.3667217 59.7343743,53.3322903 C67.2628746,52.6859783 71.4429533,51.1813773 72.1704842,48.8581938 C72.3161143,47.0285649 72.1119731,45.2130602 71.6406182,43.5448674 C70.6548277,44.6630654 69.4152263,45.7281698 67.9927708,46.6734166 C67.8581784,46.7630404 67.6964423,46.8064909 67.5360014,46.8064909 C67.3239199,46.8064909 67.113922,46.730651 66.970094,46.5847572 C66.7176347,46.3280249 66.7659528,45.9520022 67.0781621,45.7445063 C68.7472764,44.6351572 70.1396036,43.3554097 71.1234794,42.0293187 C70.7190828,41.0265538 70.2155159,40.1013872 69.633953,39.2896684 C68.1875073,44.2356509 63.5274576,46.3297833 59.0079697,48.3609522 C55.5027113,49.9360611 52.1920205,51.4239286 50.3584669,54.1649402 C50.1756128,54.4388598 49.7669926,54.5506626 49.4199808,54.4208216 C49.0739263,54.2912643 48.9076287,53.9641944 49.0387859,53.6709886 C51.1020475,49.055366 56.9412165,41.0253059 65.9349153,39.5416359 C65.8342808,38.927373 65.6798656,38.3211648 65.4789907,37.7263581 C61.1802568,38.6956559 57.7478134,40.2788196 55.0453225,42.5422728 C54.7027032,42.8625925 54.3466811,43.1840468 53.9769744,43.5065221 C48.7064723,48.1041632 46.3787563,53.0313701 45.8455115,61.3444257 C50.8204172,52.3397924 62.591562,48.2987261 69.6772027,47.8784021 C70.0757426,47.8562231 70.4258517,48.1024615 70.4546849,48.4315167 C70.483687,48.760572 70.1824591,49.0465171 69.7819483,49.0703979 C62.5292778,49.5004784 51.545414,53.8013401 47.0508171,62.091536 C49.4315816,60.1391565 52.6936727,58.9039939 56.5812523,58.5271772 C62.3753695,57.9639657 68.4207632,59.4822939 71.6630878,62.2484909 C73.1285116,60.7900631 74.2351537,58.9490894 74.8362016,57.0427698 C73.3489277,57.9779198 71.323397,58.6577555 69.253997,58.8521483" id="Fill-12" fill="#585AFA"></path>
                <path d="M20.2180427,49.0704283 C19.8175871,49.0465476 19.5163584,48.7606032 19.5453043,48.4315487 C19.5740249,48.1024942 19.9221076,47.8591493 20.3228449,47.8783786 C27.4084486,48.2987584 39.1795129,52.3397586 44.1544885,61.3442576 C43.6212422,53.0313347 41.2934636,48.1041959 36.0230597,43.5065654 C35.6531268,43.1839207 35.2969347,42.8623538 34.9541456,42.5418078 C32.2517036,40.2785868 28.8193072,38.6954268 24.5208994,37.7263581 C24.3199676,38.3211634 24.165552,38.9274269 24.0649172,39.5416885 C33.0587532,41.0252983 38.8979944,49.0553965 40.9612054,53.6710084 C41.0924755,53.9642135 40.9262338,54.2912827 40.5801221,54.4208397 C40.234123,54.5503401 39.8248259,54.4385943 39.6415208,54.1649589 C37.8080185,51.4239536 34.4970934,49.9360895 30.992107,48.3609843 C26.4724941,46.3298201 21.8123191,44.2356926 20.3659258,39.2897215 C19.7843613,40.1013817 19.280793,41.0264895 18.8764516,42.0293087 C19.8601612,43.3553966 21.2524921,44.635198 22.9218363,45.7445444 C23.2340464,45.9519832 23.2823646,46.3280617 23.0299047,46.5847934 C22.8863015,46.7306302 22.6761341,46.8065266 22.4639394,46.8065266 C22.3035544,46.8065266 22.1419868,46.7630762 22.0072814,46.6734526 C20.5845968,45.728208 19.3450483,44.6631061 18.3593114,43.5449107 C17.8880115,45.2130429 17.6838698,47.0284299 17.8295003,48.8580546 C18.5568642,51.1813461 22.7368417,52.6860004 30.2656441,53.3323109 C30.6650298,53.3667422 30.9549955,53.6605145 30.9132661,53.9887182 C30.8741835,54.2956504 30.5585945,54.524077 30.1909705,54.524077 C30.1657414,54.524077 30.1401744,54.5229425 30.1144385,54.5208437 C24.3846735,54.028992 20.4724737,53.0416017 18.3015885,51.5284388 C18.5711682,52.49348 18.9514068,53.4438865 19.4545809,54.3596348 C25.2233158,57.3470481 32.7270018,55.9800623 34.517761,55.5898596 C34.9043632,55.5043202 35.3039178,55.694912 35.4069178,56.0140398 C35.5099179,56.3329408 35.2788013,56.6599532 34.8905097,56.7448687 C28.4770249,58.1425987 19.6413213,57.7469505 14.7895628,52.3814506 C14.6372871,53.2081426 14.6176895,54.0760728 14.7159028,54.9543834 C15.6353571,56.1176741 17.9992899,57.3913493 20.9111109,57.6647011 C21.3101586,57.7023089 21.5964638,57.9984637 21.551074,58.3263837 C21.5086125,58.6309335 21.1940372,58.8559566 20.8293415,58.8559566 C20.8018599,58.8559566 20.7740403,58.8547654 20.7459954,58.8521562 C18.6765898,58.6577638 16.6509972,57.9779297 15.1637756,57.0426684 C15.7648251,58.9491538 16.871414,60.7901232 18.3368417,62.2484909 C21.5790625,59.4824705 27.6258244,57.9650534 33.4182115,58.527129 C37.3061959,58.9040584 40.5685212,60.1392749 42.9494048,62.0917632 C38.4547957,53.8014163 27.4708456,49.5005078 20.2180427,49.0704283" id="Fill-14" fill="#585AFA"></path>
            </g>
        </g>
    </g>
</svg>