<?xml version="1.0" encoding="UTF-8"?>
<svg width="40px" height="40px" viewBox="0 0 40 40" version="1.1" xmlns="http://www.w3.org/2000/svg" xmlns:xlink="http://www.w3.org/1999/xlink">
    <!-- Generator: Sketch 48.2 (47327) - http://www.bohemiancoding.com/sketch -->
    <title>Windows_40</title>
    <desc>Created with Sketch.</desc>
    <defs>
        <polygon id="path-1" points="0 0.0233480502 37.4958412 0.0233480502 37.4958412 35.1520016 0 35.1520016"></polygon>
    </defs>
    <g id="Page-1" stroke="none" stroke-width="1" fill="none" fill-rule="evenodd">
        <g id="Windows_40">
            <g id="Page-1-Copy-4" transform="translate(1.250000, 0.625000)">
                <path d="M27.7922756,39.0625 L27.7922756,37.9557778 C23.3305967,37.8576036 19.6341901,34.6302543 18.7791623,30.3624302 C18.7607786,30.3051185 18.7282899,30.2531398 18.6888661,30.3650137 C17.7832245,34.5437654 14.0970206,37.8285212 9.70772443,37.9544741 L9.70772443,39.0625 L27.7922756,39.0625 Z" id="Fill-1" fill="#585AFA"></path>
                <path d="M13.128289,16.1765535 C12.5459096,15.4125322 12.1642333,14.6688471 11.9888267,13.9519623 C11.9558968,13.8173945 12.0623669,13.6863419 12.2265699,13.6594236 C12.390632,13.6327177 12.5506542,13.7195828 12.5835371,13.8541742 C12.8525425,14.9536476 13.6585254,16.1347488 14.9814977,17.370583 C15.1365405,17.5005976 15.2842551,17.6354012 15.4288223,17.7756075 C16.9246176,19.0779706 17.8811571,20.4332739 18.4225737,22.2035101 L18.4225737,18.6556769 C18.4225737,16.6845327 18.4248755,13.3854282 16.9562791,11.5015737 C16.8661095,11.3859501 16.9086224,11.232273 17.0497604,11.1583598 C17.1910394,11.0845881 17.3766163,11.1184424 17.4668328,11.2340188 C17.8904348,11.7773857 18.1934975,12.422339 18.4225737,13.1140986 L18.4225737,9.67858609 C18.4225737,9.54132885 18.5570412,9.43006979 18.7245091,9.43006979 C18.8920004,9.43006979 19.0264444,9.54132885 19.0264444,9.67858609 L19.0264444,13.1140986 C19.2555206,12.422339 19.563962,11.7773857 19.987564,11.2340188 C20.077804,11.1183245 20.267092,11.0845881 20.40823,11.1583598 C20.5493445,11.232273 20.5880054,11.3859501 20.4978359,11.5015737 C19.0291689,13.3854282 19.0264444,16.6845327 19.0264444,18.6556769 L19.0264444,22.2035337 C19.5886947,20.4332739 20.5303664,19.0779706 22.0261617,17.7756075 C22.1706585,17.6354956 22.322413,17.5007627 22.4773618,17.3708425 C23.8005924,16.1348196 24.6075853,14.953624 24.8765203,13.8541742 C24.9094971,13.7195828 25.0694958,13.6328356 25.2339337,13.6594236 C25.3981602,13.6863419 25.5048417,13.8173945 25.4718884,13.9519623 C25.2965052,14.6687999 24.9149228,15.4125322 24.3324496,16.1766243 C25.1464183,15.7789369 26.0618307,15.4664631 27.0876827,15.2341544 C26.4952741,13.9142153 25.3665927,12.7684547 24.1474129,12.0475121 C24.5475975,14.9696193 21.8115774,17.3326002 20.3984121,18.0011689 C20.3506615,18.0237227 20.2985186,18.0344334 20.2470804,18.0344334 C20.1422545,18.0344334 20.0403645,17.9898684 19.9841583,17.9101752 C19.9004479,17.7912724 19.950101,17.6393411 20.0951615,17.5706653 C21.2662148,17.0166112 23.0284789,15.4354635 23.4713878,13.498551 C23.4617109,13.484679 23.4533257,13.4699577 23.4468666,13.4542219 C23.2283598,12.9223678 22.825568,12.4574201 22.33007,11.9794261 C21.3783924,12.5664615 20.7233654,13.9557134 20.7500945,15.3107099 C21.3265784,14.8982776 21.8116009,13.867881 21.9599027,13.3211168 C21.9962383,13.1870445 22.1585388,13.1030576 22.3217083,13.1324294 C22.4852067,13.1621787 22.5882476,13.2949063 22.5518885,13.4288607 C22.5458991,13.4513201 21.8852821,15.6785065 20.5487104,15.9559935 C20.5241187,15.9610894 20.4991042,15.9636373 20.4742306,15.9636373 C20.4123404,15.9636373 20.3513191,15.9481139 20.29974,15.9183882 C20.2274211,15.8766542 20.1809153,15.8112577 20.1723893,15.7390431 C19.9796017,14.1066067 20.7373876,12.3695405 21.9295565,11.6053541 C21.8343606,11.5185362 21.7370272,11.4306566 21.6379793,11.3412908 C20.5526328,10.3616874 19.3472404,9.27372676 18.730475,7.54527163 C18.1136626,9.27370317 16.9083406,10.3616874 15.8229941,11.34122 C15.7239462,11.4306095 15.6265893,11.5185126 15.5313934,11.6053305 C16.7235623,12.3694934 17.4813717,14.1065831 17.2885841,15.7390431 C17.2800815,15.8112577 17.2335757,15.8766542 17.1612334,15.9183882 C17.1096073,15.9481139 17.0485391,15.9636373 16.9867427,15.9636373 C16.9618692,15.9636373 16.9368077,15.9610894 16.912263,15.9559935 C15.5757148,15.6785065 14.9150743,13.4513201 14.9090849,13.4288607 C14.8727023,13.2949063 14.9757901,13.1621787 15.139265,13.1324294 C15.3033976,13.1029396 15.4647351,13.1870445 15.5010707,13.3211168 C15.6493725,13.867881 16.134395,14.8982776 16.7108554,15.3107099 C16.7376079,13.9557134 16.0825575,12.5664379 15.1308799,11.9794025 C14.6353819,12.4574201 14.2326135,12.9223678 14.0141068,13.4542219 C14.0076242,13.4699813 13.9992625,13.4847026 13.9895621,13.4985981 C14.432424,15.4354871 16.1946881,17.0166112 17.3658119,17.5706653 C17.5108489,17.6393411 17.5605255,17.7912724 17.4768151,17.9101752 C17.4206558,17.9898684 17.3187189,18.0344334 17.213893,18.0344334 C17.1624078,18.0344334 17.1103119,18.0237227 17.0625378,18.0011689 C15.6493725,17.3326002 12.9133054,14.9696193 13.313537,12.0475121 C12.0943337,12.7685255 10.9656054,13.9142389 10.3731733,15.2341544 C11.3990017,15.4664395 12.3143437,15.7789133 13.128289,16.1765535" id="Fill-3" fill="#585AFA"></path>
                <path d="M21.9206681,20.8673919 C22.6426266,20.3956779 23.4712412,20.0251345 24.2846059,19.6615035 C25.4925468,19.1214412 26.6601338,18.5991537 27.4732403,17.7836056 C27.4711523,17.7658308 27.4711523,17.7476798 27.4739442,17.7292232 C27.5138523,17.4640119 27.5259584,17.1996001 27.513688,16.9375629 C24.979959,17.3826617 23.0616262,19.2437017 21.9206681,20.8673919" id="Fill-5" fill="#585AFA"></path>
                <path d="M13.2154294,19.6615035 C14.028735,20.0251345 14.8573607,20.3957719 15.5793319,20.8673919 C14.4383908,19.2435842 12.5202743,17.3826382 9.986325,16.9375629 C9.97403134,17.1996236 9.98613731,17.4640119 10.0260683,17.7292232 C10.0288367,17.7476563 10.0288601,17.7658308 10.0267486,17.7835821 C10.8398666,18.5991537 12.0074831,19.1214412 13.2154294,19.6615035" id="Fill-7" fill="#585AFA"></path>
                <g id="Group-11">
                    <mask id="mask-2" fill="white">
                        <use xlink:href="#path-1"></use>
                    </mask>
                    <g id="Clip-10"></g>
                    <path d="M31.9834469,22.9982921 C31.8038416,24.4057847 30.9667881,25.8412967 29.7337289,26.7447442 C30.2241659,26.668617 30.6584939,26.5512276 30.9965578,26.3912305 C31.1073426,26.338803 31.2464403,26.349095 31.3440672,26.4167243 C31.4417646,26.4843772 31.4771499,26.5950863 31.4325775,26.6933082 C31.1872298,27.2337054 30.6813322,27.921164 29.876398,28.5362958 C29.857977,28.5590985 29.8348802,28.5799184 29.8067552,28.5973392 C29.7871123,28.6095195 29.767117,28.6211334 29.7469572,28.6324876 C28.639321,29.4362025 27.0039356,30.0929977 24.7505522,30.0931393 C24.6308623,30.0931393 24.5100681,30.0912745 24.3869008,30.0875212 C24.2194196,30.0823281 24.0887805,29.9669687 24.0950775,29.8296564 C24.101304,29.6924621 24.2447016,29.5848925 24.4095512,29.5905106 C26.0065672,29.6395625 27.2793351,29.341309 28.2649554,28.8896442 C27.3718633,28.8281051 26.4274789,28.4989285 25.839227,28.2205978 C25.6941612,28.1519063 25.6444431,27.9997698 25.7282072,27.8809169 C25.8119713,27.7620875 25.9974272,27.7214155 26.1426104,27.789871 C27.0262336,28.2081578 28.5993773,28.6590672 29.3894854,28.2302524 C29.8863134,27.8634253 30.2619243,27.4655808 30.5268914,27.0945755 C28.2278548,27.6939625 24.2726856,27.2463107 22.9793586,25.8226721 C22.9187617,25.7560342 22.9028548,25.6688596 22.9369478,25.5905371 C22.9710644,25.5122382 23.0506696,25.4531068 23.1491189,25.4329714 C24.2806743,25.2011905 25.6867364,25.0819599 27.5343633,25.9561367 C27.6794525,26.0248283 27.7291706,26.1768467 27.6454065,26.2957941 C27.5616189,26.4146706 27.3759986,26.4556023 27.2310033,26.3868635 C25.8350211,25.7261734 24.7534657,25.6892311 23.8101621,25.8247258 C24.8216048,26.5391652 26.8100681,26.8919708 28.5428689,26.8470498 C28.5616894,26.8313522 28.583118,26.8172599 28.607507,26.8057168 C28.911102,26.6620547 29.1971687,26.4810253 29.4621828,26.2710793 C28.2564732,25.2281478 25.8715108,24.6353939 23.6531367,24.8502026 C22.6331884,24.9487785 20.9379112,25.2917642 19.7410832,26.4518491 C20.2293351,26.3197299 20.8124413,26.2489375 21.4244948,26.2857382 C22.3493773,26.3417065 24.0413181,26.7111538 24.9815672,28.5565727 C25.0460879,28.6833335 24.973132,28.8288841 24.8184798,28.8818072 C24.7803454,28.8949318 24.7407072,28.9011164 24.7017505,28.9011164 C24.583024,28.9011164 24.470289,28.8435666 24.4216283,28.7481538 C23.6471922,27.2281109 22.3400493,26.8398502 21.379852,26.781663 C20.2545935,26.714789 19.223132,27.0952836 19.0077185,27.3877539 C19.0066377,27.3892174 19.0053689,27.3905157 19.0042881,27.3919321 C19.0010221,27.396181 18.9976151,27.400312 18.9940437,27.4043957 C18.9919055,27.4068506 18.9896969,27.4092584 18.9874648,27.4116425 C18.9837993,27.4155138 18.9800164,27.4192435 18.9760691,27.4229495 C18.973508,27.4253572 18.9709234,27.4277414 18.9682448,27.4300311 C18.9644149,27.4333595 18.9604441,27.4365934 18.9563557,27.4397329 C18.9532777,27.4421406 18.9501527,27.4445012 18.9469337,27.4467909 C18.9430334,27.4495763 18.938992,27.4522673 18.9348802,27.4549111 C18.9312148,27.4572481 18.9275023,27.4595614 18.923696,27.4617567 C18.920007,27.4639284 18.9162477,27.4660293 18.9123943,27.4680593 C18.9121123,27.4682009 18.9117834,27.4683426 18.9114779,27.4685078 C18.907507,27.4706087 18.9034657,27.4725915 18.8994008,27.4745272 C18.8969807,27.4756838 18.8946781,27.4769585 18.892211,27.478068 C18.8921875,27.478068 18.8921875,27.478068 18.892164,27.4780916 C18.8914826,27.4783985 18.8907542,27.4786345 18.8900728,27.4789178 C18.8886396,27.4795315 18.8871358,27.4800272 18.8857025,27.480641 C18.8820136,27.4821753 18.8783247,27.4836152 18.8745888,27.485008 C18.8714638,27.4862118 18.8684093,27.4875573 18.8652138,27.4886668 C18.8633576,27.4892805 18.8614779,27.4897054 18.8596217,27.4903428 C18.8593867,27.4904136 18.8591518,27.4904844 18.8588933,27.4905552 C18.8554159,27.4916647 18.851868,27.4927033 18.84832,27.4937183 C18.8447016,27.494757 18.8412007,27.4959608 18.8375352,27.496905 C18.8354441,27.4974244 18.8333529,27.4977312 18.8312852,27.4982269 C18.8277373,27.4990531 18.8241659,27.4997377 18.820618,27.5004931 C18.8149084,27.5016261 18.8092223,27.5027356 18.8034892,27.503609 C18.7998003,27.5041755 18.7961114,27.5045768 18.7924225,27.5050253 C18.7880992,27.5055446 18.7837993,27.5062292 18.779476,27.5065832 C18.7781602,27.5067013 18.7767975,27.5067013 18.7754817,27.5068193 C18.7713228,27.5071262 18.7671405,27.5072442 18.7629582,27.5074094 C18.7584939,27.5075983 18.7540531,27.5078579 18.7496123,27.5078815 C18.7490484,27.5078815 18.748508,27.5079524 18.7479206,27.5079524 C18.7473567,27.5079524 18.7468163,27.5078815 18.7462523,27.5078815 C18.7418351,27.5078579 18.7373943,27.5075983 18.7329535,27.5074094 C18.7287477,27.5072442 18.7245653,27.5071262 18.720383,27.5068193 C18.7190672,27.5067013 18.7177044,27.5067013 18.7163886,27.5065832 C18.7120888,27.5062292 18.707836,27.5055446 18.7035362,27.5050489 C18.6998003,27.5045768 18.6960644,27.5041755 18.692352,27.503609 C18.6866894,27.5027356 18.6810973,27.5016497 18.6754582,27.5005167 C18.6717928,27.4997613 18.6681039,27.4990531 18.6644619,27.4982033 C18.6624648,27.4977076 18.6604206,27.4974244 18.6583999,27.496905 C18.6547815,27.4959844 18.6512805,27.4947806 18.6476856,27.4937419 C18.6440437,27.4927033 18.6404253,27.4916647 18.6368304,27.490508 C18.635914,27.4902011 18.6349272,27.4899651 18.6340108,27.4896582 C18.63293,27.4893041 18.6318257,27.4890445 18.6307683,27.4886904 C18.6275728,27.4876045 18.6245653,27.4862826 18.6214638,27.4851024 C18.6175869,27.4836624 18.6137805,27.4821517 18.6099977,27.4805701 C18.6054864,27.4786817 18.6010456,27.4766989 18.5966753,27.4746216 C18.592446,27.4726388 18.5882871,27.4705615 18.5841988,27.4684134 C18.5822721,27.4673984 18.5802044,27.466525 18.5783247,27.4654627 C18.576304,27.4643769 18.5745183,27.4631258 18.5725446,27.4619927 C18.5685033,27.4596322 18.5645089,27.4571772 18.5605851,27.4546515 C18.5567317,27.4521729 18.5529488,27.4496471 18.5492834,27.4470506 C18.5458294,27.444572 18.5424695,27.4420462 18.5391565,27.4394732 C18.5353031,27.4364754 18.5315437,27.4334067 18.5279018,27.4302671 C18.5250587,27.4277886 18.5222862,27.4252864 18.5195371,27.4227134 C18.5157542,27.419149 18.5121123,27.4155374 18.5086114,27.4118314 C18.5062617,27.4093292 18.5039591,27.406827 18.5017035,27.4042305 C18.4982025,27.4002175 18.4948426,27.3961574 18.4916471,27.3919793 C18.4905428,27.3905393 18.489274,27.3892411 18.4881931,27.3877539 C18.2728266,27.0952836 17.2419055,26.7152847 16.1160597,26.781663 C15.1558623,26.8398502 13.8486725,27.2281109 13.0742599,28.7481538 C13.0255992,28.8435666 12.9128877,28.9009984 12.7941377,28.9011164 C12.7552044,28.9011164 12.7156367,28.8949318 12.6774084,28.8818072 C12.5227561,28.8288841 12.4498003,28.6833335 12.5143445,28.5565727 C13.45457,26.7111538 15.1465343,26.3417065 16.0713933,26.2857382 C16.6836114,26.2488195 17.2665061,26.3197299 17.7547345,26.4516838 C16.557836,25.2917642 14.8625587,24.9487785 13.8425164,24.8500609 C11.6237899,24.6356063 9.23929746,25.2282658 8.03370536,26.2710793 C8.29871945,26.4810253 8.58478618,26.6620547 8.88838111,26.8057168 C8.9127937,26.8172835 8.93424577,26.8313759 8.95306626,26.847097 C10.685867,26.892018 12.6743069,26.5392361 13.6857495,25.8247258 C12.7426809,25.6892311 11.6609375,25.7264095 10.2648379,26.3868635 C10.1197251,26.4556023 9.93410479,26.4146706 9.85041118,26.2957941 C9.76667058,26.1768467 9.81634164,26.0248283 9.96143092,25.9561367 C11.8089873,25.0818418 13.2149789,25.2008364 14.3467693,25.4329714 C14.445195,25.4531068 14.5248238,25.5122382 14.5589638,25.5905371 C14.5930334,25.6688596 14.5771029,25.7560342 14.5165296,25.8226721 C13.2230381,27.2461926 9.26803336,27.6943166 6.96897321,27.0945755 C7.23431626,27.4660765 7.61089051,27.8644403 8.10896382,28.2316451 C8.89975329,28.6582882 10.4705945,28.2076857 11.3532777,27.789871 C11.498367,27.7214155 11.6838933,27.7620875 11.7676809,27.8809169 C11.851445,27.9997698 11.8017505,28.1519063 11.6566612,28.2205978 C11.0687148,28.4988341 10.1247533,28.8277982 9.23199013,28.8895498 C10.2178924,29.3412381 11.4906133,29.6395153 13.0863369,29.5905106 C13.2511161,29.5846801 13.3945841,29.6923441 13.4008341,29.8296564 C13.4071076,29.9669687 13.2764685,30.0823281 13.1089873,30.0875212 C12.9860315,30.0912745 12.8648144,30.0931393 12.7453595,30.0931393 C10.4908482,30.0931393 8.85511043,29.435872 7.74754464,28.6316614 C7.7278313,28.6205668 7.70830592,28.6092363 7.68910949,28.5973392 C7.66117246,28.5800365 7.63821664,28.5594054 7.61984258,28.5367679 C6.81472039,27.9215181 6.30875235,27.2338706 6.06331062,26.6933082 C6.01873825,26.5950863 6.05414709,26.4843772 6.15182096,26.4167243 C6.24954182,26.349095 6.38868656,26.338803 6.49935385,26.3912305 C6.83739427,26.551204 7.27172227,26.668617 7.7621593,26.7447442 C6.52898261,25.8412731 5.69188205,24.4056194 5.51237077,22.9980561 C5.50583882,22.9758199 5.50330122,22.9532295 5.50433506,22.9308517 C5.43288299,22.2966468 5.49575893,21.669972 5.71744596,21.1021925 C5.75402961,21.0084557 5.85461701,20.9411804 5.97400141,20.9307469 C6.09242246,20.9198412 6.20901081,20.9683738 6.2690907,21.0536127 C6.53297697,21.4282296 6.83422227,21.7462172 7.16183036,22.0155071 C6.9559328,21.4647471 6.83727679,20.9039312 6.79275141,20.3494652 C6.78946194,20.3351839 6.78612547,20.3209027 6.78323543,20.3064798 C6.77759633,20.278295 6.77827773,20.2505116 6.78391682,20.2238611 C6.67238017,18.3772855 7.3740484,16.6160196 8.39740367,15.5536845 C8.47324953,15.4747483 8.59954182,15.4414883 8.71758694,15.4683276 C8.83551457,15.495521 8.92193374,15.5781869 8.93668938,15.6778723 C9.00804746,16.1602004 9.15160949,16.5782747 9.35269032,16.9465889 C9.35731908,16.8466203 9.36507284,16.7469349 9.37611607,16.6476744 C9.376586,16.6396958 9.37759633,16.6316464 9.37902961,16.6235734 C9.42912359,16.1933187 9.53824013,15.7707593 9.69571194,15.3618203 C9.6971687,15.3538653 9.6990484,15.3458867 9.70149201,15.337908 C9.70713111,15.3195903 9.7153078,15.3023584 9.7253172,15.2861887 C10.4229206,13.5475132 11.9891095,12.0646724 13.5906602,11.3068463 C13.6949131,11.2574403 13.8251292,11.2632472 13.9221452,11.3219065 C14.0191847,11.3804242 14.0647204,11.4804636 14.0382871,11.576797 C13.9512336,11.8934628 13.908118,12.2067766 13.9021969,12.5145195 C14.298273,11.9829035 14.8336114,11.4995131 15.3902138,10.9970733 C16.6409422,9.86798226 18.0585409,8.58819469 18.4474742,6.30765836 C18.4475916,6.30692659 18.4478266,6.30624204 18.4479676,6.30553388 C18.4490014,6.29984499 18.4504112,6.29425052 18.4519149,6.28867966 C18.4525963,6.28615389 18.4531367,6.2835573 18.4539356,6.28103153 C18.4556039,6.27557869 18.457695,6.27024388 18.4598332,6.26493268 C18.46082,6.26245412 18.4616659,6.25988113 18.4627702,6.25744978 C18.4651903,6.25199695 18.4679864,6.24670935 18.4708529,6.24142175 C18.4719807,6.23934448 18.4729441,6.23722 18.4741424,6.23518994 C18.4779018,6.22872207 18.4820841,6.22246666 18.4865014,6.21630566 C18.4869478,6.21569192 18.4873003,6.21505458 18.4877467,6.21444084 C18.5333059,6.15219353 18.6114309,6.10665882 18.7059563,6.09580036 C18.7128642,6.09502138 18.7197486,6.09471451 18.726633,6.09433682 C18.7276903,6.09426601 18.7287007,6.09414798 18.729758,6.09410077 C18.7373708,6.09374669 18.7449366,6.09367587 18.7524789,6.0937939 C18.7556978,6.09381751 18.7589168,6.0937939 18.7621828,6.09391193 C18.767493,6.09410077 18.7727326,6.09454927 18.7779958,6.09497417 C18.7819901,6.09528104 18.785961,6.09537546 18.7899554,6.09580036 C18.7915766,6.0959892 18.7931273,6.09636688 18.7947721,6.09655573 C18.7976621,6.09693341 18.8004817,6.09747634 18.8033482,6.09790123 C18.81082,6.09905789 18.8182213,6.10026177 18.8254582,6.10181972 C18.8259751,6.10193775 18.826492,6.10210298 18.8270089,6.10222101 C18.8948426,6.1171868 18.9521499,6.15037592 18.9918351,6.19437629 C18.9920935,6.19470677 18.9923285,6.19501364 18.9925869,6.1952969 C18.9979676,6.20131626 19.0030428,6.20747726 19.007742,6.2138507 C19.0092223,6.21585716 19.0104676,6.21798164 19.0118773,6.2200117 C19.0152373,6.2248744 19.0185973,6.2297371 19.0215578,6.23481225 C19.023132,6.23747966 19.0244008,6.24026509 19.0258576,6.2429797 C19.0283717,6.24770077 19.0309093,6.25239824 19.033071,6.25723733 C19.0342458,6.25992834 19.0351856,6.26273738 19.0362664,6.2654756 C19.0383106,6.27059796 19.0403313,6.27572032 19.0419525,6.28096071 C19.0427514,6.2835573 19.0433153,6.2862011 19.0439967,6.28879768 C19.0455005,6.29434494 19.0469102,6.29986859 19.0479206,6.30551027 C19.0480616,6.30624204 19.04832,6.30692659 19.0484375,6.30765836 C19.4373238,8.58819469 20.8549695,9.86798226 22.1056978,10.9971441 C22.6622298,11.4995603 23.1975916,11.9829507 23.5936678,12.5145195 C23.5877467,12.2068002 23.5446546,11.8934628 23.457601,11.576797 C23.4311678,11.4804636 23.4767035,11.3804242 23.5737195,11.3219065 C23.6708529,11.2632472 23.8009046,11.2574403 23.9052514,11.3068463 C25.5067082,12.0646724 27.0728266,13.5474188 27.7704535,15.2860471 C27.7804864,15.302264 27.7886866,15.3195431 27.7943492,15.337908 C27.7968163,15.3459339 27.798696,15.3539597 27.8001527,15.3619619 C27.9573661,15.7702872 28.0663651,16.1921856 28.1165531,16.6217793 C28.1165766,16.6218502 28.1166001,16.6218974 28.1166001,16.6219446 C28.1182213,16.630655 28.1192317,16.6392945 28.1197251,16.6479105 C28.1307683,16.7471001 28.1384986,16.8466911 28.1431039,16.9466125 C28.3442082,16.5782983 28.4877937,16.160224 28.5591518,15.6778723 C28.5738839,15.5781869 28.6603031,15.495521 28.7782072,15.4683276 C28.8962054,15.4412523 29.0224977,15.4748663 29.098414,15.5536845 C30.1217458,16.615996 30.8233905,18.3771675 30.7119478,20.2236959 C30.7176104,20.2503935 30.7183153,20.2782478 30.7126527,20.3064798 C30.7097627,20.3209027 30.7064027,20.3351839 30.7031133,20.3494888 C30.6585879,20.9039784 30.5399319,21.4647943 30.3340343,22.0156015 C30.6616424,21.7462881 30.9629112,21.4282768 31.226821,21.0536127 C31.2867364,20.9683738 31.4016095,20.9198412 31.5218867,20.9307469 C31.6412711,20.9411804 31.7418586,21.0084557 31.7784422,21.1021925 C32.0000822,21.6698776 32.0629582,22.2964343 31.9915531,22.9304976 C31.9926339,22.9530643 31.9900728,22.9758671 31.9834469,22.9982921 M37.0871828,22.9177979 C34.126868,12.7069031 22.1246358,3.42693244 18.7294525,0.0233480502 C15.3342458,3.42693244 3.33199013,12.7069031 0.371675282,22.9177979 C0.0330474624,24.085885 -0.109668703,25.3925826 0.0941846805,26.6675783 C0.574471335,31.4329553 4.57975799,35.1520016 9.44972979,35.1520016 C13.9510221,35.1520016 17.763757,31.8315788 18.6868539,27.5875496 C18.7262336,27.4761559 18.7587054,27.5279225 18.7771029,27.5850002 C19.6450305,31.9016631 23.4414826,35.1520016 27.9940907,35.1520016 C32.1578125,35.1520016 35.6871593,32.4323821 36.9240719,28.6655586 C37.7242129,26.7903498 37.5940907,24.6662933 37.0871828,22.9177979" id="Fill-9" fill="#585AFA" mask="url(#mask-2)"></path>
                </g>
                <path d="M28.8558321,24.5217285 C28.8441702,24.5228157 28.8325318,24.523312 28.8210577,24.523312 C28.6691485,24.523312 28.5380758,24.4295758 28.5204071,24.3026561 C28.5014712,24.1660224 28.6207647,24.0426243 28.7870342,24.0269544 C30.0002896,23.9130575 30.9852589,23.3823347 31.3683638,22.8976527 C31.4093094,22.5317127 31.4011203,22.1701452 31.3376723,21.8257604 C29.3162056,24.0611305 25.6348836,24.226197 22.9622067,23.6437136 C22.8004659,23.6083321 22.7041676,23.472053 22.7470607,23.3391773 C22.7900477,23.2063252 22.9561763,23.1269354 23.1175652,23.1624351 C23.8636893,23.3250199 26.9902401,23.8946695 29.3938731,22.6499348 C29.6035518,22.2683248 29.7619841,21.8722976 29.8743087,21.4701961 C28.9697992,22.1007058 27.3397204,22.5120721 24.9523248,22.7170344 C24.9416015,22.7178853 24.9309721,22.718358 24.92046,22.718358 C24.7672838,22.718358 24.6357418,22.62318 24.6195043,22.4952913 C24.6020937,22.3585631 24.7228889,22.236134 24.8893226,22.2217876 C28.0261978,21.952491 29.7678972,21.3255739 30.0710351,20.3575807 C30.1317143,19.5952354 30.0466555,18.8387751 29.8502576,18.1436948 C29.4395115,18.6096106 28.923011,19.0534041 28.3303211,19.4472569 C28.274241,19.4846001 28.2068509,19.5027045 28.1400006,19.5027045 C28.0516333,19.5027045 27.9641342,19.4711046 27.9042058,19.4103155 C27.7990145,19.3033437 27.819147,19.1466676 27.9492342,19.0602109 C28.6446985,18.5979822 29.2248348,18.064754 29.6347831,17.5122161 C29.4662845,17.0943974 29.256465,16.7089113 29.0141471,16.3706952 C28.4114614,18.4315212 26.469774,19.3040764 24.586654,20.1503968 C23.1261297,20.8066921 21.7466752,21.4266369 20.9826946,22.5687251 C20.9065053,22.6828583 20.7362469,22.7294428 20.5916587,22.6753423 C20.4474693,22.6213601 20.3781786,22.485081 20.4328275,22.3629119 C21.2925198,20.4397358 23.7255069,17.0938775 27.4728814,16.4756816 C27.4309503,16.2197387 27.3666107,15.967152 27.2829128,15.7193159 C25.4917737,16.12319 24.0615889,16.7828415 22.935551,17.725947 C22.792793,17.8594136 22.6444504,17.9933528 22.490406,18.1277175 C20.2943634,20.0434013 19.3244818,22.0964042 19.1022965,25.5601774 C21.1751738,21.8082469 26.0798175,20.1244692 29.0321678,19.9493342 C29.1982261,19.940093 29.3441049,20.0426923 29.3561187,20.1797986 C29.3682029,20.316905 29.2426913,20.4360488 29.0758118,20.4459991 C26.0538658,20.6251993 21.4772558,22.417225 19.6045071,25.8714733 C20.5964923,25.0579819 21.955697,24.5433308 23.5755218,24.3863238 C25.9897373,24.1516524 28.5086513,24.7842891 29.8596199,25.9368712 C30.4702132,25.329193 30.931314,24.5621206 31.1817506,23.7678207 C30.5620532,24.1574666 29.7180821,24.4407315 28.8558321,24.5217285" id="Fill-12" fill="#585AFA"></path>
                <path d="M8.42418447,20.4460118 C8.25732795,20.4360615 8.131816,20.316918 8.14387679,20.179812 C8.15584372,20.0427059 8.30087819,19.9413122 8.46785202,19.9493244 C11.4201869,20.1244827 16.324797,21.8082328 18.3977035,25.5601073 C18.1755176,22.0963894 17.2056098,20.043415 15.0096082,18.1277356 C14.8554695,17.9933003 14.7070561,17.8593141 14.5642273,17.7257533 C13.4382098,16.7827445 12.0080447,16.1230945 10.2170414,15.7193159 C10.1333198,15.9671514 10.06898,16.2197612 10.0270488,16.4757035 C13.7744805,17.0938743 16.2074977,20.4397486 17.0671689,22.3629202 C17.1218648,22.485089 17.0525974,22.6213678 16.9083842,22.6753499 C16.7642179,22.7293084 16.5936775,22.6827476 16.5173003,22.5687329 C15.753341,21.4266473 14.3737889,20.806704 12.9133779,20.1504101 C11.0302059,19.3040917 9.08846628,18.4315386 8.48580241,16.3707173 C8.24348386,16.7089091 8.03366373,17.0943706 7.86518816,17.512212 C8.27506716,18.0647486 8.85520505,18.5979992 9.55076512,19.0602269 C9.68085266,19.1466597 9.70098526,19.303359 9.59579362,19.4103306 C9.53595898,19.4710959 9.44838922,19.5027194 9.35997475,19.5027194 C9.29314767,19.5027194 9.22582783,19.4846151 9.1697006,19.4472719 C8.57691532,19.05342 8.0604368,18.6096275 7.64971307,18.1437128 C7.45333813,18.8387679 7.36827909,19.5951791 7.42895845,20.3575227 C7.73202676,21.3255609 9.47368402,21.9525002 12.6106851,22.2217962 C12.7770957,22.2361426 12.8979148,22.3585477 12.8805275,22.4952992 C12.8642431,22.6231877 12.7327477,22.7183654 12.579571,22.7183654 C12.5690589,22.7183654 12.558406,22.7178927 12.5476827,22.7170182 C10.1602806,22.51208 8.53019737,22.1006674 7.62566189,21.4701828 C7.73798676,21.8722833 7.8964195,22.268286 8.10607537,22.6498478 C10.5097149,23.8946034 13.6362508,23.325026 14.3824004,23.1624415 C14.5434847,23.1268001 14.7099657,23.2062133 14.7528824,23.3391833 C14.7957991,23.4720587 14.6995005,23.6083138 14.5377124,23.6436953 C11.865427,24.2260828 8.18388387,24.0612294 6.16231782,21.8256044 C6.09886964,22.1700594 6.09070397,22.531697 6.13162617,22.8976597 C6.51473211,23.3823642 7.49970411,23.9130622 8.71296286,24.0269588 C8.87923276,24.0426287 8.9985266,24.1660265 8.97961416,24.3026599 C8.96192188,24.4295556 8.83084883,24.5233153 8.67889231,24.5233153 C8.6674416,24.5233153 8.65585011,24.5228189 8.64416476,24.5217317 C7.78191242,24.4407349 6.93791552,24.1574707 6.31823985,23.7677785 C6.56867714,24.5621474 7.02975582,25.329218 7.64035071,25.9368712 C8.99127605,24.7843627 11.5107602,24.1521056 13.9242548,24.3863038 C15.5442483,24.5433577 16.9035505,25.0580312 17.8955853,25.871568 C16.0228316,22.4172568 11.4461857,20.6252116 8.42418447,20.4460118" id="Fill-14" fill="#585AFA"></path>
            </g>
        </g>
    </g>
</svg>