<?xml version="1.0" encoding="UTF-8"?>
<svg width="384px" height="384px" viewBox="0 0 384 384" version="1.1" xmlns="http://www.w3.org/2000/svg" xmlns:xlink="http://www.w3.org/1999/xlink">
    <!-- Generator: Sketch 48.2 (47327) - http://www.bohemiancoding.com/sketch -->
    <title>Windows_384</title>
    <desc>Created with Sketch.</desc>
    <defs>
        <polygon id="path-1" points="0 0.224579534 362.695928 0.224579534 362.695928 338.119031 0 338.119031"></polygon>
    </defs>
    <g id="Page-1" stroke="none" stroke-width="1" fill="none" fill-rule="evenodd">
        <g id="Windows_384">
            <g id="Page-1-Copy-2" transform="translate(11.257329, 3.752443)">
                <path d="M268.833686,375.733217 L268.833686,365.08791 C225.676026,364.143596 189.920817,333.100464 181.650164,292.049243 C181.47234,291.497975 181.158077,290.998004 180.776733,292.074094 C172.016494,332.268547 136.359976,363.863858 93.9024705,365.075371 L93.9024705,375.733217 L268.833686,375.733217 Z" id="Fill-1" fill="#585AFA"></path>
                <path d="M126.989469,155.598553 C121.356134,148.249608 117.664193,141.096272 115.967491,134.200721 C115.648961,132.906345 116.678843,131.64578 118.267173,131.386859 C119.854139,131.129981 121.402028,131.965516 121.720103,133.26012 C124.322183,143.835702 132.118427,155.196443 144.91549,167.083649 C146.415214,168.334229 147.844052,169.630875 149.242445,170.979486 C163.711219,183.506619 172.963792,196.542969 178.200896,213.570465 L178.200896,179.444673 C178.200896,160.484689 178.223161,128.75136 164.01748,110.630996 C163.145273,109.51884 163.556499,108.040654 164.921722,107.3297 C166.288308,106.620108 168.083387,106.945744 168.956048,108.057447 C173.053535,113.283969 175.985049,119.487627 178.200896,126.141503 L178.200896,93.096097 C178.200896,91.7758511 179.501595,90.7056759 181.121505,90.7056759 C182.741643,90.7056759 184.042115,91.7758511 184.042115,93.096097 L184.042115,126.141503 C186.257961,119.487627 189.241504,113.283969 193.33899,108.057447 C194.211879,106.94461 196.042855,106.620108 197.408078,107.3297 C198.773073,108.040654 199.147039,109.51884 198.274832,110.630996 C184.068469,128.75136 184.042115,160.484689 184.042115,179.444673 L184.042115,213.570692 C189.480742,196.542969 198.589499,183.506619 213.058273,170.979486 C214.455985,169.631783 215.923901,168.335818 217.422715,167.086145 C230.222278,155.197124 238.028291,143.835476 240.62969,133.26012 C240.948673,131.965516 242.496335,131.131115 244.086937,131.386859 C245.675494,131.64578 246.70742,132.906345 246.388663,134.200721 C244.692188,141.095818 241.001156,148.249608 235.366913,155.599234 C243.240403,151.77397 252.095155,148.768357 262.018184,146.533833 C256.287837,133.837642 245.370142,122.816834 233.57706,115.882252 C237.448032,143.98933 210.982607,166.718301 197.31311,173.14911 C196.851219,173.36605 196.346843,173.469073 195.849283,173.469073 C194.835306,173.469073 193.849728,173.040413 193.306047,172.273863 C192.496319,171.130164 192.976612,169.668771 194.379777,169.008194 C205.707334,163.678876 222.753651,148.470179 227.037893,129.839462 C226.944289,129.70603 226.863179,129.56443 226.8007,129.413071 C224.687092,124.297288 220.790902,119.825063 215.997967,115.227349 C206.792424,120.873908 200.456371,134.236802 200.714921,147.270203 C206.291229,143.303111 210.982834,133.391963 212.417352,128.132764 C212.768825,126.843153 214.338752,126.035302 215.917085,126.317823 C217.498599,126.603974 218.49531,127.880651 218.14361,129.169127 C218.085674,129.385159 211.695549,150.807953 198.766939,153.477038 C198.529065,153.526053 198.2871,153.550561 198.046499,153.550561 C197.447837,153.550561 196.857581,153.401245 196.358658,153.11532 C195.65912,152.713891 195.209271,152.084857 195.126799,151.390241 C193.261971,135.68821 200.592008,118.97977 212.123814,111.629236 C211.202987,110.794155 210.261486,109.948861 209.303398,109.089272 C198.804881,99.6666918 187.145163,89.2018481 181.179213,72.5762351 C175.212809,89.2016212 163.553772,99.6666918 153.055255,109.088591 C152.097168,109.948407 151.155439,110.793928 150.234612,111.629009 C161.766418,118.979316 169.096682,135.687983 167.231855,151.390241 C167.149609,152.084857 166.699761,152.713891 165.999996,153.11532 C165.500618,153.401245 164.909908,153.550561 164.312154,153.550561 C164.071553,153.550561 163.829134,153.526053 163.591714,153.477038 C150.663331,150.807953 144.272979,129.385159 144.215044,129.169127 C143.863117,127.880651 144.860281,126.603974 146.441568,126.317823 C148.029217,126.034167 149.589829,126.843153 149.941301,128.132764 C151.375819,133.391963 156.067424,143.303111 161.643505,147.270203 C161.902282,134.236802 155.566002,120.873681 146.360459,115.227122 C141.567524,119.825063 137.671561,124.297288 135.557953,129.413071 C135.495247,129.564657 135.414365,129.706257 135.320533,129.839916 C139.60432,148.470406 156.650638,163.678876 167.978876,169.008194 C169.381814,169.668771 169.862334,171.130164 169.052606,172.273863 C168.50938,173.040413 167.523348,173.469073 166.50937,173.469073 C166.011356,173.469073 165.507434,173.36605 165.045317,173.14911 C151.375819,166.718301 124.90994,143.98933 128.781367,115.882252 C116.988057,122.817515 106.069908,133.837869 100.339333,146.533833 C110.262135,148.76813 119.116205,151.773743 126.989469,155.598553" id="Fill-3" fill="#585AFA"></path>
                <path d="M212.037837,200.71865 C219.021315,196.181342 227.036475,192.61717 234.904123,189.119487 C246.588491,183.924752 257.882519,178.900989 265.747669,171.056419 C265.727472,170.885447 265.727472,170.710857 265.754478,170.533327 C266.140507,167.98232 266.25761,165.439003 266.138919,162.918528 C241.630249,167.199831 223.074284,185.100748 212.037837,200.71865" id="Fill-5" fill="#585AFA"></path>
                <path d="M127.832375,189.119487 C135.699451,192.61717 143.714718,196.182247 150.69832,200.71865 C139.662037,185.099617 121.108165,167.199605 96.5973639,162.918528 C96.4784477,165.43923 96.5955484,167.98232 96.981799,170.533327 C97.0085778,170.710631 97.0088048,170.885447 96.9883802,171.056192 C104.853641,178.900989 116.147953,183.924752 127.832375,189.119487" id="Fill-7" fill="#585AFA"></path>
                <g id="Group-11">
                    <mask id="mask-2" fill="white">
                        <use xlink:href="#path-1"></use>
                    </mask>
                    <g id="Clip-10"></g>
                    <path d="M309.374736,221.215291 C307.637421,234.753638 299.540631,248.561499 287.613294,257.251553 C292.357274,256.519303 296.558513,255.390161 299.828593,253.851186 C300.90021,253.346898 302.245698,253.445894 303.190039,254.096405 C304.135062,254.747143 304.477343,255.812028 304.046196,256.756802 C301.672956,261.954759 296.779427,268.567265 288.993328,274.484076 C288.815141,274.70341 288.591727,274.903672 288.319675,275.071239 C288.12967,275.188399 287.936256,275.30011 287.741252,275.409323 C277.027125,283.140072 261.208102,289.457634 239.411204,289.458997 C238.253449,289.458997 237.085011,289.441059 235.893618,289.404958 C234.273578,289.355006 233.009911,288.245391 233.070822,286.924615 C233.13105,285.604975 234.51813,284.570288 236.112714,284.624327 C251.560593,285.096146 263.872031,282.227313 273.4059,277.882854 C264.767052,277.290923 255.632056,274.124649 249.941917,271.44745 C248.5387,270.786722 248.05778,269.323356 248.868027,268.180137 C249.678274,267.037145 251.472181,266.64593 252.876534,267.304388 C261.423789,271.327792 276.640752,275.664986 284.28344,271.540315 C289.089239,268.011889 292.72251,264.185114 295.285527,260.6165 C273.047028,266.381866 234.788818,262.076006 222.278512,248.382353 C221.692361,247.741378 221.538494,246.902866 221.868275,246.1495 C222.198283,245.39636 222.968302,244.827589 223.920598,244.633912 C234.866093,242.404464 248.466881,241.257612 266.338909,249.666119 C267.742353,250.326847 268.223273,251.789078 267.413026,252.933205 C266.602552,254.076651 264.807053,254.470363 263.404519,253.809181 C249.901234,247.454155 239.439387,247.098814 230.314845,248.402107 C240.098494,255.274136 259.332828,258.667692 276.094148,258.235607 C276.276198,258.084616 276.483476,257.949064 276.719391,257.838035 C279.656053,256.456181 282.423167,254.714901 284.986639,252.695479 C273.323853,242.66376 250.254197,236.962197 228.795944,239.028392 C218.930021,239.976571 202.531665,243.275672 190.95479,254.434262 C195.677633,253.163438 201.317999,252.482502 207.238371,252.83648 C216.184726,253.374826 232.550809,256.928455 241.645804,274.679116 C242.269911,275.898398 241.564212,277.298416 240.068266,277.807472 C239.699393,277.933714 239.315975,277.993202 238.939147,277.993202 C237.79071,277.993202 236.700229,277.439643 236.229535,276.521889 C228.738443,261.900947 216.094497,258.166355 206.806542,257.606666 C195.921957,256.963421 185.944668,260.623311 183.86098,263.436516 C183.850525,263.450593 183.838252,263.463081 183.827798,263.476704 C183.796206,263.517574 183.76325,263.557309 183.728704,263.596589 C183.708022,263.620203 183.686658,263.643362 183.665066,263.666295 C183.629611,263.703532 183.593019,263.739406 183.554836,263.775054 C183.530063,263.798213 183.505062,263.821146 183.479153,263.84317 C183.442106,263.875185 183.403696,263.906291 183.36415,263.93649 C183.334376,263.959649 183.304148,263.982355 183.273011,264.004379 C183.235283,264.031171 183.196191,264.057055 183.156417,264.082486 C183.120962,264.104964 183.085052,264.127215 183.048233,264.148331 C183.01255,264.16922 182.976186,264.189428 182.938912,264.208955 C182.936185,264.210317 182.933003,264.21168 182.930048,264.213269 C182.891638,264.233477 182.852546,264.252549 182.813227,264.271168 C182.789818,264.282293 182.767544,264.294554 182.74368,264.305226 C182.743453,264.305226 182.743453,264.305226 182.743225,264.305453 C182.736634,264.308405 182.729589,264.310675 182.722998,264.3134 C182.709134,264.319303 182.694588,264.324071 182.680724,264.329975 C182.645041,264.344733 182.609359,264.358584 182.573221,264.37198 C182.542993,264.38356 182.513447,264.396502 182.482537,264.407173 C182.464582,264.413077 182.4464,264.417164 182.428445,264.423294 C182.426172,264.423975 182.423899,264.424657 182.421399,264.425338 C182.387762,264.436009 182.353443,264.446 182.319124,264.455763 C182.284123,264.465753 182.250259,264.477333 182.214803,264.486415 C182.194576,264.491411 182.174348,264.494362 182.154347,264.49913 C182.120028,264.507077 182.085482,264.513662 182.051163,264.520928 C181.995934,264.531826 181.940933,264.542498 181.885477,264.550899 C181.849795,264.556348 181.814112,264.560208 181.778429,264.564522 C181.73661,264.569517 181.695018,264.576102 181.653199,264.579508 C181.640471,264.580643 181.627289,264.580643 181.614561,264.581778 C181.574333,264.58473 181.533878,264.585865 181.493422,264.587455 C181.450239,264.589271 181.407284,264.591769 181.364328,264.591996 C181.358873,264.591996 181.353646,264.592677 181.347964,264.592677 C181.342509,264.592677 181.337282,264.591996 181.331827,264.591996 C181.289099,264.591769 181.246143,264.589271 181.203188,264.587455 C181.162505,264.585865 181.122049,264.58473 181.081594,264.581778 C181.068866,264.580643 181.055684,264.580643 181.042957,264.579508 C181.001365,264.576102 180.960227,264.569517 180.918635,264.564749 C180.882498,264.560208 180.846361,264.556348 180.810451,264.550899 C180.755677,264.542498 180.701585,264.532053 180.647038,264.521155 C180.611582,264.513889 180.5759,264.507077 180.540672,264.498903 C180.521353,264.494135 180.50158,264.491411 180.482034,264.486415 C180.447033,264.47756 180.413168,264.46598 180.378395,264.45599 C180.343167,264.446 180.308166,264.436009 180.273392,264.424884 C180.264528,264.421932 180.254983,264.419661 180.246119,264.41671 C180.235664,264.413304 180.224982,264.410806 180.214754,264.4074 C180.183845,264.396956 180.154753,264.384241 180.124752,264.372888 C180.087251,264.359038 180.050432,264.344506 180.01384,264.329294 C179.970203,264.311129 179.927247,264.292057 179.884974,264.272076 C179.844064,264.253003 179.803835,264.233023 179.764289,264.212361 C179.745652,264.202597 179.725652,264.194196 179.707469,264.183979 C179.687923,264.173534 179.67065,264.1615 179.651559,264.150602 C179.612467,264.127896 179.57383,264.104283 179.535874,264.079988 C179.498601,264.056147 179.462009,264.031852 179.426553,264.006876 C179.393143,263.983036 179.360643,263.958741 179.328596,263.933992 C179.291323,263.905156 179.254958,263.875639 179.21973,263.845441 C179.192229,263.8216 179.165411,263.797532 179.138819,263.772783 C179.102227,263.738498 179.066999,263.703759 179.033135,263.668111 C179.010407,263.644043 178.988134,263.619976 178.966315,263.595 C178.93245,263.5564 178.89995,263.517347 178.86904,263.477158 C178.858358,263.463308 178.846085,263.45082 178.83563,263.436516 C176.752397,260.623311 166.780335,256.968189 155.890068,257.606666 C146.602113,258.166355 133.957713,261.900947 126.466847,276.521889 C125.996154,277.439643 124.9059,277.992067 123.757235,277.993202 C123.380635,277.993202 122.997899,277.933714 122.628117,277.807472 C121.132171,277.298416 120.426472,275.898398 121.050806,274.679116 C130.145574,256.928455 146.511884,253.374826 155.458012,252.83648 C161.379975,252.481367 167.018295,253.163438 171.740911,254.432672 C160.163354,243.275672 143.764998,239.976571 133.898166,239.02703 C112.436504,236.96424 89.3713933,242.664896 77.7097441,252.695479 C80.2732159,254.714901 83.0403292,256.456181 85.976992,257.838035 C86.2131341,257.949291 86.4206392,258.084843 86.6026891,258.236061 C103.364009,258.668146 122.598116,255.274817 132.381765,248.402107 C123.259496,247.098814 112.795831,247.456425 99.291409,253.809181 C97.8877382,254.470363 96.0922397,254.076651 95.2826744,252.933205 C94.4726546,251.789078 94.9531209,250.326847 96.3565644,249.666119 C114.227911,241.256477 127.828017,242.401058 138.775785,244.633912 C139.727854,244.827589 140.4981,245.39636 140.828335,246.1495 C141.157889,246.902866 141.003794,247.741378 140.417871,248.382353 C127.905973,262.07487 89.6493547,266.385272 67.4106282,260.6165 C69.977282,264.189882 73.6198712,268.021653 78.4377164,271.553711 C86.0869947,275.657493 101.281685,271.323251 109.819849,267.304388 C111.223292,266.64593 113.017882,267.037145 113.828356,268.180137 C114.638603,269.323356 114.157909,270.786722 112.754466,271.44745 C107.067281,274.123741 97.9363758,277.287971 89.3007098,277.881945 C98.8373069,282.226632 111.14829,285.095692 126.583668,284.624327 C128.177571,284.568244 129.565332,285.603839 129.625788,286.924615 C129.686472,288.245391 128.422804,289.355006 126.802765,289.404958 C125.613417,289.441059 124.440889,289.458997 123.285406,289.458997 C101.477599,289.458997 85.6551659,283.136893 74.9417217,275.401376 C74.7510352,275.29466 74.562167,275.185674 74.3764806,275.071239 C74.1062467,274.904808 73.8841958,274.706362 73.7064642,274.488617 C65.9185462,268.57067 61.0243354,261.956348 58.6501864,256.756802 C58.2190395,255.812028 58.5615478,254.747143 59.5063437,254.096405 C60.4515941,253.445894 61.7975362,253.346898 62.8680169,253.851186 C66.1378698,255.389934 70.339109,256.519303 75.0830888,257.251553 C63.1546149,248.561272 55.0573711,234.752049 53.320965,221.21302 C53.2577816,220.999135 53.2332355,220.781844 53.2432358,220.566596 C52.5520825,214.466325 53.1602792,208.438484 55.3046499,202.977144 C55.6585222,202.075511 56.6315006,201.428406 57.7863016,201.328048 C58.9317842,201.223149 60.0595391,201.689973 60.6406897,202.509866 C63.1932522,206.11322 66.1071872,209.17187 69.2761284,211.762107 C67.2844887,206.464473 66.1367334,201.070114 65.706041,195.736833 C65.674222,195.599465 65.6419485,195.462097 65.6139933,195.323366 C65.5594465,195.052263 65.5660376,194.78502 65.6205844,194.528676 C64.5416943,176.766889 71.328906,159.825677 81.2277848,149.60732 C81.9614391,148.84805 83.1830599,148.52813 84.3249061,148.786291 C85.4656158,149.047858 86.3015454,149.843002 86.4442762,150.801853 C87.1345203,155.441256 88.5231907,159.462617 90.4682383,163.005347 C90.5130122,162.043772 90.588014,161.084921 90.6948348,160.130157 C90.6993804,160.053413 90.7091533,159.975987 90.7230173,159.898335 C91.2075746,155.759814 92.263055,151.695312 93.7862742,147.761821 C93.8003654,147.685304 93.8185477,147.60856 93.8421846,147.531815 C93.8967314,147.355621 93.9758243,147.189871 94.0726448,147.034339 C100.820537,130.310418 115.970227,116.047313 131.46197,108.757958 C132.470403,108.282733 133.72998,108.338588 134.668412,108.902819 C135.607071,109.465687 136.047536,110.427943 135.791848,111.354552 C134.949782,114.400487 134.532727,117.414181 134.475452,120.374289 C138.306683,115.260797 143.484991,110.611176 148.868987,105.778323 C160.967238,94.9178553 174.679619,82.6078725 178.441757,60.6719173 C178.442893,60.6648786 178.445166,60.658294 178.446529,60.6514824 C178.45653,60.5967623 178.470166,60.5429504 178.484712,60.4893655 C178.491303,60.4650707 178.496531,60.4400947 178.504258,60.4157999 C178.520395,60.3633503 178.540623,60.312036 178.561305,60.2609488 C178.570851,60.2371081 178.579033,60.2123591 178.589715,60.1889725 C178.613124,60.1365229 178.64017,60.0856628 178.667898,60.0348026 C178.678808,60.0148218 178.688126,59.9943869 178.699717,59.9748602 C178.736082,59.9126473 178.776537,59.8524779 178.819266,59.7932166 C178.823584,59.7873132 178.826993,59.7811828 178.831312,59.7752793 C179.272004,59.1765368 180.027704,58.7385488 180.942045,58.6341038 C181.008865,58.626611 181.075457,58.6236593 181.14205,58.6200264 C181.152277,58.6193453 181.16205,58.61821 181.172278,58.6177559 C181.245916,58.6143501 181.3191,58.6136689 181.392056,58.6148042 C181.423193,58.6150312 181.45433,58.6148042 181.485922,58.6159394 C181.537287,58.6177559 181.58797,58.6220699 181.63888,58.6261569 C181.677518,58.6291086 181.715928,58.6300168 181.754565,58.6341038 C181.770247,58.6359202 181.785247,58.6395531 181.801157,58.6413695 C181.829112,58.6450024 181.856386,58.6502247 181.884114,58.6543116 C181.956388,58.6654373 182.027981,58.6770171 182.097982,58.6920027 C182.102983,58.693138 182.107983,58.6947273 182.112983,58.6958626 C182.769135,58.8398151 183.323467,59.1590536 183.70734,59.5822831 C183.70984,59.5854618 183.712113,59.5884136 183.714613,59.5911382 C183.76666,59.6490371 183.815752,59.7082983 183.861207,59.769603 C183.875526,59.7889026 183.887572,59.8093375 183.901208,59.8288642 C183.933709,59.8756374 183.96621,59.9224106 183.994847,59.9712273 C184.010075,59.9968845 184.022348,60.0236769 184.036439,60.0497882 C184.060758,60.095199 184.085304,60.1403829 184.106213,60.186929 C184.117577,60.2128132 184.126668,60.2398327 184.137123,60.266171 C184.156896,60.3154418 184.176442,60.3647126 184.192125,60.4151187 C184.199852,60.4400947 184.205307,60.4655248 184.211898,60.4905008 C184.226444,60.5438586 184.24008,60.5969893 184.249853,60.6512553 C184.251217,60.658294 184.253717,60.6648786 184.254853,60.6719173 C188.016536,82.6078725 201.729372,94.9178553 213.827623,105.779004 C219.210937,110.61163 224.389473,115.261251 228.220703,120.374289 C228.163429,117.414408 227.7466,114.400487 226.904534,111.354552 C226.648846,110.427943 227.089312,109.465687 228.027744,108.902819 C228.967312,108.338588 230.225297,108.282733 231.23464,108.757958 C246.725474,116.047313 261.874482,130.30951 268.622601,147.032977 C268.719649,147.188963 268.798969,147.355167 268.853743,147.531815 C268.877608,147.609014 268.89579,147.686212 268.909881,147.763184 C270.4306,151.690771 271.484944,155.748915 271.970411,159.881079 C271.970638,159.88176 271.970865,159.882214 271.970865,159.882668 C271.986547,159.966451 271.99632,160.049553 272.001093,160.132428 C272.107914,161.086511 272.182689,162.044453 272.227235,163.005575 C274.17251,159.462844 275.561408,155.441483 276.251652,150.801853 C276.394155,149.843002 277.230085,149.047858 278.370567,148.786291 C279.511959,148.52586 280.73358,148.849185 281.467916,149.60732 C291.366568,159.82545 298.153552,176.765754 297.075571,194.527087 C297.130345,194.783885 297.137163,195.051809 297.082389,195.323366 C297.054434,195.462097 297.021933,195.599465 296.990114,195.73706 C296.559422,201.070568 295.411667,206.464927 293.420027,211.763015 C296.588968,209.172551 299.50313,206.113674 302.05592,202.509866 C302.63548,201.689973 303.746643,201.223149 304.910081,201.328048 C306.064882,201.428406 307.03786,202.075511 307.391733,202.977144 C309.535649,208.437576 310.143846,214.464282 309.453147,220.563191 C309.463602,220.780255 309.438828,220.999589 309.374736,221.215291 M358.74299,220.441035 C330.107971,122.224783 214.010809,32.9628762 181.169323,0.224579534 C148.32761,32.9628762 32.2302212,122.224783 3.59520168,220.441035 C0.31966692,231.676597 -1.06082143,244.245421 0.911045039,256.509312 C5.55684064,302.346379 44.2998349,338.119031 91.4068977,338.119031 C134.947737,338.119031 171.828185,306.180647 180.757268,265.358304 C181.138186,264.286835 181.452285,264.784765 181.630244,265.333782 C190.025677,306.854771 226.748621,338.119031 270.785836,338.119031 C311.061368,338.119031 345.200613,311.959636 357.165224,275.727426 C364.904959,257.690222 363.646292,237.259411 358.74299,220.441035" id="Fill-9" fill="#585AFA" mask="url(#mask-2)"></path>
                </g>
                <path d="M279.12143,235.868875 C279.008625,235.879333 278.896047,235.884107 278.785058,235.884107 C277.315646,235.884107 276.047785,234.982479 275.876876,233.761668 C275.69371,232.44742 276.847632,231.260482 278.45595,231.109757 C290.191726,230.014209 299.719299,224.909308 303.425059,220.247263 C303.821124,216.727371 303.741911,213.249536 303.128181,209.936977 C283.574606,231.438489 247.965311,233.026226 222.112603,227.423452 C220.54809,227.083125 219.6166,225.772287 220.031503,224.494186 C220.447314,223.216313 222.054271,222.452681 223.615379,222.794144 C230.832612,224.35801 261.075625,229.837339 284.325881,217.864521 C286.354096,214.193903 287.886606,210.384608 288.973118,206.516886 C280.223829,212.581613 264.456135,216.538452 241.362944,218.509937 C241.259218,218.518121 241.1564,218.522668 241.054717,218.522668 C239.573048,218.522668 238.300647,217.607173 238.143583,216.377041 C237.975171,215.061884 239.143619,213.884267 240.753526,213.746272 C271.096407,211.15597 287.943803,205.125798 290.876045,195.814894 C291.462993,188.482069 290.640222,181.205851 288.740472,174.520033 C284.76734,179.001571 279.771249,183.270318 274.038181,187.058699 C273.49572,187.417894 272.843859,187.592036 272.197217,187.592036 C271.342444,187.592036 270.496068,187.288084 269.916383,186.703367 C268.898871,185.67443 269.093612,184.167399 270.351941,183.335792 C277.079142,178.88972 282.69078,173.760721 286.656195,168.445985 C285.026314,164.427083 282.996737,160.719181 280.652805,157.465958 C274.823048,177.28857 256.041176,185.681478 237.825823,193.822039 C223.698224,200.134793 210.35481,206.0979 202.964853,217.083384 C202.227877,218.181205 200.580973,218.62929 199.182376,218.108911 C197.787638,217.589668 197.117392,216.278831 197.646008,215.103714 C205.961781,196.605125 229.495978,164.422082 265.744197,158.475798 C265.3386,156.013942 264.716244,153.584369 263.906638,151.20049 C246.581013,155.085262 232.746887,161.430298 221.854763,170.501813 C220.47387,171.785598 219.038958,173.073929 217.548891,174.366352 C196.30665,192.792875 186.92502,212.540238 184.775829,245.857476 C204.826698,209.768518 252.26914,193.572648 280.827119,191.888065 C282.433395,191.799175 283.844475,192.786054 283.960684,194.104849 C284.077574,195.423644 282.863505,196.56966 281.249286,196.66537 C252.01811,198.389056 207.748726,215.62614 189.633695,248.851761 C199.229132,241.026974 212.37667,236.076663 228.045178,234.566449 C251.397797,232.309198 275.763163,238.394386 288.831034,249.480808 C294.73728,243.635691 299.197492,236.257398 301.619957,228.61721 C295.625646,232.365124 287.461943,235.089784 279.12143,235.868875" id="Fill-12" fill="#585AFA"></path>
                <path d="M81.4868345,196.665492 C79.8728374,196.569783 78.6587648,195.423769 78.7754284,194.104977 C78.891184,192.786186 80.2940973,191.810903 81.9092292,191.887971 C110.467059,193.572777 157.909177,209.768383 177.960327,245.856803 C175.81113,212.540096 166.429247,192.793006 145.187403,174.366526 C143.696424,173.073424 142.260827,171.784641 140.879249,170.49995 C129.987322,161.429365 116.153386,155.084343 98.8290755,151.20049 C98.0192398,153.584363 97.3968829,156.014159 96.9912841,158.476009 C133.240056,164.422051 156.774544,196.605248 165.090113,215.103794 C165.619185,216.278907 164.949164,217.589742 163.554195,218.108984 C162.159679,218.627998 160.510048,218.180141 159.771254,217.083459 C152.381503,206.098 139.037145,200.134908 124.910642,193.822168 C106.694786,185.681625 87.9124087,177.288737 82.0828627,157.46617 C79.738924,160.719159 77.7093414,164.426825 76.0796833,168.445945 C80.0444282,173.760668 85.6560811,178.889883 92.3842088,183.335945 C93.6425409,184.167323 93.8372828,185.674578 92.8197678,186.703513 C92.2409895,187.288 91.3939304,187.592179 90.5387004,187.592179 C89.8922844,187.592179 89.2411021,187.418038 88.6981853,187.058843 C82.9641945,183.270472 77.9683163,179.001734 73.9954004,174.520207 C72.0958727,181.205782 71.2730996,188.481528 71.8600489,195.814336 C74.7916178,205.125673 91.6386061,211.156058 121.982705,213.746355 C123.592389,213.884349 124.761068,215.061736 124.592881,216.377118 C124.435363,217.607247 123.163412,218.52274 121.68174,218.52274 C121.580057,218.52274 121.477011,218.518193 121.373285,218.509782 C98.2800305,216.538528 82.5122935,212.581244 73.7627542,206.516758 C74.8492687,210.384471 76.3817828,214.19353 78.4097767,217.863685 C101.660096,229.836703 131.902965,224.358068 139.120444,222.794206 C140.678606,222.451379 142.288972,223.215237 142.704103,224.494244 C143.119235,225.772342 142.187742,227.08295 140.622771,227.423275 C114.773851,233.025127 79.1624154,231.43944 59.6078795,209.935477 C58.9941475,213.24871 58.9151613,216.727219 59.3110002,220.247331 C63.0167702,224.909592 72.5443692,230.014254 84.2801775,231.109799 C85.8885003,231.260525 87.0424254,232.44746 86.8594861,233.761704 C86.6883493,234.982286 85.4204843,235.884138 83.9506144,235.884138 C83.8398521,235.884138 83.727728,235.879364 83.614696,235.868906 C75.27416,235.089817 67.1102082,232.365163 61.1161077,228.616803 C63.5385786,236.257656 67.9985762,243.635932 73.9048386,249.480808 C86.9722911,238.395094 111.34317,232.313557 134.688818,234.566256 C150.358957,236.076921 163.507438,241.027448 173.103356,248.852672 C154.988276,215.626445 110.718544,198.389174 81.4868345,196.665492" id="Fill-14" fill="#585AFA"></path>
            </g>
        </g>
    </g>
</svg>