<?xml version="1.0" encoding="UTF-8"?>
<svg width="20px" height="20px" viewBox="0 0 20 20" version="1.1" xmlns="http://www.w3.org/2000/svg" xmlns:xlink="http://www.w3.org/1999/xlink">
    <!-- Generator: Sketch 48.2 (47327) - http://www.bohemiancoding.com/sketch -->
    <title>Windows_20</title>
    <desc>Created with Sketch.</desc>
    <defs>
        <polygon id="path-1" points="0 0.0116740251 18.7479206 0.0116740251 18.7479206 17.5760008 0 17.5760008"></polygon>
    </defs>
    <g id="Page-1" stroke="none" stroke-width="1" fill="none" fill-rule="evenodd">
        <g id="Windows_20">
            <g id="Page-1-Copy-4" transform="translate(0.625000, 0.312500)">
                <path d="M13.8961378,19.53125 L13.8961378,18.9778889 C11.6652983,18.9288018 9.81709504,17.3151272 9.38958115,15.1812151 C9.38038932,15.1525592 9.36414495,15.1265699 9.34443307,15.1825068 C8.89161227,17.2718827 7.04851032,18.9142606 4.85386221,18.9772371 L4.85386221,19.53125 L13.8961378,19.53125 Z" id="Fill-1" fill="#585AFA"></path>
                <path d="M6.56414448,8.08827675 C6.27295482,7.70626611 6.08211667,7.33442354 5.99441333,6.97598113 C5.9779484,6.90869725 6.03118344,6.84317095 6.11328495,6.82971181 C6.19531599,6.81635884 6.27532709,6.85979139 6.29176853,6.92708708 C6.42627126,7.4768238 6.82926271,8.06737439 7.49074884,8.6852915 C7.56827023,8.75029878 7.64212753,8.81770062 7.71441115,8.88780373 C8.46230879,9.53898532 8.94057855,10.2166369 9.21128687,11.1017551 L9.21128687,9.32783847 C9.21128687,8.34226635 9.21243777,6.69271408 8.47813955,5.75078683 C8.43305477,5.69297506 8.45431121,5.61613649 8.52488022,5.57917989 C8.59551969,5.54229407 8.68830814,5.55922121 8.7334164,5.61700938 C8.94521739,5.88869285 9.09674875,6.21116952 9.21128687,6.55704928 L9.21128687,4.83929304 C9.21128687,4.77066442 9.27852062,4.7150349 9.36225453,4.7150349 C9.44600018,4.7150349 9.51322218,4.77066442 9.51322218,4.83929304 L9.51322218,6.55704928 C9.62776031,6.21116952 9.78198102,5.88869285 9.993782,5.61700938 C10.038902,5.55916223 10.133546,5.54229407 10.204115,5.57917989 C10.2746723,5.61613649 10.2940027,5.69297506 10.2489179,5.75078683 C9.51458447,6.69271408 9.51322218,8.34226635 9.51322218,9.32783847 L9.51322218,11.1017669 C9.79434733,10.2166369 10.2651832,9.53898532 11.0130809,8.88780373 C11.0853292,8.81774781 11.1612065,8.75038135 11.2386809,8.68542126 C11.9002962,8.06740978 12.3037927,7.47681201 12.4382602,6.92708708 C12.4547486,6.85979139 12.5347479,6.81641782 12.6169669,6.82971181 C12.6990801,6.84317095 12.7524209,6.90869725 12.7359442,6.97598113 C12.6482526,7.33439995 12.4574614,7.70626611 12.1662248,8.08831214 C12.5732091,7.88946843 13.0309154,7.73323157 13.5438413,7.61707721 C13.247637,6.95710767 12.6832963,6.38422736 12.0737064,6.02375606 C12.2737988,7.48480964 10.9057887,8.66630008 10.1992061,9.00058446 C10.1753307,9.01186135 10.1492593,9.0172167 10.1235402,9.0172167 C10.0711272,9.0172167 10.0201823,8.99493422 9.99207914,8.95508762 C9.95022393,8.89563622 9.97505051,8.81967054 10.0475807,8.78533264 C10.6331074,8.50830562 11.5142395,7.71773174 11.7356939,6.74927548 C11.7308554,6.74233949 11.7266629,6.73497884 11.7234333,6.72711096 C11.6141799,6.4611839 11.412784,6.22871005 11.165035,5.98971305 C10.6891962,6.28323076 10.3616827,6.97785668 10.3750473,7.65535495 C10.6632892,7.4491388 10.9058005,6.9339405 10.9799514,6.66055842 C10.9981191,6.59352225 11.0792694,6.5515288 11.1608542,6.56621471 C11.2426034,6.58108935 11.2941238,6.64745316 11.2759443,6.71443036 C11.2729496,6.72566006 10.942641,7.83925323 10.2743552,7.97799676 C10.2620593,7.98054468 10.2495521,7.98181864 10.2371153,7.98181864 C10.2061702,7.98181864 10.1756596,7.97405693 10.14987,7.95919408 C10.1137106,7.93832711 10.0904577,7.90562883 10.0861946,7.86952154 C9.98980083,7.05330334 10.3686938,6.18477027 10.9647783,5.80267706 C10.9171803,5.7592681 10.8685136,5.71532832 10.8189896,5.6706454 C10.2763164,5.18084371 9.67362018,4.63686338 9.36523748,3.77263581 C9.05683128,4.63685159 8.45417028,5.18084371 7.91149705,5.67061001 C7.86197308,5.71530473 7.81329467,5.7592563 7.7656967,5.80266526 C8.36178113,6.18474668 8.74068587,7.05329155 8.64429205,7.86952154 C8.64004076,7.90562883 8.61678787,7.93832711 8.5806167,7.95919408 C8.55480364,7.97405693 8.52426953,7.98181864 8.49337137,7.98181864 C8.4809346,7.98181864 8.46840387,7.98054468 8.45613151,7.97799676 C7.78785741,7.83925323 7.45753713,6.72566006 7.45454244,6.71443036 C7.43635116,6.64745316 7.48789507,6.58108935 7.56963252,6.56621471 C7.6516988,6.55146982 7.73236755,6.59352225 7.75053534,6.66055842 C7.82468624,6.9339405 8.06719749,7.4491388 8.35542768,7.65535495 C8.36880397,6.97785668 8.04127873,6.28321896 7.56543995,5.98970126 C7.31769093,6.22871005 7.11630677,6.4611839 7.0070534,6.72711096 C7.00381209,6.73499063 6.99963126,6.74235128 6.99478104,6.74929907 C7.21621201,7.71774353 8.09734404,8.50830562 8.68290595,8.78533264 C8.75542445,8.81967054 8.78026276,8.89563622 8.73840755,8.95508762 C8.71032792,8.99493422 8.65935946,9.0172167 8.60694649,9.0172167 C8.58120389,9.0172167 8.55515596,9.01186135 8.53126889,9.00058446 C7.82468624,8.66630008 6.45665269,7.48480964 6.65676851,6.02375606 C6.04716687,6.38426275 5.48280268,6.95711947 5.18658664,7.61707721 C5.69950086,7.73321977 6.15717185,7.88945664 6.56414448,8.08827675" id="Fill-3" fill="#585AFA"></path>
                <path d="M10.960334,10.4336959 C11.3213133,10.1978389 11.7356206,10.0125672 12.142303,9.83075176 C12.7462734,9.56072062 13.3300669,9.29957687 13.7366202,8.8918028 C13.7355761,8.8829154 13.7355761,8.87383991 13.7369721,8.8646116 C13.7569261,8.73200597 13.7629792,8.59980003 13.756844,8.46878144 C12.4899795,8.69133083 11.5308131,9.62185087 10.960334,10.4336959" id="Fill-5" fill="#585AFA"></path>
                <path d="M6.60771468,9.83075176 C7.01436748,10.0125672 7.42868037,10.197886 7.78966597,10.4336959 C7.2191954,9.62179209 6.26013715,8.69131908 4.9931625,8.46878144 C4.98701567,8.59981179 4.99306866,8.73200597 5.01303413,8.8646116 C5.01441834,8.87382816 5.01443007,8.8829154 5.01337432,8.89179105 C5.41993328,9.29957687 6.00374153,9.56072062 6.60771468,9.83075176" id="Fill-7" fill="#585AFA"></path>
                <g id="Group-11">
                    <mask id="mask-2" fill="white">
                        <use xlink:href="#path-1"></use>
                    </mask>
                    <g id="Clip-10"></g>
                    <path d="M15.9917234,11.4991461 C15.9019208,12.2028923 15.483394,12.9206484 14.8668644,13.3723721 C15.1120829,13.3343085 15.3292469,13.2756138 15.4982789,13.1956153 C15.5536713,13.1694015 15.6232202,13.1745475 15.6720336,13.2083621 C15.7208823,13.2421886 15.738575,13.2975432 15.7162888,13.3466541 C15.5936149,13.6168527 15.3406661,13.960582 14.938199,14.2681479 C14.9289885,14.2795493 14.9174401,14.2899592 14.9033776,14.2986696 C14.8935562,14.3047598 14.8835585,14.3105667 14.8734786,14.3162438 C14.3196605,14.7181012 13.5019678,15.0464988 12.3752761,15.0465697 C12.3154312,15.0465697 12.2550341,15.0456372 12.1934504,15.0437606 C12.1097098,15.041164 12.0443903,14.9834844 12.0475388,14.9148282 C12.050652,14.8462311 12.1223508,14.7924463 12.2047756,14.7952553 C13.0032836,14.8197813 13.6396675,14.6706545 14.1324777,14.4448221 C13.6859316,14.4140525 13.2137394,14.2494642 12.9196135,14.1102989 C12.8470806,14.0759531 12.8222216,13.9998849 12.8641036,13.9404584 C12.9059857,13.8810438 12.9987136,13.8607078 13.0713052,13.8949355 C13.5131168,14.1040789 14.2996887,14.3295336 14.6947427,14.1151262 C14.9431567,13.9317126 15.1309622,13.7327904 15.2634457,13.5472877 C14.1139274,13.8469812 12.1363428,13.6231553 11.4896793,12.911336 C11.4593809,12.8780171 11.4514274,12.8344298 11.4684739,12.7952686 C11.4855322,12.7561191 11.5253348,12.7265534 11.5745594,12.7164857 C12.1403372,12.6005952 12.8433682,12.5409799 13.7671816,12.9780684 C13.8397263,13.0124142 13.8645853,13.0884234 13.8227032,13.147897 C13.7808094,13.2073353 13.6879993,13.2278012 13.6155016,13.1934318 C12.9175106,12.8630867 12.3767328,12.8446155 11.9050811,12.9123629 C12.4108024,13.2695826 13.4050341,13.4459854 14.2714344,13.4235249 C14.2808447,13.4156761 14.291559,13.4086299 14.3037535,13.4028584 C14.455551,13.3310273 14.5985844,13.2405126 14.7310914,13.1355396 C14.1282366,12.6140739 12.9357554,12.3176969 11.8265684,12.4251013 C11.3165942,12.4743892 10.4689556,12.6458821 9.87054159,13.2259245 C10.1146675,13.159865 10.4062206,13.1244687 10.7122474,13.1428691 C11.1746887,13.1708533 12.0206591,13.3555769 12.4907836,14.2782864 C12.5230439,14.3416667 12.486566,14.414442 12.4092399,14.4409036 C12.3901727,14.4474659 12.3703536,14.4505582 12.3508752,14.4505582 C12.291512,14.4505582 12.2351445,14.4217833 12.2108141,14.3740769 C11.8235961,13.6140555 11.1700247,13.4199251 10.689926,13.3908315 C10.1272968,13.3573945 9.61156602,13.5476418 9.50385926,13.693877 C9.50331884,13.6946087 9.50268445,13.6952579 9.50214403,13.695966 C9.50051104,13.6980905 9.49880757,13.700156 9.49702185,13.7021978 C9.49595277,13.7034253 9.49484845,13.7046292 9.49373238,13.7058213 C9.49189967,13.7077569 9.49000822,13.7096217 9.48803454,13.7114747 C9.48675399,13.7126786 9.4854617,13.7138707 9.48412242,13.7150155 C9.48220747,13.7166797 9.48022204,13.7182967 9.47817787,13.7198664 C9.47663886,13.7210703 9.47507636,13.7222506 9.47346687,13.7233954 C9.47151668,13.7247882 9.46949601,13.7261337 9.46744008,13.7274556 C9.46560738,13.728624 9.46375117,13.7297807 9.46184798,13.7308783 C9.46000352,13.7319642 9.45812383,13.7330146 9.45619713,13.7340297 C9.45605616,13.7341005 9.45589168,13.7341713 9.45573896,13.7342539 C9.45375352,13.7353043 9.45173285,13.7362958 9.44970042,13.7372636 C9.44849037,13.7378419 9.44733905,13.7384793 9.4461055,13.739034 C9.44609375,13.739034 9.44609375,13.739034 9.446082,13.7390458 C9.44574131,13.7391992 9.44537711,13.7393173 9.44503642,13.7394589 C9.44431978,13.7397658 9.4435679,13.7400136 9.44285127,13.7403205 C9.44100681,13.7410877 9.43916236,13.7418076 9.43729441,13.742504 C9.43573191,13.7431059 9.43420465,13.7437787 9.43260691,13.7443334 C9.43167881,13.7446403 9.43073896,13.7448527 9.42981086,13.7451714 C9.42969337,13.7452068 9.42957589,13.7452422 9.42944666,13.7452776 C9.42770794,13.7458323 9.42593398,13.7463516 9.42416001,13.7468592 C9.4223508,13.7473785 9.42060033,13.7479804 9.41876762,13.7484525 C9.41772204,13.7487122 9.41667646,13.7488656 9.41564262,13.7491135 C9.41386866,13.7495266 9.41208294,13.7498688 9.41030898,13.7502465 C9.40745418,13.7508131 9.40461114,13.7513678 9.4017446,13.7518045 C9.39990014,13.7520877 9.39805569,13.7522884 9.39621123,13.7525126 C9.39404958,13.7527723 9.39189967,13.7531146 9.38973802,13.7532916 C9.38908012,13.7533506 9.38839873,13.7533506 9.38774084,13.7534096 C9.38566142,13.7535631 9.38357025,13.7536221 9.38147909,13.7537047 C9.37924695,13.7537991 9.37702655,13.753929 9.37480616,13.7539408 C9.3745242,13.7539408 9.37425399,13.7539762 9.37396029,13.7539762 C9.37367834,13.7539762 9.37340813,13.7539408 9.37312617,13.7539408 C9.37091753,13.753929 9.36869713,13.7537991 9.36647674,13.7537047 C9.36437383,13.7536221 9.36228266,13.7535631 9.36019149,13.7534096 C9.3595336,13.7533506 9.35885221,13.7533506 9.35819431,13.7532916 C9.35604441,13.7531146 9.353918,13.7527723 9.35176809,13.7525244 C9.34990014,13.7522884 9.34803219,13.7520877 9.34617599,13.7518045 C9.34334469,13.7513678 9.34054864,13.7508249 9.33772909,13.7502583 C9.33589638,13.7498806 9.33405193,13.7495266 9.33223097,13.7491017 C9.33123238,13.7488538 9.33021029,13.7487122 9.32919995,13.7484525 C9.32739074,13.7479922 9.32564027,13.7473903 9.32384281,13.746871 C9.32202185,13.7463516 9.32021264,13.7458323 9.31841518,13.745254 C9.317957,13.7451006 9.31746358,13.7449825 9.3170054,13.7448291 C9.31646499,13.7446521 9.31591283,13.7445222 9.31538416,13.7443452 C9.31378642,13.7438023 9.31228266,13.7431413 9.31073191,13.7425512 C9.30879347,13.7418312 9.30689027,13.7410759 9.30499883,13.7402851 C9.30274319,13.7393409 9.30052279,13.7383494 9.29833764,13.7373108 C9.29622298,13.7363194 9.29414356,13.7352807 9.29209939,13.7342067 C9.29113604,13.7336992 9.29010221,13.7332625 9.28916236,13.7327314 C9.28815202,13.7321884 9.28725916,13.7315629 9.28627232,13.7309964 C9.28425164,13.7298161 9.28225446,13.7285886 9.28029253,13.7273257 C9.27836584,13.7260865 9.27647439,13.7248236 9.27464168,13.7235253 C9.27291471,13.722286 9.27123473,13.7210231 9.26957824,13.7197366 C9.26765155,13.7182377 9.26577185,13.7167033 9.26395089,13.7151336 C9.26252937,13.7138943 9.26114309,13.7126432 9.25976856,13.7113567 C9.25787711,13.7095745 9.25605616,13.7077687 9.25430569,13.7059157 C9.25313087,13.7046646 9.25197956,13.7034135 9.25085174,13.7021152 C9.24910127,13.7001088 9.24742129,13.6980787 9.24582354,13.6959896 C9.24527138,13.6952697 9.24463698,13.6946205 9.24409657,13.693877 C9.1364133,13.5476418 8.62095277,13.3576424 8.05802984,13.3908315 C7.57793116,13.4199251 6.92433623,13.6140555 6.53712993,14.3740769 C6.51279958,14.4217833 6.45644384,14.4504992 6.39706884,14.4505582 C6.37760221,14.4505582 6.35781837,14.4474659 6.33870418,14.4409036 C6.26137805,14.414442 6.22490014,14.3416667 6.25717223,14.2782864 C6.72728501,13.3555769 7.57326715,13.1708533 8.03569666,13.1428691 C8.34180569,13.1244097 8.63325305,13.159865 8.87736725,13.2258419 C8.278918,12.6458821 7.43127937,12.4743892 6.92125822,12.4250305 C5.81189497,12.3178032 4.61964873,12.6141329 4.01685268,13.1355396 C4.14935973,13.2405126 4.29239309,13.3310273 4.44419055,13.4028584 C4.45639685,13.4086417 4.46712289,13.4156879 4.47653313,13.4235485 C5.34293351,13.446009 6.33715343,13.269618 6.84287477,12.9123629 C6.37134046,12.8446155 5.83046875,12.8632047 5.13241894,13.1934318 C5.05986255,13.2278012 4.9670524,13.2073353 4.92520559,13.147897 C4.88333529,13.0884234 4.90817082,13.0124142 4.98071546,12.9780684 C5.90449366,12.5409209 6.60748943,12.6004182 7.17338463,12.7164857 C7.22259751,12.7265534 7.26241189,12.7561191 7.27948191,12.7952686 C7.29651668,12.8344298 7.28855146,12.8780171 7.2582648,12.911336 C6.61151903,13.6230963 4.63401668,13.8471583 3.48448661,13.5472877 C3.61715813,13.7330382 3.80544525,13.9322202 4.05448191,14.1158226 C4.44987664,14.3291441 5.23529723,14.1038428 5.67663886,13.8949355 C5.74918351,13.8607078 5.84194666,13.8810438 5.88384046,13.9404584 C5.92572251,13.9998849 5.90087523,14.0759531 5.82833059,14.1102989 C5.53435738,14.249417 5.06237664,14.4138991 4.61599507,14.4447749 C5.10894619,14.6706191 5.74530663,14.8197577 6.54316847,14.7952553 C6.62555804,14.79234 6.69729206,14.846172 6.70041706,14.9148282 C6.70355381,14.9834844 6.63823426,15.041164 6.55449366,15.0437606 C6.49301574,15.0456372 6.43240719,15.0465697 6.37267975,15.0465697 C5.24542411,15.0465697 4.42755522,14.717936 3.87377232,14.3158307 C3.86391565,14.3102834 3.85415296,14.3046181 3.84455475,14.2986696 C3.83058623,14.2900182 3.81910832,14.2797027 3.80992129,14.2683839 C3.4073602,13.960759 3.15437617,13.6169353 3.03165531,13.3466541 C3.00936913,13.2975432 3.02707354,13.2421886 3.07591048,13.2083621 C3.12477091,13.1745475 3.19434328,13.1694015 3.24967693,13.1956153 C3.41869713,13.275602 3.63586114,13.3343085 3.88107965,13.3723721 C3.26449131,12.9206366 2.84594102,12.2028097 2.75618539,11.499028 C2.75291941,11.4879099 2.75165061,11.4766148 2.75216753,11.4654258 C2.71644149,11.1483234 2.74787946,10.834986 2.85872298,10.5510963 C2.8770148,10.5042278 2.92730851,10.4705902 2.9870007,10.4653734 C3.04621123,10.4599206 3.1045054,10.4841869 3.13454535,10.5268064 C3.26648849,10.7141148 3.41711114,10.8731086 3.58091518,11.0077535 C3.4779664,10.7323735 3.41863839,10.4519656 3.3963757,10.1747326 C3.39473097,10.167592 3.39306273,10.1604513 3.39161772,10.1532399 C3.38879817,10.1391475 3.38913886,10.1252558 3.39195841,10.1119306 C3.33619008,9.18864276 3.6870242,8.30800982 4.19870183,7.77684227 C4.23662477,7.73737413 4.29977091,7.72074416 4.35879347,7.7341638 C4.41775728,7.74776048 4.46096687,7.78909344 4.46834469,7.83893614 C4.50402373,8.08010018 4.57580475,8.28913734 4.67634516,8.47329447 C4.67865954,8.42331015 4.68253642,8.37346745 4.68805804,8.32383721 C4.688293,8.3198479 4.68879817,8.31582319 4.6895148,8.31178668 C4.7145618,8.09665933 4.76912007,7.88537966 4.84785597,7.68091013 C4.84858435,7.67693263 4.8495242,7.67294333 4.85074601,7.66895402 C4.85356555,7.65979515 4.8576539,7.6511792 4.8626586,7.64309436 C5.21146029,6.77375659 5.99455475,6.0323362 6.79533012,5.65342314 C6.84745653,5.62872014 6.91256461,5.6316236 6.9610726,5.66095325 C7.00959234,5.69021208 7.0323602,5.74023181 7.01914356,5.78839852 C6.97561678,5.9467314 6.95405898,6.10338829 6.95109845,6.25725976 C7.14913651,5.99145173 7.41680569,5.74975657 7.69510691,5.49853665 C8.3204711,4.93399113 9.02927044,4.29409734 9.22373708,3.15382918 C9.22379582,3.1534633 9.2239133,3.15312102 9.22398379,3.15276694 C9.2245007,3.14992249 9.22520559,3.14712526 9.22595747,3.14433983 C9.22629817,3.14307694 9.22656837,3.14177865 9.22696781,3.14051576 C9.22780193,3.13778934 9.22884751,3.13512194 9.22991659,3.13246634 C9.23041001,3.13122706 9.23083294,3.12994057 9.2313851,3.12872489 C9.23259516,3.12599847 9.23399319,3.12335467 9.23542646,3.12071088 C9.23599037,3.11967224 9.23647204,3.11861 9.23707119,3.11759497 C9.23895089,3.11436104 9.24104206,3.11123333 9.2432507,3.10815283 C9.24347392,3.10784596 9.24365014,3.10752729 9.24387336,3.10722042 C9.26665296,3.07609677 9.30571546,3.05332941 9.35297815,3.04790018 C9.3564321,3.04751069 9.3598743,3.04735725 9.36331649,3.04716841 C9.36384516,3.047133 9.36435033,3.04707399 9.36487899,3.04705039 C9.36868539,3.04687334 9.37246828,3.04683794 9.37623943,3.04689695 C9.37784892,3.04690875 9.37945841,3.04689695 9.3810914,3.04695596 C9.38374648,3.04705039 9.38636631,3.04727464 9.38899789,3.04748708 C9.39099507,3.04764052 9.3929805,3.04768773 9.39497768,3.04790018 C9.3957883,3.0479946 9.39656367,3.04818344 9.39738604,3.04827786 C9.39883106,3.04846671 9.40024084,3.04873817 9.40167411,3.04895062 C9.40541001,3.04952895 9.40911067,3.05013088 9.41272909,3.05090986 C9.41298755,3.05096887 9.41324601,3.05105149 9.41350446,3.05111051 C9.44742129,3.0585934 9.47607495,3.07518796 9.49591753,3.09718815 C9.49604676,3.09735338 9.49616424,3.09750682 9.49629347,3.09764845 C9.49898379,3.10065813 9.50152138,3.10373863 9.50387101,3.10692535 C9.50461114,3.10792858 9.50523379,3.10899082 9.50593867,3.11000585 C9.50761866,3.1124372 9.50929864,3.11486855 9.5107789,3.11740613 C9.51156602,3.11873983 9.51220042,3.12013254 9.51292881,3.12148985 C9.51418586,3.12385039 9.51545465,3.12619912 9.51653548,3.12861867 C9.51712289,3.12996417 9.51759281,3.13136869 9.51813322,3.1327378 C9.51915531,3.13529898 9.52016565,3.13786016 9.52097627,3.14048035 C9.5213757,3.14177865 9.52165766,3.14310055 9.52199836,3.14439884 C9.52275023,3.14717247 9.52345512,3.1499343 9.52396029,3.15275514 C9.52403078,3.15312102 9.52416001,3.1534633 9.52421875,3.15382918 C9.71866189,4.29409734 10.4274847,4.93399113 11.0528489,5.49857205 C11.3311149,5.74978017 11.5987958,5.99147534 11.7968339,6.25725976 C11.7938734,6.1034001 11.7723273,5.9467314 11.7288005,5.78839852 C11.7155839,5.74023181 11.7383517,5.69021208 11.7868597,5.66095325 C11.8354265,5.6316236 11.9004523,5.62872014 11.9526257,5.65342314 C12.7533541,6.0323362 13.5364133,6.77370938 13.8852267,7.64302355 C13.8902432,7.65113198 13.8943433,7.65977154 13.8971746,7.66895402 C13.8984081,7.67296693 13.899348,7.67697984 13.9000764,7.68098095 C13.978683,7.88514361 14.0331826,8.0960928 14.0582766,8.31088967 C14.0582883,8.31092508 14.0583,8.31094869 14.0583,8.31097229 C14.0591107,8.31532748 14.0596158,8.31964726 14.0598625,8.32395523 C14.0653842,8.37355007 14.0692493,8.42334555 14.0715519,8.47330627 C14.1721041,8.28914915 14.2438969,8.08011198 14.2795759,7.83893614 C14.286942,7.78909344 14.3301516,7.74776048 14.3891036,7.7341638 C14.4481027,7.72062613 14.5112488,7.73743314 14.549207,7.77684227 C15.0608729,8.30799802 15.4116953,9.18858374 15.3559739,10.1118479 C15.3588052,10.1251968 15.3591577,10.1391239 15.3563264,10.1532399 C15.3548813,10.1604513 15.3532014,10.167592 15.3515566,10.1747444 C15.3292939,10.4519892 15.2699659,10.7323971 15.1670172,11.0078007 C15.3308212,10.873144 15.4814556,10.7141384 15.6134105,10.5268064 C15.6433682,10.4841869 15.7008047,10.4599206 15.7609434,10.4653734 C15.8206356,10.4705902 15.8709293,10.5042278 15.8892211,10.5510963 C16.0000411,10.8349388 16.0314791,11.1482172 15.9957766,11.4652488 C15.996317,11.4765321 15.9950364,11.4879335 15.9917234,11.4991461 M18.5435914,11.458899 C17.063434,6.35345155 11.0623179,1.71346622 9.36472627,0.0116740251 C7.66712289,1.71346622 1.66599507,6.35345155 0.185837641,11.458899 C0.0165237312,12.0429425 -0.0548343515,12.6962913 0.0470923402,13.3337892 C0.287235667,15.7164776 2.28987899,17.5760008 4.7248649,17.5760008 C6.97551104,17.5760008 8.88187852,15.9157894 9.34342693,13.7937748 C9.36311678,13.738078 9.37935268,13.7639612 9.38855146,13.7925001 C9.82251527,15.9508315 11.7207413,17.5760008 13.9970453,17.5760008 C16.0789063,17.5760008 17.8435797,16.2161911 18.4620359,14.3327793 C18.8621064,13.3951749 18.7970453,12.3331466 18.5435914,11.458899" id="Fill-9" fill="#585AFA" mask="url(#mask-2)"></path>
                </g>
                <path d="M14.427916,12.2608642 C14.4220851,12.2614078 14.4162659,12.261656 14.4105288,12.261656 C14.3345743,12.261656 14.2690379,12.2147879 14.2602035,12.151328 C14.2507356,12.0830112 14.3103824,12.0213122 14.3935171,12.0134772 C15.0001448,11.9565288 15.4926295,11.6911673 15.6841819,11.4488264 C15.7046547,11.2658564 15.7005601,11.0850726 15.6688361,10.9128802 C14.6581028,12.0305653 12.8174418,12.1130985 11.4811033,11.8218568 C11.4002329,11.804166 11.3520838,11.7360265 11.3735303,11.6695886 C11.3950238,11.6031626 11.4780882,11.5634677 11.5587826,11.5812175 C11.9318447,11.66251 13.49512,11.9473348 14.6969365,11.3249674 C14.8017759,11.1341624 14.8809921,10.9361488 14.9371544,10.7350981 C14.4848996,11.0503529 13.6698602,11.256036 12.4761624,11.3585172 C12.4708008,11.3589426 12.4654861,11.359179 12.46023,11.359179 C12.3836419,11.359179 12.3178709,11.31159 12.3097522,11.2476456 C12.3010468,11.1792815 12.3614445,11.118067 12.4446613,11.1108938 C14.0130989,10.9762455 14.8839486,10.6627869 15.0355175,10.1787904 C15.0658571,9.79761768 15.0233277,9.41938754 14.9251288,9.07184738 C14.7197558,9.30480529 14.4615055,9.52670204 14.1651606,9.72362846 C14.1371205,9.74230007 14.1034255,9.75135226 14.0700003,9.75135226 C14.0258166,9.75135226 13.9820671,9.7355523 13.9521029,9.70515775 C13.8995072,9.65167185 13.9095735,9.5733338 13.9746171,9.53010547 C14.3223493,9.29899109 14.6124174,9.03237701 14.8173915,8.75610805 C14.7331423,8.54719871 14.6282325,8.35445567 14.5070735,8.18534759 C14.2057307,9.21576061 13.234887,9.65203819 12.293327,10.0751984 C11.5630648,10.4033461 10.8733376,10.7133185 10.4913473,11.2843625 C10.4532527,11.3414291 10.3681235,11.3647214 10.2958293,11.3376712 C10.2237347,11.3106801 10.1890893,11.2425405 10.2164137,11.181456 C10.6462599,10.2198679 11.8627534,8.54693873 13.7364407,8.23784082 C13.7154752,8.10986937 13.6833053,7.983576 13.6414564,7.85965795 C12.7458868,8.06159498 12.0307945,8.39142074 11.4677755,8.86297349 C11.3963965,8.92970678 11.3222252,8.99667642 11.245203,9.06385877 C10.1471817,10.0217007 9.6622409,11.0482021 9.55114823,12.7800887 C10.5875869,10.9041234 13.0399087,10.0622346 14.5160839,9.97466711 C14.599113,9.97004648 14.6720524,10.0213461 14.6780593,10.0898993 C14.6841015,10.1584525 14.6213456,10.2180244 14.5379059,10.2229996 C13.0269329,10.3125997 10.7386279,11.2086125 9.80225357,12.9357367 C10.2982462,12.5289909 10.9778485,12.2716654 11.7877609,12.1931619 C12.9948686,12.0758262 14.2543257,12.3921446 14.92981,12.9684356 C15.2351066,12.6645965 15.465657,12.2810603 15.5908753,11.8839104 C15.2810266,12.0787333 14.859041,12.2203657 14.427916,12.2608642" id="Fill-12" fill="#585AFA"></path>
                <path d="M4.21209223,10.2230059 C4.12866398,10.2180308 4.065908,10.158459 4.07193839,10.089906 C4.07792186,10.021353 4.15043909,9.9706561 4.23392601,9.97466222 C5.71009347,10.0622413 8.16239852,10.9041164 9.19885177,12.7800537 C9.0877588,11.0481947 8.60280492,10.0217075 7.50480411,9.0638678 C7.42773475,8.99665015 7.35352807,8.92965703 7.28211367,8.86287663 C6.71910492,8.39137224 6.00402233,8.06154724 5.10852071,7.85965795 C5.06665992,7.98357572 5.03449001,8.10988061 5.01352442,8.23785176 C6.88724025,8.54693714 8.10374884,10.2198743 8.53358446,11.1814601 C8.5609324,11.2425445 8.52629871,11.3106839 8.4541921,11.3376749 C8.38210896,11.3646542 8.29683874,11.3413738 8.25865016,11.2843664 C7.87667052,10.7133237 7.18689446,10.403352 6.45668896,10.0752051 C5.51510294,9.65204586 4.54423314,9.21576929 4.24290121,8.18535865 C4.12174193,8.35445453 4.01683187,8.5471853 3.93259408,8.75610598 C4.13753358,9.0323743 4.42760252,9.29899958 4.77538256,9.53011343 C4.84042633,9.57332984 4.85049263,9.65167952 4.79789681,9.7051653 C4.76797949,9.73554796 4.72419461,9.7513597 4.67998737,9.7513597 C4.64657383,9.7513597 4.61291392,9.74230754 4.5848503,9.72363597 C4.28845766,9.52671 4.0302184,9.30481376 3.82485653,9.0718564 C3.72666907,9.41938393 3.68413954,9.79758956 3.71447923,10.1787614 C3.86601338,10.6627804 4.73684201,10.9762501 6.30534253,11.1108981 C6.38854787,11.1180713 6.44895739,11.1792739 6.44026377,11.2476496 C6.43212157,11.3115938 6.36637386,11.3591827 6.28978552,11.3591827 C6.28452946,11.3591827 6.279203,11.3589464 6.27384135,11.3585091 C5.08014032,11.25604 4.26509868,11.0503337 3.81283095,10.7350914 C3.86899338,10.9361417 3.94820975,11.134143 4.05303769,11.3249239 C5.25485746,11.9473017 6.81812538,11.662513 7.19120021,11.5812207 C7.27174233,11.5634 7.35498287,11.6031067 7.37644121,11.6695916 C7.39789956,11.7360293 7.34975027,11.8041569 7.26885619,11.8218476 C5.93271352,12.1130414 4.09194193,12.0306147 3.08115891,10.9128022 C3.04943482,11.0850297 3.04535199,11.2658485 3.06581309,11.4488299 C3.25736605,11.6911821 3.74985206,11.9565311 4.35648143,12.0134794 C4.43961638,12.0213144 4.4992633,12.0830133 4.48980708,12.1513299 C4.48096094,12.2147778 4.41542441,12.2616576 4.33944616,12.2616576 C4.3337208,12.2616576 4.32792505,12.2614095 4.32208238,12.2608659 C3.89095621,12.2203675 3.46895776,12.0787353 3.15911992,11.8838892 C3.28433857,12.2810737 3.51487791,12.664609 3.82017535,12.9684356 C4.49563803,12.3921814 5.75538008,12.0760528 6.96212741,12.1931519 C7.77212416,12.2716788 8.45177525,12.5290156 8.94779267,12.935784 C8.01141578,11.2086284 5.72309283,10.3126058 4.21209223,10.2230059" id="Fill-14" fill="#585AFA"></path>
            </g>
        </g>
    </g>
</svg>